<svg xmlns="http://www.w3.org/2000/svg" width="310" height="110" viewBox="0 0 310 110">
  <path fill="#F7F7EF" fill-rule="evenodd" d="M212.259266,36.2190443 C212.082398,36.0008464 211.698626,35.9269948 211.40162,36.0538853 L205.774528,38.4567481 C205.477522,38.5829672 205.380077,38.8629319 205.556946,39.0811299 L208.904769,43.2127917 C209.08097,43.4303182 209.465409,43.5048412 209.761748,43.3779507 L215.389508,40.9750879 C215.685846,40.8488688 215.783291,40.5689041 215.607089,40.3507062 L212.259266,36.2190443 Z M221.451096,38.4916597 L217.337732,33.4146973 C215.585732,31.2521879 211.741342,30.5116577 208.796646,31.7691492 L201.881415,34.7218708 C198.936719,35.9793623 197.960271,38.7776669 199.712272,40.9401763 L203.826303,46.0171387 C205.578304,48.1796481 209.422694,48.9201783 212.36739,47.6626868 L219.281953,44.7099652 C222.227316,43.4524737 223.203765,40.6534978 221.451096,38.4916597 L221.451096,38.4916597 Z M198.766525,47.3478104 L194.558386,42.3084452 L187.946169,34.3848389 C187.77197,34.1760403 187.404884,34.1042028 187.11255,34.2183371 C187.030456,34.2492205 186.945025,34.2834608 186.851585,34.3244149 C185.292472,34.9978073 182.250331,36.8877371 185.320504,40.5675613 L185.640202,40.9509183 L179.155463,43.7525798 C176.224783,45.0181278 175.280372,47.7969625 177.057067,49.9259029 L181.22783,54.9243141 C183.004525,57.0532546 186.856925,57.7595445 189.787605,56.4933251 L196.668129,53.5211335 C199.598809,52.2555855 200.543221,49.4774223 198.766525,47.3478104 L198.766525,47.3478104 Z M175.832335,54.9739961 L171.718971,49.8977051 C169.966303,47.7345243 166.12258,46.9939941 163.175215,48.2528283 L156.262654,51.2042072 C153.317291,52.4616986 152.340842,55.2606746 154.09351,57.423184 L158.206874,62.5001464 C159.958875,64.6626558 163.803265,65.403186 166.748629,64.1456946 L173.660522,61.1936443 C176.608555,59.9354815 177.584336,57.1365055 175.832335,54.9739961 L175.832335,54.9739961 Z M151.595324,64.0060479 C151.561285,63.963751 151.483864,63.9489807 151.426465,63.9731503 L145.533736,66.4894761 L141.393007,68.2578864 L139.903306,68.8936816 C139.609637,69.0192294 139.225198,68.9453778 139.050332,68.729194 L135.700506,64.595518 C135.52564,64.3793342 135.623085,64.1000408 135.917421,63.9744931 L137.407122,63.3380265 L141.547183,61.5702875 L147.546701,59.0089795 L147.483295,58.9310996 C145.72996,56.7665761 141.885569,56.0260458 138.938204,57.2848801 L132.025643,60.2362589 C129.080947,61.4937504 128.104499,64.2927264 129.857834,66.4572499 L133.969863,71.5321982 C135.722532,73.6940362 139.566254,74.4345664 142.511618,73.1770749 L149.423511,70.2256961 C152.371544,68.9668619 153.347992,66.1685573 151.595324,64.0060479 L151.595324,64.0060479 Z M129.9446,49.9299312 L125.831236,44.8536402 C124.079235,42.6911308 120.235513,41.9506006 117.289482,43.208092 L110.377589,46.1594709 C107.430223,47.4183051 106.453775,50.2166097 108.205775,52.3791191 L112.319807,57.4560815 C114.071807,59.6185909 117.91553,60.3591211 120.863563,59.1002869 L127.775456,56.1489081 C130.72082,54.8914166 131.697268,52.093112 129.9446,49.9299312 L129.9446,49.9299312 Z M130.838955,43.0355478 L134.951651,48.1104961 C136.703652,50.2730055 140.548042,51.0135357 143.492738,49.7560442 L150.405299,46.8046654 C153.352664,45.5458312 154.329113,42.7475266 152.577112,40.5850172 L148.423702,35.4671007 L141.902923,27.4192894 C141.732061,27.209148 141.367645,27.1312682 141.071306,27.2460738 C140.99255,27.2769572 140.904449,27.3125403 140.813011,27.3514802 C139.245888,28.020173 136.177718,29.9067459 139.207845,33.6456514 L139.522204,34.0337081 L133.006764,36.8152282 C130.062068,38.0727197 129.085619,40.8716957 130.838955,43.0355478 L130.838955,43.0355478 Z M155.338933,36.2056168 L159.452297,41.2825792 C161.204965,43.4450886 165.048687,44.1856188 167.994051,42.9281273 L174.908614,39.9754057 C177.853977,38.7179142 178.830426,35.9196096 177.078425,33.7571002 L172.964393,28.6801378 C171.212393,26.5176284 167.368003,25.7770982 164.423307,27.0345897 L157.508076,29.9873113 C154.562713,31.2448028 153.586264,34.0431074 155.338933,36.2056168 L155.338933,36.2056168 Z M103.234098,53.2163278 L100.589077,49.9520867 C100.412209,49.7338888 100.031774,49.6607085 99.7354359,49.7869276 L93.1118721,52.6154443 C87.3853327,55.0606039 90.7404975,58.7102161 90.9166987,58.9022303 L97.8379357,67.444176 C98.0101324,67.6563315 98.3772183,67.7328686 98.6715544,67.6194057 C98.7523133,67.5871795 98.8384116,67.5529392 98.932519,67.5126565 C100.498975,66.8439638 103.56314,64.9567195 100.534348,61.2191567 L97.0477,56.915622 C96.8714988,56.6980955 96.9702783,56.4201449 97.2666167,56.2932544 L103.017184,53.8380241 C103.314189,53.7111336 103.408964,53.4325116 103.234098,53.2163278 L103.234098,53.2163278 Z M226.999081,40.955618 C226.999081,40.8938512 226.869284,51.5452673 226.809215,52.1421226 C226.598308,54.2583069 225.314175,56.0569292 223.616236,57.2654101 C222.693181,57.9220181 221.67869,58.3725129 220.64551,58.8136084 C218.682602,59.6521598 216.719693,60.4900399 214.756785,61.32792 C211.410297,62.7572843 207.529866,62.8593338 204.115967,61.5857292 C203.631414,64.316896 201.374837,66.2652357 198.952738,67.325342 C196.899059,68.2236461 194.838039,69.1031516 192.780356,69.9913851 C191.371413,70.5996538 189.943783,71.0911027 188.410699,71.2844596 C185.857116,71.6060498 183.180727,71.2837882 180.814691,70.2471802 C179.954376,72.5090536 177.931399,74.0545663 175.778273,74.9756973 C173.601121,75.906899 171.422633,76.8354151 169.244813,77.765274 C165.368386,79.4202214 160.724416,79.4027656 156.972131,77.381917 C156.950773,77.9055921 156.858668,78.4346381 156.69982,78.9348149 C155.987673,81.1738614 154.109529,82.8012823 152.051178,83.7794805 C151.288307,84.1426961 150.498071,84.4528729 149.721852,84.7845337 C148.506464,85.3035091 147.291076,85.8224845 146.075688,86.3414599 C145.172657,86.726831 144.277634,87.1357004 143.334558,87.4143224 C139.084371,88.6704711 133.76563,87.9561246 130.48188,84.7845337 C129.765062,84.0923427 129.164376,83.2618478 128.538328,82.4884201 C127.736746,81.4988085 126.934496,80.509197 126.132914,79.5195854 C125.187167,78.35273 124.374906,77.1301502 124.188026,75.5906798 C124.060547,74.5346018 124.167336,73.4268277 124.183354,72.36605 C123.54863,72.6372868 122.919244,72.9212798 122.267834,73.1488771 C120.716729,73.6906793 119.187649,74.2841777 117.653898,74.8776761 C114.781952,75.9881357 111.910005,77.0985954 109.038059,78.2083836 C106.64199,79.135557 104.24592,80.062059 101.849851,80.988561 C101.383985,81.1684904 100.921457,81.3652042 100.447583,81.5229781 C98.3044685,82.2373246 95.5913703,81.8908934 93.9388165,80.2527305 C93.3448048,79.6639317 92.85024,78.9442142 92.3249735,78.2956628 C91.3511948,77.0945671 90.3780836,75.8928 89.4043049,74.6917043 C88.6207435,73.7242482 87.837182,72.7567922 87.0529531,71.7900075 C86.2527059,70.8017387 85.5398919,69.7886289 85.2028404,68.5344943 C84.9265248,67.5066141 85.0072837,66.4404655 85.023302,65.3877443 C85.0459946,63.8885567 85.0686872,62.389369 85.0913798,60.8908527 C85.1120701,59.5460821 85.1320929,58.2019828 85.1527832,56.8578835 C85.1561204,56.6229011 85.1581226,56.3879187 85.1634621,56.1529363 C85.1821501,55.2318054 85.4344382,54.3395436 85.8842852,53.5385894 C87.4841121,50.6919455 90.8119123,49.6271396 93.6344689,48.4213443 C94.8218248,47.9144537 96.0091807,47.4082345 97.1965366,46.9006725 C99.1527706,46.0661493 101.516804,46.0943472 103.372923,47.1960789 C104.356046,45.3061491 106.138748,44.0016611 108.054936,43.1812369 C110.10995,42.3003886 112.167633,41.42424 114.223981,40.5467486 C115.537481,39.9861478 116.862995,39.526925 118.285286,39.3255115 C120.637972,38.9931793 123.093443,39.2274903 125.327327,40.0512715 C125.467487,38.7608824 126.040809,37.5557584 126.862414,36.5648041 C127.702039,35.5516943 128.785276,34.7608107 129.954612,34.1746975 C130.628715,33.8363229 131.336857,33.5603864 132.030315,33.2643086 C132.36403,33.1219764 132.697744,32.9789728 133.031458,32.8366406 C133.227683,32.7527184 133.212999,32.7668173 133.216336,32.5492907 C133.22568,31.924909 133.239696,31.1675943 133.247038,30.6123645 C133.277072,27.9926465 135.267345,26.023494 137.433819,24.8734231 C139.301952,23.881126 141.364308,23.4474156 143.42466,24.095967 C144.325689,24.3792887 145.18734,24.8640238 145.817393,25.5817271 C146.004273,25.7952254 146.177804,26.0214799 146.356675,26.2423633 C147.704214,27.9053673 149.051753,29.5683713 150.399959,31.2320466 C150.574158,30.8654741 150.782396,30.515686 151.017331,30.1853679 C152.039832,28.7472756 153.529533,27.7214097 155.130695,27.0319042 C155.768757,26.7566391 156.408821,26.4860736 157.048218,26.2128227 C158.709448,25.5038472 160.368676,24.7888294 162.032576,24.0845536 C165.269606,22.7156133 169.064607,22.6518324 172.36571,23.8408433 C173.894122,24.3907021 175.34311,25.2292535 176.483078,26.4028227 C177.006342,26.9419395 177.461529,27.5562506 177.934069,28.1390069 C178.67091,29.0480531 179.407084,29.9570993 180.143925,30.8661454 C180.703231,31.5569937 181.312593,32.2357571 181.760438,33.0071707 C183.028553,31.9732482 184.655077,31.1132126 186.281601,30.8641313 C188.45208,30.5317991 190.705987,31.1776649 192.134952,32.8903509 C193.005947,33.9343441 193.876941,34.9783373 194.747936,36.0223305 C194.91813,35.6564293 195.121696,35.3066413 195.351959,34.9763232 C196.371123,33.5120472 197.878177,32.4673826 199.495357,31.770492 C200.093374,31.5120113 200.693392,31.2582303 201.292743,31.0024352 C202.992017,30.2766753 204.689288,29.5468871 206.390565,28.8258269 C209.464074,27.5233531 213.024807,27.4011622 216.203771,28.3954734 C217.743529,28.8761803 219.219214,29.6355091 220.425258,30.7217991 C221.035956,31.2723293 221.534525,31.9202093 222.050447,32.5566759 C223.189749,33.9632134 224.329717,35.3697508 225.469018,36.7762883 C226.425444,37.9552285 227.026797,39.4195045 226.999081,40.955618 L226.999081,40.955618 Z M189.54733,45.16046 C189.370462,44.9476331 188.984688,44.8771384 188.690352,45.0047003 L183.089956,47.4236762 C182.794953,47.551238 182.700845,47.8285172 182.878381,48.0413442 L186.274259,52.1112392 C186.451795,52.3240661 186.836902,52.3945608 187.131905,52.2669989 L192.731633,49.8480231 C193.026637,49.7204612 193.121412,49.4425106 192.943876,49.2303551 L189.54733,45.16046 Z M140.031452,45.3081632 C140.206319,45.5236757 140.590758,45.5981987 140.885094,45.4726509 L146.514856,43.0684454 C146.809192,42.9428976 146.906637,42.6629329 146.73177,42.4467491 L143.381945,38.3137445 C143.207746,38.0975607 142.82264,38.0237091 142.528971,38.1492568 L136.898541,40.5534624 C136.604873,40.6783387 136.50676,40.9583035 136.682294,41.1744873 L140.031452,45.3081632 Z M164.53143,38.4782322 C164.707631,38.6957587 165.094073,38.768939 165.388409,38.6433912 L171.016169,36.2405284 C171.312507,36.1136379 171.409952,35.8336732 171.23375,35.6161466 L167.885927,31.4844848 C167.709059,31.2669583 167.325287,31.1924353 167.028281,31.3193258 L161.400521,33.7221886 C161.106853,33.8477363 161.006738,34.1283724 161.18294,34.345899 L164.53143,38.4782322 Z M166.637835,52.7027234 C166.460967,52.4851969 166.077195,52.4113453 165.782859,52.536893 L160.153097,54.9404272 C159.858761,55.0659749 159.761316,55.3459397 159.937517,55.5634662 L163.286008,59.6957994 C163.462209,59.913326 163.845981,59.9871776 164.140317,59.8616299 L169.770746,57.4580957 C170.064415,57.3325479 170.16186,57.0525832 169.985659,56.8350566 L166.637835,52.7027234 Z M124.101261,51.789649 C124.27546,52.0058328 124.178015,52.2857975 123.883679,52.4113453 L118.253917,54.8148795 C117.95958,54.9404272 117.575141,54.8665756 117.400942,54.6510632 L114.051117,50.5167158 C113.876251,50.3012034 113.973695,50.0212387 114.268032,49.8956909 L119.897794,47.4921567 C120.19213,47.3659376 120.576569,47.4397892 120.751435,47.655973 L124.101261,51.789649 Z"/>
</svg>
