<svg xmlns="http://www.w3.org/2000/svg" width="310" height="110" viewBox="0 0 310 110">
  <path fill="#F7F7EF" fill-rule="evenodd" d="M92.5571531,57.557745 C92.814779,57.557745 93.0725836,57.4599865 93.2701801,57.2644694 L99.5064418,51.0978028 C99.905744,50.7030087 99.9100318,50.0586259 99.516268,49.6588185 C99.1221468,49.258474 98.4789754,49.254535 98.0803878,49.6491501 L91.8441261,55.8158166 C91.4448239,56.2106107 91.440536,56.8548145 91.8342999,57.2548009 C92.0329684,57.4565846 92.2950608,57.557745 92.5571531,57.557745 L92.5571531,57.557745 Z M82.5772764,65.1274078 C82.0080697,64.7438935 81.3895532,64.4694176 80.7388781,64.3111419 C80.4460564,64.239882 80.1725299,64.1944046 79.9266955,64.176142 C79.6410202,64.1548356 79.3857169,64.2105186 79.1686465,64.3430119 C78.8831499,64.5177598 78.7050271,64.7899081 78.6394594,65.1513999 C78.5751422,65.5028651 78.6278465,65.8215652 78.796679,66.0985477 C78.8724303,66.223163 78.9794469,66.3441974 79.1136196,66.4577119 C79.2688741,66.589489 79.4861231,66.6673736 79.7826966,66.6958417 C80.2216611,66.7291441 80.6259658,66.8333482 80.9847125,67.0055895 C81.3270226,67.1699528 81.5796461,67.3830163 81.7352578,67.6390506 C81.8874751,67.8889973 81.9600105,68.1550581 81.956616,68.4526309 C81.9534001,68.751815 81.8788995,69.0433002 81.7349005,69.3188504 C81.5939388,69.5886711 81.3811562,69.8115821 81.1031632,69.9816748 C80.7810416,70.1782662 80.3595856,70.2910645 79.8502296,70.3166679 C79.3210424,70.3431666 78.7470119,70.2953616 78.1468972,70.1746853 L72.5277228,69.0057007 C72.1600432,68.9274581 71.8171971,68.982783 71.5082961,69.1716754 C71.1990379,69.3603888 70.9985828,69.6151698 70.9126479,69.9283194 C70.8240332,70.2475566 70.8792387,70.5743136 71.0768353,70.8992802 L74.0834831,75.8414583 C74.1099246,75.9252513 74.1451203,76.007612 74.1910356,76.0865708 C74.5487104,76.7032017 75.3376674,78.5797719 74.7032502,79.8413227 C74.121716,80.9977741 72.4140959,81.4170974 71.0841603,81.5651676 C70.4150834,81.6396503 69.9332408,82.2433899 70.0075628,82.9135552 C70.0768824,83.538064 70.6044616,84 71.2170824,84 C71.2621044,84 71.3074837,83.9974934 71.3530417,83.9924801 C74.1663807,83.6791514 76.027826,82.6478525 76.8859239,80.9270513 C77.95073,78.7922983 77.0222405,76.3395614 76.5386113,75.3240183 C76.5130631,75.1619827 76.4541058,75.0037069 76.3604886,74.8500863 L74.7241533,72.1602939 L77.4424459,72.7284036 C78.0609624,72.8519446 78.6775137,72.925174 79.2749485,72.9457641 C79.8791723,72.9667124 80.4692821,72.9187283 81.0284839,72.8021701 C81.5957254,72.6836423 82.1118704,72.4840072 82.5628051,72.2082779 C83.2299168,71.8009507 83.7465978,71.2815412 84.0985555,70.6649104 C84.4522998,70.0448777 84.6211323,69.3657602 84.6011225,68.6461785 C84.5805768,67.9283872 84.3449259,67.1941238 83.9006016,66.4637994 C83.5968818,65.964443 83.1516643,65.5148611 82.5772764,65.1274078 L82.5772764,65.1274078 Z M108.677888,40.0095484 C108.426515,39.7794757 108.152274,39.6398206 107.838906,39.5825262 C107.527147,39.5257689 107.208956,39.5517305 106.894338,39.6600527 C106.579005,39.768912 106.290292,39.9655034 106.036061,40.2444554 C105.789333,40.5151714 105.62193,40.8197269 105.538496,41.1489906 C105.455599,41.4764638 105.456671,41.7976704 105.541355,42.1036583 C105.626218,42.4107204 105.789869,42.672126 106.041599,42.9023779 C106.289935,43.129765 106.572037,43.2735381 106.880402,43.3294001 C107.191804,43.3861573 107.511246,43.3580473 107.829259,43.2457861 C108.149236,43.1333459 108.43652,42.938724 108.683605,42.6676499 C108.937836,42.3885188 109.107205,42.0823519 109.186529,41.7581015 C109.265675,41.4342092 109.262995,41.114793 109.178132,40.808268 C109.094341,40.505503 108.926223,40.2367565 108.677888,40.0095484 L108.677888,40.0095484 Z M103.29758,43.1426562 C103.083368,42.5598648 102.998863,41.9475311 103.046743,41.3226642 C103.09373,40.7056752 103.249342,40.0928043 103.509648,39.5010607 C103.769239,38.9111076 104.121911,38.3693175 104.558375,37.8905513 C104.839584,37.5818778 105.216911,37.2366791 105.679816,36.8648027 C106.143078,36.4927473 106.686557,36.1402078 107.295069,35.8175688 C107.907511,35.4929603 108.583913,35.241044 109.305694,35.0693399 C110.0323,34.8960244 110.811788,34.8448175 111.623434,34.9175097 C112.43919,34.9905601 113.292107,35.2514286 114.157708,35.6929535 C114.310461,35.7756722 114.441597,35.8677014 114.552901,35.9695779 C114.79016,36.1869385 114.950596,36.4495975 115.029027,36.7507511 C115.117106,37.0902203 115.001692,37.4377466 114.685645,37.7843777 C114.468396,38.0230446 114.195584,38.1619835 113.87507,38.1974344 C113.568492,38.2309158 113.255482,38.1712938 112.946402,38.0189266 C112.583903,37.8418511 112.180135,37.7041655 111.747066,37.610346 C111.316141,37.5167054 110.865385,37.4787479 110.406411,37.4937877 C110.034086,37.5077532 109.660511,37.5639733 109.293188,37.6613738 C109.313734,37.6671032 109.33428,37.6728326 109.354826,37.6789202 C109.767527,37.7994174 110.169152,38.036831 110.548981,38.3845364 C110.918983,38.7234685 111.211983,39.1495955 111.419763,39.6516375 C111.625042,40.1468759 111.741885,40.6822203 111.767254,41.2433472 C111.792624,41.8050113 111.712228,42.3722257 111.528566,42.9286975 C111.342404,43.4905405 111.040828,44.0026091 110.632057,44.4511168 C110.08679,45.049306 109.432363,45.467376 108.686463,45.6936888 C108.248928,45.8267192 107.806212,45.893503 107.362423,45.893503 C107.052451,45.893503 106.741942,45.8609168 106.432683,45.7959235 C105.678029,45.6372896 104.988585,45.2759769 104.38311,44.7221908 C103.878578,44.2604339 103.5134,43.7292075 103.29758,43.1426562 L103.29758,43.1426562 Z M87.5999093,50.4720407 L94.3499935,42.1437644 L90.9279642,42.042962 C87.1007368,42.046722 83.4930811,43.5464026 80.7797909,46.2657374 L77.1210388,49.9323992 L87.5999093,50.4720407 Z M120.006459,34.2271124 C120.413622,32.5560858 120.665174,30.836538 120.750751,29.088343 L120.772548,28.6439534 L119.893725,28.7001735 C118.259534,28.8047358 116.648568,29.0582634 115.078337,29.45073 C116.649283,30.303163 118.581298,31.7698993 120.006459,34.2271124 L120.006459,34.2271124 Z M90.4323648,57.2440582 L91.8019627,58.6257482 C92.807454,59.548725 93.9144235,60.376987 95.0848168,61.0808127 L110.26795,49.2731556 C114.486262,45.9926939 117.593494,41.5906945 119.296112,36.642966 C117.551867,32.2649587 114.019962,30.6780832 112.593015,30.2009284 C107.909655,31.8594218 103.70921,34.7866279 100.530335,38.7089658 L88.0808586,54.0688749 C88.755474,55.1930982 89.5458602,56.2603852 90.4323648,57.2440582 L90.4323648,57.2440582 Z M87.6508271,64.3702267 C87.7117497,64.6831973 87.8561059,64.9539133 88.0919355,65.1975935 C88.4315657,65.5487006 88.8501631,65.7087668 89.3664868,65.6878186 C89.89621,65.6663332 90.3566135,65.4588201 90.773603,65.0532832 C91.1907711,64.6479254 91.411772,64.1933303 91.4496476,63.6631782 C91.48663,63.145022 91.3394152,62.7224759 90.9996063,62.3715478 C90.7637768,62.1276886 90.4982899,61.9749632 90.187781,61.9042405 C90.0580748,61.8748771 89.9258673,61.8600164 89.7920519,61.8600164 C89.6046389,61.8600164 89.4134741,61.8890216 89.22088,61.9470322 C88.8878601,62.0471183 88.5791378,62.2335041 88.3038247,62.5009973 C88.028333,62.7688486 87.8328803,63.0723298 87.7228265,63.4028468 C87.6124154,63.7344381 87.5888325,64.0508105 87.6508271,64.3702267 L87.6508271,64.3702267 Z M87.1562997,59.2289507 C87.0923399,58.9589509 86.9499489,58.7082879 86.7328785,58.4837655 C86.4107568,58.150921 86.0409332,57.9890643 85.6026834,57.9890643 L85.5978596,57.9890643 C85.153714,57.9908548 84.7692404,58.155039 84.4233571,58.4912854 C84.0674689,58.8372003 83.8872022,59.2216098 83.8721949,59.6665366 C83.8571876,60.1075243 84.0070823,60.4844139 84.3306332,60.8186909 C84.5478822,61.0430342 84.7933593,61.193432 85.0606328,61.265408 C85.333802,61.3398908 85.6055419,61.3397117 85.8912172,61.2655871 C86.1726047,61.1928948 86.4341611,61.0401695 86.6689187,60.8118872 C86.9061775,60.5812773 87.0594667,60.3341952 87.1373619,60.0563174 C87.2156144,59.7768282 87.2218674,59.5059332 87.1562997,59.2289507 L87.1562997,59.2289507 Z M98.6987256,61.6143667 L99.2363098,72.096912 L102.895062,68.4302502 C105.612283,65.7073345 107.108549,62.0868663 107.108549,58.2359673 L107.108549,55.0743914 L98.6987256,61.6143667 Z M122.633278,26.7512691 C123.161394,27.2730061 123.443496,27.9977801 123.407228,28.7399215 L123.383824,29.2177925 C123.232142,32.3209997 122.601299,35.3409511 121.544353,38.1865126 C121.544353,38.1868707 121.544532,38.1868707 121.544532,38.1872288 L121.543996,38.1872288 C119.630918,43.337099 116.31662,47.9133092 111.883919,51.3606408 L109.744659,53.0243266 L109.744659,58.2361464 C109.744659,62.7926616 107.974151,67.0764913 104.759187,70.2984054 L99.0040534,76.0659807 C98.7550031,76.3155693 98.4239485,76.4528968 98.0716335,76.4528968 C97.910126,76.4528968 97.7511197,76.4233544 97.5994385,76.3649857 C97.1134867,76.1778838 96.7822534,75.7204239 96.7556333,75.1997611 L96.1601637,63.5886955 L96.0047306,63.7095508 C95.6018552,64.0227004 95.0154972,64.0708635 94.5667065,63.8262881 C94.4770198,63.7772298 94.3848319,63.7251277 94.2928227,63.6732047 C94.2631653,64.0649551 94.1870567,64.4584959 94.0627102,64.8513205 C93.8059776,65.6620361 93.3436088,66.3955833 92.6886459,67.0320881 C92.0338617,67.668772 91.2879615,68.1094017 90.4713124,68.3419811 C90.0026906,68.4755486 89.5351407,68.5423324 89.0725932,68.5423324 C88.7301045,68.5423324 88.3904742,68.5056282 88.0554891,68.4322197 C87.2595644,68.258188 86.5683338,67.8723461 86.0009137,67.2859739 C85.5401528,66.8098933 85.2371476,66.2894096 85.100831,65.7386673 C84.9680876,65.2015325 84.9382516,64.6609957 85.011859,64.1312017 C85.0266876,64.0244909 85.0429456,63.9192125 85.0611688,63.8155454 C84.9738046,63.8295109 84.8850113,63.8413279 84.7949673,63.8504592 C84.3597546,63.8959366 83.9107852,63.8422231 83.4605652,63.6911092 C83.0060574,63.5382048 82.5765618,63.2551347 82.1836913,62.8494188 C81.626812,62.2739683 81.2659214,61.5977155 81.1104883,60.8396391 C80.9563058,60.0874713 80.9984692,59.3184731 81.2353707,58.5537721 C81.4726295,57.7896082 81.9008745,57.1027918 82.5083142,56.5124805 C83.1261161,55.9121428 83.825029,55.5039203 84.5857579,55.2992719 C84.9407528,55.2038409 85.2964623,55.1517388 85.6510999,55.1395638 C85.5410461,54.9503132 85.4336722,54.7599885 85.3305861,54.5700217 C85.0740322,54.0978802 85.1269152,53.5231459 85.4654735,53.1059711 L85.5417607,53.0112563 L74.0250617,52.4182594 C73.5055221,52.3915817 73.049049,52.0599904 72.8623506,51.5731672 C72.6756523,51.086344 72.7928524,50.5338112 73.1607107,50.1649786 L78.9158444,44.3974033 C82.1309869,41.1754892 86.405397,39.4011536 90.9520831,39.4011536 L90.9931746,39.4018698 L96.4424445,39.5621151 L98.4839778,37.0433106 C103.710282,30.5948273 111.452458,26.5929934 119.725429,26.0635574 L120.637839,26.0051887 C121.376772,25.958458 122.10427,26.2289949 122.6331,26.7512691 L122.633278,26.7512691 Z M241.550673,66.2211935 C241.255886,65.6951594 240.862837,65.259543 240.382781,64.9259823 C239.921127,64.6058499 239.408019,64.3440861 238.857036,64.1480319 C238.327848,63.9600347 237.798661,63.7947762 237.286447,63.6576278 C236.805497,63.5247764 236.345987,63.3854794 235.920601,63.2431387 C235.536484,63.1151215 235.230978,62.9504002 235.012657,62.7536298 C234.832212,62.5906988 234.744312,62.3695783 234.744312,62.077735 C234.744312,61.7574236 234.816847,61.5305736 234.959774,61.4038098 C235.135753,61.2480407 235.337101,61.1490288 235.575789,61.1010448 C235.848601,61.046257 236.103726,61.0186841 236.334017,61.0186841 C236.90769,61.0186841 237.419547,61.1196654 237.855117,61.3185844 C238.284077,61.5148177 238.629424,61.7799833 238.882405,62.1072775 L238.920281,62.1489949 C239.196487,62.4046711 239.547016,62.5502347 239.961683,62.5812095 C240.386176,62.6134376 240.765111,62.4990278 241.087947,62.2395917 C241.645005,61.7878612 241.725044,61.3040818 241.693958,60.9776828 C241.654117,60.5612242 241.521731,60.1966887 241.294298,59.8864038 C240.911432,59.3929559 240.431019,58.9901047 239.866993,58.6891301 C239.317618,58.3963916 238.733761,58.1804634 238.13186,58.0472539 C237.535854,57.9154768 236.956464,57.8486931 236.410126,57.8486931 C235.5397,57.8486931 234.696967,58.0203972 233.904973,58.3589712 C233.103689,58.7020213 232.440686,59.1976178 231.934367,59.831795 C231.413934,60.4842349 231.149877,61.2825964 231.149877,62.204857 C231.149877,63.0089479 231.310848,63.6912882 231.62761,64.232183 C231.940442,64.7678856 232.352429,65.203502 232.85178,65.5275733 C233.329692,65.8383954 233.863167,66.0946087 234.436661,66.2888725 C234.981213,66.474005 235.528087,66.6466043 236.068887,66.8039849 C236.566631,66.9371943 237.021853,67.0795351 237.422406,67.2268891 C237.795624,67.3642165 238.097557,67.5316236 238.319273,67.7240969 C238.499361,67.8804032 238.583152,68.0818287 238.583152,68.357558 C238.583152,68.6981015 238.504363,68.9435721 238.34893,69.0877033 C238.16652,69.257438 237.959275,69.3628954 237.715228,69.4103423 C237.430624,69.4660253 237.167103,69.5023715 236.93163,69.5184855 C236.181085,69.5172322 235.5531,69.3924379 235.064289,69.1471463 C234.558328,68.8941557 234.067374,68.5306945 233.604648,68.0666099 C233.259836,67.7215903 232.890013,67.5303703 232.505896,67.4985003 C232.129284,67.465735 231.768393,67.5566899 231.432693,67.7668887 C230.91369,68.0999123 230.639449,68.5158337 230.617474,69.0031941 C230.597107,69.4524179 230.695012,69.8319932 230.908687,70.1313564 L230.913154,70.1374439 C231.610816,71.0699101 232.501073,71.7293327 233.559268,72.0974491 C234.588521,72.4558971 235.633139,72.6376278 236.663821,72.6376278 C237.499051,72.6376278 238.32767,72.4707579 239.126632,72.1416732 C239.93542,71.8084705 240.619683,71.3098303 241.160304,70.659539 C241.717541,69.9897318 242,69.1723916 242,68.2304361 C242,67.429926 241.848855,66.7536732 241.550673,66.2211935 L241.550673,66.2211935 Z M229.40849,58.3591502 C229.000969,58.0203972 228.49733,57.8486931 227.91133,57.8486931 C227.463075,57.8486931 227.009639,57.9033018 226.563886,58.0105497 C226.112236,58.11923 225.68149,58.2891437 225.283081,58.5159936 C224.883064,58.7439179 224.519494,59.0298527 224.202553,59.3659201 C224.188439,59.3807808 224.174682,59.3956415 224.160926,59.4106813 C224.077135,59.1254627 223.927776,58.8710398 223.714279,58.6504564 C223.361428,58.2869951 222.912816,58.1029369 222.38077,58.1029369 C221.848367,58.1029369 221.399755,58.2871742 221.046904,58.6506354 C220.697448,59.011232 220.520218,59.4631415 220.520218,59.9931146 L220.520218,70.4932063 C220.520218,71.0237165 220.697448,71.4754469 221.046904,71.8353273 C221.39904,72.1987886 221.847831,72.3833839 222.38077,72.3833839 C222.913352,72.3833839 223.361964,72.1989676 223.714458,71.8355063 C224.064093,71.4749098 224.241322,71.0233584 224.241322,70.4932063 L224.241322,64.4676272 C224.241322,63.8988013 224.315644,63.4028468 224.46268,62.9928338 C224.608466,62.5849694 224.800881,62.2403079 225.034746,61.9685176 C225.263607,61.7020987 225.51498,61.5046121 225.781718,61.3816082 C226.049349,61.2587834 226.313406,61.1964757 226.566744,61.1964757 C226.854206,61.1964757 227.110581,61.2464293 227.32783,61.3441878 C227.632265,61.4824105 227.973682,61.5525962 228.342612,61.5525962 C228.762103,61.5525962 229.151757,61.4013032 229.500857,61.1028352 C229.866035,60.7911179 230.051125,60.2978491 230.051125,59.6369941 C230.051125,59.1437253 229.834948,58.7138383 229.40849,58.3591502 L229.40849,58.3591502 Z M208.755541,63.4166332 L214.614832,63.4166332 C214.560342,63.0678537 214.420273,62.7561364 214.189446,62.4682321 C213.908595,62.1190944 213.554672,61.8376357 213.137146,61.6322712 C212.720871,61.4276228 212.271545,61.3237767 211.802029,61.3237767 C211.330906,61.3237767 210.886403,61.3871586 210.480848,61.512132 C210.096017,61.6308388 209.759246,61.8335177 209.479109,62.1140812 C209.195756,62.3980465 208.966894,62.7906921 208.798955,63.2812753 C208.783769,63.3251413 208.769297,63.3704396 208.755541,63.4166332 L208.755541,63.4166332 Z M218.011671,62.1987694 C218.374884,63.0515606 218.559081,63.9688079 218.559081,64.9252661 C218.537642,65.4441384 218.334686,65.860597 217.955393,66.1775065 C217.589858,66.4827782 217.158397,66.637473 216.672981,66.637473 L208.732672,66.637473 C208.81557,66.9071148 208.925088,67.1554501 209.06069,67.382121 C209.408181,67.9625848 209.860366,68.4089439 210.404918,68.7086651 C210.951793,69.0098188 211.541188,69.1623651 212.157382,69.1623651 C212.749814,69.1623651 213.223438,69.1152763 213.565034,69.0218148 C213.903592,68.9294276 214.175868,68.8187778 214.374358,68.6934463 C214.615547,68.5416162 214.824578,68.417538 215.014135,68.3140501 C215.375025,68.1328566 215.716264,68.0436922 216.038743,68.0436922 C216.504149,68.0436922 216.897555,68.2069812 217.208064,68.5283669 C217.515357,68.847425 217.671147,69.2261051 217.671147,69.6543806 C217.671147,70.2192675 217.388688,70.7281133 216.83163,71.1667734 C216.371584,71.5569124 215.712869,71.9067662 214.882463,72.1987886 C214.054737,72.4899157 213.188957,72.6376278 212.30942,72.6376278 C210.818692,72.6376278 209.503585,72.3189277 208.400367,71.690838 C207.292862,71.0607788 206.42994,70.1909784 205.835364,69.1056078 C205.243646,68.0266829 204.943678,66.7912727 204.943678,65.4337538 C204.943678,63.8552934 205.270445,62.4852414 205.914688,61.3620923 C206.559289,60.2382271 207.416136,59.3621601 208.462004,58.7584205 C209.507515,58.1548599 210.631279,57.8486931 211.802029,57.8486931 C212.709973,57.8486931 213.581292,58.0388388 214.392045,58.413759 C215.195831,58.7856353 215.917433,59.3021801 216.536664,59.9487114 C217.154288,60.5948847 217.650602,61.3517077 218.011671,62.1987694 L218.011671,62.1987694 Z M199.714694,63.2066135 C199.429376,62.6275821 199.032397,62.1627814 198.534653,61.8245655 C198.044235,61.4924371 197.455197,61.3237767 196.783619,61.3237767 C196.111148,61.3237767 195.517107,61.4927951 195.017756,61.8259978 C194.512331,62.1640347 194.111778,62.6284773 193.827175,63.2066135 C193.538998,63.7919115 193.392677,64.4728195 193.392677,65.2305377 C193.392677,65.9725001 193.539355,66.6544823 193.828604,67.2571477 C194.113386,67.8513979 194.513581,68.3233604 195.017756,68.660144 C195.516572,68.9935257 196.110612,69.1623651 196.783619,69.1623651 C197.455733,69.1623651 198.044771,68.9938838 198.534653,68.6615763 C199.031325,68.3247928 199.427768,67.8522931 199.713265,67.2571477 C200.002335,66.6541242 200.149192,65.972142 200.149192,65.2305377 C200.149192,64.4731776 200.002871,63.7922696 199.714694,63.2066135 L199.714694,63.2066135 Z M202.880348,61.4116878 C203.453128,62.507801 203.743627,63.7924486 203.743627,65.2305377 C203.743627,66.6686269 203.453307,67.9572134 202.880884,69.0606675 C202.306497,70.1677025 201.525043,71.0491409 200.558321,71.6800953 C199.584809,72.3153468 198.476947,72.6376278 197.26564,72.6376278 C196.552792,72.6376278 195.873174,72.519279 195.245189,72.2859835 C194.624528,72.0551945 194.070329,71.7569056 193.59867,71.3993528 C193.548467,71.3615743 193.499693,71.3236168 193.451813,71.2854802 C193.370702,71.5889614 193.217234,71.858245 192.99266,72.0897502 C192.639451,72.4532115 192.191018,72.6376278 191.658972,72.6376278 C191.128356,72.6376278 190.680994,72.4587618 190.328858,72.1060433 C189.9769,71.7538618 189.79842,71.296581 189.79842,70.7474501 L189.79842,54.7809367 C189.79842,54.2507846 189.97565,53.7992332 190.325285,53.4386366 C190.677957,53.0751754 191.126748,52.8909381 191.658972,52.8909381 C192.191018,52.8909381 192.639451,53.0751754 192.992481,53.4384576 C193.342295,53.7997703 193.519524,54.2513217 193.519524,54.7809367 L193.519524,59.2817689 C193.627077,59.1874122 193.741418,59.0932346 193.86237,58.9997731 C194.293117,58.6671076 194.795862,58.389946 195.356672,58.1759873 C195.924985,57.9588057 196.53314,57.8486931 197.164341,57.8486931 C198.407984,57.8486931 199.540323,58.1704369 200.530271,58.8047932 C201.51486,59.4359266 202.305603,60.3130679 202.880348,61.4116878 L202.880348,61.4116878 Z M185.291396,58.7143755 C184.597486,58.1399992 183.590208,57.8486931 182.297791,57.8486931 C181.502045,57.8486931 180.770795,58.01986 180.124407,58.3575388 C179.493027,58.6876978 178.946332,59.0953831 178.499863,59.5694942 C178.280828,59.8020736 178.088591,60.0296397 177.92351,60.2511183 C177.687681,59.7503296 177.381817,59.3080885 177.007884,58.9283342 C176.301825,58.2119753 175.213615,57.8486931 173.773625,57.8486931 C173.177263,57.8486931 172.616631,57.9457354 172.107275,58.1371345 C171.60721,58.3249527 171.144126,58.5754366 170.730889,58.8814244 C170.452717,59.0875051 170.201165,59.306119 169.979093,59.5338642 C169.904592,59.198513 169.744514,58.9027307 169.500466,58.6504564 C169.147615,58.2869951 168.699003,58.1029369 168.166957,58.1029369 C167.634554,58.1029369 167.185942,58.2871742 166.833091,58.6506354 C166.483456,59.011411 166.306226,59.4631415 166.306226,59.9931146 L166.306226,70.4932063 C166.306226,71.0237165 166.483635,71.4752679 166.833091,71.8353273 C167.185227,72.1987886 167.634018,72.3833839 168.166957,72.3833839 C168.699539,72.3833839 169.148151,72.1989676 169.500823,71.8353273 C169.850458,71.4747307 170.027688,71.0230003 170.027688,70.4932063 L170.027688,63.9847429 C170.027688,63.4821637 170.130417,63.0248829 170.333016,62.6259707 C170.533649,62.2315347 170.827722,61.9232192 171.23149,61.6831199 C171.633472,61.4446321 172.130501,61.3237767 172.708105,61.3237767 C173.288567,61.3237767 173.731641,61.4372912 174.025177,61.6609184 C174.324609,61.8897378 174.526493,62.1871315 174.641907,62.5697506 C174.766968,62.9858511 174.83057,63.4619316 174.83057,63.9847429 L174.83057,70.4932063 C174.83057,71.0238955 175.007979,71.4754469 175.357435,71.8353273 C175.709393,72.1987886 176.158183,72.3833839 176.691122,72.3833839 C177.223525,72.3833839 177.672316,72.1989676 178.02481,71.8355063 C178.374624,71.4747307 178.551853,71.0231794 178.551853,70.4932063 L178.551853,63.9847429 C178.551853,63.4819847 178.654582,63.0247038 178.85736,62.6259707 C179.057993,62.2315347 179.351887,61.9232192 179.755656,61.6831199 C180.157638,61.4446321 180.654666,61.3237767 181.23227,61.3237767 C181.812732,61.3237767 182.255806,61.4372912 182.549342,61.6609184 C182.848774,61.8897378 183.050659,62.1871315 183.166072,62.5697506 C183.291133,62.9858511 183.354736,63.4619316 183.354736,63.9847429 L183.354736,70.4932063 C183.354736,71.0238955 183.532144,71.4754469 183.8816,71.8353273 C184.233558,72.1987886 184.68217,72.3833839 185.215288,72.3833839 C185.747691,72.3833839 186.196482,72.1989676 186.548975,71.8355063 C186.898789,71.4747307 187.076018,71.0231794 187.076018,70.4932063 L187.076018,63.9847429 C187.076018,62.8929267 186.952387,61.8834713 186.708875,60.9843075 C186.453929,60.0462909 185.977089,59.2826642 185.291396,58.7143755 L185.291396,58.7143755 Z M161.723451,58.1029369 C161.19087,58.1029369 160.742258,58.2871742 160.389585,58.6506354 C160.03995,59.011411 159.862721,59.4631415 159.862721,59.9931146 L159.862721,66.4507291 C159.862721,67.3926847 159.662087,68.0897067 159.266536,68.5226374 C158.878847,68.947153 158.262832,69.1623651 157.435999,69.1623651 C156.614169,69.1623651 156.023702,68.9532406 155.630653,68.5226374 C155.235102,68.0895277 155.034468,67.3925056 155.034468,66.4507291 L155.034468,59.9931146 C155.034468,59.4636786 154.857239,59.0119482 154.507247,58.6504564 C154.154574,58.2871742 153.706141,58.1029369 153.173738,58.1029369 C152.641335,58.1029369 152.192544,58.2871742 151.840229,58.6506354 C151.490415,59.011232 151.313186,59.4629624 151.313186,59.9931146 L151.313186,66.4507291 C151.313186,68.3283737 151.843624,69.8438102 152.889492,70.9547842 C153.940898,72.0714876 155.470574,72.6376278 157.435999,72.6376278 C159.400888,72.6376278 160.934316,72.0716666 161.993762,70.9558584 C163.049099,69.8447054 163.584182,68.3287317 163.584182,66.4507291 L163.584182,59.9931146 C163.584182,59.4638577 163.406774,59.0121272 163.056781,58.6504564 C162.704109,58.2869951 162.255318,58.1029369 161.723451,58.1029369 L161.723451,58.1029369 Z M146.752028,58.7116898 C146.041681,58.139104 145.010106,57.8486931 143.685709,57.8486931 C143.073981,57.8486931 142.497449,57.9453773 141.972371,58.1358812 C141.453725,58.3238784 140.980994,58.5747204 140.56722,58.8812454 C140.276185,59.0969945 140.009627,59.3263511 139.771296,59.5660923 C139.699832,59.2173127 139.537432,58.9106087 139.285701,58.6504564 C138.933029,58.2871742 138.484417,58.1029369 137.952193,58.1029369 C137.419611,58.1029369 136.970999,58.2871742 136.618684,58.6506354 C136.26887,59.011232 136.091641,59.4629624 136.091641,59.9931146 L136.091641,70.4932063 C136.091641,71.0238955 136.269049,71.4754469 136.618505,71.8353273 C136.970463,72.1987886 137.419075,72.3833839 137.952193,72.3833839 C138.484774,72.3833839 138.933565,72.1989676 139.28588,71.8355063 C139.635694,71.4747307 139.812923,71.0231794 139.812923,70.4932063 L139.812923,63.9847429 C139.812923,63.4852075 139.92262,63.0311494 140.139333,62.6345649 C140.353187,62.2426354 140.669056,61.9228611 141.077827,61.6845523 C141.488921,61.4451692 142.007924,61.3237767 142.620367,61.3237767 C143.237097,61.3237767 143.707862,61.4389026 144.019264,61.6653945 C144.334597,61.8956463 144.54738,62.193219 144.66994,62.575301 C144.802326,62.989611 144.869501,63.4637221 144.869501,63.9847429 L144.869501,70.4932063 C144.869501,71.0237165 145.046909,71.4752679 145.396366,71.8353273 C145.748324,72.1987886 146.196936,72.3833839 146.730232,72.3833839 C147.262635,72.3833839 147.711247,72.1989676 148.063741,71.8355063 C148.413376,71.4749098 148.590784,71.0233584 148.590784,70.4932063 L148.590784,63.9847429 C148.590784,62.8918525 148.462686,61.8813227 148.210241,60.9814427 C147.946719,60.0437843 147.456122,59.2801575 146.752028,58.7116898 L146.752028,58.7116898 Z M212.726588,36.6896968 C212.443236,36.9736621 212.214374,37.3663077 212.046256,37.8568909 C212.031249,37.9007569 212.016599,37.9460553 212.002842,37.9922489 L217.862312,37.9922489 C217.807821,37.6434693 217.667574,37.331752 217.436747,37.0438477 C217.156074,36.69471 216.802151,36.4132513 216.384626,36.2078868 C215.968351,36.0032384 215.519024,35.8993923 215.049509,35.8993923 C214.578207,35.8993923 214.133883,35.9627742 213.728328,36.0877476 C213.343497,36.2064544 213.006547,36.4091333 212.726588,36.6896968 L212.726588,36.6896968 Z M220.918627,44.2299962 C220.918627,44.7948831 220.636168,45.3037289 220.078931,45.742389 C219.619064,46.1323489 218.960349,46.4823818 218.129943,46.7744042 C217.302038,47.0655313 216.436437,47.2132434 215.5569,47.2132434 C214.066172,47.2132434 212.751065,46.8945433 211.647847,46.2664536 C210.540341,45.6363944 209.67742,44.766594 209.082844,43.6812234 C208.491126,42.6022985 208.190979,41.3668883 208.190979,40.0093694 C208.190979,38.430909 208.517746,37.060857 209.162168,35.9377079 C209.80659,34.8138427 210.663616,33.9377757 211.709484,33.3340361 C212.754816,32.7304756 213.87858,32.4243087 215.049509,32.4243087 C215.957453,32.4243087 216.828771,32.6144544 217.639525,32.9893746 C218.44331,33.361251 219.164913,33.8777957 219.784144,34.524327 C220.401767,35.1705003 220.897903,35.9273233 221.259151,36.774385 C221.622364,37.6271762 221.806382,38.5444235 221.806382,39.5008817 C221.785122,40.019754 221.582166,40.4362126 221.202695,40.7531221 C220.837337,41.0583938 220.405877,41.2130886 219.920461,41.2130886 L211.979974,41.2130886 C212.06305,41.4827304 212.172568,41.7310657 212.307991,41.9577366 C212.655661,42.5382004 213.107846,42.9845595 213.652398,43.2842808 C214.199094,43.5854344 214.788667,43.7379807 215.404683,43.7379807 C215.997294,43.7379807 216.470918,43.6908919 216.812514,43.5974304 C217.151072,43.5050432 217.423348,43.3943934 217.621838,43.2690619 C217.863027,43.1172318 218.072058,42.9931536 218.261614,42.8896657 C218.622505,42.7084722 218.963743,42.6193078 219.286222,42.6193078 C219.75145,42.6193078 220.145035,42.7825968 220.455544,43.1039825 C220.762837,43.4230406 220.918627,43.8017207 220.918627,44.2299962 L220.918627,44.2299962 Z M206.229664,45.0688219 L206.229664,38.5603585 C206.229664,37.4685423 206.106032,36.4590869 205.86252,35.5599231 C205.607574,34.6219065 205.130734,33.8582798 204.445042,33.2899911 C203.751131,32.7156148 202.743853,32.4243087 201.451436,32.4243087 C200.855073,32.4243087 200.294442,32.521351 199.785086,32.7127501 C199.284663,32.9007473 198.821579,33.1512312 198.408699,33.456861 C198.150716,33.648081 197.915422,33.8500437 197.70532,34.0604215 L197.70532,29.3565523 C197.70532,28.8269373 197.52809,28.3753859 197.178276,28.0140732 C196.825247,27.650791 196.376635,27.4665537 195.844768,27.4665537 C195.312365,27.4665537 194.863753,27.650791 194.51108,28.0142522 C194.161445,28.3748488 193.984216,28.8264002 193.984216,29.3565523 L193.984216,45.0688219 C193.984216,45.5993321 194.161445,46.0510625 194.510902,46.4109429 C194.863038,46.7744042 195.311829,46.9589995 195.844768,46.9589995 C196.377171,46.9589995 196.825961,46.7745832 197.178455,46.4111219 C197.52809,46.0505254 197.70532,45.598974 197.70532,45.0688219 L197.70532,38.5603585 C197.70532,38.0579584 197.808048,37.6006775 198.010826,37.2015863 C198.21146,36.8071503 198.505532,36.4988348 198.909301,36.2587355 C199.311283,36.0202477 199.808133,35.8993923 200.385915,35.8993923 C200.966377,35.8993923 201.409451,36.0129068 201.702987,36.236534 C202.002419,36.4653534 202.204304,36.7627471 202.319717,37.1453662 C202.444778,37.5614667 202.508381,38.0375472 202.508381,38.5603585 L202.508381,45.0688219 C202.508381,45.5995111 202.685789,46.0510625 203.035246,46.4109429 C203.387203,46.7744042 203.835815,46.9589995 204.368933,46.9589995 C204.901336,46.9589995 205.350127,46.7745832 205.70262,46.4111219 C206.052434,46.0503463 206.229664,45.598795 206.229664,45.0688219 L206.229664,45.0688219 Z M191.667548,44.9925487 C191.667548,44.51987 191.540879,44.1363557 191.290578,43.8522114 C191.029379,43.5573243 190.726552,43.4076427 190.390495,43.4076427 C190.123043,43.4076427 189.879889,43.4561639 189.668178,43.5517739 C189.541509,43.6088893 189.404299,43.6364622 189.248687,43.6364622 C189.106832,43.6364622 188.979806,43.611933 188.859211,43.5609052 C188.763986,43.5211572 188.693416,43.4593867 188.63696,43.3666414 C188.577288,43.2688829 188.547094,43.1315554 188.547094,42.958598 L188.547094,36.40788 L190.009952,36.40788 C190.504837,36.40788 190.925578,36.2431586 191.260206,35.918192 C191.597871,35.5900026 191.769026,35.1787363 191.769026,34.6958521 C191.769026,34.1982861 191.599122,33.775561 191.2636,33.4385984 C190.928079,33.1028891 190.506266,32.9327964 190.009952,32.9327964 L188.547094,32.9327964 L188.547094,31.6447469 C188.547094,31.1171014 188.375225,30.6668033 188.03613,30.3058487 C187.691498,29.9402389 187.246102,29.7547483 186.711912,29.7547483 C186.181117,29.7547483 185.729468,29.9377323 185.368756,30.299045 C185.00858,30.6601787 184.825812,31.1129834 184.825812,31.6447469 L184.825812,32.9327964 L183.997193,32.9327964 C183.502129,32.9327964 183.081567,33.0976968 182.746939,33.4224843 C182.409452,33.7504947 182.238119,34.161761 182.238119,34.6448243 C182.238119,35.1434645 182.408202,35.5665477 182.743008,35.9013618 C183.077636,36.2374292 183.499628,36.40788 183.997193,36.40788 L184.825812,36.40788 L184.825812,43.0857199 C184.825812,43.9691277 184.967309,44.6817267 185.246553,45.2036427 C185.528119,45.730393 185.889903,46.1294842 186.322079,46.3892785 C186.740676,46.6410157 187.193576,46.801798 187.667558,46.8667914 C188.110095,46.9278457 188.522618,46.9589995 188.893692,46.9589995 C189.543832,46.9589995 190.16074,46.7890859 190.727267,46.4542718 C191.351322,46.0852601 191.667548,45.5934236 191.667548,44.9925487 L191.667548,44.9925487 Z M167.182547,36.2601679 C167.593641,36.0207848 168.112645,35.8993923 168.725087,35.8993923 C169.341817,35.8993923 169.812583,36.0145182 170.123985,36.2410101 C170.439317,36.4712619 170.6521,36.7688346 170.774839,37.1509166 C170.907046,37.5652266 170.974222,38.0393377 170.974222,38.5603585 L170.974222,45.0688219 C170.974222,45.5993321 171.15163,46.0508835 171.501086,46.4109429 C171.853044,46.7744042 172.301835,46.9589995 172.834952,46.9589995 C173.367355,46.9589995 173.815967,46.7745832 174.168461,46.4111219 C174.518096,46.0505254 174.695504,45.598974 174.695504,45.0688219 L174.695504,38.5603585 C174.695504,37.4674681 174.567406,36.4569383 174.314961,35.5570583 C174.051618,34.6195789 173.560843,33.8559522 172.856927,33.2871263 C172.146402,32.7147196 171.114647,32.4243087 169.790429,32.4243087 C169.178701,32.4243087 168.602348,32.520993 168.077092,32.7114968 C167.558624,32.899494 167.085714,33.150336 166.671941,33.456861 C166.380906,33.6726101 166.114347,33.9019667 165.876016,34.1417079 C165.804553,33.7929284 165.642152,33.4862243 165.390422,33.226072 C165.037749,32.8627898 164.589316,32.6785525 164.056913,32.6785525 C163.52451,32.6785525 163.075719,32.8627898 162.723404,33.2262511 C162.37359,33.5868476 162.196361,34.038578 162.196361,34.5687302 L162.196361,45.0688219 C162.196361,45.5995111 162.373769,46.0510625 162.723226,46.4109429 C163.075183,46.7744042 163.523974,46.9589995 164.056913,46.9589995 C164.589673,46.9589995 165.038285,46.7745832 165.3906,46.4111219 C165.740414,46.0503463 165.917644,45.598795 165.917644,45.0688219 L165.917644,38.5603585 C165.917644,38.0608231 166.02734,37.6067651 166.244053,37.2101805 C166.458086,36.818251 166.773776,36.4984767 167.182547,36.2601679 L167.182547,36.2601679 Z M157.883897,45.5314741 C158.939234,44.420142 159.474138,42.9043473 159.474138,41.0263448 L159.474138,34.5687302 C159.474138,34.0392942 159.296908,33.5875638 158.946916,33.226072 C158.594244,32.8627898 158.145632,32.6785525 157.613407,32.6785525 C157.080826,32.6785525 156.632213,32.8627898 156.279898,33.2262511 C155.930085,33.5868476 155.752855,34.038578 155.752855,34.5687302 L155.752855,41.0263448 C155.752855,41.9683003 155.5524,42.6653223 155.156671,43.098253 C154.768982,43.5227686 154.152966,43.7379807 153.325955,43.7379807 C152.504304,43.7379807 151.913836,43.5288562 151.520609,43.098253 C151.125058,42.6651433 150.924424,41.9681212 150.924424,41.0263448 L150.924424,34.5687302 C150.924424,34.0389361 150.747195,33.5873847 150.397202,33.226072 C150.04453,32.8627898 149.596097,32.6785525 149.063872,32.6785525 C148.531112,32.6785525 148.0825,32.8627898 147.730364,33.2262511 C147.38055,33.5868476 147.20332,34.038578 147.20332,34.5687302 L147.20332,41.0263448 C147.20332,42.9041683 147.733758,44.4196048 148.779626,45.5303998 C149.830854,46.6471032 151.360352,47.2132434 153.325955,47.2132434 C155.290844,47.2132434 156.824272,46.6472822 157.883897,45.5314741 L157.883897,45.5314741 Z M136.618505,46.4109429 C136.269049,46.0510625 136.091641,45.5995111 136.091641,45.0688219 L136.091641,34.5687302 C136.091641,34.038578 136.26887,33.5868476 136.618684,33.2262511 C136.970999,32.8627898 137.419611,32.6785525 137.952193,32.6785525 C138.484417,32.6785525 138.933029,32.8627898 139.285701,33.226072 C139.499377,33.4468344 139.648736,33.7010783 139.732527,33.9862969 C139.746284,33.9712571 139.760219,33.9563964 139.774154,33.9415357 C140.090738,33.6058264 140.454308,33.3197125 140.854682,33.0916092 C141.252555,32.8649383 141.68348,32.6950247 142.135308,32.5861653 C142.58124,32.4789174 143.034676,32.4243087 143.482931,32.4243087 C144.068574,32.4243087 144.572392,32.5960128 144.979912,32.9347659 C145.406549,33.289633 145.622548,33.7193409 145.622548,34.2126097 C145.622548,34.8732856 145.437457,35.3663755 145.072458,35.6784508 C144.723001,35.9769188 144.333346,36.1282118 143.914213,36.1282118 C143.545104,36.1282118 143.203509,36.0580261 142.899074,35.9198034 C142.682004,35.8220449 142.425629,35.7720913 142.138345,35.7720913 C141.885007,35.7720913 141.620771,35.834399 141.353498,35.9572238 C141.08676,36.0802277 140.835209,36.2775353 140.606168,36.5441332 C140.372304,36.8161025 140.179888,37.1607641 140.033924,37.5684494 C139.887245,37.9784624 139.812923,38.474596 139.812923,39.0432428 L139.812923,45.0688219 C139.812923,45.598795 139.635694,46.0503463 139.28588,46.4111219 C138.933565,46.7745832 138.484774,46.9589995 137.952193,46.9589995 C137.419075,46.9589995 136.970463,46.7744042 136.618505,46.4109429 L136.618505,46.4109429 Z"/>
</svg>
