<svg xmlns="http://www.w3.org/2000/svg" viewBox="0 0 1254 980.66"><defs><style>.cls-1{fill:#f7f6f0;}.cls-2{fill:#53a97e;}.cls-3{fill:#7fd6a8;}.cls-4{fill:#f8ba00;}.cls-5{fill:#ffe09c;}.cls-6{fill:#ffd261;}.cls-7{fill:#98e2b9;}.cls-8{fill:#a1e5bd;}.cls-9{fill:none;}</style></defs><g id="Layer_2" data-name="Layer 2"><g id="Layer_1-2" data-name="Layer 1"><rect class="cls-1" width="1254" height="980"/><path d="M554.47,375.55a6.53,6.53,0,0,1-1.87-4.73V333.77a6.56,6.56,0,0,1,1.87-4.74,6.72,6.72,0,0,1,9.43,0,6.44,6.44,0,0,1,1.56,2.61,14.87,14.87,0,0,1,4.49-3.38,19.39,19.39,0,0,1,8.79-2.06A8.07,8.07,0,0,1,584,328a5.73,5.73,0,0,1,2.28,4.51,6.72,6.72,0,0,1-1.8,5c-1.94,1.88-4.47,2.23-7.71,1l-1.13-.33A6.06,6.06,0,0,0,574,338a6.77,6.77,0,0,0-3.82,1.24,9.3,9.3,0,0,0-3.12,3.87,14.85,14.85,0,0,0-1.28,6.44v21.26a6.53,6.53,0,0,1-1.86,4.73,6.7,6.7,0,0,1-9.43,0Zm75.14-3c3.76-3.86,5.67-9.24,5.67-16V333.77a6.56,6.56,0,0,0-1.86-4.74,6.72,6.72,0,0,0-9.43,0,6.55,6.55,0,0,0-1.86,4.74v22.78c0,3.33-.71,5.79-2.11,7.31s-3.55,2.26-6.48,2.26-5-.74-6.38-2.26-2.11-4-2.11-7.31V333.77a6.56,6.56,0,0,0-1.86-4.74,6.72,6.72,0,0,0-9.43,0,6.56,6.56,0,0,0-1.87,4.74v22.78c0,6.76,1.9,12.14,5.63,16s9.14,5.83,16,5.83S625.83,376.42,629.61,372.55ZM668,338.46c3,0,5,.77,6.12,2.34a11.87,11.87,0,0,1,1.83,7.05v23a6.57,6.57,0,0,0,1.86,4.73,6.7,6.7,0,0,0,9.43,0,6.53,6.53,0,0,0,1.87-4.73v-23c0-6.6-1.24-11.87-3.69-15.67-2.56-4-7.15-6-13.66-6a17.66,17.66,0,0,0-9.18,2.5,24.89,24.89,0,0,0-4.66,3.58A6.63,6.63,0,0,0,646.77,329a6.59,6.59,0,0,0-1.86,4.74v37.05a6.57,6.57,0,0,0,1.86,4.73,6.71,6.71,0,0,0,9.44,0,6.57,6.57,0,0,0,1.86-4.73v-23a9.09,9.09,0,0,1,2.62-6.74C662.44,339.33,664.83,338.46,668,338.46Zm81.12,32.09a5.9,5.9,0,0,0-1.32-4,4.09,4.09,0,0,0-3.19-1.63,6.53,6.53,0,0,0-2.46.51,6.39,6.39,0,0,1-1.58.29,2.81,2.81,0,0,1-1.91-.56,2.36,2.36,0,0,1-.57-1.83V340.26h5.17a6.11,6.11,0,0,0,4.42-1.73,5.77,5.77,0,0,0,1.8-4.31,6.1,6.1,0,0,0-6.22-6.22h-5.17v-4.55a6.57,6.57,0,0,0-1.87-4.74,6.23,6.23,0,0,0-4.62-1.93,6.56,6.56,0,0,0-6.67,6.67V328H722a6.14,6.14,0,0,0-4.42,1.72,5.78,5.78,0,0,0-1.8,4.32,6.1,6.1,0,0,0,6.22,6.22h2.93v23.56c0,5.56,1.47,9.3,4.38,11.11a18.58,18.58,0,0,0,10,2.56,12.11,12.11,0,0,0,6.6-1.85C748,374.31,749.12,372.59,749.12,370.55Zm51.49.27v-23c0-6.59-1.2-11.86-3.59-15.66-2.5-4-7-6-13.3-6a16.76,16.76,0,0,0-8.93,2.47,24.09,24.09,0,0,0-4.32,3.36V315.38a6.61,6.61,0,0,0-1.86-4.74,6.72,6.72,0,0,0-9.43,0,6.56,6.56,0,0,0-1.87,4.74v55.44a6.53,6.53,0,0,0,1.87,4.73,6.7,6.7,0,0,0,9.43,0,6.57,6.57,0,0,0,1.86-4.73v-23a9.4,9.4,0,0,1,2.5-6.76,9,9,0,0,1,7-2.63c2.83,0,4.73.76,5.78,2.31a12.43,12.43,0,0,1,1.73,7.08v23a6.53,6.53,0,0,0,1.86,4.73,6.7,6.7,0,0,0,9.43,0A6.53,6.53,0,0,0,800.61,370.82Zm51.94-3a6.72,6.72,0,0,1-3,5.33,22.39,22.39,0,0,1-7.09,3.69,29,29,0,0,1-22.63-1.79,23.12,23.12,0,0,1-9.12-9.12,26.58,26.58,0,0,1-3.2-13,28.84,28.84,0,0,1,3.38-14.13,24.19,24.19,0,0,1,9-9.38,23.36,23.36,0,0,1,11.91-3.26,22.25,22.25,0,0,1,11.8,3.41,25.57,25.57,0,0,1,8.8,9.12,24.78,24.78,0,0,1,3.29,12.44,5.8,5.8,0,0,1-2.13,4.42,6.88,6.88,0,0,1-4.53,1.62H821a11.9,11.9,0,0,0,4.14,6.16,12.53,12.53,0,0,0,8,2.75,18.22,18.22,0,0,0,5.37-.61,14.06,14.06,0,0,0,3-1.31c.82-.52,1.38-.87,1.69-1.05l.08,0a8,8,0,0,1,3.58-.94,5.62,5.62,0,0,1,4.08,1.7A5.51,5.51,0,0,1,852.55,367.86Zm-31.52-22h20.7a8.19,8.19,0,0,0-3.15-5,10.39,10.39,0,0,0-6.78-2.43C826,338.46,822.46,340.88,821,345.85ZM579.46,415.91a17.67,17.67,0,0,0-9.19,2.5,24.77,24.77,0,0,0-4.65,3.57,6.44,6.44,0,0,0-1.72-3.24,6.72,6.72,0,0,0-9.43,0,6.56,6.56,0,0,0-1.87,4.74v37a6.54,6.54,0,0,0,1.87,4.74,6.72,6.72,0,0,0,9.43,0,6.55,6.55,0,0,0,1.86-4.74v-23a9.13,9.13,0,0,1,2.62-6.74c1.75-1.78,4.14-2.65,7.31-2.65,3,0,5,.77,6.12,2.34a11.78,11.78,0,0,1,1.83,7.05v23a6.54,6.54,0,0,0,1.87,4.74,6.72,6.72,0,0,0,9.43,0,6.57,6.57,0,0,0,1.86-4.74v-23c0-6.6-1.24-11.88-3.69-15.67C590.55,417.92,586,415.91,579.46,415.91Zm63.78.9a6.36,6.36,0,0,0-4.72,1.93,6.59,6.59,0,0,0-1.86,4.74v22.78c0,3.32-.71,5.78-2.11,7.31s-3.55,2.26-6.47,2.26-5-.74-6.39-2.26-2.1-4-2.1-7.31V423.48a6.56,6.56,0,0,0-1.87-4.74,6.72,6.72,0,0,0-9.43,0,6.55,6.55,0,0,0-1.86,4.74v22.78c0,6.75,1.89,12.13,5.63,16s9.13,5.84,16,5.84,12.28-2,16.06-5.83,5.68-9.25,5.68-16V423.48a6.56,6.56,0,0,0-1.87-4.74A6.32,6.32,0,0,0,643.24,416.81Zm72.75-.9a16.86,16.86,0,0,0-10.17,3.28,24.16,24.16,0,0,0-5.27,5.15c-2.6-5.6-7.53-8.43-14.7-8.43a16.85,16.85,0,0,0-8.93,2.46,24.15,24.15,0,0,0-4.48,3.53,6.45,6.45,0,0,0-1.7-3.16,6.72,6.72,0,0,0-9.43,0,6.56,6.56,0,0,0-1.87,4.74v37a6.54,6.54,0,0,0,1.87,4.74,6.72,6.72,0,0,0,9.43,0,6.55,6.55,0,0,0,1.86-4.74v-23a9.4,9.4,0,0,1,2.5-6.76,9,9,0,0,1,7-2.63c2.83,0,4.73.75,5.78,2.31a12.43,12.43,0,0,1,1.73,7.08v23a6.53,6.53,0,0,0,1.86,4.74,6.72,6.72,0,0,0,9.43,0,6.55,6.55,0,0,0,1.86-4.74v-23a9.4,9.4,0,0,1,2.5-6.76,9,9,0,0,1,7-2.63c2.84,0,4.73.75,5.79,2.31a12.51,12.51,0,0,1,1.72,7.08v23a6.53,6.53,0,0,0,1.86,4.74,6.72,6.72,0,0,0,9.43,0,6.56,6.56,0,0,0,1.87-4.74v-23c0-6.6-1.21-11.87-3.6-15.66C726.8,417.92,722.32,415.91,716,415.91Zm72.78,12.67A28.79,28.79,0,0,1,791.82,442a29.52,29.52,0,0,1-3,13.41,23.31,23.31,0,0,1-8.27,9.35,21.22,21.22,0,0,1-11.63,3.37,20.43,20.43,0,0,1-8.62-1.86,24.05,24.05,0,0,1-4.87-2.91,6.68,6.68,0,0,1-11,2.9,6.52,6.52,0,0,1-1.88-4.8V405.09a6.56,6.56,0,0,1,1.87-4.74,6.72,6.72,0,0,1,9.43,0,6.59,6.59,0,0,1,1.86,4.74V420.9a22.71,22.71,0,0,1,4.26-2.84,18.42,18.42,0,0,1,8.63-2.15,21.76,21.76,0,0,1,11.85,3.37h0A23.57,23.57,0,0,1,788.77,428.58Zm-13,3.43a11.5,11.5,0,0,0-17.16,0,14.7,14.7,0,0,0-3.39,9.94,14.88,14.88,0,0,0,3.39,10,10.69,10.69,0,0,0,8.6,3.89,10.59,10.59,0,0,0,8.51-3.89,16.44,16.44,0,0,0,0-19.93Zm65.14-3.57a24.69,24.69,0,0,1,3.3,12.44,5.8,5.8,0,0,1-2.13,4.42,7,7,0,0,1-4.54,1.62H809.47a11.88,11.88,0,0,0,4.14,6.16,12.5,12.5,0,0,0,8,2.75,18.47,18.47,0,0,0,5.37-.61,14.17,14.17,0,0,0,3-1.31l1.68-1.05.08,0a8.08,8.08,0,0,1,3.59-.94,5.58,5.58,0,0,1,4.08,1.7,5.49,5.49,0,0,1,1.69,4,6.75,6.75,0,0,1-3,5.34,22.43,22.43,0,0,1-7.08,3.69,29,29,0,0,1-22.63-1.79,23.12,23.12,0,0,1-9.12-9.12,26.49,26.49,0,0,1-3.2-13,28.72,28.72,0,0,1,3.38-14.12,24.19,24.19,0,0,1,9-9.38,23.33,23.33,0,0,1,11.91-3.26,22.22,22.22,0,0,1,11.79,3.41A25.24,25.24,0,0,1,840.91,428.44Zm-31.37,7.12h20.71a8.21,8.21,0,0,0-3.15-5,10.34,10.34,0,0,0-6.78-2.43C814.51,428.17,811,430.59,809.54,435.56Zm73-17.85h0a8.12,8.12,0,0,0-5.3-1.8,19.54,19.54,0,0,0-8.79,2,15.19,15.19,0,0,0-4.49,3.39,6.65,6.65,0,0,0-11-2.61,6.55,6.55,0,0,0-1.86,4.74v37a6.53,6.53,0,0,0,1.86,4.74,6.72,6.72,0,0,0,9.43,0,6.53,6.53,0,0,0,1.86-4.74V439.26a14.8,14.8,0,0,1,1.28-6.43A9.38,9.38,0,0,1,868.7,429a6.78,6.78,0,0,1,3.83-1.24,6.11,6.11,0,0,1,1.69.23c.6.17,1,.28,1.12.33,3.24,1.19,5.77.85,7.71-1a6.74,6.74,0,0,0,1.8-5A5.73,5.73,0,0,0,882.58,417.71Zm42,26.3h0a15.09,15.09,0,0,0-5.94-4.76,59.61,59.61,0,0,0-8.23-2.84c-2.3-.65-4.1-1.2-5.36-1.64a7.43,7.43,0,0,1-2.75-1.62,3,3,0,0,1-.89-2.32c0-1.74.64-3.74,5.62-3.74a12.71,12.71,0,0,1,5.29,1.06A10.44,10.44,0,0,1,916.1,431l.07.09a5.55,5.55,0,0,0,4.08,1.61,5.68,5.68,0,0,0,3.61-1.25,5.3,5.3,0,0,0,2.16-4.35,6.13,6.13,0,0,0-1.42-4,17.22,17.22,0,0,0-7.7-5.41,24.6,24.6,0,0,0-18.52.07,17.39,17.39,0,0,0-6.93,5.3,13.09,13.09,0,0,0-2.72,8.22,13.25,13.25,0,0,0,2.65,8.61,16.29,16.29,0,0,0,6.1,4.69,66.58,66.58,0,0,0,8.65,2.93,32.62,32.62,0,0,1,7.12,2.57A3.13,3.13,0,0,1,915,453c0,1.66-.61,3.89-5.8,4.1a15.57,15.57,0,0,1-6.54-1.24,17.81,17.81,0,0,1-5.27-3.89,6.22,6.22,0,0,0-4.43-2,6.3,6.3,0,0,0-6.13,5.95,5.52,5.52,0,0,0,1,3.4,19.54,19.54,0,0,0,8.88,6.78,31.77,31.77,0,0,0,11.46,2,22.77,22.77,0,0,0,8.85-1.8,17.74,17.74,0,0,0,7.16-5.33,13.2,13.2,0,0,0,2.86-8.42A13.82,13.82,0,0,0,924.61,444Z"/><path d="M507.75,313.2a9.2,9.2,0,0,0-2.74-7h0a9.22,9.22,0,0,0-7.05-2.64l-3.23.21a105.74,105.74,0,0,0-75.11,38.74l-7.22,8.89-19.27-.57H393a59.79,59.79,0,0,0-42.56,17.63L330.08,388.8a4.66,4.66,0,0,0,3.05,7.95l40.73,2.09-.27.34a4.62,4.62,0,0,0-.48,5.16c.53,1,1.1,2,1.68,2.93a15.18,15.18,0,0,0-4.07.56,16.15,16.15,0,0,0-6.93,4.05,16,16,0,0,0-4.25,6.8,14.87,14.87,0,0,0-.4,7.62,13.23,13.23,0,0,0,3.52,6.59,10,10,0,0,0,5.12,3,11.82,11.82,0,0,0,5.61-.09q-2,7.88,2.77,12.78a13.3,13.3,0,0,0,6.81,3.8,15.89,15.89,0,0,0,8.11-.33,18.52,18.52,0,0,0,12-11.64,16.55,16.55,0,0,0,.83-4.43c.63.37,1.26.72,1.86,1.05a4.77,4.77,0,0,0,5.08-.41l.55-.43,2.11,41a4.66,4.66,0,0,0,3,4.11,4.58,4.58,0,0,0,1.67.31,4.63,4.63,0,0,0,3.3-1.36l20.35-20.35a59.8,59.8,0,0,0,17.63-42.56V398.89L467,393a105.27,105.27,0,0,0,34.16-46.48h0a105.46,105.46,0,0,0,6.51-31.64Zm-57.63,92.92v11.16a50.55,50.55,0,0,1-14.9,36l-12.94,12.93-1.9-37Zm28.18-90.41a96,96,0,0,1,17-2.65l3.1-.2-.07,1.57a96.78,96.78,0,0,1-2.63,18.13A44.6,44.6,0,0,0,478.3,315.71Zm14.91,25.39a96,96,0,0,1-31.92,44.55L407.6,427.31A72.13,72.13,0,0,1,396,418.65l-4.84-4.87a72.27,72.27,0,0,1-8.31-11.21l44-54.19a96.21,96.21,0,0,1,42.63-30A39.53,39.53,0,0,1,493.21,341.1ZM344.08,388,357,375a50.51,50.51,0,0,1,35.88-14.9l12.1.36-23.87,29.38Zm43.42,33.34.78.82q-.52.09-1,.21C387.34,422,387.42,421.67,387.5,421.32Zm-13.86,7.82a6.41,6.41,0,0,1-4.75-2.09,6.31,6.31,0,0,1-1.89-4.76,6.85,6.85,0,0,1,2.24-4.79,6.71,6.71,0,0,1,4.81-2,6.29,6.29,0,0,1,4.7,2,6.44,6.44,0,0,1,1.92,4.78,6.72,6.72,0,0,1-2.17,4.78A6.88,6.88,0,0,1,373.64,429.14Zm22.06,7.35a9,9,0,0,1-8.28,8,6.76,6.76,0,0,1-7.13-7.36,8.94,8.94,0,0,1,8.27-8,6.77,6.77,0,0,1,7.14,7.35Zm80.17-97.15a6.07,6.07,0,0,0-1.21-.85,23.53,23.53,0,0,0-13.38-2.66,28.19,28.19,0,0,0-11.47,3.79,36.69,36.69,0,0,0-8.08,6.44,20,20,0,0,0-4.37,7.52,16,16,0,0,0-.43,8.3,13.18,13.18,0,0,0,4.12,7.09,14.45,14.45,0,0,0,6.83,3.56,14.82,14.82,0,0,0,7.59-.34,14.33,14.33,0,0,0,6.48-4.13,14.07,14.07,0,0,0,3.45-6.79,15.8,15.8,0,0,0-.23-7.53,12.16,12.16,0,0,0-3.46-5.88,10.78,10.78,0,0,0-7.2-2.87,17.52,17.52,0,0,1,8.41-1.8,19.53,19.53,0,0,1,8.22,2,5,5,0,0,0,2.81.55,3.55,3.55,0,0,0,2.33-1.19,3.24,3.24,0,0,0,1-2.72A4.29,4.29,0,0,0,475.87,339.34Zm-19.63,13a6.77,6.77,0,0,1,2.26,5.07,8.36,8.36,0,0,1-7.47,8.18,7,7,0,0,1-7.54-6.89,8.45,8.45,0,0,1,7.47-8.17A6.69,6.69,0,0,1,456.24,352.34ZM369.65,454a12.43,12.43,0,0,1-1.63,6.73,14.38,14.38,0,0,1-5.14,5.14,17.69,17.69,0,0,1-7.89,2.39,33.87,33.87,0,0,1-9.61-.66l-11.53-2.43,5.54,9.1a4.26,4.26,0,0,1,1.76,1.64c.28.48,6.89,11.88,2.1,21.45-3,6.07-9.62,9.71-19.56,10.82l-.49,0a4.31,4.31,0,0,1-.47-8.59c4.71-.52,10.75-2,12.8-6.08,2.25-4.45-.54-11.07-1.81-13.25a4.32,4.32,0,0,1-.54-2.76l-9.75-16a3.42,3.42,0,0,1-.48-2.76,3.59,3.59,0,0,1,1.73-2.17,3.91,3.91,0,0,1,3-.48l19.88,4.12a24.17,24.17,0,0,0,6.3.51,10,10,0,0,0,4.76-1.3,6.88,6.88,0,0,0,3.18-4.32,6.35,6.35,0,0,0-.66-5.11,6.75,6.75,0,0,0-3-2.53,13.67,13.67,0,0,0-4.57-1.2,3.51,3.51,0,0,1-2.83-1.7,3.72,3.72,0,0,1-.42-2.77,3.23,3.23,0,0,1,1.45-2.26,3.61,3.61,0,0,1,2-.47,13.91,13.91,0,0,1,2.92.46,18.88,18.88,0,0,1,6.23,2.76,14.54,14.54,0,0,1,4.43,4.45A14.82,14.82,0,0,1,369.65,454Zm53.62-67a3.6,3.6,0,0,1,0,5.08l-22.05,21.76a3.6,3.6,0,0,1-2.53,1,3.54,3.54,0,0,1-2.55-1.07,3.59,3.59,0,0,1,0-5.07L418.19,387A3.6,3.6,0,0,1,423.27,387Z"/><path class="cls-2" d="M203,764.11a27.09,27.09,0,0,1-23.67-5.48,34.81,34.81,0,0,1-8-9.39,39.57,39.57,0,0,1-4.61-11.71,65.58,65.58,0,0,1-1.35-11.39,72.34,72.34,0,0,1,.85-13.9,61.84,61.84,0,0,1,4.09-14.55,55.07,55.07,0,0,1,8.22-13.64A45.4,45.4,0,0,1,192,673a9.58,9.58,0,0,1,2.41-.92,7.62,7.62,0,0,1,4.58.36c1.48.58,2.47,2,3,4.24a6,6,0,0,1-.57,4.24,8.2,8.2,0,0,1-3.38,3.29,38.17,38.17,0,0,0-8.1,6.49,47,47,0,0,0-6.71,8.93,46,46,0,0,0-4.51,10.6,38.5,38.5,0,0,0-1.54,11.37l-3,1.19a30.62,30.62,0,0,1,3.51-6.59,25.66,25.66,0,0,1,5.85-6,22.33,22.33,0,0,1,8.69-3.82,23.86,23.86,0,0,1,10.4.05,28.47,28.47,0,0,1,9.9,4.34,32.46,32.46,0,0,1,8,7.89,29.28,29.28,0,0,1,4,25.68A29.53,29.53,0,0,1,216.66,757,28.24,28.24,0,0,1,203,764.11Zm-2.56-11.58a16,16,0,0,0,7.74-4,15.65,15.65,0,0,0,4.33-7.29,18.66,18.66,0,0,0,.12-9.17,19.67,19.67,0,0,0-3.85-8.29,16.23,16.23,0,0,0-6.86-5,15.08,15.08,0,0,0-8.93-.51,15.88,15.88,0,0,0-8,4.25,17.26,17.26,0,0,0-4.4,7.57,18.74,18.74,0,0,0-.18,9.25,18.37,18.37,0,0,0,3.92,7.94,15.73,15.73,0,0,0,7.09,4.9A16.49,16.49,0,0,0,200.45,752.53Z"/><path class="cls-3" d="M237.36,932.41a5.41,5.41,0,0,0-3-3.23,6.16,6.16,0,0,0-2.61-.6,4.88,4.88,0,0,0-2.57.68l-51.93,25.56a5.74,5.74,0,0,0-3,2.86,5.13,5.13,0,0,0,0,4.32,5.72,5.72,0,0,0,2.8,3.14l28,13.14-.77,1.64,0,.08h23.72s0-.06,0-.08a5.09,5.09,0,0,0-.23-.85,5.21,5.21,0,0,0-2.8-3l-5.13-2.41L237,936.84A5.74,5.74,0,0,0,237.36,932.41Zm-27.9,36.41-19.31-9.08,30.91-15.59Z"/><path class="cls-4" d="M581,780.35a5.52,5.52,0,0,1-3.82-1.93,5.12,5.12,0,0,1-1.17-4l5.84-56.06,1.16,2-10.66,4.92a5,5,0,0,1-6.45-1.57,5.54,5.54,0,0,1-1.13-3.87,5.11,5.11,0,0,1,3.19-4.21l17.44-8.13a7.55,7.55,0,0,1,3.95-.33,4.78,4.78,0,0,1,3.45,1.9,5.44,5.44,0,0,1,1,4l-6.51,62.55a5,5,0,0,1-2,3.64A5.86,5.86,0,0,1,581,780.35Z"/><path class="cls-3" d="M984.71,975.67a26.84,26.84,0,0,1-1.32,4.25.13.13,0,0,1,0,.08H971.27a.22.22,0,0,0,.05-.08,16.91,16.91,0,0,0,1.95-3.81,15.76,15.76,0,0,0,.57-8.94,15.05,15.05,0,0,0-3.82-7.51,14.55,14.55,0,0,0-6.72-3.91,17.05,17.05,0,0,0-8.26-.1,16.85,16.85,0,0,0-6.09,2.54c-1.67,1.17-3.13,2.28-4.37,3.35a8.43,8.43,0,0,1-3.59,2,6.67,6.67,0,0,1-4.56-.3,5.47,5.47,0,0,1-2.51-2.63,9.57,9.57,0,0,1-.9-3.27l-2.35-28.58a5.23,5.23,0,0,1,1.1-3.48,5.56,5.56,0,0,1,3.36-2l31.74-7a5.11,5.11,0,0,1,6.22,4,4.85,4.85,0,0,1-.67,3.9,5.12,5.12,0,0,1-3.32,2.22l-28,6.2L942.49,951c.26-.22.55-.44.86-.67a31.33,31.33,0,0,1,4.92-2.91,27.59,27.59,0,0,1,19.41-1.69,24,24,0,0,1,10.89,6.85,25.68,25.68,0,0,1,6.08,12.07A25.11,25.11,0,0,1,984.71,975.67Z"/><path class="cls-5" d="M51.78,662.39a24.38,24.38,0,0,1-7.93,11.13A33.26,33.26,0,0,1,30,679.89a30.75,30.75,0,0,1-8.48.68,22.91,22.91,0,0,1-7.78-1.74,6.31,6.31,0,0,1-3-1.78,5.22,5.22,0,0,1-1.19-2.29,6.17,6.17,0,0,1,.65-4.24,4.85,4.85,0,0,1,3.38-2.68,7,7,0,0,1,1.85-.12,8.81,8.81,0,0,1,2.47.64,16.81,16.81,0,0,0,5.35,1.83,17.09,17.09,0,0,0,6.59-.26,15.58,15.58,0,0,0,7-3.54,15.38,15.38,0,0,0,4.73-15.31,14.75,14.75,0,0,0-3.77-7.52,13,13,0,0,0-6.34-3.48,16.15,16.15,0,0,0-7.22-.05A13.38,13.38,0,0,0,21,641.16c-.89.46-1.73.91-2.54,1.35a10.49,10.49,0,0,1-2.74,1,4,4,0,0,1-3.62-.73,5.67,5.67,0,0,1-1.92-3.27,5.18,5.18,0,0,1,0-2.38,9.87,9.87,0,0,1,1-2.39l13.65-23.93L.42,616.22a3.07,3.07,0,0,1-.42.07V605.86l32.44-7.19a5.41,5.41,0,0,1,4.64.68,5.89,5.89,0,0,1,2.19,3.49,4.7,4.7,0,0,1-.09,2.41,9.58,9.58,0,0,1-1.11,2.4L25.82,629.23a20.61,20.61,0,0,1,11.51.74,23.09,23.09,0,0,1,9.55,6.69,25.38,25.38,0,0,1,5.44,11.24A26.14,26.14,0,0,1,51.78,662.39Z"/><path class="cls-4" d="M841.84,900a4.49,4.49,0,0,1,2.95,5.74,4.22,4.22,0,0,1-2.22,2.65,4.46,4.46,0,0,1-3.48.21l-32.46-10.38a4.34,4.34,0,0,1-3-5.86,5.17,5.17,0,0,1,2.35-2.91l27.75-15.69a43.79,43.79,0,0,0,8.7-6.18,16.41,16.41,0,0,0,4.65-6.87,12.09,12.09,0,0,0,.4-6.35,11.53,11.53,0,0,0-2.78-5.32,12.15,12.15,0,0,0-5.36-3.34,12.45,12.45,0,0,0-6.84-.1,15.71,15.71,0,0,0-6.86,3.76,4.66,4.66,0,0,1-2.28,1.06,4.82,4.82,0,0,1-2-.17,5,5,0,0,1-2.74-2.26,3.88,3.88,0,0,1-.55-3.38,4.46,4.46,0,0,1,1.63-2.23,18.91,18.91,0,0,1,2.92-1.82,23.31,23.31,0,0,1,9.9-3.87,22.16,22.16,0,0,1,10.08.68,23.08,23.08,0,0,1,10.06,6,18.44,18.44,0,0,1,4.74,9.11,21.34,21.34,0,0,1-.76,10.81,23.19,23.19,0,0,1-3.8,7.09,39.23,39.23,0,0,1-6.34,6.44,60.85,60.85,0,0,1-8.57,5.76l-19.33,11-.72-1.25Z"/><path class="cls-6" d="M474.56,846.77a2.35,2.35,0,0,1-1-1.15,1.76,1.76,0,0,1,0-1.64,2.68,2.68,0,0,1,.93-1l31.76-18.35a2.17,2.17,0,0,1,2-.12,2.43,2.43,0,0,1,1.07,1.14,1.83,1.83,0,0,1,0,1.66,2.92,2.92,0,0,1-.94,1l-31.76,18.36A2.12,2.12,0,0,1,474.56,846.77ZM481.68,832a6.76,6.76,0,0,1-3.07-2.95,8.1,8.1,0,0,1-.88-4.23,11.44,11.44,0,0,1,1.26-4.64,11.73,11.73,0,0,1,3-3.89,8.32,8.32,0,0,1,3.92-1.86,6.53,6.53,0,0,1,4.21.66,6.63,6.63,0,0,1,3.09,3,8.46,8.46,0,0,1,.85,4.24,11.83,11.83,0,0,1-1.28,4.69,11.32,11.32,0,0,1-3,3.79,8.75,8.75,0,0,1-3.95,1.86A6.57,6.57,0,0,1,481.68,832Zm1.68-3.38a2.74,2.74,0,0,0,3-.29,8.56,8.56,0,0,0,2.54-3.19,8.47,8.47,0,0,0,1-4,2.84,2.84,0,0,0-4.58-2.26,9.71,9.71,0,0,0-3.58,7.19A2.76,2.76,0,0,0,483.36,828.66ZM493,856.35a6.56,6.56,0,0,1-3-2.9,8.48,8.48,0,0,1-.92-4.25,10.91,10.91,0,0,1,1.21-4.66,11.64,11.64,0,0,1,3-3.88,8.59,8.59,0,0,1,3.95-1.85,7,7,0,0,1,7.26,3.61,8.6,8.6,0,0,1,.84,4.25,11.66,11.66,0,0,1-1.28,4.68,11.36,11.36,0,0,1-3,3.8,8.59,8.59,0,0,1-3.94,1.85A6.5,6.5,0,0,1,493,856.35Zm1.72-3.35a2.72,2.72,0,0,0,3-.31,8.49,8.49,0,0,0,2.53-3.2,8.35,8.35,0,0,0,1-4,2.84,2.84,0,0,0-4.58-2.26,9.55,9.55,0,0,0-3.56,7.2A2.8,2.8,0,0,0,494.72,853Z"/><path class="cls-6" d="M774.82,962.66a3.51,3.51,0,0,1-.66,1.36l-12,15.9-.06.08H753.6l.06-.08,12.41-16.34-18.58-4.36a3.13,3.13,0,0,1-2-1.36,3,3,0,0,1-.36-2.43,2.86,2.86,0,0,1,1.37-1.89,3.13,3.13,0,0,1,2.39-.33l23.21,5.43a3.74,3.74,0,0,1,2.24,1.46A3,3,0,0,1,774.82,962.66Z"/><path class="cls-3" d="M610.36,866.91a15,15,0,0,1,6.31,3.05,15.36,15.36,0,0,1,4,5.18,18.57,18.57,0,0,1,1.73,6.46,22.05,22.05,0,0,1-.51,6.9,35.44,35.44,0,0,1-2,5.87,38,38,0,0,1-3.66,6.52,34.78,34.78,0,0,1-5.42,6.1,29.08,29.08,0,0,1-7.24,4.72,25.23,25.23,0,0,1-9.2,2.19,5.48,5.48,0,0,1-1.4-.11,3.94,3.94,0,0,1-2.15-1.33,2.94,2.94,0,0,1-.47-2.71,3.28,3.28,0,0,1,1.28-2,4.67,4.67,0,0,1,2.43-.78,23.52,23.52,0,0,0,7.35-2,26.08,26.08,0,0,0,6.83-4.5,19.4,19.4,0,0,0,4.79-6.64l1.76.13a17.48,17.48,0,0,1-3.22,2.31,14.29,14.29,0,0,1-4.29,1.59,12.17,12.17,0,0,1-5.2-.18,12.93,12.93,0,0,1-5.08-2.47,15.65,15.65,0,0,1-3.84-4.47,17.82,17.82,0,0,1-2.08-5.72,15.23,15.23,0,0,1,.19-6.26,15.46,15.46,0,0,1,3.88-7.29,16.08,16.08,0,0,1,6.89-4.3A15.42,15.42,0,0,1,610.36,866.91Zm-1.45,6.22a8.84,8.84,0,0,0-4.71.14,8.49,8.49,0,0,0-3.87,2.55,10.32,10.32,0,0,0-2.24,4.54,10.69,10.69,0,0,0,0,4.87,8.78,8.78,0,0,0,2.21,4.11,8.23,8.23,0,0,0,4.23,2.35,8.79,8.79,0,0,0,4.92-.17,9.12,9.12,0,0,0,3.94-2.67,10.26,10.26,0,0,0,2.25-4.46,9.86,9.86,0,0,0,0-4.89,9,9,0,0,0-2.33-4A8.77,8.77,0,0,0,608.91,873.13Z"/><path class="cls-4" d="M265.22,889a4.27,4.27,0,0,1,1.23-.32,6.07,6.07,0,0,1,1.76.13,11.43,11.43,0,0,0,8.28-.44,10.53,10.53,0,0,0,4.29-3.27,10.58,10.58,0,0,0,1.29-11,10.08,10.08,0,0,0-3.49-4.62,9,9,0,0,0-4.73-1.57,11.18,11.18,0,0,0-4.9.88,8.48,8.48,0,0,0-2.07,1.17c-.55.42-1.06.83-1.56,1.23a6.47,6.47,0,0,1-1.72,1,2.75,2.75,0,0,1-2.55,0,3.92,3.92,0,0,1-1.71-2,3.68,3.68,0,0,1-.31-1.61,6.84,6.84,0,0,1,.39-1.74L266.35,847l2.15.75-18.65,7.9a3.52,3.52,0,0,1-4.71-1.91,3.3,3.3,0,0,1,0-2.65,3.52,3.52,0,0,1,2-1.91l22.23-9.42a3.69,3.69,0,0,1,3.23-.12,4,4,0,0,1,1.92,2.09,3.24,3.24,0,0,1,.24,1.64,6.59,6.59,0,0,1-.45,1.77l-6.91,19.94-2.63-1.13a11.17,11.17,0,0,1,1.69-1.38,11.43,11.43,0,0,1,2-1.19,14.2,14.2,0,0,1,8.11-1,15.93,15.93,0,0,1,7.31,3.33,17.45,17.45,0,0,1,5.09,6.93,18,18,0,0,1,1.45,9.89,16.72,16.72,0,0,1-4,8.53,22.86,22.86,0,0,1-8.6,6,21.59,21.59,0,0,1-5.66,1.53,16.06,16.06,0,0,1-5.48-.21,4.41,4.41,0,0,1-2.26-.83,3.74,3.74,0,0,1-1.09-1.4,4.24,4.24,0,0,1-.09-2.95A3.3,3.3,0,0,1,265.22,889Z"/><path class="cls-2" d="M691.91,780.06a3.7,3.7,0,0,1-2.8-.07,3.46,3.46,0,0,1-1.62-4.69,3.71,3.71,0,0,1,2.17-1.78l21.27-7.25a3.75,3.75,0,0,1,2.8.06,3.27,3.27,0,0,1,1.8,2,3.23,3.23,0,0,1-.18,2.69,3.71,3.71,0,0,1-2.17,1.78Zm3.45,10a3.66,3.66,0,0,1-2.82-.1,3.38,3.38,0,0,1-1.8-2,3.12,3.12,0,0,1,.19-2.66,3.82,3.82,0,0,1,2.18-1.74l21.27-7.25a3.83,3.83,0,0,1,2.79,0,3.13,3.13,0,0,1,1.79,2,3.38,3.38,0,0,1-.17,2.72,3.63,3.63,0,0,1-2.16,1.81Zm30.89,7a25.16,25.16,0,0,1-9.35,1.39,23.13,23.13,0,0,1-9-2.23,23.7,23.7,0,0,1-7.69-6,29.33,29.33,0,0,1-5.42-9.79,28,28,0,0,1-1.61-10.3,24.34,24.34,0,0,1,2.18-9.36,23.52,23.52,0,0,1,5.56-7.56,24.14,24.14,0,0,1,8.54-5,20.77,20.77,0,0,1,5.93-1.13,20.52,20.52,0,0,1,5.9.55,3.18,3.18,0,0,1,2.54,1.72,3.65,3.65,0,0,1,.13,3.15,2.83,2.83,0,0,1-1.51,1.82,4.35,4.35,0,0,1-2.54.34,14.87,14.87,0,0,0-4-.43,12.84,12.84,0,0,0-4.09.72,16.41,16.41,0,0,0-11.24,13.28,20.24,20.24,0,0,0,1.06,9.8,21.08,21.08,0,0,0,5.52,9,15.53,15.53,0,0,0,7.92,4,17.79,17.79,0,0,0,8.86-.81,14.7,14.7,0,0,0,3.66-1.87,13.25,13.25,0,0,0,3-2.84,4.24,4.24,0,0,1,2.23-1.27,3.23,3.23,0,0,1,2.38.51,3.82,3.82,0,0,1,1.82,2.62,3.24,3.24,0,0,1-.94,2.8,22.72,22.72,0,0,1-2.77,2.78,26.37,26.37,0,0,1-3.31,2.36A19.42,19.42,0,0,1,726.25,797Z"/><path class="cls-4" d="M530.41,960.27a4.6,4.6,0,0,1-2.93,2.64,3.55,3.55,0,0,1-2.94,0,5.52,5.52,0,0,1-2.35-2.17,18.88,18.88,0,0,0-2.79-4.23,16.62,16.62,0,0,0-3.95-3.35,20.45,20.45,0,0,0-21.68-.24c-.57.34-1.12.7-1.66,1.09L504,961.28a4.61,4.61,0,0,1,2.17,2.75,4.34,4.34,0,0,1-3.23,5.29,4.65,4.65,0,0,1-3.43-.68L486,960.39c-.28.43-.57.87-.85,1.33-.54.88-1,1.75-1.46,2.62l13.36,8.21a4.77,4.77,0,0,1,2.19,2.71,3.9,3.9,0,0,1-.48,3.28,4.31,4.31,0,0,1-1.3,1.38l-.11.08a4.3,4.3,0,0,1-1.34.55,4.46,4.46,0,0,1-3.3-.55l-.13-.08h0l-11.51-7.07c-.06.44-.09.87-.11,1.3a20.64,20.64,0,0,0,.5,5.78.24.24,0,0,0,0,.08h-9.12a.11.11,0,0,1,0-.08,29.89,29.89,0,0,1,.07-9.89c.12-.74.27-1.48.46-2.23l-4.17-2.56a4.47,4.47,0,0,1-2.14-2.78,4.19,4.19,0,0,1,.52-3.36,4,4,0,0,1,2.7-1.93,4.78,4.78,0,0,1,3.41.71l2.83,1.74c.46-.86.94-1.72,1.47-2.58.28-.46.57-.91.86-1.35L475.6,954a4.63,4.63,0,0,1-2.16-2.75,4.34,4.34,0,0,1,3.22-5.29,4.64,4.64,0,0,1,3.43.68l4,2.43c.67-.61,1.37-1.19,2.09-1.74A30.52,30.52,0,0,1,496.87,942a29.12,29.12,0,0,1,11.66-.67,30.08,30.08,0,0,1,11.55,4.26,26.34,26.34,0,0,1,5.8,4.8,25.53,25.53,0,0,1,4.16,6.11A4,4,0,0,1,530.41,960.27Z"/><path class="cls-6" d="M65.12,737a15.09,15.09,0,0,1,6,3.63,15.43,15.43,0,0,1,3.54,5.56,18.77,18.77,0,0,1,1.13,6.62,22.08,22.08,0,0,1-1.16,6.85,35.27,35.27,0,0,1-2.56,5.69,38,38,0,0,1-4.27,6.17,34.53,34.53,0,0,1-6,5.61,29.65,29.65,0,0,1-7.67,4,25.25,25.25,0,0,1-9.41,1.34,5.07,5.07,0,0,1-1.39-.25,3.93,3.93,0,0,1-2-1.52,3,3,0,0,1-.21-2.75,3.26,3.26,0,0,1,1.46-1.87,4.65,4.65,0,0,1,2.5-.55,23.76,23.76,0,0,0,7.54-1.34,26,26,0,0,0,7.25-3.86,19.49,19.49,0,0,0,5.41-6.2l1.74.29a17.34,17.34,0,0,1-3.43,2,14,14,0,0,1-4.44,1.2A12.23,12.23,0,0,1,54,767,12.89,12.89,0,0,1,49.13,764a15.53,15.53,0,0,1-3.42-4.82,17.74,17.74,0,0,1-1.55-5.92,15.25,15.25,0,0,1,.77-6.25,15.55,15.55,0,0,1,4.55-6.92,16.16,16.16,0,0,1,7.29-3.66A15.5,15.5,0,0,1,65.12,737Zm-2,6.08a8.76,8.76,0,0,0-4.72-.29,8.5,8.5,0,0,0-4.11,2.19,10.36,10.36,0,0,0-2.66,4.33,10.68,10.68,0,0,0-.49,4.86,8.78,8.78,0,0,0,1.83,4.33,8.31,8.31,0,0,0,4,2.73,8.68,8.68,0,0,0,4.94.29,9.11,9.11,0,0,0,4.19-2.31,10.14,10.14,0,0,0,2.67-4.25,9.82,9.82,0,0,0,.42-4.89,9,9,0,0,0-2-4.25A8.85,8.85,0,0,0,63.09,743Z"/><path class="cls-7" d="M1024.83,906.84a12.67,12.67,0,0,1-8.46-1.59,16.32,16.32,0,0,1-6-6.66,34.72,34.72,0,0,1-2.77-21.24,16.09,16.09,0,0,1,4.05-7.93,13.86,13.86,0,0,1,16.18-2.11,16.35,16.35,0,0,1,5.95,6.62,31.14,31.14,0,0,1,3.1,10.43,30.61,30.61,0,0,1-.33,10.81,16.6,16.6,0,0,1-4,8A12.5,12.5,0,0,1,1024.83,906.84Zm-.76-5.76a6.71,6.71,0,0,0,4.37-2.32,11.16,11.16,0,0,0,2.32-5.41,31.84,31.84,0,0,0-2.11-16.16,11.12,11.12,0,0,0-3.63-4.63,6.69,6.69,0,0,0-4.81-1.12,6.88,6.88,0,0,0-4.41,2.32,11,11,0,0,0-2.31,5.41,32.53,32.53,0,0,0,2.11,16.16,10.91,10.91,0,0,0,3.62,4.64A6.86,6.86,0,0,0,1024.07,901.08Z"/><path class="cls-7" d="M357.88,776.05a2.66,2.66,0,0,1-2-.53,2.72,2.72,0,0,1-1-1.89,2.37,2.37,0,0,1,.55-1.9,2.72,2.72,0,0,1,1.83-1l18.95-2.48a2.69,2.69,0,0,1,3.06,2.36,2.42,2.42,0,0,1-.54,2,2.77,2.77,0,0,1-1.83,1Zm9.79,11.26a17.73,17.73,0,0,1,5.09.08c1.71.26,3.38.53,5,.81a15.51,15.51,0,0,0,4.58.13,7.62,7.62,0,0,0,2.46-.78,8.6,8.6,0,0,0,2-1.26,6,6,0,0,1,1.05-.63,3.56,3.56,0,0,1,1-.32,2.18,2.18,0,0,1,2,.57,3.16,3.16,0,0,1,.85,1.82,3,3,0,0,1-.65,2.31,7.34,7.34,0,0,1-2.59,2,10.09,10.09,0,0,1-2.68,1.21,14.48,14.48,0,0,1-2.78.55,23.66,23.66,0,0,1-3.67,0c-1.4-.11-2.84-.26-4.31-.45s-2.87-.35-4.19-.46a13.11,13.11,0,0,0-5.3.41c-.69.2-1.32.39-1.88.58s-1,.39-1.43.56a5.5,5.5,0,0,0-1.54.87,2.65,2.65,0,0,1-1.39.61,2.21,2.21,0,0,1-1.74-.48,2.48,2.48,0,0,1-.93-1.74,3.07,3.07,0,0,1,.43-2.08,4.6,4.6,0,0,1,1.78-1.57c.92-.45,1.89-.86,2.9-1.24a24.36,24.36,0,0,1,3.06-.92C365.83,787.61,366.79,787.43,367.67,787.31Zm-1.08,3.88-4.8-.66a4.33,4.33,0,0,0,1.28-1.67,10.08,10.08,0,0,0,.83-2.77,12.06,12.06,0,0,0,0-3.61,18.63,18.63,0,0,0-1.16-4.44c-.58-1.43-1.19-2.82-1.86-4.16s-1.28-2.67-1.83-4a15.34,15.34,0,0,1-1.11-4,14.07,14.07,0,0,1,.75-7.16,12.07,12.07,0,0,1,4.08-5.31,14.81,14.81,0,0,1,7.08-2.66,18.36,18.36,0,0,1,5.24,0,11.85,11.85,0,0,1,4.4,1.57,9.18,9.18,0,0,1,2.23,1.39,2.79,2.79,0,0,1,1,1.74,3,3,0,0,1-.65,2.29,3,3,0,0,1-2,1.18,3.29,3.29,0,0,1-1.29-.08,2.7,2.7,0,0,1-1-.47,9.54,9.54,0,0,0-3.19-1.7,9.33,9.33,0,0,0-3.92-.25,7.33,7.33,0,0,0-3.89,1.61,6.91,6.91,0,0,0-2.16,3.16,8.84,8.84,0,0,0-.34,4,13.67,13.67,0,0,0,1.06,3.65c.55,1.28,1.15,2.57,1.79,3.9s1.24,2.62,1.8,3.89a14.22,14.22,0,0,1,1.06,3.66,12.1,12.1,0,0,1-.17,4.36,14.29,14.29,0,0,1-1.36,3.67A21.94,21.94,0,0,1,366.59,791.19Z"/><path class="cls-2" d="M1176,826.88a5.57,5.57,0,0,1,1.52,0,7.45,7.45,0,0,1,2,.71,13.57,13.57,0,0,0,9.63,2.13,12.63,12.63,0,0,0,6-2.38,12.85,12.85,0,0,0,4.06-5.07,12.72,12.72,0,0,0,.9-7.08,12,12,0,0,0-2.53-6.41,10.6,10.6,0,0,0-4.92-3.3,13.29,13.29,0,0,0-5.89-.56,11,11,0,0,0-2.76.68l-2.17.92a8.19,8.19,0,0,1-2.3.63,3.33,3.33,0,0,1-2.91-.86,4.68,4.68,0,0,1-1.33-2.81,4.29,4.29,0,0,1,.16-2,8.35,8.35,0,0,1,1-1.87l14.28-20.56,2.22,1.54L1169,783.79a4.19,4.19,0,0,1-4.79-3.68,3.88,3.88,0,0,1,.84-3.05,4.2,4.2,0,0,1,2.87-1.56l28.48-3.72a4.4,4.4,0,0,1,3.74.89,4.81,4.81,0,0,1,1.54,3,3.88,3.88,0,0,1-.25,2,7.47,7.47,0,0,1-1.08,1.88l-14.27,20.66-2.66-2.13a17.75,17.75,0,0,1,5.09-1.76,16.84,16.84,0,0,1,9.62,1.4,18.8,18.8,0,0,1,7.32,6.15,20.78,20.78,0,0,1,3.63,9.57,21.51,21.51,0,0,1-1.49,11.79,19.93,19.93,0,0,1-7.28,8.51,27.19,27.19,0,0,1-11.78,4.2,25.41,25.41,0,0,1-7,0,19,19,0,0,1-6.22-2,5.18,5.18,0,0,1-2.33-1.67,4.29,4.29,0,0,1-.8-2,5.1,5.1,0,0,1,.83-3.41A4,4,0,0,1,1176,826.88Z"/><path class="cls-4" d="M123.84,915a29.67,29.67,0,0,1-9.38-4,25.25,25.25,0,0,1-6.89-7.09,4,4,0,0,1-.89-1.8,4.34,4.34,0,0,1,0-1.9,3.85,3.85,0,0,1,1.73-2.33,3.62,3.62,0,0,1,3-.47,3.72,3.72,0,0,1,2.07,1.42,22.75,22.75,0,0,0,5,5.57,19.12,19.12,0,0,0,7.09,3.24,15.77,15.77,0,0,0,5.86.43,10.94,10.94,0,0,0,4.76-1.65,5.8,5.8,0,0,0,2.5-3.5,6.89,6.89,0,0,0-.42-4.94,11.89,11.89,0,0,0-3.75-4.11,42.11,42.11,0,0,0-6.55-3.8,35.78,35.78,0,0,1-6.35-3.63,18.7,18.7,0,0,1-4.37-4.38,13.12,13.12,0,0,1-2.16-5.29,15.38,15.38,0,0,1,.38-6.32,13.68,13.68,0,0,1,4.45-7.4,16.36,16.36,0,0,1,8-3.51,24,24,0,0,1,9.92.55,27.54,27.54,0,0,1,8.63,3.75,19,19,0,0,1,5.78,5.72,4.68,4.68,0,0,1,1,3.89,3.77,3.77,0,0,1-1.75,2.28,3.53,3.53,0,0,1-2.85.54,2.87,2.87,0,0,1-1.68-1.07,11.77,11.77,0,0,0-2.7-3.15,26.8,26.8,0,0,0-3.95-2.83,17.24,17.24,0,0,0-10.41-2.33,8.88,8.88,0,0,0-4.39,1.65,6.22,6.22,0,0,0-2.27,3.53,6.4,6.4,0,0,0,.41,4.64,10.74,10.74,0,0,0,3.48,3.76,52.51,52.51,0,0,0,5.63,3.41,67.54,67.54,0,0,1,7,4,19.65,19.65,0,0,1,4.87,4.35,12.19,12.19,0,0,1,2.39,5.35,16.62,16.62,0,0,1-.45,6.94,13.29,13.29,0,0,1-4.62,7.36,17.69,17.69,0,0,1-8.17,3.62A23.45,23.45,0,0,1,123.84,915Zm3,6.68a3.92,3.92,0,0,1-1.8,2.47,3.78,3.78,0,0,1-3.07.44,3.59,3.59,0,0,1-2.39-1.81,4,4,0,0,1-.37-3l16.1-63.94a3.89,3.89,0,0,1,4.87-2.91,3.64,3.64,0,0,1,2.39,1.78,4,4,0,0,1,.37,3.05Z"/><path class="cls-6" d="M990.13,842.59a3.34,3.34,0,0,1-2.69-.73,3.9,3.9,0,0,1-1.67-2.39,2.61,2.61,0,0,1,.11-1.55,4.3,4.3,0,0,1,1.11-1.44l23.73-20.94,1.7,5.76L981.56,811a3.29,3.29,0,0,1-1.45-1,3.54,3.54,0,0,1-.67-1.47,3.89,3.89,0,0,1,.51-2.93,3.16,3.16,0,0,1,2-1.63,3.29,3.29,0,0,1,1.59.11l1.85.54,28.92,9.56a3.12,3.12,0,0,1,1.67,1.06,4,4,0,0,1,.86,1.79,4.1,4.1,0,0,1,0,1.94,3.39,3.39,0,0,1-1.06,1.67l-22.84,20.19-1.42,1.07A3.61,3.61,0,0,1,990.13,842.59Z"/><path class="cls-4" d="M1070.41,722.48l.52-2.27A26.59,26.59,0,0,1,1077,728a25.3,25.3,0,0,1,2.74,9,20.51,20.51,0,0,1-1,9,23.57,23.57,0,0,1-8,11.12,28.24,28.24,0,0,1-13.07,5.48,32.62,32.62,0,0,1-27.86-9.76,28.25,28.25,0,0,1-6.79-12.44,23.42,23.42,0,0,1,.66-13.71,20.8,20.8,0,0,1,5.59-8.78,23.44,23.44,0,0,1,8.23-4.87,48.74,48.74,0,0,1,8.7-2.11l-1.66,2.4a25.18,25.18,0,0,1-4.7-5.79,19.26,19.26,0,0,1-2.56-7.63,19.6,19.6,0,0,1,1.11-9,23.23,23.23,0,0,1,7.68-10.84,26.78,26.78,0,0,1,12.27-5.35,29.05,29.05,0,0,1,25.74,9,26.59,26.59,0,0,1,6.13,11.8,23.47,23.47,0,0,1-.84,13.24,18.47,18.47,0,0,1-5,8,20.76,20.76,0,0,1-7,4.15A27.53,27.53,0,0,1,1070.41,722.48Zm-24,27.47a16.8,16.8,0,0,0,12.39-.07,13.37,13.37,0,0,0,7.78-8.23,13.59,13.59,0,0,0,.45-7.86,15.39,15.39,0,0,0-3.83-6.92,18.52,18.52,0,0,0-15.51-5.43,15.3,15.3,0,0,0-7.31,3,14,14,0,0,0-3.62,17.7A16.79,16.79,0,0,0,1046.37,750Zm4.12-54.44a13.35,13.35,0,0,0-.58,7.27,13.55,13.55,0,0,0,3.17,6.28,14.32,14.32,0,0,0,6.19,4.07,14,14,0,0,0,7.31.66,13.56,13.56,0,0,0,6.34-2.94,13.39,13.39,0,0,0,4.09-6.05,13.16,13.16,0,0,0-.49-10.64,13.8,13.8,0,0,0-8.17-6.94,14,14,0,0,0-10.84.28A13.12,13.12,0,0,0,1050.49,695.51Z"/><path class="cls-2" d="M372.93,900.18a5.05,5.05,0,0,1-3-2.57,4.54,4.54,0,0,1-.29-3.7,4.22,4.22,0,0,1,2.5-2.61,5.27,5.27,0,0,1,3.89-.06L412.39,904a5,5,0,0,1,3,2.47,4.38,4.38,0,0,1,.22,3.56,4.71,4.71,0,0,1-2.43,2.75,4.86,4.86,0,0,1-3.93.15Zm6.47-18.46a5,5,0,0,1-3-2.57,4.54,4.54,0,0,1-.29-3.7,4.36,4.36,0,0,1,2.53-2.71,5.27,5.27,0,0,1,3.89,0l36.33,12.73a4.94,4.94,0,0,1,3,2.52,4.57,4.57,0,0,1,.21,3.62,4.7,4.7,0,0,1-2.44,2.74,4.83,4.83,0,0,1-3.92.16Z"/><path class="cls-8" d="M1199.66,662a4.13,4.13,0,0,1-1.68-1.41,5.36,5.36,0,0,1-.88-2.29l-3.9-31,2.6,1.1-8.9.93a4.39,4.39,0,0,1-1.87-.17,3.34,3.34,0,0,1-2.24-2.14,4.28,4.28,0,0,1,0-2.91,3.79,3.79,0,0,1,3.57-2.5l10-1a3.77,3.77,0,0,1,2.27.41,3.07,3.07,0,0,1,1.48,1.15,4.4,4.4,0,0,1,.78,2.05l3.06,27-1-.53,33.48-40a4.67,4.67,0,0,1,2-1.36,3.39,3.39,0,0,1,2.2,0,4,4,0,0,1,2.37,2,3.63,3.63,0,0,1,.23,2.93,4.14,4.14,0,0,1-.36.74,5,5,0,0,1-.56.77l-37.66,44.74a4.48,4.48,0,0,1-2.22,1.54A4.6,4.6,0,0,1,1199.66,662Z"/><path class="cls-6" d="M1247.63,906.2a4.14,4.14,0,0,0-2.47-2.2,4.53,4.53,0,0,0-3.56.3l-31.7,15.27a4.86,4.86,0,0,0-2.48,2.55,4,4,0,0,0,.12,3.38,4.19,4.19,0,0,0,2.58,2.21,4.62,4.62,0,0,0,3.58-.26l31.7-15.26a4.44,4.44,0,0,0,2.44-2.64A4.33,4.33,0,0,0,1247.63,906.2Zm5.31,13.95a4.59,4.59,0,0,0-3.54.34l-31.7,15.27a4.78,4.78,0,0,0-2.48,2.55,3.85,3.85,0,0,0,.08,3.3,4.18,4.18,0,0,0,2.57,2.21,4.66,4.66,0,0,0,3.58-.27l31.7-15.26a6.3,6.3,0,0,0,.85-.49v-7.13A4.18,4.18,0,0,0,1252.94,920.15Z"/><path class="cls-2" d="M821.94,738.83a3.8,3.8,0,0,1-2.36-4.91,3.45,3.45,0,0,1,1.93-2.15,3.9,3.9,0,0,1,2.93-.06l31.65,11.09a3.79,3.79,0,0,1,2.23,1.91,3.53,3.53,0,0,1,.15,2.92,3.57,3.57,0,0,1-1.93,2.19,3.81,3.81,0,0,1-2.95.1ZM832.17,760a4.4,4.4,0,0,1-2.57-2.2,4.17,4.17,0,0,1-.17-3.36l10.88-31a4.16,4.16,0,0,1,2.29-2.58,4.47,4.47,0,0,1,3.43-.11,4.2,4.2,0,0,1,2.57,2.21,4.3,4.3,0,0,1,.09,3.33l-10.9,31.1a4.24,4.24,0,0,1-2.19,2.54A4.37,4.37,0,0,1,832.17,760Z"/><path class="cls-6" d="M21.21,940.58a2.49,2.49,0,0,1-2-.09,2.45,2.45,0,0,1-1.3-1.48,2.33,2.33,0,0,1,.1-1.92,2.64,2.64,0,0,1,1.5-1.25l21-7.4a2.55,2.55,0,0,1,2,.06,2.56,2.56,0,0,1,1.19,3.39,2.51,2.51,0,0,1-1.48,1.28Zm14.09,6.71a2.92,2.92,0,0,1-2.25-.08,2.73,2.73,0,0,1-1.48-1.67L24.3,924.92a2.78,2.78,0,0,1,.12-2.3,3,3,0,0,1,1.74-1.47,2.78,2.78,0,0,1,2.25.07,2.88,2.88,0,0,1,1.43,1.69l7.28,20.67a2.82,2.82,0,0,1-.08,2.23A2.94,2.94,0,0,1,35.3,947.29Z"/><rect class="cls-9" y="419.92" width="1254" height="560"/></g></g></svg>