<svg xmlns="http://www.w3.org/2000/svg" width="310" height="110" viewBox="0 0 310 110">
  <path fill="#F7F7EF" fill-rule="evenodd" d="M76.1766193,71 L78.7749591,71 L78.7749591,39 L76.1766193,39 L76.1766193,71 Z M53.8901305,53.1217828 L56.9067694,53.1217828 C57.5626136,53.1217828 58.1341873,52.8659577 58.6214905,52.3543074 C59.1081831,51.8420664 59.3518347,51.2228869 59.3518347,50.4955873 C59.3518347,49.7682877 59.113679,49.1946014 58.6373676,48.7745283 C58.1610561,48.355046 57.5100972,48.1453048 56.6844908,48.1453048 L53.8901305,48.1453048 L53.8901305,53.1217828 Z M49,64.7048115 L49,45.349544 C49,44.5300764 49.4231844,44.1206381 50.2701638,44.1206381 L56.4622121,44.1206381 C61.7333917,44.1206381 64.3689815,46.0455301 64.3689815,49.8959049 C64.3689815,51.0432776 64.0355636,52.0417636 63.3687276,52.8913629 C62.7018916,53.7415531 61.7968999,54.3719582 60.6537525,54.7808057 L60.6537525,54.9036963 C61.055564,55.0472656 61.4683672,55.3905321 61.8921622,55.9334958 C62.3153466,56.4758687 62.6646416,57.0749603 62.9400473,57.7307707 L65.7344076,64.489753 C65.840051,64.7562128 65.8931781,64.9505927 65.8931781,65.0734833 C65.8931781,65.4829216 65.2580962,65.6879362 63.9879324,65.6879362 L62.6860146,65.6879362 C61.6271377,65.6879362 61.0134287,65.4728777 60.8442771,65.0427606 L58.3357037,59.0512536 C57.9754168,58.3753554 57.5894825,57.8991544 57.1766792,57.6232414 C56.763876,57.3461467 56.081163,57.2078948 55.1285402,57.2078948 L53.8901305,57.2078948 L53.8901305,64.7048115 C53.8901305,65.360031 53.2550486,65.6879362 51.9848848,65.6879362 L50.9052456,65.6879362 C49.6350819,65.6879362 49,65.360031 49,64.7048115 L49,64.7048115 Z M248.360752,63.1680883 C248.360752,62.6972047 248.604404,62.1235183 249.091707,61.4482109 C249.577789,60.7723127 249.991203,60.4337728 250.330116,60.4337728 C250.457133,60.4337728 250.731928,60.5466194 251.155112,60.7723127 C252.468022,61.4889775 253.747956,61.8470145 254.997358,61.8470145 C256.987484,61.8470145 257.982853,61.099627 257.982853,59.6048521 C257.982853,58.9490418 257.665312,58.3960341 257.03023,57.9452384 C256.394538,57.4950334 255.627554,57.1003656 254.728058,56.7624165 C253.827341,56.4244673 252.933342,56.0357077 252.044227,55.5949559 C251.155112,55.1547949 250.393014,54.4735793 249.757932,53.5518999 C249.12285,52.6302204 248.80592,51.478712 248.80592,50.0956021 C248.80592,48.713083 249.186969,47.5302611 249.949067,46.5471364 C251.324875,44.7652228 253.452399,43.8742661 256.33164,43.8742661 C257.940107,43.8742661 259.294541,44.0999594 260.395554,44.5507551 C261.496566,45.0009601 262.046767,45.4925224 262.046767,46.0254422 C262.046767,46.4756471 261.845861,47.0339722 261.444049,47.6998264 C261.041627,48.3656807 260.660578,48.6983125 260.300902,48.6983125 C260.21541,48.6983125 260.025496,48.6262324 259.728718,48.4826631 C258.882349,48.1139914 257.902857,47.9296555 256.792075,47.9296555 C255.680681,47.9296555 254.907591,48.1139914 254.474026,48.4826631 C254.03985,48.8513349 253.823067,49.3127654 253.823067,49.8657731 C253.823067,50.4181899 254.140608,50.9097522 254.77569,51.3398693 C255.410772,51.7699863 256.172259,52.1492929 257.061374,52.477198 C257.950488,52.8045124 258.845099,53.1885455 259.745205,53.6287065 C260.64409,54.0694583 261.411685,54.7500831 262.046767,55.6717625 C262.681848,56.5934419 263,57.6947306 263,58.9750378 C263,60.2553451 262.793598,61.3507256 262.380185,62.2623611 C261.967381,63.1739965 261.401303,63.885344 260.681951,64.3969942 C259.284771,65.3801189 257.569439,65.8716813 255.537788,65.8716813 C253.505526,65.8716813 251.801186,65.5750895 250.425379,64.9813153 C249.048961,64.3875411 248.360752,63.7825413 248.360752,63.1680883 L248.360752,63.1680883 Z M229.341271,64.3969942 L229.341271,45.349544 C229.341271,44.5300764 229.764455,44.1206381 230.611435,44.1206381 L242.233433,44.1206381 C242.868515,44.1206381 243.186056,44.6322883 243.186056,45.6567704 L243.186056,46.6085817 C243.186056,47.6330638 242.868515,48.1453048 242.233433,48.1453048 L234.231401,48.1453048 L234.231401,52.6000886 L241.376073,52.6000886 C242.011154,52.6000886 242.328695,53.1117389 242.328695,54.1356301 L242.328695,55.0880322 C242.328695,56.1125143 242.011154,56.6247554 241.376073,56.6247554 L234.231401,56.6247554 L234.231401,61.6012333 L242.265187,61.6012333 C242.900269,61.6012333 243.217199,62.1140652 243.217199,63.1373657 L243.217199,64.0903586 C243.217199,65.1142498 242.900269,65.6259001 242.265187,65.6259001 L230.611435,65.6259001 C229.764455,65.6259001 229.341271,65.2170525 229.341271,64.3969942 L229.341271,64.3969942 Z M211.685995,53.1217828 L214.702634,53.1217828 C215.358478,53.1217828 215.930051,52.8659577 216.417355,52.3543074 C216.904047,51.8420664 217.147699,51.2228869 217.147699,50.4955873 C217.147699,49.7682877 216.909543,49.1946014 216.433232,48.7745283 C215.95692,48.355046 215.305961,48.1453048 214.480355,48.1453048 L211.685995,48.1453048 L211.685995,53.1217828 Z M206.795864,64.7048115 L206.795864,45.349544 C206.795864,44.5300764 207.219048,44.1206381 208.066028,44.1206381 L214.258076,44.1206381 C219.529256,44.1206381 222.164846,46.0455301 222.164846,49.8959049 C222.164846,51.0432776 221.831428,52.0417636 221.164592,52.8913629 C220.497756,53.7415531 219.592764,54.3719582 218.449617,54.7808057 L218.449617,54.9036963 C218.851428,55.0472656 219.264231,55.3905321 219.688026,55.9334958 C220.1106,56.4758687 220.460506,57.0749603 220.735911,57.7307707 L223.530272,64.489753 C223.635915,64.7562128 223.689042,64.9505927 223.689042,65.0734833 C223.689042,65.4829216 223.05396,65.6879362 221.783797,65.6879362 L220.481879,65.6879362 C219.423612,65.6879362 218.809293,65.4728777 218.640141,65.0427606 L216.131568,59.0512536 C215.771281,58.3753554 215.385347,57.8991544 214.971933,57.6232414 C214.55974,57.3461467 213.877027,57.2078948 212.924404,57.2078948 L211.685995,57.2078948 L211.685995,64.7048115 C211.685995,65.360031 211.050913,65.6879362 209.780749,65.6879362 L208.70111,65.6879362 C207.430946,65.6879362 206.795864,65.360031 206.795864,64.7048115 L206.795864,64.7048115 Z M180.916277,58.4368007 L180.916277,45.0423175 C180.916277,44.3865071 181.551359,44.0591928 182.821523,44.0591928 L183.901773,44.0591928 C185.171937,44.0591928 185.807019,44.3865071 185.807019,45.0423175 L185.807019,58.1295742 C185.807019,59.2155016 186.208219,60.1064584 187.013063,60.8024445 C187.817908,61.4996123 188.854801,61.8470145 190.124965,61.8470145 C191.395128,61.8470145 192.437518,61.4996123 193.252743,60.8024445 C194.067358,60.1064584 194.475276,59.2155016 194.475276,58.1295742 L194.475276,45.0423175 C194.475276,44.3865071 195.110357,44.0591928 196.380521,44.0591928 L197.428406,44.0591928 C198.69857,44.0591928 199.333652,44.3865071 199.333652,45.0423175 L199.333652,58.4368007 C199.333652,60.7924006 198.529418,62.6203981 196.920341,63.921384 C195.311263,65.2223699 193.046341,65.8716813 190.124965,65.8716813 C187.203588,65.8716813 184.938666,65.2223699 183.329589,63.921384 C181.720511,62.6203981 180.916277,60.7924006 180.916277,58.4368007 L180.916277,58.4368007 Z M164.468267,64.7048115 L164.468267,48.1453048 L159.419366,48.1453048 C158.784284,48.1453048 158.466744,47.6330638 158.466744,46.6085817 L158.466744,45.6567704 C158.466744,44.6322883 158.784284,44.1206381 159.419366,44.1206381 L174.439053,44.1206381 C175.074745,44.1206381 175.391676,44.6322883 175.391676,45.6567704 L175.391676,46.6085817 C175.391676,47.6330638 175.074745,48.1453048 174.439053,48.1453048 L169.390152,48.1453048 L169.390152,64.7048115 C169.390152,65.360031 168.75507,65.6879362 167.484906,65.6879362 L166.373513,65.6879362 C165.103349,65.6879362 164.468267,65.360031 164.468267,64.7048115 L164.468267,64.7048115 Z M134.39714,64.7048115 L134.39714,45.0423175 C134.39714,44.3865071 135.032222,44.0591928 136.302386,44.0591928 L137.667812,44.0591928 C138.683943,44.0591928 139.382533,44.3351058 139.763582,44.8881134 L148.114909,57.3307854 L148.114909,45.0423175 C148.114909,44.3865071 148.749991,44.0591928 150.020154,44.0591928 L150.941023,44.0591928 C152.211187,44.0591928 152.846269,44.3865071 152.846269,45.0423175 L152.846269,64.7048115 C152.846269,65.360031 152.211187,65.6879362 150.941023,65.6879362 L149.734368,65.6879362 C148.718237,65.6879362 148.020257,65.4114324 147.639208,64.8584247 L139.1285,52.2615487 L139.1285,64.7048115 C139.1285,65.360031 138.493418,65.6879362 137.223255,65.6879362 L136.302386,65.6879362 C135.032222,65.6879362 134.39714,65.360031 134.39714,64.7048115 L134.39714,64.7048115 Z M113.883995,64.3969942 L113.883995,45.349544 C113.883995,44.5300764 114.30779,44.1206381 115.154159,44.1206381 L126.776768,44.1206381 C127.41185,44.1206381 127.72878,44.6322883 127.72878,45.6567704 L127.72878,46.6085817 C127.72878,47.6330638 127.41185,48.1453048 126.776768,48.1453048 L118.774737,48.1453048 L118.774737,52.6000886 L125.918797,52.6000886 C126.553879,52.6000886 126.87142,53.1117389 126.87142,54.1356301 L126.87142,55.0880322 C126.87142,56.1125143 126.553879,56.6247554 125.918797,56.6247554 L118.774737,56.6247554 L118.774737,61.6012333 L126.807912,61.6012333 C127.443604,61.6012333 127.761145,62.1140652 127.761145,63.1373657 L127.761145,64.0903586 C127.761145,65.1142498 127.443604,65.6259001 126.807912,65.6259001 L115.154159,65.6259001 C114.30779,65.6259001 113.883995,65.2170525 113.883995,64.3969942 L113.883995,64.3969942 Z M89.0846586,44.735091 C89.0846586,44.2842953 89.7301216,44.0591928 91.0216583,44.0591928 L92.0695434,44.0591928 C93.1278097,44.0591928 93.7525104,44.3557845 93.943035,44.9495587 L98.5791327,59.3277575 L98.7061491,59.3277575 L103.469263,44.9495587 C103.68055,44.3557845 104.305251,44.0591928 105.342755,44.0591928 L106.327132,44.0591928 C107.597295,44.0591928 108.232988,44.2842953 108.232988,44.735091 C108.232988,44.8987482 108.200623,45.0830841 108.137115,45.2880987 L101.278231,65.0427606 C101.129841,65.4728777 100.536895,65.6879362 99.5000014,65.6879362 L97.8487885,65.6879362 C96.8112846,65.6879362 96.2183379,65.4728777 96.0711699,65.0427606 L89.2116749,45.2880987 C89.1267938,45.0009601 89.0846586,44.8166242 89.0846586,44.735091 L89.0846586,44.735091 Z"/>
</svg>
