<?xml version="1.0" standalone="no"?>
<!DOCTYPE svg PUBLIC "-//W3C//DTD SVG 20010904//EN"
 "http://www.w3.org/TR/2001/REC-SVG-20010904/DTD/svg10.dtd">
<svg version="1.0" xmlns="http://www.w3.org/2000/svg"
 width="260.000000pt" height="260.000000pt" viewBox="0 0 260.000000 260.000000"
 preserveAspectRatio="xMidYMid meet">
<metadata>
Created by potrace 1.11, written by Peter Selinger 2001-2013
</metadata>
<g transform="translate(0.000000,260.000000) scale(0.100000,-0.100000)"
fill="#000000" stroke="none">
<path d="M974 2404 c-79 -16 -108 -31 -189 -100 l-67 -57 -75 -2 c-41 -1 -103
4 -137 10 -118 22 -235 0 -309 -58 -87 -68 -176 -247 -185 -373 -4 -66 -2 -76
38 -168 48 -108 89 -160 188 -238 37 -29 73 -59 81 -66 8 -7 25 -21 38 -29 23
-15 24 -20 17 -82 -4 -36 -15 -83 -25 -105 -39 -87 -15 -175 73 -272 32 -34
73 -65 114 -85 61 -30 69 -32 142 -26 83 6 236 40 364 80 l77 24 54 -111 c30
-61 82 -160 116 -220 34 -60 61 -111 61 -112 0 -2 24 -38 53 -81 93 -139 142
-173 245 -173 28 0 45 5 48 15 7 17 -36 90 -105 178 -66 85 -142 214 -245 416
l-87 170 41 43 c55 58 120 156 120 181 0 19 -1 19 -18 4 -60 -55 -411 -188
-582 -222 -8 -2 -33 -8 -55 -13 -84 -22 -125 -22 -163 -3 -39 20 -68 48 -97
93 -16 26 -16 29 4 61 12 20 21 51 21 75 0 67 7 76 40 52 16 -11 45 -27 64
-35 l36 -15 0 49 c0 79 3 82 67 49 72 -36 88 -36 89 2 1 16 5 41 8 55 7 26 8
26 31 11 34 -22 120 -28 160 -12 35 15 43 33 39 86 -3 48 -69 274 -90 308 -17
30 -108 84 -128 76 -18 -7 -36 -41 -42 -81 -3 -21 -8 -40 -11 -43 -2 -3 -31 9
-64 27 l-59 32 -14 -27 c-7 -15 -12 -37 -11 -50 1 -13 -2 -25 -7 -28 -12 -8
-74 32 -98 63 -26 33 -44 20 -61 -48 -7 -27 -16 -49 -20 -49 -4 0 -28 23 -54
52 -52 58 -65 58 -100 -4 l-20 -35 -21 21 c-26 26 -54 72 -54 87 0 7 -10 32
-22 56 -20 40 -21 48 -9 91 7 26 26 76 43 110 68 138 117 157 318 124 68 -11
210 2 250 23 19 10 64 42 100 72 36 29 81 58 100 63 46 13 122 13 157 -1 26
-10 252 -63 313 -74 85 -15 188 -75 220 -128 11 -17 29 -74 41 -127 40 -180
126 -342 240 -452 32 -31 140 -112 239 -180 98 -67 218 -149 265 -182 73 -50
88 -56 101 -45 13 10 15 25 11 65 -11 107 -41 137 -317 322 -154 103 -215 159
-276 253 -60 91 -87 164 -109 287 -14 83 -48 147 -110 208 -78 77 -163 118
-308 149 -185 39 -210 45 -257 60 -63 20 -154 24 -226 9z"/>
<path d="M986 2168 c-38 -21 -53 -87 -28 -118 l19 -23 100 38 c102 39 113 51
70 74 -42 22 -141 40 -161 29z"/>
</g>
</svg>
