<svg xmlns="http://www.w3.org/2000/svg" viewBox="0 0 468.33 197.12"><defs><style>.cls-1{fill:#f7f7ef;}.cls-2{fill:#232323;}</style></defs><g id="Layer_2" data-name="Layer 2"><g id="Sketching"><path class="cls-1" d="M37.41,162.69c-6.65,4.37-10,13.31-7.56,20.89s10.55,12.95,18.44,12c4.88-.6,9.28-3.34,12.86-6.71,1.47-1.38,1.1-1.59,3.07-1.16,2.18.48,3.38,2.47,5,4,2,1.93,6.92,1.18,9.74,1.1,9.48-.27,18.78.17,28.26-.1a13.16,13.16,0,0,0,8.25-2.9c1-.93,1.93-2.3,3.29-2.19a3.82,3.82,0,0,1,2,1.16,23.58,23.58,0,0,0,15.62,5.91,19.27,19.27,0,0,0,14.83-7.26,17.33,17.33,0,0,0-15.77-27.72c-5.18.6-9.14,3.94-14.24,5-3.41.71-7.63.13-11.11.05q-22.17-.57-44.32.76c-1.73.11-3.9.12-5.32-1A17.49,17.49,0,0,0,56,161.3a20.65,20.65,0,0,0-12.1-1.25A18.65,18.65,0,0,0,37.41,162.69Z"/><path class="cls-1" d="M322.86,162.69c-6.65,4.37-10,13.31-7.56,20.89s10.55,12.95,18.44,12c4.88-.6,9.28-3.34,12.86-6.71,1.47-1.38,1.1-1.59,3.07-1.16,2.18.48,3.38,2.47,5,4,2.05,1.93,6.92,1.18,9.74,1.1,9.48-.27,18.78.17,28.26-.1a13.16,13.16,0,0,0,8.25-2.9c1-.93,1.93-2.3,3.29-2.19a3.82,3.82,0,0,1,2,1.16,23.58,23.58,0,0,0,15.62,5.91,19.27,19.27,0,0,0,14.83-7.26,17.33,17.33,0,0,0-15.77-27.72c-5.18.6-9.14,3.94-14.24,5-3.41.71-7.63.13-11.11.05q-22.17-.57-44.32.76c-1.73.11-3.9.12-5.32-1a17.49,17.49,0,0,0-4.46-3.17,20.65,20.65,0,0,0-12.1-1.25A18.65,18.65,0,0,0,322.86,162.69Z"/><path class="cls-2" d="M156.38,173.35c-1.66-10.73-12.84-16.12-22.91-15.42-5.37-.07-9,4.35-13.63,5.61-15.76.45-31.42-1.57-47.21.1-5-.29-10.34.51-14.35-3.1C49.1,154.42,34,158.16,29,168,18.55,191.1,48.6,207.63,64.52,188.67c1,1.18,2.65,1.9,3.14,3.37s.74,1.67,2.16,1.8a149.23,149.23,0,0,0,15.24.74c9.58-.1,19.19.29,28.75-.47,1.43-.11,1.77-.44,2.16-1.81s2-2.27,2.93-3.35C133.27,205.16,159.84,195.83,156.38,173.35ZM150.12,168a3.56,3.56,0,0,1,1.13,1.93C150,169.48,149.93,169.45,150.12,168Zm.17,3.26c1.15.62,2.54,1,2.15,2.75l-3.3-1.91C149.48,171,149.59,170.92,150.29,171.25ZM145,169.82a3.7,3.7,0,0,1,1-2.13C146.28,169.43,146.16,169.67,145,169.82Zm.68,6.69c-.78-.44-.78-.44-.3-1.26Zm0-10c-1.71,2.77-2.12,3.22-3,3.4C143,168.31,143.21,165.3,145.64,166.51ZM130,176.42c.21,1.08.36,1.86.53,2.72-7,3.52-4.22-2.53-1.82-5.95.41-.67.56-.65,1.72-.47-.45,1.87-1.87,3.41-1.88,5.77Zm.5-6.25c1-1.56,1.31-4,3.64-3.31C132.89,168.1,132.57,170.83,130.45,170.17Zm7.1,4.33c2.53-1.37.65,2.79.43,3.85-.43,1.24-.93,1.43-2.53,1A19.26,19.26,0,0,1,137.55,174.5Zm-3.14,4.24c-1.21-.6-1.63-1.43-1.21-2.49.58-1,1.06-3.33,2.63-2.33Zm3.91-9.36c-.52.8-.66.84-2,.51.89-1.81,1.38-4.39,4-3.6C139.58,167.44,139,168.41,138.32,169.38Zm-3.36.39a1.08,1.08,0,0,1-1.52.29c.8-1.62,1.08-4.19,3.5-3.42C136.24,167.75,135.63,168.78,135,169.77Zm-2.84,12.91c1.48,1.51,3.49,2.73,4.63,4.44-2.28-.67-4.1-2.74-6.21-4C131.34,182.32,131.6,182.23,132.12,182.68Zm.3-.41c-.14-.11-.17-.37-.3-.67,3.11-.17,5.2,2.63,7.38,4.54C138,187.91,134.16,183,132.42,182.27Zm5,.44c2.07-2.33,3.89.85,5.55,2.06C141,187,139.24,183.54,137.39,182.71Zm2.91-.83c-1.68-2.44,4.18,1.15,4.47,1.74C143.45,185.5,141.71,182.43,140.3,181.88Zm1.8-3.27c.58-1.8-.19-6.59,2.53-6-.35,2.11-.7,4.21-1.08,6.45Zm-.86-8.9c-.31.47-.83.42-1.46.24.59-1.66,1.17-4.64,3.51-3.6C142.58,167.52,142,168.64,141.24,169.71Zm1.52-6.88c-2.43-.13-5.66,1.41-7.39-.88C136.74,161.24,140.72,161.63,142.76,162.83Zm-7,.27c-1.78.75-3,.55-4-.67C133.29,161.71,134.43,162.66,135.76,163.1Zm-4.4.58-2.67.12C129.86,162.76,130.19,162.72,131.36,163.68Zm-1.15,3.3.37.23-1.9,3.08-.3-.18A19.87,19.87,0,0,1,130.21,167Zm-4.54,9.33a2.69,2.69,0,0,1,1.77-3.66C126.82,173.92,126.28,175.06,125.67,176.31Zm.85-9.12a14.47,14.47,0,0,1-2.32,3.55C124.56,168.92,125.52,167.41,126.52,167.19Zm-2.17-.23c-.6,1.09-1.16,4.24-2.71,3.72C122.53,169.34,122.77,167.51,124.35,167Zm-1.89.08c-.77,1.38-1.42,2.55-2.22,4A5.46,5.46,0,0,1,122.46,167Zm-.92,7a8.65,8.65,0,0,1-2.69,2.53c0-1-.08-1.72-.12-2.46A4.74,4.74,0,0,1,121.54,174Zm-1.35-6.81c-1,1.23-.93,4-3,3.53C118.14,169.67,118.41,166.38,120.19,167.2Zm-2.45-.12c-1.17,1.37-1.32,4.45-3.56,4C115.28,169.77,115.49,166.14,117.74,167.08Zm-2.54,10.29c0,1.46.7,2.18-1.16,2.92-.14-2.22-.27-4.38-.42-6.72l1.58.17C115.2,175.05,115.19,176.21,115.2,177.37Zm.26-10.32c-1.11,1.22-1.68,5.26-3.71,4C113,169.55,112.85,166.08,115.46,167.05Zm-4.85,1.34c.31-.56.58-1.17,1.51-.83-1.87,3.77-3.39,7.39-5.27,11.22C105.63,174.66,109.29,171.93,110.61,168.39Zm-.79,9.32c-1.2,1.62-1.91,3.52-3.45,4.85.36-3.35,2.6-5.61,4.09-8.48A4.51,4.51,0,0,1,109.82,177.71Zm-2.4,7.53a16.85,16.85,0,0,1,2.84-7.18C110.8,179.58,109.44,183.06,107.42,185.24Zm1.92-17.79-3.16,5.91c-1.62-1.59,1-3.72,1.46-5.4C108,167.28,108.12,167.26,109.34,167.45ZM104,170.37c.75-1.08.89-3.87,2.77-3-1,1.33-1.19,3.29-2.7,3.87C104,170.92,103.89,170.6,104,170.37Zm-1.26,12.9,1.07-1.45a5.75,5.75,0,0,1,.45,2.21,4.26,4.26,0,0,1-3-.39,46.86,46.86,0,0,1,2.26-4.46C104.13,180.91,102.37,181.78,102.72,183.27Zm-4.1,0c-.57.93-.69,1-2,.7,2.32-3.51,3.86-7.64,6.6-10.71C103.55,177.21,100.16,180,98.62,183.31Zm2.45-1.91c-.36,1-.47,2.09-1.55,2.65A5.85,5.85,0,0,1,101.07,181.4Zm-12.78,1.45c1.67-2.74,3.36-5.46,5-8.21.79-1.32,1-1.44,2.78-.91-1.52,3.17-3.58,6-5.3,9.08-.86,1.57-1.08,1.66-3.17,1.2C87.85,183.6,88.06,183.22,88.29,182.85Zm-1.79.63c-.55.85-1.17.94-2.73.49,1.9-2.34,5.77-11.94,8.86-10.5C91,177,88.47,180.12,86.5,183.48Zm5-.3c1.38-1.37,5.68-12.78,7.58-8.83,5.81-3.56-2.47,7.49-2.87,9-1,1.72-3.34.57-5.15.89C91.23,183.73,91.31,183.43,91.46,183.18Zm12-5.88c.06,1.63-1.28,2.13-1.76,3.13A7,7,0,0,1,103.44,177.3Zm.08-10.41c-.21,1-1,4-2.31,4.18l-.21-.2C101.75,169.52,102.2,167.74,103.52,166.89Zm-2.16-.09.21.25c-.88,1.32-1,3.38-2.55,4C99.3,170.09,100.24,166.8,101.36,166.8Zm-1.83-.13c-.74,1.54-1.08,3.52-2.46,4.22l-.27-.25C97.78,169.37,98,167.29,99.53,166.67Zm-1.62,0c-1,1.2-1.18,4.76-3.19,4C95.72,169.62,96.22,166.2,97.91,166.68Zm-3.59-.26L92.8,170l.31.21c.86-.61,1.24-1.61,2-2.35-.83,2.36-.91,3.4-3.82,2.86C92.55,169.17,92.57,167.54,94.32,166.42Zm-5.83-.08c.83.44,1.69-.31,2.68.06-.38.79-.72,1.51-1.07,2.22.87-.5,1-1.69,2.15-2.26-1.36,5.13-1.61,4.5-6.62,4.42C86.66,169.2,87.27,167.44,88.49,166.34Zm-1.72,0c-1,1.23-1.37,4.58-2.85,4.36C84.35,169.29,85.88,166.86,86.77,166.35Zm-7.33,10c1-1.15,1.06-3.89,3.12-3.1a21.08,21.08,0,0,1-3.32,5.07A2.45,2.45,0,0,1,79.44,176.32Zm-.38-1.19a1.56,1.56,0,0,1,1.1-2A3.6,3.6,0,0,1,79.06,175.13Zm.74,4c1.4-1.65,2.46-6.82,5-5.83l-5.52,8.29A3.19,3.19,0,0,1,79.8,179.13Zm5.28-12.83c-.29,1.11-1.78,5.34-3.3,4.43C82.92,169.25,83.18,166.82,85.08,166.3Zm-2.62.15.27.29c-1.07,1.24-1.27,5-3.43,4.16C80.4,169.43,80.79,167.26,82.46,166.45Zm-2.15.34c-2.64,4.64-4.63,8.94-7.11,13.81-.65-5,3.6-8.63,5.39-13C79.06,166.78,79.19,166.73,80.31,166.79Zm-2.56.18c-1.13,3-3.46,5.44-4.42,8.94-1.39-3.21,1.87-5.5,3-8.26A1.14,1.14,0,0,1,77.75,167Zm-2.48.22a13.77,13.77,0,0,1-2.48,4.4C71.76,170.77,74,166.27,75.27,167.19Zm-2.1.12c-.85.91-1.18,3.53-2.76,2.79C70.79,168.85,71.36,166.46,73.17,167.31Zm-3-.76c.24.54.49.84.42,1-.61.94-.73,3.39-2.36,2.56ZM70,173.3c-.15,2.33-.28,4.49-.43,6.86l-1.22-1.07v-5.62Zm-5.71-6.37c.11-.15.46-.12.71-.18l.16.21c-1.08,1-1.47,3.28-3.08,3.24C62.9,169,63.57,167.94,64.3,166.93Zm.51,6.73v1.68l-1.89-1.46.07-.22Zm-4.9-6.88c0,.39,0,.65-.06.92.75-1.45,2.1-.66,3.5-.92-.9,1.09-1,4-2.81,3.3.27-.67.54-1.3.88-2.12-1,.67-1.08,2.08-2.34,2.3-.38-.82.27-1.34.38-2l-1.64,2A5.44,5.44,0,0,1,59.91,166.78Zm-2.57,9.73c.16-.31.33-.62.48-.9.74.79-.21,2.47-.28,3.55-.7,2.06-3-.06-4.38-.29.87-2.34,1.69-5.3,3.61-6.65l.26.23c-.33.72-.66,1.44-1.09,2.36,1.08-.75.88-2.34,2.33-2.63.06,1.57-1,2.76-1.19,4.14Zm-18.62-.19c.89-1.26,1.6-2.65,2.54-3.87-.25,1.24-1.09,2.26-1.15,3.48.23.33.47,0,.87,0l.71,2.2a6.29,6.29,0,0,1-3,1C37.93,177.88,38,177.41,38.72,176.32Zm.65-3.81c-.3.56-.6,1.12-1,1.81C38.18,173,38.27,172.85,39.37,172.51Zm1.51-3a11.21,11.21,0,0,1,2.32-3.41A9.24,9.24,0,0,1,40.88,169.52Zm-.31,13.34a46.29,46.29,0,0,1,3.6,4.16c-3,0-4.12-2.86-6.11-4.54C39.55,181.83,39.64,181.84,40.57,182.86Zm.11-1c1.42-.71,1.64-.67,2.45.27,1.35,1.66,2.9,3.12,4.11,4.89C44.48,187.51,42.86,183.39,40.68,181.88Zm2.57-.75c-.06-.07,0-.23-.06-.52a14.33,14.33,0,0,1,7,5.71C48.17,188.2,45,182.33,43.25,181.13Zm9.8-11.56c-.39.56-.65.55-1.91.28.5-1.74,1.28-4,3.59-3.07C54.11,167.83,53.63,168.74,53.05,169.57Zm.59,2.53L53,173.27C51.84,172.75,52.52,172.22,53.64,172.1ZM49.46,170c0-.41,0-.73,0-1.05h0c.73-.74,1-2.19,2.18-2.31A4.89,4.89,0,0,1,49.46,170Zm.95,5.76c1.07,2-2,4.29-4,3.35a22.78,22.78,0,0,1,2.75-5.48c2,.8.16,2,.2,3.31Zm-1-6.78c-.59.46-1,1.32-2,.81.46-1.64,1.11-3.38,3.06-3.37Zm-3.27.55c-.35.47-.95.42-1.6.09.77-1.1,1.52-4.1,3.24-3.06A9.41,9.41,0,0,1,46.12,169.52Zm-1.48,4.67c.62-.35,1.28-.78,1.91,0l1.19-.68a19,19,0,0,1-2,5.37C44.39,177.87,42.48,175.28,44.64,174.19Zm3.2,8.23c2.56-1.75,3.9,1.29,5.45,2.93C50.58,187.45,49.63,183.83,47.84,182.42Zm3.23-.32a2.75,2.75,0,0,1-.37-.65l.19-.24c1.14.41,1.91,1.52,3.29,1.57a1.77,1.77,0,0,1,1.47,1.05C54.17,186.44,52.46,183,51.07,182.1Zm3.53-9.73.24.18-1.12,2.17A2.42,2.42,0,0,1,54.6,172.37Zm1.53-2.48-.25-.16,1.83-2.85A5.08,5.08,0,0,1,56.13,169.89Zm.63-3c-1,1.07-1.28,3.88-3.06,3C54.79,168.57,54.51,166.46,56.76,166.86Zm-12.89-5.24a15.75,15.75,0,0,1,11,1.81c-2.42,0-4.88-.3-7.31-.46-1.37-.22-2.88.21-4.09-.8C43.58,162,43.69,161.67,43.87,161.62Zm-.49.54c-.55.72-.75.72-1.84,0A1.56,1.56,0,0,1,43.38,162.16Zm-2.17,3.78a2.3,2.3,0,0,1-1.16,1.68C40.28,167,40.12,166.11,41.21,165.94Zm-3.52.36c.2-.34.56-.34,1.68-.14l-1.5,2.48A2.23,2.23,0,0,1,37.69,166.3Zm-.28,16.62,2.16,2.28-.22.21a4.9,4.9,0,0,1-2.17-2.26Zm-1.58-10.4c.44.51.05.83-.15,1.5C35.16,173.2,35.22,172.81,35.83,172.52Zm-2.37-4.81c.13,1.38,1,2.91.66,4.06C32,170.57,31.86,169.76,33.46,167.71Zm-1.58,3.11c.83,1,2,1.65,1.6,3.15C31.88,173.35,31.3,172.31,31.88,170.82ZM31.22,173a3.61,3.61,0,0,1,1.92,4.05C31.16,175.64,30.67,174.56,31.22,173Zm7.48,17.9c-3.14-1.36-4.81-4-6.18-7l.29-.2q3.06,3.47,6.13,6.94Zm3.66,1.53c-4-2.58-6.62-6.79-9.94-10.14a4.65,4.65,0,0,1-1.27-4.06c.15-.65-.58-1.4-.1-2.52,1.33,1.95,3.24,3.3,3.22,5.91l-1.22-.95c2.44,4.68,6.89,7.75,10.08,11.78C42.81,192.46,42.52,192.55,42.36,192.44Zm1.82-.06c-1.28-1.12-2.45-2.37-3.67-3.56l.2-.29c2.79.2,4.67,2.27,6.28,4.49A2.88,2.88,0,0,1,44.18,192.38Zm3.42.48c-1-1.05-1.93-2.22-3-3.47,2.57-.9,3.6,2.26,5.49,3.54C49.1,193.48,48.25,193.54,47.6,192.86Zm3.41-.22c-1-1-1.94-2.07-3-3.16,2.09-1.07,3,1.77,4.46,2.81C51.92,192.93,51.45,193,51,192.64Zm2.19-1.18c-.76-.75-1.5-1.54-2.32-2.38,1.72-1.44,2.59,1.28,3.8,2.13C54.16,191.8,53.7,192,53.2,191.46Zm3.34-1.08c-1.48,1.12-2.27-1.36-3.44-2.23,2.26-1.55,2.87-.24,4.32,1.45A8.84,8.84,0,0,1,56.54,190.38Zm1.62-1.23-2-2.1c.32-.76.32-.76,1.32-1.23l2,2.05Zm1.93-1.84c-.76-1-1.79-1.34-1.67-2.54a2.06,2.06,0,0,1,1.61.43c-.38-.88-1.29-1.49-.35-2.36a8,8,0,0,1,2,2.26Zm0-7a12.67,12.67,0,0,1,1.48-3.36c2.4,2.45,3.07,1.49,1.15,4.88ZM63.74,183c-1.46-.62,0-3.07,1-3.31C65.51,180.81,64.13,181.81,63.74,183Zm1.34,1.73c-1-1.22.32-2.74,1-3.81,1.81.49-.44,2.66-.65,3.75Zm1,.94c.54-1.19,1-2.32,1.55-3.44,2.4.46.34,2.23.18,3.6.88-.53.9-1.66,1.69-2.37l1.32.56-.92,2.83.16.1c2.32-3.64,5-7,6.68-11,.38,1.82.27,2.28-.72,3.57-1.64,2.44-3.41,4.93-4.15,7.77,1.8-2.42,2.66-5.07,4.42-7.35-.78,3.7-3.66,6.52-5.16,10.16Zm6,4.88c1.13-3,3.22-5.68,4.56-8.65,1.26,3.06-1.61,5.34-2.59,8C73.45,190.91,73.3,191,72,190.52Zm2.67.16c1.43-1.85,1.68-6,4.64-5.08a49.4,49.4,0,0,1-2.81,4.53C76,190.91,75.93,190.93,74.68,190.68Zm5.45,0c-.2-.79.39-1.15.6-1.72l.26.18Zm1.09-4.31c-1.23,1.28-1.72,4.26-3.65,4.37A47.41,47.41,0,0,1,80,186.32c.41-.71.41-.71,1.48-.65A3.91,3.91,0,0,1,81.22,186.38ZM79,184.09c1.21-3.65,4.39-6.73,6.31-10.15.25-.37.47-.78,1.23-.56-1.72,3.53-5.36,6.36-6.13,10.15,2.39-2.86,4.35-6.09,6.54-9.11.88-1.28,1-1.37,2.85-.95-2,3.47-4.58,6.57-6.78,9.92C82.16,184.82,80.46,184,79,184.09ZM81.6,191c.18-1.75,1.41-3.06,2.11-4.63.37-.67.41-.64,1.38-.49C84.23,187.75,83.5,190,81.6,191Zm3-.49c-.09.14-.36.18-.7.34.3-1.5,1.19-2.42,1.9-3.67.36-.47.36-1.35,1.51-1.32C86.33,187.48,85.47,189,84.58,190.48Zm1.42.26c.93-1.77,1.46-3.82,3-4.89C87.92,188.93,87,190.34,86,190.74Zm4.83-4.88a12.34,12.34,0,0,1-2.52,4.75A12.31,12.31,0,0,1,90.83,185.86ZM90,190.55c.93-1.16,1.53-5.13,3.26-4.48C92.21,187.26,91.93,191.33,90,190.55Zm1.84.1c1.13-1.41,1.5-5.28,3.6-4.54C94.41,187.64,94.22,191.55,91.79,190.65Zm2.37.11a9.77,9.77,0,0,1,2.55-4.84l.36.26C96.1,187.46,96.09,191,94.16,190.76Zm1.58-.08c1.25-1.5,1.47-5.22,3.83-4.5C98.47,187.66,98.18,191.55,95.74,190.68Zm2.68.07c.54-1,1.89-4.87,3.38-4.72C100.69,187.48,100.19,191,98.42,190.75Zm2,.17-.35-.28q1.31-2.23,2.62-4.47l.28.14C102.1,187.8,102,190,100.42,190.92Zm4.17-.11,1.06-1.92C105.73,190.21,105.58,190.55,104.59,190.81Zm-.88-.34c-.52.84-1.3.56-2.1.41.34-1.49,1.44-2.71,2.13-4.07.49-.81.67-.84,1.94-.55A17.5,17.5,0,0,1,103.71,190.47Zm2.35.22,4.43-8.33c1.38,2.51-1.19,5.14-1.72,7.63C108.26,191.32,107.69,191.49,106.06,190.69Zm3.49.3c.68-1.29,1.8-7.19,3.32-6.72C112.56,185.49,111.21,192,109.55,191Zm5.51-3.53c-.25,1.31-1.31,1.81-2.39,2.67.93-2.32,1.19-7,3.58-8C116,184,115.4,185.65,115.06,187.46Zm2.3-1.88c0,.66-.32.87-1.45,1.36.93-2.32,1-5.13,2.79-7l.26.14C118.6,182,117.49,183.62,117.36,185.58Zm3.41-3c-.77.75-1.48,1.57-2.21,2.36l-.29-.18c1.26-2.61,1.61-5.8,3.93-7.74.19,1-.43,1.95-.31,3.17l1-1.09C124.66,181.07,121.71,181.25,120.77,182.58Zm6.06,7.81a8.09,8.09,0,0,1-2.92-2.89l3.09,2.68Zm3,.29c-2.35-1.61-4.54-3.44-6.82-5.15-.75-.59-.74-.67.1-1.37L130,190.5Zm-2.61-7.22c2.57-1.17,4.25,2,6.27,3.29C131.67,187,128.76,185.44,127.22,183.46Zm8.23,9.68c-1.34-1.23-2.95-2.19-4.09-3.61,2.93-.05,4.61,1.85,6.64,3.69C136.94,193.53,136.18,193.74,135.45,193.14Zm2.89-.81c-.81-.71-1.63-1.41-2.6-2.24,2.24-1,3.85,1.56,5.77,2.36C140.1,193.29,139.42,193.26,138.34,192.33Zm1.19-2.79a8.56,8.56,0,0,1,3.38,2.54C141.9,192.21,141.9,192.21,139.53,189.54Zm5.67,1.51c-1.65.46-2.87-1.37-4.14-2.27,1.4-1.33,2.91,1.4,4.21,2Zm1.88-.89-3.17-2.57c1.3-2,2.68.72,4.13,1.57Zm1.94-2.43c-1,.52-1.94-1.06-2.83-1.51C146.73,184.45,149.65,186.75,149,187.73Zm.77-1.52c-.65-.69-2.42-1.09-1.81-2.19a.64.64,0,0,1,.92-.26C150,184.46,151.46,184.84,149.79,186.21Zm1.34-2.35c-2.16-.41-2.66-1.23-1.49-2.58C150.5,182.09,152.27,182.39,151.13,183.86Zm-1.33-3.71c-.21-.16-.21-.6-.31-.91l.39-.25c.77.83,2.24,1.18,2.29,2.43A4.07,4.07,0,0,1,149.8,180.15Zm2.61-.42c-1.26-1-3.36-1.46-2.75-3.41a10,10,0,0,1,2.83,2.12C152.76,178.68,152.71,178.73,152.41,179.73Zm.24-2.87c-1.77-1.33-3.56-2.38-5.08-3.78l.15-.28C148.93,173.3,153.39,175.27,152.65,176.86ZM99,174.37l0,0s0,0,0,.05l-.09.09A.61.61,0,0,0,99,174.37Zm0,.12a14.21,14.21,0,0,1-2.32,3.84A9.77,9.77,0,0,1,99,174.49Zm-2.41,3.95.09-.11a1.05,1.05,0,0,1-.17.31Zm-1,1.6,1-1.4c-.22.52-.43,1.05-.65,1.57Z"/><path class="cls-2" d="M441.83,173.35c-1.66-10.73-12.84-16.12-22.91-15.42-5.37-.07-8.95,4.35-13.63,5.61-15.76.45-31.42-1.57-47.21.1-5-.29-10.34.51-14.35-3.1-9.18-6.12-24.24-2.38-29.29,7.41C304,191.1,334.05,207.63,350,188.67c1,1.18,2.65,1.9,3.14,3.37s.74,1.67,2.16,1.8a149.23,149.23,0,0,0,15.24.74c9.58-.1,19.19.29,28.75-.47,1.43-.11,1.77-.44,2.16-1.81s2-2.27,2.93-3.35C418.72,205.16,445.29,195.83,441.83,173.35ZM435.57,168a3.56,3.56,0,0,1,1.13,1.93C435.4,169.48,435.38,169.45,435.57,168Zm.17,3.26c1.15.62,2.54,1,2.15,2.75l-3.3-1.91C434.93,171,435,170.92,435.74,171.25Zm-5.29-1.43a3.7,3.7,0,0,1,1-2.13C431.73,169.43,431.61,169.67,430.45,169.82Zm.68,6.69c-.78-.44-.78-.44-.3-1.26Zm0-10c-1.71,2.77-2.12,3.22-3,3.4C428.41,168.31,428.66,165.3,431.09,166.51Zm-15.69,9.91c.21,1.08.36,1.86.53,2.72-7,3.52-4.22-2.53-1.82-5.95.41-.67.56-.65,1.72-.47-.45,1.87-1.87,3.41-1.88,5.77Zm.5-6.25c1-1.56,1.31-4,3.64-3.31C418.34,168.1,418,170.83,415.9,170.17Zm7.1,4.33c2.53-1.37.65,2.79.43,3.85-.43,1.24-.93,1.43-2.53,1A19.26,19.26,0,0,1,423,174.5Zm-3.14,4.24c-1.21-.6-1.63-1.43-1.21-2.49.58-1,1.06-3.33,2.63-2.33Zm3.91-9.36c-.52.8-.66.84-2,.51.89-1.81,1.38-4.39,4-3.6C425,167.44,424.41,168.41,423.77,169.38Zm-3.36.39a1.08,1.08,0,0,1-1.52.29c.8-1.62,1.08-4.19,3.5-3.42C421.69,167.75,421.08,168.78,420.41,169.77Zm-2.84,12.91c1.48,1.51,3.49,2.73,4.63,4.44-2.28-.67-4.1-2.74-6.21-4C416.79,182.32,417.05,182.23,417.57,182.68Zm.3-.41c-.14-.11-.17-.37-.3-.67,3.11-.17,5.2,2.63,7.38,4.54C423.42,187.91,419.61,183,417.87,182.27Zm5,.44c2.07-2.33,3.89.85,5.55,2.06C426.47,187,424.69,183.54,422.84,182.71Zm2.91-.83c-1.68-2.44,4.18,1.15,4.47,1.74C428.9,185.5,427.16,182.43,425.75,181.88Zm1.8-3.27c.58-1.8-.19-6.59,2.53-6-.35,2.11-.7,4.21-1.08,6.45Zm-.86-8.9c-.31.47-.83.42-1.46.24.59-1.66,1.17-4.64,3.51-3.6C428,167.52,427.4,168.64,426.69,169.71Zm1.52-6.88c-2.43-.13-5.66,1.41-7.39-.88C422.19,161.24,426.17,161.63,428.21,162.83Zm-7,.27c-1.78.75-3,.55-4-.67C418.74,161.71,419.88,162.66,421.21,163.1Zm-4.4.58-2.67.12C415.31,162.76,415.64,162.72,416.81,163.68Zm-1.15,3.3.37.23-1.9,3.08-.3-.18A19.87,19.87,0,0,1,415.66,167Zm-4.54,9.33a2.69,2.69,0,0,1,1.77-3.66C412.27,173.92,411.73,175.06,411.12,176.31Zm.85-9.12a14.47,14.47,0,0,1-2.32,3.55C410,168.92,411,167.41,412,167.19ZM409.8,167c-.6,1.09-1.16,4.24-2.71,3.72C408,169.34,408.22,167.51,409.8,167Zm-1.89.08c-.77,1.38-1.42,2.55-2.22,4A5.46,5.46,0,0,1,407.91,167Zm-.92,7a8.65,8.65,0,0,1-2.69,2.53c-.05-1-.08-1.72-.12-2.46A4.74,4.74,0,0,1,407,174Zm-1.35-6.81c-1,1.23-.93,4-3,3.53C403.59,169.67,403.86,166.38,405.64,167.2Zm-2.45-.12c-1.17,1.37-1.32,4.45-3.56,4C400.73,169.77,400.94,166.14,403.19,167.08Zm-2.54,10.29c0,1.46.7,2.18-1.16,2.92-.14-2.22-.27-4.38-.42-6.72l1.58.17C400.65,175.05,400.64,176.21,400.65,177.37Zm.26-10.32c-1.11,1.22-1.68,5.26-3.71,4C398.41,169.55,398.3,166.08,400.91,167.05Zm-4.85,1.34c.31-.56.58-1.17,1.51-.83-1.87,3.77-3.39,7.39-5.27,11.22C391.08,174.66,394.74,171.93,396.06,168.39Zm-.79,9.32c-1.2,1.62-1.91,3.52-3.45,4.85.36-3.35,2.6-5.61,4.09-8.48A4.51,4.51,0,0,1,395.27,177.71Zm-2.4,7.53a16.85,16.85,0,0,1,2.84-7.18C396.25,179.58,394.89,183.06,392.87,185.24Zm1.92-17.79-3.16,5.91c-1.62-1.59,1-3.72,1.46-5.4C393.45,167.28,393.57,167.26,394.79,167.45Zm-5.36,2.92c.75-1.08.89-3.87,2.77-3-1,1.33-1.19,3.29-2.7,3.87C389.47,170.92,389.34,170.6,389.43,170.37Zm-1.26,12.9,1.07-1.45a5.75,5.75,0,0,1,.45,2.21,4.26,4.26,0,0,1-3-.39,46.86,46.86,0,0,1,2.26-4.46C389.58,180.91,387.82,181.78,388.17,183.27Zm-4.1,0c-.57.93-.69,1-2,.7,2.32-3.51,3.86-7.64,6.6-10.71C389,177.21,385.61,180,384.07,183.31Zm2.45-1.91c-.36,1-.47,2.09-1.55,2.65A5.85,5.85,0,0,1,386.52,181.4Zm-12.78,1.45c1.67-2.74,3.36-5.46,5-8.21.79-1.32,1-1.44,2.78-.91-1.52,3.17-3.58,6-5.3,9.08-.86,1.57-1.07,1.66-3.17,1.2C373.3,183.6,373.51,183.22,373.74,182.85Zm-1.79.63c-.55.85-1.17.94-2.73.49,1.9-2.34,5.77-11.94,8.86-10.5C376.49,177,373.92,180.12,372,183.48Zm5-.3c1.38-1.37,5.68-12.78,7.58-8.83,5.81-3.56-2.47,7.49-2.87,9-1.05,1.72-3.34.57-5.15.89C376.68,183.73,376.76,183.43,376.91,183.18Zm12-5.88c.06,1.63-1.28,2.13-1.76,3.13A7,7,0,0,1,388.89,177.3Zm.08-10.41c-.21,1-1,4-2.31,4.18l-.21-.2C387.2,169.52,387.65,167.74,389,166.89Zm-2.16-.09.21.25c-.88,1.32-1,3.38-2.55,4C384.75,170.09,385.69,166.8,386.81,166.8Zm-1.83-.13c-.74,1.54-1.08,3.52-2.46,4.22l-.27-.25C383.23,169.37,383.47,167.29,385,166.67Zm-1.62,0c-1,1.2-1.18,4.76-3.19,4C381.17,169.62,381.67,166.2,383.36,166.68Zm-3.59-.26L378.25,170l.31.21c.86-.61,1.24-1.61,2-2.35-.83,2.36-.91,3.4-3.82,2.86C378,169.17,378,167.54,379.77,166.42Zm-5.83-.08c.83.44,1.69-.31,2.68.06-.38.79-.72,1.51-1.07,2.22.87-.5,1-1.69,2.15-2.26-1.36,5.13-1.61,4.5-6.62,4.42C372.11,169.2,372.72,167.44,373.94,166.34Zm-1.72,0c-1,1.23-1.37,4.58-2.85,4.36C369.8,169.29,371.33,166.86,372.22,166.35Zm-7.33,10c1-1.15,1.06-3.89,3.12-3.1a21.08,21.08,0,0,1-3.32,5.07A2.45,2.45,0,0,1,364.89,176.32Zm-.38-1.19a1.56,1.56,0,0,1,1.1-2A3.6,3.6,0,0,1,364.51,175.13Zm.74,4c1.4-1.65,2.46-6.82,5-5.83l-5.52,8.29A3.19,3.19,0,0,1,365.25,179.13Zm5.28-12.83c-.29,1.11-1.78,5.34-3.3,4.43C368.37,169.25,368.63,166.82,370.53,166.3Zm-2.62.15.27.29c-1.07,1.24-1.27,5-3.43,4.16C365.85,169.43,366.24,167.26,367.91,166.45Zm-2.15.34c-2.64,4.64-4.63,8.94-7.11,13.81-.65-5,3.6-8.63,5.39-13C364.51,166.78,364.64,166.73,365.76,166.79Zm-2.56.18c-1.13,3-3.46,5.44-4.42,8.94-1.39-3.21,1.87-5.5,3-8.26A1.14,1.14,0,0,1,363.2,167Zm-2.48.22a13.77,13.77,0,0,1-2.48,4.4C357.21,170.77,359.46,166.27,360.72,167.19Zm-2.1.12c-.85.91-1.18,3.53-2.76,2.79C356.24,168.85,356.81,166.46,358.62,167.31Zm-3-.76c.24.54.49.84.42,1-.61.94-.73,3.39-2.36,2.56Zm-.16,6.75c-.15,2.33-.28,4.49-.43,6.86l-1.22-1.07v-5.62Zm-5.71-6.37c.11-.15.46-.12.71-.18l.16.21c-1.08,1-1.47,3.28-3.08,3.24C348.35,169,349,167.94,349.75,166.93Zm.51,6.73v1.68l-1.89-1.46.07-.22Zm-4.9-6.88c0,.39,0,.65-.06.92.75-1.45,2.1-.66,3.5-.92-.9,1.09-1,4-2.81,3.3.27-.67.54-1.3.88-2.12-1,.67-1.08,2.08-2.34,2.3-.38-.82.27-1.34.38-2l-1.64,2A5.44,5.44,0,0,1,345.36,166.78Zm-2.57,9.73c.16-.31.33-.62.48-.9.74.79-.21,2.47-.28,3.55-.7,2.06-3-.06-4.38-.29.87-2.34,1.69-5.3,3.61-6.65l.26.23c-.33.72-.66,1.44-1.09,2.36,1.08-.75.88-2.34,2.33-2.63.06,1.57-1,2.76-1.19,4.14Zm-18.62-.19c.89-1.26,1.6-2.65,2.54-3.87-.25,1.24-1.09,2.26-1.15,3.48.23.33.47,0,.87,0l.71,2.2a6.29,6.29,0,0,1-3,1C323.38,177.88,323.42,177.41,324.17,176.32Zm.65-3.81c-.3.56-.6,1.12-1,1.81C323.63,173,323.72,172.85,324.82,172.51Zm1.51-3a11.21,11.21,0,0,1,2.32-3.41A9.24,9.24,0,0,1,326.33,169.52ZM326,182.86a46.29,46.29,0,0,1,3.6,4.16c-3,0-4.11-2.86-6.11-4.54C325,181.83,325.09,181.84,326,182.86Zm.11-1c1.42-.71,1.64-.67,2.45.27,1.35,1.66,2.9,3.12,4.11,4.89C329.93,187.51,328.31,183.39,326.13,181.88Zm2.57-.75c-.06-.07,0-.23-.06-.52a14.33,14.33,0,0,1,7,5.71C333.62,188.2,330.46,182.33,328.7,181.13Zm9.8-11.56c-.39.56-.65.55-1.91.28.5-1.74,1.28-4,3.59-3.07C339.56,167.83,339.08,168.74,338.5,169.57Zm.59,2.53-.63,1.17C337.29,172.75,338,172.22,339.09,172.1ZM334.91,170c0-.41,0-.73,0-1.05h0c.73-.74,1-2.19,2.18-2.31A4.89,4.89,0,0,1,334.91,170Zm.95,5.76c1.07,2-2,4.29-4,3.35a22.78,22.78,0,0,1,2.75-5.48c2,.8.16,2,.2,3.31Zm-1-6.78c-.59.46-1,1.32-2,.81.46-1.64,1.11-3.38,3.06-3.37Zm-3.27.55c-.35.47-.95.42-1.6.09.77-1.1,1.52-4.1,3.24-3.06A9.41,9.41,0,0,1,331.57,169.52Zm-1.48,4.67c.62-.35,1.28-.78,1.91,0l1.19-.68a19,19,0,0,1-2,5.37C329.84,177.87,327.93,175.28,330.09,174.19Zm3.2,8.23c2.56-1.75,3.9,1.29,5.45,2.93C336,187.45,335.08,183.83,333.29,182.42Zm3.23-.32a2.75,2.75,0,0,1-.37-.65l.19-.24c1.14.41,1.91,1.52,3.29,1.57a1.77,1.77,0,0,1,1.47,1.05C339.62,186.44,337.91,183,336.52,182.1Zm3.53-9.73.24.18-1.12,2.17A2.42,2.42,0,0,1,340.05,172.37Zm1.53-2.48-.25-.16,1.83-2.85A5.08,5.08,0,0,1,341.58,169.89Zm.63-3c-1,1.07-1.28,3.88-3.06,3C340.24,168.57,340,166.46,342.21,166.86Zm-12.89-5.24a15.75,15.75,0,0,1,11,1.81c-2.42,0-4.88-.3-7.31-.46-1.37-.22-2.88.21-4.09-.8C329,162,329.14,161.67,329.32,161.62Zm-.49.54c-.55.72-.75.72-1.84,0A1.56,1.56,0,0,1,328.83,162.16Zm-2.17,3.78a2.3,2.3,0,0,1-1.16,1.68C325.73,167,325.57,166.11,326.66,165.94Zm-3.52.36c.2-.34.56-.34,1.68-.14l-1.5,2.48A2.23,2.23,0,0,1,323.14,166.3Zm-.28,16.62L325,185.2l-.22.21a4.9,4.9,0,0,1-2.17-2.26Zm-1.58-10.4c.44.51.05.83-.15,1.5C320.61,173.2,320.67,172.81,321.28,172.52Zm-2.37-4.81c.13,1.38,1,2.91.67,4.06C317.46,170.57,317.31,169.76,318.91,167.71Zm-1.58,3.11c.83,1,2,1.65,1.6,3.15C317.33,173.35,316.75,172.31,317.33,170.82Zm-.66,2.19a3.61,3.61,0,0,1,1.92,4.05C316.61,175.64,316.12,174.56,316.67,173Zm7.48,17.9c-3.14-1.36-4.81-4-6.18-7l.29-.2q3.06,3.47,6.13,6.94Zm3.66,1.53c-4-2.58-6.62-6.79-9.94-10.14a4.65,4.65,0,0,1-1.27-4.06c.15-.65-.58-1.4-.1-2.52,1.33,1.95,3.24,3.3,3.22,5.91l-1.22-.95c2.44,4.68,6.89,7.75,10.08,11.78C328.26,192.46,328,192.55,327.81,192.44Zm1.82-.06c-1.28-1.12-2.45-2.37-3.67-3.56l.2-.29c2.79.2,4.67,2.27,6.28,4.49A2.88,2.88,0,0,1,329.63,192.38Zm3.42.48c-1-1.05-1.93-2.22-3-3.47,2.57-.9,3.6,2.26,5.49,3.54C334.55,193.48,333.7,193.54,333.05,192.86Zm3.41-.22c-1-1-1.94-2.07-3-3.16,2.09-1.07,3,1.77,4.46,2.81C337.37,192.93,336.9,193,336.46,192.64Zm2.19-1.18c-.76-.75-1.5-1.54-2.32-2.38,1.72-1.44,2.59,1.28,3.8,2.13C339.61,191.8,339.15,192,338.65,191.46Zm3.34-1.08c-1.48,1.12-2.27-1.36-3.44-2.23,2.26-1.55,2.87-.24,4.32,1.45A8.84,8.84,0,0,1,342,190.38Zm1.62-1.23-2-2.1c.32-.76.32-.76,1.32-1.23l2,2.05Zm1.93-1.84c-.76-1-1.79-1.34-1.67-2.54a2.06,2.06,0,0,1,1.61.43c-.38-.88-1.29-1.49-.35-2.36a8,8,0,0,1,2,2.26Zm0-7a12.67,12.67,0,0,1,1.48-3.36c2.4,2.45,3.07,1.49,1.15,4.88Zm3.65,2.68c-1.46-.62,0-3.07,1-3.31C351,180.81,349.58,181.81,349.19,183Zm1.34,1.73c-.95-1.22.32-2.74,1-3.81,1.81.49-.44,2.66-.65,3.75Zm1,.94c.54-1.19,1-2.32,1.55-3.44,2.4.46.34,2.23.18,3.6.88-.53.9-1.66,1.69-2.37l1.32.56-.92,2.83.16.1c2.32-3.64,5-7,6.68-11,.38,1.82.27,2.28-.72,3.57-1.64,2.44-3.41,4.93-4.14,7.77,1.79-2.42,2.65-5.07,4.41-7.35-.78,3.7-3.66,6.52-5.16,10.16Zm6,4.88c1.13-3,3.22-5.68,4.56-8.65,1.26,3.06-1.61,5.34-2.59,8C358.9,190.91,358.75,191,357.46,190.52Zm2.67.16c1.43-1.85,1.68-6,4.64-5.08a49.4,49.4,0,0,1-2.81,4.53C361.46,190.91,361.38,190.93,360.13,190.68Zm5.45,0c-.2-.79.39-1.15.6-1.72l.26.18Zm1.09-4.31c-1.23,1.28-1.72,4.26-3.65,4.37a47.41,47.41,0,0,1,2.43-4.43c.41-.71.41-.71,1.48-.65A3.91,3.91,0,0,1,366.67,186.38Zm-2.18-2.29c1.21-3.65,4.39-6.73,6.31-10.15.25-.37.47-.78,1.23-.56-1.72,3.53-5.36,6.36-6.13,10.15,2.39-2.86,4.35-6.09,6.54-9.11.88-1.28,1-1.37,2.85-.95-2,3.47-4.58,6.57-6.78,9.92C367.61,184.82,365.91,184,364.49,184.09Zm2.56,6.88c.18-1.75,1.41-3.06,2.11-4.63.37-.67.41-.64,1.38-.49C369.68,187.75,369,190,367.05,191Zm3-.49c-.09.14-.36.18-.7.34.3-1.5,1.19-2.42,1.9-3.67.36-.47.36-1.35,1.51-1.32C371.78,187.48,370.92,189,370,190.48Zm1.42.26c.93-1.77,1.46-3.82,3-4.89C373.37,188.93,372.48,190.34,371.45,190.74Zm4.83-4.88a12.34,12.34,0,0,1-2.52,4.75A12.31,12.31,0,0,1,376.28,185.86Zm-.88,4.69c.93-1.16,1.53-5.13,3.26-4.48C377.66,187.26,377.38,191.33,375.4,190.55Zm1.84.1c1.13-1.41,1.5-5.28,3.6-4.54C379.86,187.64,379.67,191.55,377.24,190.65Zm2.37.11a9.77,9.77,0,0,1,2.55-4.84l.36.26C381.55,187.46,381.54,191,379.61,190.76Zm1.58-.08c1.25-1.5,1.47-5.22,3.83-4.5C383.92,187.66,383.63,191.55,381.19,190.68Zm2.68.07c.54-1,1.89-4.87,3.38-4.72C386.14,187.48,385.64,191,383.87,190.75Zm2,.17-.35-.28q1.31-2.23,2.62-4.47l.28.14C387.55,187.8,387.4,190,385.87,190.92Zm4.17-.11,1.06-1.92C391.18,190.21,391,190.55,390,190.81Zm-.88-.34c-.52.84-1.3.56-2.1.41.34-1.49,1.44-2.71,2.13-4.07.49-.81.67-.84,1.94-.55A17.5,17.5,0,0,1,389.16,190.47Zm2.35.22,4.43-8.33c1.38,2.51-1.19,5.14-1.72,7.63C393.71,191.32,393.14,191.49,391.51,190.69Zm3.49.3c.68-1.29,1.8-7.19,3.32-6.72C398,185.49,396.66,192,395,191Zm5.51-3.53c-.25,1.31-1.31,1.81-2.39,2.67.93-2.32,1.19-7,3.58-8C401.41,184,400.85,185.65,400.51,187.46Zm2.3-1.88c-.05.66-.32.87-1.45,1.36.93-2.32,1-5.13,2.79-7l.26.14C404.05,182,402.94,183.62,402.81,185.58Zm3.41-3c-.77.75-1.48,1.57-2.21,2.36l-.29-.18c1.26-2.61,1.61-5.8,3.93-7.74.19,1-.43,1.95-.31,3.17l1-1.09C410.11,181.07,407.16,181.25,406.22,182.58Zm6.06,7.81a8.09,8.09,0,0,1-2.92-2.89l3.09,2.68Zm3,.29c-2.35-1.61-4.54-3.44-6.82-5.15-.75-.59-.74-.67.1-1.37l6.87,6.34Zm-2.61-7.22c2.57-1.17,4.25,2,6.27,3.29C417.12,187,414.21,185.44,412.67,183.46Zm8.23,9.68c-1.34-1.23-2.95-2.19-4.09-3.61,2.93-.05,4.61,1.85,6.64,3.69C422.39,193.53,421.63,193.74,420.9,193.14Zm2.89-.81c-.81-.71-1.63-1.41-2.6-2.24,2.24-1,3.85,1.56,5.77,2.36C425.55,193.29,424.87,193.26,423.79,192.33Zm1.19-2.79a8.56,8.56,0,0,1,3.38,2.54C427.35,192.21,427.35,192.21,425,189.54Zm5.67,1.51c-1.65.46-2.87-1.37-4.14-2.27,1.4-1.33,2.91,1.4,4.21,2Zm1.88-.89-3.17-2.57c1.3-2,2.68.72,4.13,1.57Zm1.94-2.43c-1,.52-1.94-1.06-2.83-1.51C432.18,184.45,435.1,186.75,434.47,187.73Zm.77-1.52c-.65-.69-2.42-1.09-1.81-2.19a.64.64,0,0,1,.92-.26C435.44,184.46,436.91,184.84,435.24,186.21Zm1.34-2.35c-2.16-.41-2.66-1.23-1.49-2.58C436,182.09,437.72,182.39,436.58,183.86Zm-1.33-3.71c-.21-.16-.21-.6-.31-.91l.39-.25c.77.83,2.24,1.18,2.29,2.43A4.07,4.07,0,0,1,435.25,180.15Zm2.61-.42c-1.26-1-3.36-1.46-2.75-3.41a10,10,0,0,1,2.83,2.12C438.21,178.68,438.16,178.73,437.86,179.73Zm.24-2.87c-1.77-1.33-3.56-2.38-5.08-3.78l.15-.28C434.38,173.3,438.84,175.27,438.1,176.86Zm-53.63-2.49,0,0s0,0,0,.05l-.09.09A.61.61,0,0,0,384.47,174.37Zm-.05.12a14.21,14.21,0,0,1-2.32,3.84A9.77,9.77,0,0,1,384.42,174.49ZM382,178.44l.09-.11a1.05,1.05,0,0,1-.17.31Zm-1,1.6,1-1.4c-.22.52-.43,1.05-.65,1.57Z"/><path class="cls-1" d="M448.8,155.93l-52.89-.14,2.89-86.86-2-30h-42l-18-10-5,1-15-8-11-7-8,1-9-4-8-6-13,1-4-4-11,1-14,7-5-4a153.4,153.4,0,0,0-21,7c-8-6-16,1-16,1l-10-3-8,5s-12,3-17,8c-15-3-16.91,5.51-21,5-8-1-12,6-12,6l-14,5-50,2,3,113h-52l-12-2v11l12-2,148-1,1,8,13,1,2,7,66-1v-14h202l18,3,1-13Zm-54-87L390,155.77l-54.25-.14Zm-320,86-5-86,57.75,86.15-52.75-.14Z"/><path class="cls-2" d="M467.24,147.85c-1.93-.95-3.73-.16-3.68,2.09a14.88,14.88,0,0,1-.18,2,13.89,13.89,0,0,0-7.77.93,14.73,14.73,0,0,1-4.47,1.15c-1.55.14-3.15-.19-4.72-.2q-17.25-.12-34.49-.18c-4.46,0-8.91,0-13.36,0-.52,0-1-.09-1.57-.14.1-1.16.22-2.15.25-3.14q1.29-36.79,2.57-73.59c.19-5.31-.08-10.64.95-15.9a6.83,6.83,0,0,0,.08-1.5c-.21-6.26-.29-12.54-1.62-18.71a3.22,3.22,0,0,1,0-1.07,2.5,2.5,0,0,0-2-3.15,11,11,0,0,0-2.57-.19l-38,.32c-.57,0-1.13-.07-1.76-.11,0-2.57-1.58-3.54-3.64-4q-1.52-.37-3.06-.66a5.62,5.62,0,0,1-3.56-2.06,2.22,2.22,0,0,0-.37-.38c-1.11-.85-2.29-1.62-3.33-2.55a4.61,4.61,0,0,0-4.68-1.08,17.59,17.59,0,0,0-3.15,1.27,2.63,2.63,0,0,1-2.68-.05c-2.57-1.24-5.18-2.43-7.82-3.51-1.79-.74-2-.91-1.8-2.89a1.78,1.78,0,0,0-.16-.57,2,2,0,0,1-2.34-1c0-.85,1.23-1.43.31-2.47-.3.27-.58.49-.81.73-.89.93-.89.95-1.89.2S314,15.76,313,15.09c-3.46-2.3-7.08-3.95-11.36-2.36-.06,0-.16-.06-.16-.06-.06-.6-.11-1.16-.17-1.71l-.37-.07c-.21.27-.42.54-.61.81-.34.48-.65,1-1,1.45s-.94.61-1.46.06c-.25-.27-.53-.5-.77-.77a7.25,7.25,0,0,0-5.81-2.53,6.76,6.76,0,0,1-1.37-.23c0-.72-.07-1.29-.11-2l-1.34.66c-1.55-1-3.07-1.95-4.49-3a6.25,6.25,0,0,0-4.18-1.37l-2.86.18c-2.26.14-4.53.34-6.79.4a4.2,4.2,0,0,1-2.15-.6c-.37-.22-.5-.92-.65-1.43a3.15,3.15,0,0,0-2.81-2.4,8.46,8.46,0,0,0-2.84.06,33.59,33.59,0,0,1-8,.56,7.17,7.17,0,0,0-5.59,2.35,6.67,6.67,0,0,1-1.87,1.32c-1.79.88-3.64,1.64-5.45,2.5-2.06,1-2.38,1-3.83-.77A5,5,0,0,0,232,4.16c-2.18.4-4.32,1-6.47,1.57-1.14.29-2.26.71-3.41.92a4.94,4.94,0,0,0-3.36,2.11,4.06,4.06,0,0,1-1.58,1.42c-3.07,1.35-3.89,1.11-6-.81A5.84,5.84,0,0,0,207,7.77h-2.19A5.69,5.69,0,0,0,200.5,9.7c-.5.53-1,1.08-1.51,1.58-1,1-1.73.9-3.09.41-2.9-1-5.84-2-8.8-2.82a3,3,0,0,0-3.49,1.26,13.66,13.66,0,0,1-3.42,3.28c-.83.62-1.54,1.41-2.33,2.08a2.41,2.41,0,0,1-1.12.68c-2.56.31-5.13.61-7.71.81-2.95.23-3.85.94-4.56,3.88-.26,1.09-.34,1.14-1.64,1,0-.25-.05-.5-.09-.93-1.71,1.4-3.64,1.31-5.55,1.23s-3.81-.21-5.71-.36a6.13,6.13,0,0,0-4,.6c-1.93,1.27-3.89,2.56-5,4.67a1.4,1.4,0,0,1-1.42.83c-1.18-.09-2.36-.27-3.53-.28a7.42,7.42,0,0,0-2.8.33c-2.35,1-4.65,2.09-6,4.48A3.19,3.19,0,0,1,125.85,34a42,42,0,0,0-4.63.33c-4.19.59-8.37,1.22-11.8,4.1a4.06,4.06,0,0,1-2.28.68c-2.36.1-4.73.06-7.09.09l-28.63.32c-1.42,0-2.82,0-4,1.06-.2.18-.76.09-1.09,0-1-.41-1.41-.31-1.68.76a23.11,23.11,0,0,0-.55,3.08c-.75,6.91-1.62,13.83-.3,20.77a8.8,8.8,0,0,1,.09,1.36c.17,6.77.29,13.54.53,20.31q1.09,31.75,2.27,63.5c0,.9.11,1.8.17,3H64.93c-9.22,0-18.45,0-27.68,0-5.4,0-10.82.06-16.2.5a21.64,21.64,0,0,1-8.78-1.36,21.83,21.83,0,0,0-3.81-.93,28.45,28.45,0,0,0-3.59,0c-.07-.88-.07-1.79-.22-2.67a2,2,0,0,0-2.72-1.54c-1.54.35-2.16,1.24-1.86,2.6a9.17,9.17,0,0,1,.27,2c0,2.54-.06,5.09-.09,7.63,0,3.14-.09,6.27-.1,9.41a8.66,8.66,0,0,0,.25,2,1.73,1.73,0,0,0,1.73,1.48c2.44,0,3.49-.69,3.61-3.06,0-.8,0-1.6,0-2.52.61,0,1.06,0,1.5,0,2.52-.11,5.1.27,7.56-.64a20.74,20.74,0,0,1,7.51-1q29,.13,58.09.18l80.45.16c.61,0,1.22.08,1.9.13-.16,1.39-.38,2.6-.41,3.81a2.12,2.12,0,0,0,2.41,2.44q4.37,0,8.73,0c.8,0,1.6-.08,2.39-.12.26,2.09.5,4.06.75,6a2.4,2.4,0,0,0,2.24,2.35,12.75,12.75,0,0,0,1.63.11c3.59.09,7.18.2,10.77.25,1,0,2,0,2.45.68a9,9,0,0,1,2-.59q19.91-.18,39.81-.26a3.73,3.73,0,0,1,1.43.57,7,7,0,0,1,.74.46c.21-1.13,1-1.27,1.83-1.28s1.63-.1,2.45-.18a39,39,0,0,0,3.91-.49,2.32,2.32,0,0,0,1.44-1.07,14.19,14.19,0,0,0,.95-3.09,27.8,27.8,0,0,0,.86-8.38,6.29,6.29,0,0,1,.11-1.13h2q68.31.24,136.61.49c10.5,0,21-.05,31.5,0,4.95,0,9.9.23,14.85.26,4.09,0,8.18-.17,12.26-.09,3.11.07,6.28-.49,9.33.64a3.82,3.82,0,0,0,1.22,0h5.51c0,.69,0,1.18,0,1.67a11.07,11.07,0,0,0,.23,2.16c.34,1.26,1.64,1.93,3.3,1.83,1.12-.07,1.86-.78,1.95-2.22.13-2.08.16-4.18.14-6.27,0-4-.16-8-.21-12a10.38,10.38,0,0,1,.28-2.14A1.78,1.78,0,0,0,467.24,147.85Zm-460,8.41-1.62,2.55C4.84,156.24,5.4,155.74,7.2,156.26Zm-.33,5.28c-.29.53-.55.81-1.35.37,1.75-1.86,2.38-4.39,4.16-6.06l.49.36c-.25.34-.51.68-.73,1C8.57,158.67,7.68,160.08,6.87,161.54Zm3.3.36c-.2.3-.66.42-1,.62L9,162.3a2.67,2.67,0,0,1,.18-.7c.82-1.41,1.66-2.81,2.5-4.2.38-.63.82-1,1.57-.25C12.17,158.79,11.21,160.37,10.17,161.9Zm3.59-.72-.35-.22c.54-1.05,1-2.14,1.66-3.13.16-.25.81-.19,1.32-.09C15.52,159,15.32,160.64,13.76,161.18Zm4.51-1.35c.4-1.75.79-2,2.54-1.74C20,160,19.74,160.12,18.27,159.83Zm4.12,0c.14-1.53.68-1.92,2.09-1.51C23.91,159.89,23.73,160,22.39,159.82Zm3.57,0c.45-1.48.76-1.69,2.12-1.39C27.62,159.84,27.28,160.06,26,159.78Zm4.15.16c.24-.9.48-1.51,1.5-1.57C31.42,159.19,31.25,159.84,30.11,159.94Zm3.34-.15c.56-1.46.73-1.57,2-1.3C35,159.82,34.78,160,33.45,159.79Zm3.94,0c.6-1.55.85-1.67,2.6-1.34C39.65,159.94,39.2,160.18,37.39,159.8Zm4.41,0c.37-1.46.67-1.63,2.34-1.28C43.45,160,43.19,160.15,41.8,159.78Zm4.34,0c.41-1.37.54-1.47,1.77-1.26C47.47,159.84,47.26,160,46.14,159.77Zm3.35.06c0-1.45,1.21-1.78,2.83-1.37C52.13,160,51.51,160.26,49.49,159.83Zm4.52-.05c.35-1.43.59-1.57,2.28-1.3C55.72,160,55.42,160.17,54,159.78Zm3.91.05c.35-1.43.62-1.61,2-1.31C59.35,159.89,59.14,160,57.92,159.83Zm3.36,0c.47-1.52.69-1.64,2.29-1.35C63.37,159.9,63,160.16,61.28,159.83ZM397.47,69.62c-1.43,28.05-2.66,55.85-3.51,83.83h-2.77c0-.84,0-1.64,0-2.45.48-12.39.93-24.78,1.47-37.17.43-9.89,1-19.78,1.45-29.67.15-3.18.22-6.36.34-9.54C394.52,72.54,395.36,71.09,397.47,69.62ZM329.79,34.44c.87-1.34,2.27-1.25,3.74-1.4v2.73l.29.07.94-2.78,2,1.84a4.72,4.72,0,0,0-.16-3.42l.28-.29a3.39,3.39,0,0,1,1,.35c2.06,1.61,4.1,3.26,6.41,5.1H326.83l2.39-1.84C329.4,34.66,329.68,34.61,329.79,34.44Zm-5.4-4.35c1,.44,2,.95,3.21,1.52a7.36,7.36,0,0,1-1,1.17c-2.29,1.81-2.3,1.8-3.19,4.08-.54-1.24-1.42-2.34-1.36-3.39s1-2.16,1.61-3.21A.75.75,0,0,1,324.39,30.09Zm-1.74,6.42c0,.12-.07.24-.1.36a8.64,8.64,0,0,1-1.44,0c-.14,0-.28-.38-.3-.6s.36-.31.5-.27A11,11,0,0,1,322.65,36.51Zm-3.46-7.78a1.09,1.09,0,0,1,.93-.34,24.52,24.52,0,0,1,2.45.83l-1.83,3.48-3.1-1.63C318.2,30.21,318.64,29.43,319.19,28.73Zm-3,5.08a.83.83,0,0,1,.8-.2A10.19,10.19,0,0,1,319.44,35c.41.34.46,1.09.76,1.89h-5.71C315.11,35.72,315.61,34.74,316.18,33.81ZM313,36.64a.92.92,0,0,1-.69.32c-.75,0-1.51,0-2.27,0l-.18-.31c.85-1.21,1.66-2.44,2.56-3.62.58-.75,1.37-.44,2.37-.18C314.16,34.18,313.6,35.43,313,36.64Zm3.36-9.71a5.71,5.71,0,0,1,.63.32,7.49,7.49,0,0,1,.6.49c-.7,2.38-1.52,3.05-3.33,2.49C315,29.06,315.66,28,316.34,26.93Zm-4.26,3.37c-.32.4-1,.48-1.56.74-1,.48-1,1.09,0,1.74-.69,1.21-1.34,2.45-2.1,3.63a1.8,1.8,0,0,1-1.08.61,4.43,4.43,0,0,1-1.84-.15c2.67-3.8,4.76-8,9.13-10.35C313.75,27.79,313,29.1,312.08,30.3Zm1.29-8c-1.6,2.64-4.41,3.38-6.53,5.05L306.5,27l4.5-6.52Zm-3.67-2.69c-1.59,2.05-3.13,4-4.66,6l-.18-.09a9.11,9.11,0,0,1,.33-.92c.78-1.68,1.49-3.39,2.39-5C308.26,18.44,308.49,18.49,309.7,19.63Zm-7.79-.45c1.45-1.66,2.91-2,4.43-1.05l-4.86,7C300,23.36,300.26,21.08,301.91,19.18Zm.6,13.77c.7-.9.92-.87,1.79-.09.3.27.64.48,1,.78-.63,1-1.22,2-1.89,3a1.35,1.35,0,0,1-.91.47c-.89.07-1.79,0-2.84,0a3.66,3.66,0,0,1,.3-.8C300.81,35.18,301.64,34.05,302.51,33Zm-2.68.13.17.14c-.59,1.17-1.15,2.35-1.77,3.5-.32.59-.85.52-1.55.23l.64-1.32-1.64,1.5a6.48,6.48,0,0,1,3.42-4c-.17.42-.29.72-.42,1ZM299,27.7c.14.23.24.7.11.85a9.75,9.75,0,0,1-1.94,2,26.89,26.89,0,0,1-2.63,1.1c-.82.42-1.57,1-2.48,1.37l5.31-7.71C298,26.29,298.54,27,299,27.7Zm-20.76,9.63-.33-.26c.2-.37.39-.75.62-1.1.78-1.21,1.57-2.42,2.37-3.62.18-.26.33-.59.58-.73a3.17,3.17,0,0,1,1-.2c0,.34-.07.68-.1,1a6.48,6.48,0,0,1,1.31-.87.8.8,0,0,1,.87,1.26c-.87,1.31-1.79,2.59-2.71,3.87-.62.86-1.45.68-2.45.46.29-.68.54-1.28.79-1.88Zm-5-1.23c.65.68,1.24-.06,1.75-.44.76-.57,1.49-1.18,2.23-1.77l.27.23c-.56.92-1.09,1.86-1.7,2.75a1.32,1.32,0,0,1-.9.51c-1.34.06-2.69,0-4.21,0a5.93,5.93,0,0,1,.4-1c2.52-3.61,5.05-7.21,7.55-10.84.5-.73,1-.84,1.67-.33.11.09.23.15.34.23,1.63,1.1,1.61,1.17.57,2.87a6.8,6.8,0,0,1-3.15,2.84,24.15,24.15,0,0,0-3.54,2.27,4.35,4.35,0,0,0-.81.73C273.26,34.77,272.58,35.41,273.25,36.1ZM253,30.24a.71.71,0,0,1-1.11-.76,3,3,0,0,1,.54-.94c1.28-1.91,2.58-3.82,3.88-5.73,1-1.41,1.09-1.45,2.65-.84.29.11.57.25,1.05.46l-6.46,9.23c-.86-1,.21-1.53.42-2.44A6.5,6.5,0,0,1,253,30.24Zm.59,5.68q3.93-5.79,7.89-11.56c1-1.47,1.39-1.47,2.91-.05-.24.39-.49.81-.76,1.22-2.46,3.75-4.93,7.49-7.37,11.25a1.48,1.48,0,0,1-1.43.82l-2.1-.17C253,36.82,253.26,36.35,253.55,35.92Zm12.38-9.82.29,0a5.22,5.22,0,0,0,.4,1.86c1.07,1.61,0,2.66-.78,3.86-1,1.51-1.95,3.05-2.84,4.62a1.8,1.8,0,0,1-1.84,1.09c-1-.06-1.94,0-2.91,0l-.19-.35Zm3.75,5.45c-.18-.3-.35-.6-.6-1l5.9-7.93,2.59,1.46c-.31.51-.58,1-.87,1.41-1.88,2.79-3.77,5.57-5.63,8.37a14.23,14.23,0,0,0-1.41,2.49,1.67,1.67,0,0,1-1.89,1.16c-.93-.06-1.87,0-3.12,0A48.84,48.84,0,0,1,269.68,31.55Zm-1.07-9.43c.87-1.37,1.81-2.71,2.7-4.08a1.29,1.29,0,0,1,1.73-.59c.7.27,1.45.43,2.58.74-2.09,2.86-4,5.48-6,8.23-.49-1.25-.93-2.26-1.26-3.3A1.39,1.39,0,0,1,268.61,22.12Zm7.76-1.18c.67-1.85,1.46-2.19,2.75-1.21a1.56,1.56,0,0,1,.41,1.15c0,.15-.61.41-.93.39A19.36,19.36,0,0,1,276.37,20.94Zm6.31,9,.61-1.11C283.8,29.75,283.62,30,282.68,29.89Zm4.5,2.51a1,1,0,0,1,.86-.19c.66.12,1.29.34,2,.56-.85,1.44-1.61,2.76-2.42,4.06a.93.93,0,0,1-.66.39c-1.06,0-2.13,0-3.19,0l-.18-.29C284.81,35.43,286,33.89,287.18,32.4Zm4.2,1.53c.07,1.31.14,2.49,1.82,2.77-1.23.87-2.51.39-3.72.53l-.19-.35Zm6.92-14.09c-1.75,4.63-5.27,8.15-7.72,12.45a12.15,12.15,0,0,0-.87-1.13,9.19,9.19,0,0,0-1-.66,5.62,5.62,0,0,1,.39-.82q3.21-4.72,6.46-9.43C296.54,18.85,296.64,18.83,298.3,19.84Zm-7.23-3.46c.69-1.11,1-1.12,2-.25.68.6,1.38,1.16,2.15,1.8l-8.46,12c-.46-1.53-.87-2.79-1.18-4.08a1.82,1.82,0,0,1,.35-1.12Q288.47,20.53,291.07,16.38Zm-5.21-1.5a1,1,0,0,1,1.31-.34c.78.34,1.6.61,2.64,1-1.9,2.81-3.73,5.55-5.64,8.38l-2.68-1.76c1-1.81,2-3.55,3-5.27C284.86,16.18,285.38,15.54,285.86,14.88Zm-1.81-2.63c-2.34,1.26-3.46,3.45-4.28,6l-1.38-.72c.49-.79.89-1.47,1.32-2.14.72-1.1,1.44-2.19,2.17-3.28S283,11,284.05,12.25Zm-3.49-2.59a.75.75,0,0,1,.19,1.18c-1.26,1.77-2.54,3.54-3.85,5.28a1.07,1.07,0,0,1-.83.26c-1.05-.11-2.11-.28-3.3-.46,1.36-2,2.65-3.89,4-5.76C277.35,9.35,279.76,9.09,280.56,9.66Zm-8.1.3a16.83,16.83,0,0,0,2.2-.1l-8.25,11.36-1.91-1.1a6.1,6.1,0,0,1,.34-.9c1.65-2.6,3.34-5.18,5-7.79A2.65,2.65,0,0,1,272.46,10Zm-7.58,1.55a3.13,3.13,0,0,1,3.74-1.34l-6.08,8.54c-.1-.06-.23-.1-.22-.14A13.22,13.22,0,0,1,264.88,11.51Zm-2.14-4.87.94,1.11c-.15.2-.22.39-.36.47A9.63,9.63,0,0,0,259,14.41a9.12,9.12,0,0,1-4.08,5.66,12.18,12.18,0,0,1-2,1.19C255.91,16.27,259.14,11.47,262.74,6.64Zm-5-.58c1.24,0,2.48-.22,3.9-.35-.23.38-.35.62-.5.83q-6.76,9.3-13.55,18.6c-1.79,2.46-1.77,2.48-5.29,2.49l1.31-2,2,.73.32-.27a9.12,9.12,0,0,0-.52-1.68,1.52,1.52,0,0,1,.11-1.76Q250.58,15,255.6,7.26A2.31,2.31,0,0,1,257.71,6.06ZM231.64,34.31c-1.28,1.12-1.3,1.8-.73,3.4h-1.68c1-3.12,3.16-5.47,4.67-8.18s3.48-5.3,5.35-8.09c.68.33,1.39.46,1.74.89,1.62,1.92,1.77,1.28.34,3.48l-.15.23A9.35,9.35,0,0,1,238,29.37,51.58,51.58,0,0,0,231.64,34.31Zm4.48,0c-.48,1-.91,1.95-1.45,2.88s-1.53.58-2.55.53a4.35,4.35,0,0,1,.41-.51l3.36-3.11Zm-16.58-1.08c1.92-2.8,3.86-5.61,5.85-8.52.3.2.43.25.53.34,1.86,1.73,1.84,1.89.56,4.08-1.52,2.57-3,5.19-4.42,7.8-.62,1.11-.79,1.2-2.33.77C220.93,36.23,220.74,34.76,219.54,33.23Zm-4.1,4A1.27,1.27,0,0,1,214,38c-.7-.06-1.39-.15-2.28-.26.33-.66.52-1.11.78-1.53,2.07-3.3,4.16-6.58,6.23-9.88a2.56,2.56,0,0,1,2-1.28c.75-.09,1.49-.24,2.52-.42-.39.64-.61,1-.86,1.38A75.87,75.87,0,0,0,215.44,37.22Zm12.31-16.15c.81-1.27,1.63-2.52,2.41-3.8a1,1,0,0,1,1.35-.47c.74.32,1.5.57,2.44.93l-4.89,7.1c-.4-.33-.69-.53-.94-.77C226.82,22.84,226.79,22.58,227.75,21.07Zm.89,7.28a27,27,0,0,1,1.69,2.45,1.68,1.68,0,0,1-.05,1.26c-.76,1.7-1.55,3.38-2.4,5a1.49,1.49,0,0,1-1,.74c-1.17.09-2.34,0-3.87,0C224.75,34.49,226.64,31.59,228.64,28.35Zm11.71,4.22-2.15,2a7.06,7.06,0,0,1,1.8-3.12l.35.12ZM238.79,35c.5-.86,1.06-1.68,1.6-2.51l0,0a2.22,2.22,0,0,1,2.75-1.15c-.18.4-.32.75-.49,1.09-.68,1.33-1.47,2.61-2,4a1.71,1.71,0,0,1-2,1.29c-.4,0-.81,0-1.31,0C237.39,36.55,238.28,35.9,238.79,35Zm6.26-3c.48-.72.95-.61,2.49.34-.25.49-.49,1-.75,1.5-.42.8-.86,1.58-1.26,2.39-.78,1.6-1.05,1.72-2.94,1.26C242.43,35.29,243.93,33.75,245.05,32.06Zm3.83,1.9c.16-.23.56-.29.85-.43,0,.32.1.73,0,.92-.75.95-1.56,1.83-2.35,2.73L247,36.9C247.63,35.92,248.22,34.91,248.88,34Zm1.31.83c.2-.21.67-.17,1-.25a2.42,2.42,0,0,1,.11.94,5.84,5.84,0,0,1-.58,1.21c-.59,1.1-1.08,1.24-2.54.65C248.92,36.4,249.51,35.55,250.19,34.79ZM248,9.47a8.71,8.71,0,0,0,3.91-2.6c.69-.84,1.21-.88,2.94-.6l-6.79,9.62-3.67-2.51C245.46,11.88,246.17,10.16,248,9.47Zm-4.52,2.07c-.16,1-.16,1-1,.62Zm-.12,4.63,3.51,1.54L243.81,22c-2.18-1.4-2.18-1.4-3.49-1.36a5.71,5.71,0,0,1,.36-1.49c.46-.88,1-1.69,1.58-2.53C242.52,16.25,242.8,15.92,243.36,16.17Zm-3.7-1.89c.51.26,1,.55,1.71.92l-2.16,3.14c-.6-.45-1.07-.78-1.52-1.15a1.47,1.47,0,0,1-.46-2.13C237.94,13.66,238.24,13.57,239.66,14.28ZM236.37,13l.61.44-.41.43-.42-.65C236.22,13.13,236.3,13.06,236.37,13Zm.49,6.45c.63-.11,1.06.84.7,1.39-1.73,2.64-3.5,5.25-5.38,8.06a26.12,26.12,0,0,1-1.65-2.28,1.33,1.33,0,0,1-.09-1.11c1.45-2.33,3-4.63,4.49-7C235.61,19,236,19.59,236.86,19.43Zm-2.29-3.77-2.84-.35a6.24,6.24,0,0,1,1.94-2.88C234,13.56,234.24,14.49,234.57,15.66Zm-2.84-6.15c1.12-.07,1.53.44,1.2,1.5a3,3,0,0,1-.49.81c-2,2.75-4,5.47-6,8.26a2.3,2.3,0,0,1-2.31,1.27,10.52,10.52,0,0,0-1.87.1,6.79,6.79,0,0,1,.39-.88c2.14-3.21,4.3-6.4,6.42-9.61A3.19,3.19,0,0,1,231.73,9.51Zm-9,3.06a2.58,2.58,0,0,1,.84-.65c1.41-.47,2.84-.88,4.48-1.38a3,3,0,0,1-.23.59c-2.25,3.06-4.54,6.1-6.74,9.2A3.21,3.21,0,0,1,218.34,22a19.79,19.79,0,0,0-2.4.3,11.73,11.73,0,0,1,.56-1.19C218.38,18.11,220.14,15,222.74,12.57Zm-8.2,3.81c1-.14,2-.26,2.92-.38.06.08.13.15.2.23l-3,4.47c-.32-1.34-.59-2.36-.81-3.39C213.72,16.76,214,16.45,214.54,16.38Zm-2.87,3.83c.37.9.76,1.76,1.06,2.65a1.12,1.12,0,0,1-.26.82,3.36,3.36,0,0,1-.92.8c-1.47.83-2,2.26-2.49,3.75a23,23,0,0,1-1.14,2.88c-.59,1.22-1.33,2.38-1.89,3.61a4.4,4.4,0,0,0-.2,1.71c0,.15.28.4.44.42a.71.71,0,0,0,.52-.33c.22-.39.32-.85.55-1.24.39-.69.7-1.39,1.84-1,.82.26,1.45-.52,1.75-1.24a17.1,17.1,0,0,0,.91-3c.57-2.72,2-4,5.26-4.17-.35.58-.61,1-.85,1.41-1.92,3.34-3.83,6.69-5.78,10-.18.31-.55.72-.84.72-2.94.06-5.88,0-8.8,0-.05-.15-.13-.26-.1-.32a8.77,8.77,0,0,0,1-2.59c.31-1.46.9-1.6,2.38-1.08a4.91,4.91,0,0,0,.73.14,13.71,13.71,0,0,1-.63-1.76,2.11,2.11,0,0,1,0-1.36c2.32-3.58,4.7-7.12,7.08-10.67C211.37,20.32,211.53,20.28,211.67,20.21Zm-21.46,7.68a5.82,5.82,0,0,1-.39.9c-1.79,2.83-3.62,5.64-5.39,8.48a1.91,1.91,0,0,1-1.86,1.08c-.85-.05-1.71,0-2.91,0,.38-.74.57-1.18.83-1.58,1.68-2.58,3.39-5.15,5.06-7.73a1.68,1.68,0,0,1,1.54-.89C188.07,28.13,189.06,28,190.21,27.89Zm-3-1.29c1-1.5,2-3,3.09-4.67.21.31.3.41.36.53,1.25,2.33.85,3.31-1.69,4.08-.5.15-1,.23-1.54.34Zm2.21,6.56a1.44,1.44,0,0,1,.65-.48,14,14,0,0,1,6-.87c-.37.63-.62,1-.86,1.44-.79,1.34-1.62,2.64-2.33,4a1.66,1.66,0,0,1-1.71,1c-1.53,0-3.06,0-4.6,0l-.23-.37C187.32,36.33,188.34,34.73,189.4,33.16Zm6.43,2.7c.73-1.24,1-1.29,2.3-.68a1.64,1.64,0,0,1,.41,2.79.83.83,0,0,1-.5.18c-1,0-2,0-3.39,0C195.13,37.21,195.45,36.51,195.83,35.86Zm3.25-2.36L198,33c.6-1.32,1.16-1.36,3.08-.24a6.64,6.64,0,0,1-.29.67,5.67,5.67,0,0,1-.47.6Zm11.19-17.9a2.05,2.05,0,0,1,.88,2.24,4.1,4.1,0,0,1-.59,1.06c-2.5,3.63-5,7.23-7.5,10.86-.4.59-.77.85-1.44.46-.41-.25-.87-.42-1.42-.68.26-.46.43-.82.65-1.15,2.66-3.95,5.32-7.9,8-11.82C209.19,16.1,209.38,15.28,210.27,15.6Zm-16.45,3.17c.9-1.23,2.18-1.3,3.54-1-.17.9-2.12,3.67-3.56,5C193.39,21.33,192.89,20,193.82,18.77Zm5.35-.59a5.06,5.06,0,0,1,.78-.94c1.43-1.25,2.86-2.5,4.32-3.71a2.88,2.88,0,0,1,2.86-.27c1.17.37,1.31,1,.59,2-3.05,4.29-6.11,8.58-9.13,12.89a2.51,2.51,0,0,1-2.11,1.21c-1.65.11-3.3.41-5.12.65.27-.47.46-.86.69-1.22Q195.6,23.49,199.17,18.18Zm-7.45-2.29c-1.55,2.83-2.73,5.83-4.81,8.39-2.19,2.72-4.06,5.69-6,8.58-.62.89-1.14,1.85-1.71,2.79l-1.58,2.65h-4.92L176,33.17c1.67,1.51,1.67,1.51,2.7.8,0-.09,0-.2,0-.26-1.49-2.34-1.51-2.35.07-4.56,3-4.14,6-8.26,8.94-12.38C189.15,14.77,189.37,14.73,191.72,15.89Zm-20.7,22a1.49,1.49,0,0,1-1,.59,26.62,26.62,0,0,1-2.68,0l-.23-.37,5.75-7.59,1.19,1.07a.83.83,0,0,1,.15,1.21C173.15,34.48,172.12,36.19,171,37.86Zm7.81-15.75c1.69-1.63,3.37-3.27,5.08-4.86.8-.74,1.66-1.42,2.52-2.09a8.26,8.26,0,0,1,1.13-.64l.27.33L175.75,30.3c-.37-.32-.59-.54-.84-.73-.73-.56-.7-1.11-.15-1.83,1.34-1.78,2.61-3.61,3.9-5.41A1.28,1.28,0,0,1,178.83,22.11Zm-.86-.56c-.36.56-.56.94-.82,1.28-1,1.37-2.12,2.7-3.11,4.11-.56.78-1.08,1-1.87.37-.31-.24-.67-.43-1.25-.79,1.22-1.62,2.24-3.18,3.47-4.54C175.28,21,176.58,21.57,178,21.55Zm-8.29,1.69c.56-1.17,1.64-1.23,2.92-1.07L170.34,25C169.67,24.43,169.34,23.94,169.68,23.24Zm1.06,8.16c-1,.46-1.87.8-2.69,1.24s-1.69,1-2.52,1.54l-.24-.26,3.19-4.25ZM167,26.48c1,1.11,1,1.29.2,2.33q-2.69,3.58-5.36,7.18a14,14,0,0,0-.8,1.26c-.86,1.43-.86,1.43-3,1.2C161.06,34.32,163.9,30.34,167,26.48Zm-2.66,1.15L157,37.09a1.06,1.06,0,0,1-.18-1.67l5.46-7.32A1.54,1.54,0,0,1,164.33,27.63Zm-3.71,0c-1.91,2.38-3.7,4.6-5.57,6.91l-2-1.31c.28-.44.48-.83.74-1.17.81-1,1.73-2,2.44-3.08C157.24,27.35,158.69,27.28,160.62,27.6Zm-4.94,0-1.68,2-1.15,1.34c-1.59,1.87-1.61,1.88-4.08.62a8.39,8.39,0,0,1,.48-.89c.32-.44.68-.86,1-1.28C152.2,27,152.2,27,155.68,27.59Zm-3.06,10.48a1.25,1.25,0,0,1-.94.55,21.23,21.23,0,0,1-2.5-.12c.28-.52.4-.76.54-1,.85-1.32,1.24-1.4,2.45-.4C152.43,37.32,152.71,37.83,152.62,38.07Zm-2-10.87a34.7,34.7,0,0,1-3.41,3.87C146.66,29.54,148.46,27.47,150.64,27.2ZM147,34.46a19.12,19.12,0,0,1,2,1c-.58,1-1.08,1.87-1.65,2.72a1.11,1.11,0,0,1-.78.44c-1.12,0-2.24,0-3.36,0l-.17-.38c1-1.23,1.95-2.47,3-3.65A1,1,0,0,1,147,34.46Zm-5.43-.86a5.78,5.78,0,0,1,2.93-.81c.63-.08.89.58.47,1.14q-1.67,2.22-3.41,4.38a1.26,1.26,0,0,1-.8.44c-1.16,0-2.32,0-3.48,0l-.2-.34A60.51,60.51,0,0,1,141.59,33.6Zm-6.25,5c-.15.16-.54.09-.93.14.84-1.35,4.81-5.16,5.82-5.3C138.6,35.21,137,36.94,135.34,38.64Zm-.65-4.49c.9-.83,1.86-1.66,3.45-1.07a7.81,7.81,0,0,1-.68,1c-1.18,1.19-2.44,2.31-3.55,3.56a3.79,3.79,0,0,1-4,1.16C131.58,37.15,133.1,35.61,134.69,34.15ZM68.1,44.81h4l107.16-1a3.56,3.56,0,0,1,2.61.49c.16.14.58,0,.88-.06a12.24,12.24,0,0,1,2.19-.47q27.13-.32,54.27-.57l83.3-.82q35.12-.36,70.22-.75h2c-.09,1.87-.15,3.53-.27,5.19-.05.7-.65.65-1.15.64-2.09,0-4.18-.07-6.27,0l-27,.2c-21.63.14-43.27.22-64.9.43q-48.67.47-97.34,1.08-35.31.44-70.62,1-26.41.42-52.83.95c-1.68,0-3.35.22-5,.33-1.19.07-1.3,0-1.31-1.13C68,48.44,68.07,46.59,68.1,44.81Zm163,76.31c0,5.9-.35,11.81-.42,17.71-.06,4.31.06,8.63.14,12.94,0,1.61,0,1.69-1.63,1.69l-29,0c-.49,0-1,0-1.62-.07,0-.49-.06-.8-.06-1.11,0-1.41.1-2.82.07-4.23-.22-10.9-.54-21.8-.66-32.7-.07-6.72.22-13.44.25-20.16q.07-14.25,0-28.49c0-3.68-.26-7.35-.41-11,0-1.4,0-1.45,1.4-1.46l30.39-.37c1.68,0,1.68,0,1.68,1.64,0,8.85.05,17.71,0,26.57,0,5.13-.15,10.26-.16,15.4C231.05,105.31,231.17,113.22,231.11,121.12Zm-5.77,37.38c-.29,2-.79,2.22-3.42,1.65C222,158.56,222.74,157.75,225.34,158.5Zm-5.66-.09c-.18,1.8-.65,2.11-2.77,1.74C217.41,158.25,217.75,158.05,219.68,158.41Zm-4.79,0c0,1.89-.82,2.18-3.34,1.72C211.69,158.41,212.27,157.92,214.89,158.42Zm-5.78-.16c-.3,1.84-.49,2-2,2h-1.87c.24-1.8.46-2,1.94-2Zm-6.1.22c-.1,1.56-.36,2.13-3,1.65C200,158.35,201,157.92,203,158.48Zm-5,0c-.23,1.89-.93,2.22-3.27,1.56C195.2,158.22,196,157.87,198.05,158.5ZM68,58.06a22.44,22.44,0,0,0,0-2.32c0-.91.36-1.18,1.24-1.12,2,.13,4.08.26,6.12.25q23-.06,45.95-.17c2.49,0,2.38,0,2.49,2.41.2,4.72.51,9.43.82,14.15.78,11.79,1.52,23.58,2.38,35.36.57,7.8.82,15.61.83,23.43,0,6.36.13,12.72.2,19.08,0,.34,0,.68-.1,1.25-.35-.42-.56-.63-.73-.87-1.53-2.31-3-4.64-4.59-6.94q-4-6-8.06-12c-7.06-10.48-14-21-21.2-31.41-4.1-6-8.54-11.66-12.71-17.55-2.18-3.08-4.11-6.32-6.17-9.48a36.54,36.54,0,0,0-3.12-4.61A12.49,12.49,0,0,1,68,58.06ZM65.31,159.88c.5-1.59.8-1.74,2.77-1.43C67.89,160,67.45,160.21,65.31,159.88Zm4.35,0c.4-1.63,1-1.9,2.93-1.34C72.53,160,71.4,160.3,69.66,159.88Zm.75-6.71a1.3,1.3,0,0,1-.44-1c-.26-6.94-.43-13.9-.73-20.84q-1.3-30-2.69-59.93c0-.52,0-1,0-1.57l.34-.07a7.41,7.41,0,0,1,2.69,5.33c.54,14.13,1.27,28.24,1.87,42.36.36,8.49.6,17,.91,25.48.11,2.91.3,5.81.42,8.71A1.51,1.51,0,0,1,70.41,153.17Zm3.72,6.69c.46-1.6.9-1.81,2.75-1.36C76.51,160,76.1,160.25,74.13,159.86Zm4.19,0c.26-1.6,1-1.91,3-1.33C80.88,160.09,80.35,160.33,78.32,159.86Zm4.71,0c-.13-1.51,1-1.87,2.88-1.42C85.36,160.12,85,160.3,83,159.88Zm4.62,0c.42-1.67.89-1.89,3.08-1.47C90.59,160.16,89.42,160.3,87.65,159.91Zm4.8-.07c.38-1.54,1-1.82,2.76-1.36C95,160.12,94.38,160.4,92.45,159.84Zm4.53,0c.35-1.57.78-1.83,2.31-1.39C99,160.1,98.64,160.29,97,159.89Zm4.63,0c.3-1.49.63-1.71,2.06-1.42C103.55,160,103.19,160.25,101.61,159.89Zm3.84,0c.3-1.64.76-1.87,2.59-1.4C107.79,160.08,107.33,160.34,105.45,159.88Zm4.68,0c.19-1.59.52-1.8,2.25-1.45C112.14,160,111.63,160.32,110.13,159.9Zm4.29.09c.22-1.43.57-1.72,1.81-1.52C115.88,159.86,115.64,160.06,114.42,160Zm3.77.09c.16-.93.45-1.59,1.71-1.74C119.53,159.28,119.37,160.09,118.19,160.08Zm3.74-.16c.48-1.46.65-1.59,2-1.55C124.17,159.78,123.42,160.37,121.93,159.92Zm1.09-6.55-45.67-.05c-1.53,0-1.56,0-1.66-1.6Q75,140.57,74.4,129.41q-1.28-23.68-2.54-47.36c-.08-1.57-.19-3.13-.29-4.69l.43-.1c.65,1,1.29,2.07,2,3.08,1.23,1.85,2.48,3.7,3.74,5.53.59.86,1.26,1.67,1.86,2.52,4.3,6.08,8.62,12.16,12.88,18.27,2.49,3.58,4.87,7.23,7.32,10.84,1.15,1.69,2.35,3.34,3.53,5,5.67,8.07,11.36,16.11,16.62,24.46.93,1.49,2.14,2.8,3.22,4.21.45.59.88,1.21,1.5,2.06C123.87,153.3,123.45,153.37,123,153.37Zm3.11,6.55c.55-1.76,1.2-2,3.71-1.47C130,160.17,128.73,160.51,126.13,159.92Zm6.29,0c.37-1.55.48-1.65,1.89-1.66.54,0,1.08,0,1.62,0a1.6,1.6,0,0,1,.37.12C136.32,160.21,135.15,160.5,132.42,160Zm6,0c.24-1.44.46-1.67,1.71-1.7.63,0,1.26,0,1.89,0,.12,0,.23.1.34.15C142.13,160.06,141.32,160.58,138.43,160Zm5.37,0c.18-1.7,1.12-2,3.77-1.56C146.77,160.3,146.11,160.55,143.8,160Zm5,0c.72-1.64,1-1.8,2.29-1.52C150.74,160.07,150.4,160.31,148.85,160Zm3.33,0c.44-1.66,1-2,2.88-1.5C154.55,160.19,154,160.5,152.18,160Zm4.72.06c.37-1.39.65-1.63,1.76-1.56C158.29,159.9,158,160.12,156.9,160.05Zm3.69,0c.3-1.35.51-1.55,1.75-1.59C161.82,159.94,161.65,160.09,160.59,160Zm-23.41-6.65c-2.13,0-4.27,0-6.41,0-1.3,0-1.55-.2-1.53-1.5,0-2.77.22-5.53.27-8.31.05-3.27,0-6.54,0-9.81,0-3,0-5.9-.16-8.86q-.36-9.39-.85-18.78c-.29-5.4-.62-10.8-1-16.19-.68-9.29-1.43-18.58-2.12-27.87-.15-2-.19-4-.22-6,0-1.24.11-1.36,1.3-1.37q17.85-.15,35.72-.27c1.21,0,1.29.08,1.33,1.33q.6,17.5,1.18,35h-.41c.2,8.54.34,17.08.6,25.62.21,6.9.65,13.8.81,20.7.11,5-.09,10-.16,15,0,1.24-.07,1.29-1.48,1.29ZM164.75,160c.37-1.62.67-1.83,2.29-1.6C166.82,160,166.24,160.39,164.75,160Zm1.11,5.71c1,0,1.32.42,2,2.52C165.92,169,165.73,168,165.86,165.74Zm3.33-5.69c.51-1.45.76-1.66,1.82-1.54C170.53,159.94,170.29,160.15,169.19,160.05Zm4.95,6.09c.53.87,1.07,1.74,1.63,2.64C175.09,168.82,175.09,168.82,174.14,166.14Zm-.86-6.11c.5-1.7.86-1.91,2.69-1.57C175.33,160.23,174.91,160.46,173.28,160Zm-5.11-6.66c-1.56,0-1.59,0-1.58-1.6s0-3.46.14-5.18c.56-9.54.18-19.07-.19-28.6-.26-6.86-.24-13.72-.34-20.58-.16-11.17-.31-22.34-.51-33.52-.05-2.67-.3-5.35-.46-8-.09-1.4,0-1.48,1.37-1.49l27.8-.17c1.35,0,1.44.07,1.47,1.49q.27,11,.51,21.93c.11,5.41.18,10.81.24,16.22,0,3.31,0,6.63,0,10h-.19q.25,12.4.49,24.8c.09,5.13.13,10.26.22,15.39,0,2.59.15,5.18.16,7.77,0,1.59-.1,1.66-1.73,1.65Zm21.88,5.1c-.33.86-.66,1.65-1.9,1.75C188.64,158.63,188.88,158.42,190.05,158.47Zm-5.78,7.22c1.48.75,2.08,2.36,3.21,3.47a2.2,2.2,0,0,0-.2.23L184,165.93Zm-1.09-5.56c.24-1.7.9-2.1,2.86-1.65C185.34,160.29,185.11,160.41,183.18,160.13Zm-4.73,0c.16-1.65.69-2,2.45-1.65C180.25,160.22,180,160.35,178.45,160.12Zm1.91,11.14,3.17,4.25C181.24,175.46,179.94,173.7,180.36,171.26Zm6.86,4.53c-1.38-.27-1.41-1.81-2.23-2.62l2.5,2.29Zm.62-1.18c-2.53-2.49-5.08-5-7.57-7.5-.26-.27-.17-.87-.25-1.31.44.1,1,.08,1.3.34a16.44,16.44,0,0,1,1.8,2c1.66,2.08,3.28,4.18,4.92,6.27Zm4.51-4.36-4.79-4.42c1-.27,1.94-.48,2.53.24C191.12,167.31,193,168.19,192.35,170.25Zm0-10-.42-.26.72-1.14.28.15C192.75,159.41,192.55,159.83,192.36,160.24Zm3.41,12.24,2.69,3.06A3.1,3.1,0,0,1,195.77,172.48Zm4-.3-4.11-3.91a.68.68,0,0,1-.17-.21c-.22-.53-.3-1.2-.68-1.56s-1-.33-1.52-.58a1.5,1.5,0,0,1,2.06.4c1.57,1.86,3.12,3.74,4.67,5.61Zm-1.95-6.31a2,2,0,0,1,2.46.49l6.87,8.23A66,66,0,0,1,197.83,165.87Zm4.81.08.12-.37c.5.19,1.16.24,1.48.6,1.63,1.81,3.18,3.71,4.84,5.68C207.75,171.68,204,168.19,202.64,166Zm15,10.06c-1.54.38-2.1.06-3.1-1.16-2.15-2.63-4.4-5.18-6.61-7.77l-1-1.14c2.23-.64,3.11-.36,4.39,1.18,2.17,2.61,4.37,5.2,6.56,7.8l.66.81C218.18,175.86,217.93,176,217.68,176Zm3.38-1.1c-2.18-2.56-4.44-5-6.67-7.56-.38-.43-.75-.88-1.24-1.45,1.15-.36,2-.34,2.71.52l7.51,9a1.73,1.73,0,0,1,.18.36C222,176.17,222.07,176.1,221.06,174.91Zm6.31,1.15c-.52.33-1.07.1-1.51-.46q-2.42-3-4.92-6c-1.05-1.24-2.17-2.41-3.25-3.6l.15-.32a9.06,9.06,0,0,1,1.88,0,2.82,2.82,0,0,1,1.5.72c2,2.38,4,4.81,6,7.24a2,2,0,0,1,.53,1.07C227.73,175.2,227.65,175.88,227.37,176.06Zm.16-4.86L222.9,166a1.13,1.13,0,0,1,1.6.31c1.18,1.51,2.86,2.69,3.42,4.62ZM228,168l-2.12-2.15C228.39,165.53,228.81,166,228,168Zm-.45-7.67c.28-1.82.57-2.09,2.17-2.1.63,0,1.27,0,1.9,0a1.73,1.73,0,0,1,.46.14c-.27,1.9-.3,1.92-2,1.93Zm3,12.82,2.52,2.92C231.42,176.24,230.34,175,230.47,173.16Zm4.61,2.54c-1.48-1.59-3-3.18-4.41-4.8-.61-.67-.61-.89-.44-2.59l6.39,7.74A1.15,1.15,0,0,1,235.08,175.7Zm3.9-.08c-2.78-3.15-5.54-6.33-8.3-9.51,0-.05,0-.17-.05-.49.47.23,1,.3,1.19.59,2.77,3.21,5.51,6.45,8.17,9.9C239.65,176,239.21,175.88,239,175.62Zm-2.27-15.26h-3.25c.5-1.91.73-2.11,2.29-2.12,1,0,2,0,3.1,0C238.48,160.21,238.33,160.36,236.71,160.36Zm6.63,11.48c-.1.1-.21.19-.32.28l-5.88-6.06.16-.24c.2,0,.49,0,.59.07C239.72,167.86,241.53,169.85,243.34,171.84Zm-.08,4.46L233.52,166a2,2,0,0,1,2.49.48c2.21,2.53,4.43,5,6.65,7.55A2.24,2.24,0,0,1,243.26,176.3Zm0-6.89c-1.18-1.19-2.24-2.27-3.41-3.44C242.51,165.39,243.91,166.78,243.3,169.41Zm-3.18-9.23c1.19-2.13,1.35-2.21,3.52-1.78C243.4,160.45,242.3,160.64,240.12,160.18Zm5.22,0c0-1.85.81-2.34,2.75-1.79C247.53,160.24,247,160.6,245.34,160.21Zm4.67.06c.18-1.62.77-2.16,2.05-1.83C251.72,160.19,251.43,160.46,250,160.27Zm4.28.07c-.48-.68,0-1.31.33-1.78.51-.68,1.28-.3,2-.29C256.25,160.18,256,160.45,254.29,160.34Zm4.94-.1c.1-2.18.82-2.28,2.93-1.89C261.76,160.47,260.75,160.78,259.23,160.24Zm3.58-6.73-29.17,0c-1.71,0-1.75,0-1.71-1.73.16-7.9.39-15.81.52-23.71.18-11,.28-22.08.44-33.13.1-7.63.28-15.26.32-22.9,0-5.54-.09-11.09-.15-16.63,0-1.63,0-1.64,1.65-1.66l27.81-.25c1.63,0,1.71,0,1.72,1.67,0,5.73-.05,11.45,0,17.18.14,10.45.36,20.9.55,31.35H265c-.14,7.27-.34,14.54-.42,21.81-.09,8.58-.07,17.17-.1,25.76,0,.45,0,.91,0,1.36,0,.63-.25.94-.88.92Zm1.18,6.71c.26-1.95.66-2.24,2.67-1.9C266.59,160.18,265.8,160.74,264,160.22Zm4.94,0c.24-2.18,1.22-2.34,2.78-1.88C271.6,160.29,270.84,160.81,268.93,160.23Zm4.79.06c.34-1.91.63-2.18,2.06-2C275.72,160.07,275.24,160.54,273.72,160.29Zm4.38,0c0-2.06,1.08-2.58,3.56-1.94C281.36,160.48,281.13,160.74,278.1,160.33Zm5.84,0c-.08-1.67.34-2.15,1.88-2.17h2C287.23,160.67,286.77,160.89,283.94,160.32Zm5.64,0c-.23-1.79.8-2.63,3.07-1.89C292.47,160.26,292.13,160.9,289.58,160.28Zm4.74,0c.16-2.1,1.31-2.49,2.75-1.9C297,160.36,296.08,160.93,294.32,160.26Zm1.57-6.71-28.9,0c-1.66,0-1.61,0-1.57-1.68.17-6.5.31-13,.47-19.49.19-7.54.46-15.08.58-22.62.08-4.45-.06-8.9-.1-13.36q-.19-19.08-.38-38.16c0-1.18-.1-2.36-.14-3.55s0-1.22,1.21-1.24c2.32,0,4.63-.06,6.95-.08l22.49-.19c1.53,0,1.49,0,1.55,1.49.14,3.27.27,6.54.48,9.8a246.79,246.79,0,0,1,.1,24.93c-.25,6.72-.2,13.45-.4,20.18-.27,9.21-.71,18.43-1,27.65-.13,4.35-.07,8.71-.05,13.07a32.06,32.06,0,0,0,.33,3.19C296.86,153.5,296.38,153.55,295.89,153.55Zm2.4-8.75c.29-6.13.78-12.24,1-18.37.39-10.58.63-21.17.93-31.75.11-3.59.35-7.18.3-10.76-.08-6.22-.29-12.44-.53-18.66-.13-3.49-.46-7-.65-10.47-.08-1.66,0-1.67,1.6-1.7l28.22-.46c1,0,2-.15,3.19-.23-.1.91-.16,1.61-.25,2.32-.53,4.32,0,8.62.34,12.92a267.59,267.59,0,0,1,.3,29c-.28,7.32-.34,14.62.06,21.94.15,2.9.22,5.81.29,8.71.14,6.09.31,12.18.36,18.27,0,2.62-.21,5.24-.33,8-.68,0-1,.08-1.39.08l-31.46-.07c-1.76,0-1.86,0-1.94-1.81C298.22,149.44,298.18,147.11,298.29,144.8Zm.24,15.5c.43-1.88.67-2.12,2-2C300.44,160,300,160.56,298.53,160.3Zm3.36,0c.15-2.18,1.1-2.49,3.27-2C304.71,160.67,304.29,160.92,301.89,160.31Zm4.9,0c.3-1.58.61-1.95,1.76-2C308.16,160.27,307.94,160.51,306.79,160.31Zm3.35.07c.15-1.84.9-2.43,2.73-2.06C312.52,160.51,312.21,160.74,310.14,160.38Zm4.54-.1c.17-2.11.53-2.45,3.28-2C318.16,160.44,317.2,161,314.68,160.28Zm5.2,0c.06-2,.46-2.59,3.45-2C323,160.63,322.27,161,319.88,160.31Zm5.56.05c0-2.34.67-2.5,3.24-2.08C328.37,160.49,327.94,160.89,325.44,160.36Zm5.18,0c-.12-2.08.66-2.64,3-2.1C333.16,160.64,332.91,160.81,330.62,160.41Zm3.55-7.78c0-.56.09-1.13.11-1.69.11-3.31.34-6.62.31-9.93,0-6.95-.08-13.91-.42-20.85-.43-8.87,0-17.71.29-26.57a237,237,0,0,0-.66-30.5c-.32-3.2-.08-6.44-.09-9.66a6.74,6.74,0,0,1,.15-.9h1.86q24.33-.31,48.66-.65c2.86,0,5.73-.15,8.59-.24,1.78,0,2.35.48,2.31,2.18-.07,2.85-.15,5.71-.16,8.57a4.72,4.72,0,0,1-1,3c-.56.71-1.14,1.41-1.66,2.16-1,1.49-2,3-3,4.53-2.13,3.27-4.23,6.56-6.4,9.8-.86,1.28-1.93,2.42-2.82,3.68-6,8.52-12,17-17.87,25.59-4.47,6.51-8.8,13.13-13.2,19.7q-6.29,9.39-12.6,18.78c-.68,1-1.33,2.08-2,3.12Zm1.08,7.75c.32-2.12.73-2.45,2.65-2.13C337.87,160.19,337.1,160.81,335.25,160.38Zm3.86,0c.31-2.5,1.18-2.62,3.87-2.09C341.76,160.59,341.33,160.82,339.11,160.42Zm4.67,0c.59-2,1.34-2.5,3.52-2.16C346.37,160.22,345.46,160.77,343.78,160.4Zm4.91.18c-.14-1.5.73-2.48,2.2-2.31C350.21,159.24,350,160.42,348.69,160.58Zm4.16-.16c.77-2.1,1.17-2.41,2.71-2.21C355.39,160,354.57,160.75,352.85,160.42Zm4.39,0c.66-2.37,1.29-2.71,2.77-2.13C359.48,160.22,358.85,160.72,357.24,160.42Zm5.35,0c.54-2.2,1-2.52,3.09-2.17C365,160.47,364.36,160.91,362.59,160.39Zm5.39,0c.46-2.33,1.53-3,3.44-2C370.06,160.74,369.38,161,368,160.42Zm5.33,0c1.2-2.42,1.52-2.62,3.57-2.22C376.11,160.89,375.06,161,373.31,160.43Zm4.85,0c.9-2.45,1.5-2.76,4.23-2.28C382.31,160.36,381,161.12,378.16,160.47Zm5.5,0c1-2.57,1.58-2.87,4.06-2.25C386.83,160.79,385.86,161.05,383.66,160.48Zm3.41-6.74c-3.19,0-6.37,0-9.55,0s-6.53,0-9.8,0c-1,0-2.07-.17-3.1-.26a2.61,2.61,0,0,0-.68,0,33.63,33.63,0,0,1-8.68.11c-.75-.05-1.53.16-2.3.16q-6.27,0-12.54,0c-.35,0-.7,0-1.34-.1a10.51,10.51,0,0,1,.71-.94,40.82,40.82,0,0,0,5.08-6.89q2.85-4.4,5.81-8.74c5.1-7.46,10.19-14.93,15.35-22.36,4-5.71,8-11.36,12-17,1.57-2.23,3.12-4.47,4.68-6.71,1-1.38,1.93-2.75,2.88-4.14q2.38-3.48,4.75-7c.55-.82,1.09-1.66,1.63-2.49l.34.06c0,.5,0,1,0,1.49-.29,5.13-.62,10.25-.88,15.38-.36,7-.61,14.07-1,21.11-.59,10.52-1.27,21-1.91,31.56-.12,1.91-.26,3.81-.26,5.72C388.26,153.51,387.91,153.75,387.07,153.74Zm1.37,6.67c.79-2.12,1.3-2.47,3.12-2C390.43,160.59,390.12,160.78,388.44,160.41Zm4.18,0c.6-1.84,1.31-2.38,2.83-2.1C394.44,160.75,394.43,160.75,392.62,160.45Zm4.11,0c.64-1.7,1.27-2.22,2.65-2.11C398.86,160.47,398.45,160.79,396.73,160.43Zm5.31,0c.91-2.12,1.38-2.42,3.33-2.17C405,160.29,404.23,160.83,402,160.46Zm5.49,0c.77-2.11,1.13-2.38,2.55-2.05C409.45,160.33,409,160.69,407.53,160.44Zm4.12,0c.58-2.11,1.24-2.64,3.75-2C414.59,160.66,413.69,161,411.65,160.43Zm4.7.26c.46-2.11,1.36-2.77,3.44-2.43C419.08,160.65,418.43,161.09,416.35,160.69Zm4.7,0c.2-2.25,1.05-2.93,3.11-2.38C423.2,160.8,422.92,161,421.05,160.73Zm4.57,0c.66-2.72,1-2.85,3.81-2.37C428.42,160.63,427.62,161.11,425.62,160.69Zm4.5,0c.57-2,1.07-2.49,2.31-2.36C431.85,160.36,431.34,160.87,430.12,160.67Zm4.22-.23c.2-2,.67-2.46,2.07-2.09C436.09,160.28,435.68,160.69,434.34,160.44Zm4.28.15c.47-2.2.91-2.61,2.54-2.27C440.61,160.59,440.13,161,438.62,160.59Zm4.46,0c.65-2.44,1.52-3,3.09-2.32C445.54,160.68,445.06,161.05,443.08,160.61Zm4.42,0c.74-2.27.79-2.31,3-2.35C450.22,160,449.16,160.88,447.5,160.61Zm3.81.06c.61-2.34,1.35-3,3.85-3.26-.92,1.16-1.66,2.11-2.42,3.05A1,1,0,0,1,451.31,160.67Zm3.94.77c-.06.1-.39.05-.59.06l-.22-.31,3.23-4.78.42.25C457.15,158.26,456.21,159.86,455.25,161.44Zm2.88.28c-.27.52-.59.95-1.39.38l3.68-5.86.25.09a2.12,2.12,0,0,1-.07.68C459.79,158.59,459,160.15,458.13,161.72Zm2.71.73-.37-.19,2.25-4.26.27.14C462.85,159.88,461.25,160.86,460.84,162.45ZM374.21,65.09c3-.06,5.89-.18,8.84-.25a2.61,2.61,0,0,1,1.28.23c.46.27.89.88,1.4.43a2.45,2.45,0,0,0,.82-1.6,27,27,0,0,0-1.65-9.1c-4-.25-8-.64-11.81-.14a54.17,54.17,0,0,1-.42,10.19A8.44,8.44,0,0,0,374.21,65.09Zm10.09-9.61c-.11,2.57-.22,5.05-.32,7.54,0,.48-.05.91-.74.81a33,33,0,0,0-1-8c-.88,1.36-1,4.92-.39,7.93h-1.44c-.24-2.74-.47-5.42-.72-8.28Zm-6.81.07h1.36v8.17l-1.36.09Zm-2.55,0h1.23c-.11,1-.25,2-.28,2.91-.06,1.57,0,3.15-.09,4.73,0,.24-.23.48-.36.71-.16-.21-.47-.42-.48-.63C374.93,60.73,374.94,58.22,374.94,55.53ZM84.72,67.61A4.2,4.2,0,0,0,89,65.07c.8-1.7.47-3.17-.91-4.74a5.55,5.55,0,0,0-3.43-1.68c-2.55-.47-4.22.15-5.57,2.31a3.27,3.27,0,0,0,.32,4.35A6.92,6.92,0,0,0,84.72,67.61ZM80.66,60.7a15.35,15.35,0,0,1,2.45-1.18c1.92-.78,5.46,1.76,5.35,3.84a3.49,3.49,0,0,1-3.77,3.12,6.53,6.53,0,0,1-4.5-2C78.92,63.1,79.08,61.7,80.66,60.7Zm17.85,6.81a12.74,12.74,0,0,0,2.14,0c.3,0,.61-.22.91-.22,1.43,0,1.5,0,1.28-1.38-.29-1.93-.61-3.85-.94-5.77-.1-.61-.07-1.43-.86-1.53s-1.82-.33-2.39.67c-.63.07-1.13.27-1.09,1.06.1,2.2.17,4.39.31,6.58C97.88,67.15,98.27,67.48,98.51,67.51Zm2.47-8c.11,2.11.23,4.3.36,6.63l-2.21.24c-.07-.91-.14-1.76-.19-2.6-.1-1.48-.18-3-.27-4.43Zm-7.27-.3,1.83-.08c.37,2,.73,3.94,1.08,5.89a4.33,4.33,0,0,1,0,1.08c-.09,1.27-.55,1.73-1.8,1.66a20.39,20.39,0,0,1-2.32-.38l0-.45c.46,0,.92-.07,1.38-.09s1,0,1.54,0c-.19-1.25-.41-2.4-.55-3.55a11.77,11.77,0,0,1-.11-2.44C94.91,59.9,94.74,59.3,93.71,59.18ZM92,66.31c-1.13-1.17-1.49-5.52-.48-6.69C92.84,61.39,93.09,65.36,92,66.31Z"/><path class="cls-2" d="M361.94,105c-.16-6.25-5-14.52-12.08-13.7,18.42-10-9.51-42.14-24-14.8-2.29-8.24-15.39-16.08-11.34-1.66-1.12,3.27-1,7.42-.23,11.34-2.45-7.32-3.58-17-10.54-21.4-8-3.3-11.07,6.26-9.74,12.45-4.59-10.39-13.85-3.61-18,2.94-1.74-4.15-5.8-11.64-10.26-6.17-6.35.18-3.74,7-3.42,11-.75,16.15-1.09-7.81-4.64-12.38-9.59-6-13.18,3.45-12.73,12.17-2.52-8.43-10.48-16-19.43-11.35-.55-9.19-8.33-12.31-16.5-10-6.37.64-19.44-1-15.9,9.15-5.77,2.89-17.36,4.57-17.72,17.16-1.46-3.81-4.84-5.42-9-5,2.51-11.31-14.23-18.93-15.06-5.93-1.8-2.85-3.28-5.34-6.72-5.45C140.91,69,134,67.37,128.46,68.89c-22.93,9.85-2.83,35,11.83,41.22-1.1,2.33-4.4,3.35-6.72,2.45.58-2.34-1.22-3.72-2.1-5.37-24.57-13.41-8.28,38,18.33,18.11,8.8,19.42,16.74-1.84,15.77-13.3,4.09,6.69,9.41,13.28,15.54,4.73,4.17,11.41,17.47,8.3,23.45,6.29,7.26,17.1,16.19,0,14.84-11.17,6.63,16.91,18.07,13.61,28.17,10.35,1.56,2.81,3.26,6,6.81,6.29,12.87-1.71-2.32-24.62,10.72-20.85,2.66,5.72-1.48,16.42,5,22.25,3,4.16,6.31.41,8.9-1,4.94,7.47,13.9.95,12.5-6.62,6.88,19.82,15.86.43,14.36-11.24,1.2,4.7,10.12,34.76,16.42,24.67,2-7.07,4.72-16.48,5.42-23.7C335.47,139.06,363.72,131.81,361.94,105ZM151,88.48c0,4.28,0,8.38-.08,12.5a22.8,22.8,0,0,0-6.36-6.67,5.34,5.34,0,0,0,2.6-.76C148.91,92.29,150.74,90.76,151,88.48ZM149.2,114.8c-5.73,12.76-29.59,10-26.47-6,2.65-.43,1.38,2.21,2,4.28,1.13,4,.32-2.68,1.34-3.87,3.79-6.79.89,7.32,6.82,6.46,6.24,2,14.15-4.78,8.63-10.52-7-6-18-8.51-19.94-19-4.53-12.87,17.9-21.47,21-8.1.27-2.89.83,1.69.76,2.61,4.12-11.65,4.58,5.68-.07,7.05-6.24,1.58-3.54-5.24-6.07-8.47-1.47-1.2-3.47-2.54-5.79-1.59-13.28,8.82,8,17.34,14.23,22.4a.94.94,0,0,1-.1-.14C150.28,103.89,153.14,108.54,149.2,114.8ZM133.11,86.86a1.9,1.9,0,0,1,2.43-2.36C136.37,90.24,138.54,92.29,133.11,86.86Zm20.52,33.49c-.25,1.31-.54,2.6-.89,3.85C151.78,122.74,152.83,121.6,153.63,120.35Zm20.09-9.45c.49,10.48-9.16-7.48-12.7-9.22-.13,7.78-4,33.55-2.66,13.95-.52,3.48-.75,13.1-4.94,10.08.85-7.72,3-15.54,1.89-23.77q-.18,3.11-.39,6.29c-1.42-4.29.53-9.07-.38-13.6-.09.2-.32,7.57-.59,11.3,0-9.8-.36-19.9.56-29.86,3.34-1,1.33,4.51,3.28.33,6.23-6.57.91,14.4,4.31,14,4.43-2.58,9.49-4,1.42.59,13.46-7.87,7.79,4.66-1.75,3.86l.42.26c3.55.3,6.46-1.91,9.31-3.72-3.85,7.5-11.69.86-3.76,7.49.19-1.1-2.43-2.22-2.86-3.27a44.44,44.44,0,0,1,12,15.35C175.22,113,175.08,110.7,173.72,110.9Zm29.82-1.23c-19.57,37.63-42.36-42.37-8-31,6.89,5.69,5,16.57-.07,22.83-1.35,1.78-5,4.68-6.29,3l-3.11-.87c-.42,2.31,2.34,7.8,5.39,8.77,4.16,2.75,10.46-12.63,7.3-1.7,2.29.28,2.27-5.3,4.44-5.63C204.17,106.1,204,108,203.54,109.67Zm1.06-22.25c-.77-2.65-3.84-6-2.62-6.55C205.86,79.65,204.62,84.25,204.6,87.42Zm3.84,26.16c-.08.67-.15,1.35-.23,2a38.28,38.28,0,0,1-1.13,5.58C205.8,118.59,208.08,116.16,208.44,113.58Zm7.05-41.14c-.23,0-.34,0-.34.09-1.88,10.88,1.27,33.8-2.36,48.38-2.1,1.85.26-6.84-.09-8.82-.33,3.51-.77,13.89-4.94,10.59.21-7.87,2.19-16.82,1.64-25.11-.25,4.09-.22,8.17-.6,12.23l-1-3.13c-1.13-9.4,2.76-28-2.18-32.82-2.76.16-8.09,1.33-9.41-.66-.09-.79-.16-1.54,1-1.3-.24-1.28-3-3-.67-4.2,4.17-.36,27.06-3.09,18.63-.6,4.88-1.16,7.41,2.71,2.64,3.82C220.34,70.84,219.49,72.13,215.49,72.44Zm28.28,39c-15.42,24.28-29.12-12.27-23.31-27.34,5.72-17.75,25.84-5.52,20,9.54-1,2-1,.62-.81-1.91-.64,3-2.28,5.21-5.32,5.2a17.77,17.77,0,0,0,1.77-9.46,15,15,0,0,1-1.61,6.1c.56-7.56-.52-11.12-2.15-12l-.36-.1a1.59,1.59,0,0,1,.33.09,2.58,2.58,0,0,0-2.9.64l0,0-.07,0a13.78,13.78,0,0,0-3.61,5.64s0,.06,0,.09v-.06c-1.61,4.27-2.14,9.94.18,14.79,0-1.12-.13-2.54-.27-4.1,1.8,10.69,8.3,20.16,13,7.44,3.41-.33.47,2.91,1.78,4C243,101.55,245.9,104.64,243.77,111.45ZM231.83,98.37c11,15.14-5.25,15.06-.65-6.76a11.84,11.84,0,0,1,.71-1.89C232.11,92.65,230.33,95.63,231.83,98.37Zm17.67,13.28c.17,2.89.21,5.74.51,8.61C247.8,117.94,249.15,114.15,249.5,111.65Zm24.85,2.52a50.1,50.1,0,0,1-.24,5.88c-2.09,9.09-4.06,5.09-4.11-.22-.13,1.12-.29,2.23-.5,3.34a39,39,0,0,1-.36-9.79c0-1,0-2,0-2.88,0,.57.46,1.13.45,1.67a42.09,42.09,0,0,0-.82-11.09,9.38,9.38,0,0,0-.23,3c-1.26-4.19-4.85-3-14-3.43-.33,7,1.3,27.61-1.16,10.42.32,20.9-3.2,8.42-4.2-3l-1.36-2.44c-.49-10.39-.31-21,1.64-31.25,3.27.11.91,2,2.44,2.51,6.49-9.45,2.07,13.41,3,17.3l1.5.09a51.26,51.26,0,0,1,6.21-.15c6.91-1.09,2.76-6.2,1.75-16.58,2.74-1.52,1.92,1.45,3.11,1.42,3-11.19,6,10.14,6.57,13.85C276.64,100.54,275,135.08,274.35,114.17Zm12.52-.18c-.12,3.85-2,16-1.76,6.21-.16,2.46-.87,6.67-4,5.22-1-3,.93-8,.4-11.76-.47,3.32-.26,6.54-1,9.75-.26-4.42.72-8.94,0-13.36l0,.07c-.1-3.22-1-12.09,3-7.8C288.9,96.33,286.89,111,286.87,114Zm-6.42-20.41c-3.91-4.68-3.91-15.35,3.38-15.37,1.61,1.41-2.14,1.73-.71,2.6a1.72,1.72,0,0,1,2.43.84c.58,2-1.66,4.65-.49,6.72,2.47-3.28-1.93-14.3,2-5.46-6.68-15.09,3.72-6.38,4.2,2.44.22-4.16-1.34-8.56-4.55-10.59C297.27,77,292.52,100.67,280.45,93.58ZM321,117.16a32.93,32.93,0,0,1-1.95,7.62.79.79,0,0,1-.13.29c-3.38,7-8.4-5.51-15.62-38.75,2.79,14.85,6.49,30.57,13.42,44.16l0,.09c-7.17-12.2-9.9-28.65-13.62-42.23-1.24,10.53-3.69,21.14-2.8,31.76-3.22.82-2-3.76-2.37-6.72-1.89,2.55-.34,7.86-1.66,10.67-7.53-9.75,1.34-26.82,1.2-38.56-.9-5.15-2.85-23.35,6.65-16.76,5.83,12.84,7.8,27.38,11.36,40.84,2.89-9.69,2.14-21.06,1.13-31.08.83.21,1.32,1.52,1.6,3.39-.15-1.33-.34-2.66-.59-4,3.07,1.22-3.65-10.14.24-7.81l3.78,5.79a25.93,25.93,0,0,1,2,8.56C323.08,98.74,321.17,116.45,321,117.16Zm13.67.65c-6.9-12.06-8-29.07-4-41.95,5.4-12.64,21.33-6.8,20.76,6-3.32,1.6-1.55-4-3.87-4.37.9,13.6-2,4.76-4.71-1.08-13.18-3.49-10.09,42.75,2.67,39.64,3.62-3.13,7.18-12.34,3.5-15.92l.08-1c.88-2.83-8.33,4.1-4.62-1.67,3.32-1.85,5.81-2.3,7.6-1.81a9.89,9.89,0,0,0-4.58-.71,6.51,6.51,0,0,1,9.34,7.2C358.25,114.34,345.55,131.25,334.66,117.81Zm12.25-11.48c-.68,2.89-1.16,7.13-3.77,7-3.61-8.58-5.15-21.71-.8-30.57,1.06,3.2,2.85,8.17,6.39,8.73-3.62,1-7.89,3.77-8.21,7.82C341.44,102,343.21,107.06,346.91,106.33Z"/><path class="cls-2" d="M187.56,100c9.59-8.34,7.34-15.29,3.5-16.41a2.35,2.35,0,0,0-1.43-.14c-4.12,1.22-7.24,16-3.49,17.36Z"/></g></g></svg>