<svg xmlns="http://www.w3.org/2000/svg" width="310" height="110" viewBox="0 0 310 110">
  <path fill="#F7F7EF" fill-rule="evenodd" d="M214,38.1897805 C214,39.7635684 212.693951,41.0248469 211.122576,41.0248469 C209.506598,41.0248469 208.230284,39.7410857 208.230284,38.1897805 C208.230284,36.6452201 209.498592,35.35359 211.122576,35.35359 C212.723686,35.35359 214,36.6373512 214,38.1897805 L214,38.1897805 Z M208.834132,38.1897805 L208.834132,38.1897805 C208.834132,39.4364453 209.838257,40.4616557 211.115714,40.4616557 C212.376017,40.4616557 213.396153,39.4510591 213.396153,38.1897805 C213.396153,36.9566053 212.406895,35.9179053 211.115714,35.9179053 C209.815384,35.9179053 208.834132,36.9566053 208.834132,38.1897805 L208.834132,38.1897805 Z M211.273538,36.59351 L211.273538,36.59351 C211.477107,36.59351 212.43663,36.59351 212.43663,37.4770794 C212.43663,37.83343 212.270801,38.1594289 211.824777,38.2639734 L211.824777,38.2785871 C212.278806,38.4044901 212.361149,38.6720341 212.376017,39.0879637 C212.406895,39.6376653 212.406895,39.7039892 212.482376,39.8377612 L211.916269,39.8377612 C211.855656,39.7410857 211.832783,39.6444101 211.817915,39.2363494 C211.795042,38.7237442 211.688683,38.5832275 211.122576,38.5382621 L210.450109,38.5382621 L210.450109,39.8377612 L209.884003,39.8377612 L209.884003,36.59351 L211.273538,36.59351 Z M210.450109,38.0189121 L210.450109,38.0189121 L211.130581,38.0189121 C211.363886,38.0189121 211.870523,38.0189121 211.870523,37.4995621 C211.832783,37.1578253 211.485113,37.1207289 211.206062,37.1207289 L210.450109,37.1207289 L210.450109,38.0189121 Z M172.703931,86.9367352 C173.603984,87.3942578 175.439543,87.9349664 177.739424,87.9967937 C181.703316,88.0788555 183.853378,86.5893778 185.454489,83.1023135 L206.679494,36.5699031 C205.808033,36.1090081 203.856966,35.5919064 202.283303,35.5649272 C199.545404,35.5064722 195.877717,36.0505532 193.551533,41.5498176 L186.685056,57.4855438 L173.196845,35.9122846 C172.326527,35.6481131 170.198194,35.2816454 168.654266,35.2816454 C163.882957,35.2816454 161.231975,36.9970741 158.464342,39.944554 L145.36154,54.0254587 L155.900278,70.3355216 C157.851345,73.3133531 160.415409,74.8298101 164.57944,74.8298101 C167.317339,74.8298101 169.586341,74.2002949 170.635068,73.7157931 L157.938262,54.9112765 L166.939934,45.5258802 L181.703316,68.3064594 L172.703931,86.9367352 Z M144.856047,69.3361663 L144.856047,69.3361663 C144.856047,72.7670238 143.487097,74.7466241 136.672085,74.7466241 C135.766314,74.7466241 134.982914,74.6859209 134.225817,74.5678868 L134.225817,29.0674316 C134.225817,25.6073466 135.418644,22 142.290839,22 C143.162301,22 144.032618,22.0888066 144.856047,22.2607991 L144.856047,69.3361663 Z M130.802872,62.4688306 L130.802872,62.4688306 C130.802872,68.8752713 126.546205,73.5438006 117.902496,74.4577216 C111.641011,75.1175884 102.589019,74.3419358 98.2774574,73.857434 C98.1299265,73.1672156 98.0144178,72.316246 98.0144178,71.6260276 C98.0144178,66.041329 101.069108,64.7575678 103.95225,64.7575678 C106.952045,64.7575678 111.670746,65.2724212 115.165741,65.2724212 C119.035854,65.2724212 120.20009,63.9807911 120.20009,62.7554848 C120.20009,61.1490971 118.658449,60.4937268 115.659798,59.9192943 L107.447245,58.3747339 C100.635664,57.0864761 97,52.452795 97,47.5257149 C97,41.5498176 101.3047,36.5384274 109.776861,35.6211339 C116.182446,34.9410327 123.986716,35.7110646 128.266255,36.2225457 C128.413786,36.9408674 128.498416,37.6254651 128.498416,38.3685178 C128.498416,43.9520923 125.498622,45.1526676 122.620054,45.1526676 C120.407091,45.1526676 116.97614,44.7536 113.038552,44.7536 C109.046069,44.7536 107.386632,45.8417619 107.386632,47.1547506 C107.386632,48.5587942 108.960295,49.1287302 111.470607,49.5603978 L119.298893,50.9914206 C127.33075,52.452795 130.802872,56.9414628 130.802872,62.4688306 L130.802872,62.4688306 Z"/>
</svg>
