<svg xmlns="http://www.w3.org/2000/svg" width="310" height="110" viewBox="0 0 310 110">
  <path fill="#F7F7EF" fill-rule="evenodd" d="M278.093944,61.6771974 C278.093944,62.3362527 278.193639,62.8017516 278.393481,63.0732562 C278.592872,63.3451986 278.952408,63.480513 279.472088,63.480513 C279.951618,63.480513 280.460923,63.3929309 281,63.2186425 L280.670689,66.2726306 C280.311154,66.4863309 279.841547,66.6606193 279.262321,66.7963716 C278.683095,66.931686 278.113342,67 277.554415,67 C275.956129,67 274.797677,66.6360963 274.078606,65.9091648 C273.359986,65.1817954 273,64.013888 273,62.4041289 L273,46 L278.093944,46 L278.093944,61.6771974 Z M261,58 L266,58 C265.786978,55.9998463 264.97133,55 263.553055,55 C262.116761,55 261.265476,55.9998463 261,58 L261,58 Z M270.853712,60.913226 L260.8434,60.913226 C260.999853,61.8174474 261.337507,62.4810643 261.856364,62.9036424 C262.374779,63.3266547 263.064231,63.5385952 263.925604,63.5385952 C264.649529,63.5385952 265.24175,63.4039609 265.701827,63.1342579 C266.161019,62.8654236 266.469505,62.4710753 266.6264,61.9516475 L270.677814,63.2211188 C270.266352,64.451937 269.468621,65.3895999 268.285062,66.0336731 C267.100619,66.6781806 265.647908,67 263.925604,67 C261.361815,67 259.399971,66.3459378 258.040071,65.0382477 C256.679729,63.7305576 256,61.8843303 256,59.5 C256,57.1156697 256.665144,55.2694424 257.995875,53.961318 C259.326606,52.6536279 261.215085,52 263.661756,52 C266.028874,52 267.844431,52.6392958 269.107101,53.9178875 C270.369328,55.1973478 271,56.9901558 271,59.2976142 C271,59.9516764 270.950943,60.490648 270.853712,60.913226 L270.853712,60.913226 Z M251.686882,53.3528474 C252.562014,54.2548933 253,55.5395448 253,57.2059162 L253,67 L248.249467,67 L248.249467,58.5884333 C248.249467,57.588079 248.076965,56.8777788 247.732382,56.4557612 C247.388219,56.0346294 246.898482,55.8233992 246.265695,55.8233992 C245.52015,55.8233992 244.914711,56.1028253 244.449376,56.6616774 C243.983621,57.2205296 243.750533,58.0787353 243.750533,59.2354087 L243.750533,67 L239,67 L239,52.2935967 L243.247333,52.2935967 L243.387438,55.1175272 C243.83426,54.0782039 244.467468,53.2988221 245.287483,52.778939 C246.107498,52.2599415 247.066356,52 248.16574,52 C249.637055,52 250.810909,52.4508015 251.686882,53.3528474 L251.686882,53.3528474 Z M234.686922,53.3528474 C235.562027,54.2548933 236,55.5395448 236,57.2059162 L236,67 L231.249609,67 L231.249609,58.5884333 C231.249609,57.588079 231.077113,56.8777788 230.732119,56.4557612 C230.387967,56.0346294 229.898666,55.8233992 229.265477,55.8233992 C228.519954,55.8233992 227.914533,56.1028253 227.449633,56.6616774 C226.983472,57.2205296 226.750391,58.0787353 226.750391,59.2354087 L226.750391,67 L222,67 L222,52.2935967 L226.247205,52.2935967 L226.387306,55.1175272 C226.834535,54.0782039 227.467304,53.2988221 228.287715,52.778939 C229.107285,52.2599415 230.066114,52 231.165885,52 C232.637156,52 233.811396,52.4508015 234.686922,53.3528474 L234.686922,53.3528474 Z M218,52 L218,66.7055351 L213.752667,66.7055351 L213.612562,63.9703321 C212.73701,65.9904059 211.126011,67 208.778302,67 C207.287633,67 206.118828,66.583321 205.271044,65.7499631 C204.423261,64.9166052 204,63.6081181 204,61.8236162 L204,52 L208.750533,52 L208.750533,60.558524 C208.750533,61.5198524 208.90873,62.1960148 209.225545,62.5883395 C209.541938,62.9806642 210.026206,63.1763838 210.678768,63.1763838 C211.460917,63.1763838 212.084869,62.8969742 212.551044,62.338155 C213.015958,61.7793358 213.249467,60.9318081 213.249467,59.7942435 L213.249467,52 L218,52 Z M193.029202,50.828866 L193.029202,54.8592741 L200.98242,54.8592741 L200.98242,58.6881402 L193.029202,58.6881402 L193.029202,66 L188,66 L188,47 L203,47 L203,50.828866 L193.029202,50.828866 Z M178,64.9207607 C177.513389,65.2427366 176.894905,65.5027118 176.145866,65.7015416 C175.396388,65.9003713 174.642514,66 173.883366,66 C172.150555,66 170.82743,65.6403961 169.912231,64.9207607 C168.997472,64.2011252 168.530203,63.0462023 168.510861,61.4555643 L168.510861,54.9519073 L166,54.9519073 L166,51.5153595 L168.510861,51.5153595 L168.510861,48.3345111 L173.47412,47 L173.47412,51.5153595 L177.854061,51.5153595 L177.854061,54.9519073 L173.47412,54.9519073 L173.47412,60.6602453 C173.47412,61.929335 174.116781,62.5634522 175.401223,62.5634522 C176.199494,62.5634522 176.89974,62.3552155 177.503718,61.938742 L178,64.9207607 Z M162.68654,53.3528474 C163.561619,54.2548933 164,55.5395448 164,57.2059162 L164,67 L159.249331,67 L159.249331,58.5884333 C159.249331,57.588079 159.07684,56.8777788 158.732278,56.4557612 C158.387715,56.0346294 157.898428,55.8233992 157.265258,55.8233992 C156.520179,55.8233992 155.914355,56.1028253 155.449049,56.6616774 C154.983322,57.2205296 154.750248,58.0787353 154.750248,59.2354087 L154.750248,67 L150,67 L150,52.2935967 L154.247498,52.2935967 L154.387174,55.1175272 C154.83439,54.0782039 155.46756,53.2988221 156.287526,52.778939 C157.107071,52.2599415 158.066292,52 159.165189,52 C160.636836,52 161.811041,52.4508015 162.68654,53.3528474 L162.68654,53.3528474 Z M138,58 L143,58 C142.787362,55.9998463 141.972049,55 140.55326,55 C139.117251,55 138.265898,55.9998463 138,58 L138,58 Z M147.853712,60.913226 L137.8434,60.913226 C137.999853,61.8174474 138.337507,62.4810643 138.856364,62.9036424 C139.374779,63.3266547 140.064231,63.5385952 140.926046,63.5385952 C141.649529,63.5385952 142.24175,63.4039609 142.702269,63.1342579 C143.161461,62.8654236 143.469505,62.4710753 143.6264,61.9516475 L147.677372,63.2211188 C147.266794,64.451937 146.468621,65.3895999 145.28462,66.0336731 C144.101061,66.6781806 142.647466,67 140.926046,67 C138.361815,67 136.399971,66.3459378 135.040071,65.0382477 C133.679729,63.7305576 133,61.8843303 133,59.5 C133,57.1156697 133.665144,55.2694424 134.995875,53.961318 C136.326606,52.6536279 138.215085,52 140.661756,52 C143.029316,52 144.844431,52.6392958 146.107101,53.9178875 C147.369328,55.1973478 148,56.9901558 148,59.2976142 C148,59.9516764 147.950943,60.490648 147.853712,60.913226 L147.853712,60.913226 Z M129.09378,61.6771974 C129.09378,62.3362527 129.193481,62.8017516 129.393786,63.0732562 C129.593188,63.3451986 129.952743,63.480513 130.472001,63.480513 C130.951559,63.480513 131.461343,63.3929309 132,63.2186425 L131.671122,66.2726306 C131.311566,66.4863309 130.841482,66.6606193 130.262223,66.7963716 C129.682964,66.931686 129.11363,67 128.554221,67 C126.955845,67 125.797778,66.6360963 125.078667,65.9091648 C124.359556,65.1817954 124,64.013888 124,62.4041289 L124,46 L129.09378,46 L129.09378,61.6771974 Z M115.200258,62.4869255 C115.732846,62.1450079 116,61.6933439 116,61.1319334 L116,60 L113.685524,60.5003962 C113.07593,60.641046 112.642719,60.8118067 112.385459,61.0130745 C112.1282,61.2151347 112,61.5 112,61.8684628 C112,62.2369255 112.123467,62.5178288 112.371263,62.7107765 C112.618628,62.9041204 112.961497,63 113.399871,63 C114.066251,63 114.66638,62.8292393 115.200258,62.4869255 L115.200258,62.4869255 Z M123,63.7978748 L122.616703,66.5383346 C122.04708,66.845822 121.379416,67 120.612821,67 C118.491821,67 117.224366,66.2599456 116.812233,64.7785338 C115.928076,66.2599456 114.179282,67 111.567182,67 C110.093883,67 108.963955,66.6925126 108.178728,66.0766692 C107.392614,65.4616944 107,64.5674619 107,63.3939719 C107,62.1635879 107.446737,61.1685969 108.340653,60.4085645 C109.234126,59.6489664 110.702545,59.0669987 112.74591,58.6630957 L116.075362,58.0285772 L116.075362,57.5095836 C116.075362,56.8559558 115.888593,56.3369622 115.515499,55.9517343 C115.142406,55.5673751 114.631786,55.3749783 113.983197,55.3749783 C113.236566,55.3749783 112.627904,55.5478314 112.156325,55.8939719 C111.685188,56.2401123 111.380414,56.807748 111.243332,57.5960102 L107.176565,56.4420638 C107.431653,55.0383925 108.139245,53.9469859 109.298009,53.1678441 C110.456774,52.3891366 112.018799,52 113.983197,52 C116.28165,52 118.030001,52.4612311 119.228248,53.3845619 C120.426496,54.3074585 121.025842,55.6920204 121.025842,57.5382477 L121.025842,62.7885517 C121.025842,63.5385952 121.379416,63.9129654 122.086564,63.9129654 C122.459214,63.9129654 122.763988,63.8747467 123,63.7978748 L123,63.7978748 Z M108,50.828866 L101.939001,50.828866 L101.939001,66 L97.0894382,66 L97.0894382,50.828866 L91,50.828866 L91,47 L108,47 L108,50.828866 Z M62.8622666,63.5233741 C62.024465,62.3560394 60.8824933,61.0056416 59.3591803,59.6219969 C60.5027939,58.1345071 61.1907682,56.2714507 61.1907682,54.2450331 C61.1907682,51.5339761 59.9695727,49.1073646 58.0562981,47.4955068 C58.5743313,46.9656091 59.1149412,46.493996 59.6670447,46.0913394 C60.8640214,46.8658685 62.2863549,47.3206529 63.8154148,47.3206529 C65.3210769,47.3206529 66.7224756,46.8781821 67.9083693,46.1245863 C69.6718166,47.4224458 70.9012217,49.1200887 71.5079198,50.0768599 L62.8622666,63.5233741 Z M54.9037667,75.9010628 L52.5894474,75.9010628 L52.5184334,75.9010628 L50.2037036,75.9010628 L44.0726868,66.3649559 C44.7549143,65.2657567 46.0183898,63.5258368 48.0576835,61.7153187 C49.3593342,62.5276097 50.8834682,63.0066109 52.5184334,63.020156 L52.5184334,63.0238501 C52.5303375,63.0238501 52.5422416,63.0217978 52.5537352,63.0217978 C52.5660497,63.0217978 52.5775433,63.0238501 52.5894474,63.0238501 L52.5894474,63.020156 C54.2244126,63.0066109 55.7485466,62.5276097 57.0501973,61.7153187 C59.0899015,63.5258368 60.353377,65.2657567 61.035194,66.3649559 L54.9037667,75.9010628 Z M37.199922,46.1245863 C38.3854052,46.8781821 39.7868039,47.3206529 41.292466,47.3206529 C42.8211154,47.3206529 44.2434489,46.8658685 45.4404257,46.0913394 C45.9929396,46.493996 46.5335495,46.9656091 47.0519932,47.4955068 C45.1378976,49.1073646 43.9167022,51.5339761 43.9167022,54.2450331 C43.9167022,56.2714507 44.6054974,58.1345071 45.749111,59.6219969 C44.2253875,61.0056416 43.0834159,62.3560394 42.2460247,63.5233741 L33.600782,50.0768599 C34.2074801,49.1188574 35.4368852,47.4224458 37.199922,46.1245863 L37.199922,46.1245863 Z M41.292466,35.0993476 C43.8079234,35.0993476 45.8541954,37.1454671 45.8541954,39.6603264 C45.8541954,42.1755963 43.8079234,44.2217157 41.292466,44.2217157 C38.7774192,44.2217157 36.7311472,42.1755963 36.7311472,39.6603264 C36.7311472,37.1454671 38.7774192,35.0993476 41.292466,35.0993476 L41.292466,35.0993476 Z M52.5537352,59.9228606 C49.4459467,59.9039797 47.0166914,57.4178522 47.0166914,54.2450331 C47.0166914,51.0722139 49.4459467,48.585676 52.5537352,48.566795 C55.6619341,48.585676 58.0915999,51.0722139 58.0915999,54.2450331 C58.0915999,57.4178522 55.6619341,59.9039797 52.5537352,59.9228606 L52.5537352,59.9228606 Z M63.8154148,35.0993476 C66.3304616,35.0993476 68.3767337,37.1454671 68.3767337,39.6603264 C68.3767337,42.1755963 66.3304616,44.2217157 63.8154148,44.2217157 C61.3003679,44.2217157 59.2540959,42.1755963 59.2540959,39.6603264 C59.2540959,37.1454671 61.3003679,35.0993476 63.8154148,35.0993476 L63.8154148,35.0993476 Z M74.7076571,49.4164374 C74.6333592,49.2699049 73.0862379,46.2666038 70.1607052,43.947942 C70.9907076,42.723554 71.4763124,41.2479674 71.4763124,39.6603264 C71.4763124,35.4363314 68.0397248,32 63.8154148,32 C59.5906943,32 56.1541067,35.4363314 56.1541067,39.6603264 C56.1541067,41.2245714 56.6273969,42.6792249 57.4356435,43.892941 C56.682402,44.4815339 55.9619993,45.1620687 55.2789508,45.92962 C54.4321185,45.64107 53.5294601,45.4772983 52.5894474,45.4694997 L52.5894474,45.4658056 C52.5775433,45.4658056 52.5660497,45.4678579 52.5537352,45.4678579 C52.5422416,45.4678579 52.5303375,45.4658056 52.5184334,45.4658056 L52.5184334,45.4694997 C51.5784208,45.4772983 50.6757623,45.64107 49.82893,45.92962 C49.146292,45.1620687 48.4258893,44.4815339 47.6722373,43.892941 C48.480484,42.6792249 48.9537742,41.2245714 48.9537742,39.6603264 C48.9537742,35.4363314 45.5171865,32 41.292466,32 C37.068156,32 33.6315684,35.4363314 33.6315684,39.6603264 C33.6315684,41.2479674 34.1171732,42.723554 34.9471756,43.947942 C32.0216429,46.2666038 30.4745217,49.2699049 30.4002237,49.4164374 L30,50.2082056 L48.5120914,79 L52.5184334,79 L52.5894474,79 L56.5957894,79 L75.1082913,50.2082056 L74.7076571,49.4164374 Z"/>
</svg>
