<svg width="193" height="35" viewBox="0 0 193 35" fill="none" xmlns="http://www.w3.org/2000/svg">
<g clip-path="url(#clip0_2_19)">
<path d="M19.122 14.9267C10.9632 18.8061 4.35273 24.0224 4.35273 24.0224C4.35273 24.0224 13.2631 14.3495 18.2222 11.7721C25.1828 8.15511 33.2915 5.96207 35.6844 7.32452C38.0773 8.6866 36.9592 11.2354 34.2286 11.2044C31.4989 11.1723 23.0038 13.0815 19.122 14.9267ZM29.4659 5.98238C31.5872 5.89779 32.3534 3.8738 30.4408 2.91259C28.5288 1.95045 22.3207 3.97632 17.0611 7.0626C13.3126 9.26179 6.78099 17.1281 6.78099 17.1281C6.78099 17.1281 11.7052 12.8139 17.8849 9.47606C20.8252 7.88874 27.3451 6.06691 29.4659 5.98238ZM41.7347 21.7181C39.4646 19.7744 30.3685 20.443 22.2046 22.8652C16.3876 24.5927 5.22365 33.0213 5.22365 33.0213C5.22365 33.0213 13.0183 28.8699 22.5144 26.4144C27.0314 25.2458 36.4802 24.9593 39.3847 25.5544C42.2882 26.1503 44.0057 23.6637 41.7347 21.7181ZM39.0461 28.2112C37.2704 26.5745 29.9076 26.8472 23.247 28.5629C18.499 29.7865 10.4487 34.4994 10.4487 34.4994C10.4487 34.4994 15.654 33.1402 23.3924 31.4371C27.073 30.6269 34.7084 30.6724 37.0361 31.2387C39.3629 31.8051 40.8221 29.8477 39.0461 28.2112ZM24.3494 2.14709C25.7268 2.06582 26.1996 0.742308 24.946 0.14128C23.6919 -0.461002 19.6841 0.931803 16.3059 3.00013C13.8984 4.47464 9.75164 9.6643 9.75164 9.6643C9.75164 9.6643 12.8979 6.80213 16.8709 4.55797C18.7612 3.49073 22.973 2.22785 24.3494 2.14709ZM43.0459 13.4574C40.1598 11.3198 29.3171 12.8956 19.7417 16.4941C12.9177 19.0585 0 31.5105 0 31.5105C0 31.5105 9.24436 24.4716 20.4148 20.7205C25.7278 18.9357 37.0263 17.7884 40.5566 18.2537C44.0869 18.7199 45.9328 15.5943 43.0459 13.4574Z" fill="#F7F7EF"/>
<path d="M152.622 25.8242C152.907 26.5491 152.203 26.8026 152.009 26.8026H150.514C150.053 26.8026 149.691 26.4613 149.474 26.0126C149.257 25.5639 148.838 24.2496 148.838 22.719V18.4462C148.719 18.4684 148.585 18.4817 148.435 18.4858C145.795 18.5472 142.448 18.5084 139.495 18.3704V22.8245C139.495 24.6718 140.104 25.8242 140.104 25.8242C140.388 26.5491 139.684 26.8026 139.49 26.8026H137.995C137.534 26.8026 137.172 26.4613 136.955 26.0126C136.738 25.5639 136.319 24.2496 136.319 22.719C136.319 22.168 136.341 9.31353 136.341 9.20561C136.341 7.35838 135.733 6.20593 135.733 6.20593C135.448 5.48106 136.152 5.22754 136.346 5.22754H137.841C138.302 5.22754 138.664 5.56884 138.881 6.01756C139.098 6.46628 139.518 7.78058 139.518 9.31114C139.518 10.8417 139.495 14.9852 139.495 15.5553C140.436 15.5487 141.37 15.5342 142.294 15.5117L148.837 15.3376C148.837 12.3167 148.86 9.29484 148.86 9.20561C148.86 7.35838 148.252 6.20593 148.252 6.20593C147.968 5.48106 148.672 5.22754 148.865 5.22754H150.36C150.821 5.22754 151.183 5.56884 151.4 6.01756C151.617 6.46628 152.037 7.78058 152.037 9.31114C152.037 10.8417 152.014 22.7352 152.014 22.8245C152.014 24.6718 152.622 25.8242 152.622 25.8242ZM90.0941 22.8245C90.0941 20.9773 89.9927 17.8453 89.9927 17.8453C89.9927 15.9968 89.6774 14.5977 89.0473 13.648C88.6943 13.1269 88.2195 12.7174 87.623 12.419C87.0261 12.1208 86.3856 11.9716 85.7006 11.9716C85.0156 11.9716 84.4506 12.0262 84.0055 12.1353C82.602 12.4799 81.5391 13.2656 80.8163 14.4924C80.8163 14.4924 80.8373 10.8417 80.8373 9.31114C80.8373 7.78058 80.421 6.46628 80.2055 6.01756C79.9901 5.56891 79.6306 5.22754 79.173 5.22754H77.6889C77.4968 5.22754 76.7979 5.48106 77.0801 6.20593C77.0801 6.20593 77.6843 7.35832 77.6843 9.20561C77.6843 11.0529 77.7536 25.6728 77.7536 25.6728C77.7536 25.9082 77.8229 26.1057 77.9616 26.2652C78.1003 26.4249 78.2913 26.5046 78.535 26.5046H79.9089C80.2282 26.5046 80.4592 26.4249 80.6023 26.2652C80.745 26.1057 80.8165 25.9081 80.8165 25.6728V18.6645C80.8165 17.5722 81.2326 16.6059 82.0644 15.7654C82.8459 14.9924 83.6778 14.6059 84.56 14.6059C86.1399 14.6059 86.9297 15.6815 86.9297 17.8327C86.9297 17.8327 86.9178 21.1884 86.9178 22.719C86.9178 24.2496 87.3372 25.5639 87.5543 26.0126C87.7713 26.4612 88.1335 26.8026 88.5944 26.8026H90.0894C90.2829 26.8026 90.987 26.5491 90.7027 25.8242C90.7027 25.8242 90.0941 24.6718 90.0941 22.8245ZM105.774 24.1097C105.849 24.278 105.887 24.4586 105.887 24.6518C105.887 24.8451 105.801 25.0447 105.629 25.2505C105.456 25.4566 105.232 25.6434 104.954 25.8115C104.677 25.9796 104.356 26.1266 103.99 26.2526C103.625 26.3785 103.248 26.4838 102.862 26.5677C102.089 26.7356 101.282 26.8197 100.442 26.8197C99.6015 26.8197 98.7549 26.66 97.902 26.3407C97.0491 26.0214 96.3117 25.5551 95.69 24.9416C94.3537 23.6393 93.6858 21.8787 93.6858 19.6603C93.6858 15.7698 95.0553 13.3496 97.7949 12.4001C98.652 12.106 99.5322 11.9589 100.436 11.9589C101.339 11.9589 102.108 12.0556 102.742 12.2488C103.377 12.4421 103.925 12.7278 104.387 13.1059C105.362 13.9043 105.849 15.0176 105.849 16.4462C105.849 17.8496 105.278 18.9209 104.135 19.6604C103.135 20.3075 101.816 20.6309 100.177 20.6309C99.1689 20.6309 98.005 20.4503 96.6857 20.0889L96.6731 20.3283C96.6731 21.4798 97.0388 22.404 97.7697 23.1013C98.5343 23.8408 99.5722 24.2106 100.883 24.2106C102.076 24.2106 103.185 23.8535 104.211 23.1391C104.404 23.0048 104.576 22.9375 104.728 22.9375C105.038 22.9375 105.274 23.093 105.433 23.4039L105.774 24.1097ZM96.8118 17.757C97.5344 18.1185 98.4545 18.299 99.5722 18.299C101.782 18.299 102.887 17.6687 102.887 16.4083C102.887 15.2067 102.081 14.6058 100.467 14.6058C98.9294 14.6058 97.8536 15.1689 97.2402 16.2948C97.0217 16.6899 96.879 17.1772 96.8118 17.757ZM117.798 12.4505C117.42 12.1312 116.748 11.9715 115.782 11.9715C114.916 11.9715 114.185 12.2531 113.588 12.816C113.294 13.1017 113.047 13.4526 112.845 13.8685C112.643 14.2844 112.521 14.6355 112.479 14.9209C112.437 15.2067 112.41 15.3495 112.397 15.3495C112.385 15.3495 112.378 15.3412 112.378 15.3242C112.252 14.2908 112.051 13.4799 111.773 12.8917C111.58 12.4882 111.252 12.2866 110.79 12.2866H110.11C109.58 12.2866 109.316 12.589 109.316 13.1941C109.316 13.295 109.364 13.5828 109.461 14.0576C109.557 14.5324 109.605 15.5092 109.605 16.9882V25.6728C109.605 25.9082 109.675 26.1057 109.813 26.2652C109.952 26.4249 110.156 26.5046 110.425 26.5046H111.887C112.139 26.5046 112.332 26.4249 112.467 26.2652C112.601 26.1057 112.668 25.9081 112.668 25.6728V18.9796C112.668 18.0469 112.916 17.169 113.412 16.3453C113.656 15.9504 113.946 15.6205 114.282 15.3559C114.618 15.0911 114.937 14.9588 115.24 14.9588C115.542 14.9588 115.954 15.0262 116.475 15.1605C116.744 15.236 116.971 15.2738 117.156 15.2738C117.542 15.2738 117.761 15.0596 117.811 14.6311L118.013 13.0428C118.046 12.7908 117.975 12.5934 117.798 12.4505ZM130.693 21.0216C131.407 23.0553 131.781 24.6602 131.815 25.8365C131.815 26.282 131.596 26.5046 131.16 26.5046H129.937C129.609 26.5046 129.412 26.4395 129.345 26.3092C129.277 26.1791 129.239 26.0614 129.231 25.9563C129.222 25.8512 129.206 25.7231 129.181 25.5718C129.13 25.1602 129.059 24.7147 128.966 24.2358C128.311 25.4375 127.282 26.2315 125.878 26.6181C125.382 26.7524 124.836 26.8197 124.24 26.8197C123.643 26.8197 123.046 26.7208 122.45 26.5234C121.853 26.3262 121.324 26.034 120.862 25.6475C119.82 24.7736 119.299 23.6266 119.299 22.2064C119.299 20.6519 119.87 19.463 121.013 18.6393C121.954 17.9755 123.164 17.6435 124.643 17.6435C126.122 17.6435 127.374 18.0764 128.399 18.9417C128.424 18.6562 128.437 18.299 128.437 17.8704C128.437 17.4419 128.353 17.0133 128.185 16.5848C128.017 16.1561 127.777 15.7992 127.467 15.5134C126.828 14.9505 125.937 14.6689 124.794 14.6689C123.769 14.6689 122.727 14.9505 121.668 15.5134C121.467 15.6227 121.29 15.6771 121.139 15.6771C120.912 15.6771 120.694 15.4547 120.484 15.0092C120.257 14.5554 120.143 14.2277 120.143 14.0259C120.143 13.6562 120.421 13.2991 120.975 12.9545C122.034 12.2992 123.45 11.9715 125.223 11.9715C126.836 11.9715 128.172 12.4126 129.231 13.2949C130.483 14.3536 131.109 15.8495 131.109 17.7822C131.109 18.6393 130.97 19.7192 130.693 21.0216ZM127.908 22.0931C127.857 21.4628 127.508 20.9669 126.861 20.6057C126.282 20.2696 125.597 20.1015 124.807 20.1015C124.193 20.1015 123.714 20.2298 123.37 20.486C123.025 20.7424 122.779 20.9964 122.633 21.2484C122.485 21.5006 122.412 21.7969 122.412 22.1372C122.412 22.4775 122.473 22.7801 122.595 23.0447C122.716 23.3093 122.887 23.5299 123.105 23.7064C123.567 24.0679 124.086 24.2484 124.662 24.2484C125.237 24.2484 125.71 24.1812 126.08 24.0467C126.449 23.9124 126.769 23.7401 127.038 23.5299C127.618 23.0762 127.908 22.5971 127.908 22.0931ZM162.188 23.971C162.079 23.7274 161.936 23.6055 161.759 23.6055C161.642 23.6055 161.419 23.6771 161.091 23.8198C160.923 23.8955 160.772 23.9333 160.638 23.9333C160.242 23.9333 160.045 23.6351 160.045 23.0384V13.1185C160.045 12.8833 159.982 12.6857 159.856 12.526C159.73 12.3665 159.57 12.2866 159.377 12.2866H157.688C157.503 12.2866 157.344 12.3665 157.209 12.526C157.074 12.6857 157.007 12.8833 157.007 13.1185V22.9502C157.007 24.3115 157.251 25.2947 157.738 25.8996C157.982 26.1938 158.276 26.4038 158.621 26.5299C158.965 26.656 159.425 26.719 160.001 26.719C160.577 26.719 161.159 26.5677 161.747 26.2653C162.369 25.9544 162.68 25.6182 162.68 25.2569C162.68 25.1308 162.646 24.9964 162.579 24.8535L162.188 23.971ZM158.57 9.85386C159.133 9.85386 159.616 9.65646 160.02 9.26142C160.423 8.87509 160.625 8.38769 160.625 7.79939C160.625 7.50536 160.57 7.23648 160.461 6.99256C160.1 6.16924 159.469 5.75733 158.57 5.75733C157.982 5.75733 157.495 5.95065 157.108 6.33717C156.705 6.74049 156.503 7.22789 156.503 7.79932C156.503 8.38756 156.705 8.87497 157.108 9.26136C157.512 9.65646 157.999 9.85386 158.57 9.85386ZM176.456 12.2866H175.007C174.805 12.2866 174.62 12.3454 174.452 12.463C174.36 12.522 174.278 12.6061 174.206 12.7152C174.135 12.8245 174.063 13.1143 173.992 13.5849C173.921 14.0557 173.809 14.7321 173.658 15.6143C173.104 18.9756 172.372 21.5006 171.465 23.1896C171.28 23.5425 171.078 23.719 170.86 23.719C170.583 23.719 170.398 23.5048 170.305 23.0761C169.54 19.757 168.612 16.4758 167.52 13.232C167.394 12.8623 167.24 12.6123 167.06 12.482C166.879 12.3518 166.641 12.2866 166.347 12.2866H165.2C164.545 12.2866 164.217 12.5386 164.217 13.0428C164.217 13.1859 164.251 13.358 164.318 13.5596L166.146 18.8284C166.742 20.593 167.318 22.3998 167.873 24.2484C168.141 25.1477 168.444 25.761 168.78 26.0886C168.982 26.282 169.234 26.4249 169.537 26.5172C169.839 26.6095 170.196 26.6559 170.608 26.6559C171.02 26.6559 171.427 26.5969 171.831 26.4794C172.234 26.3618 172.633 26.0718 173.028 25.6096C174.171 24.2315 175.204 21.9249 176.129 18.6897C176.784 16.4209 177.162 14.5723 177.263 13.1436C177.263 12.5723 176.994 12.2866 176.456 12.2866ZM74.6738 7.56901C74.5372 7.5265 74.3628 7.50731 74.1503 7.51182L67.3713 7.69216C65.5092 7.73762 63.6129 7.75073 61.6831 7.73129C60.7445 7.72088 60.069 7.82754 59.6563 8.05127C59.4117 8.18647 59.2005 8.38468 59.0224 8.64628C58.8444 8.9077 58.6941 9.23489 58.5718 9.62799C58.4495 10.0212 61.6431 10.3633 62.0799 10.4025C63.2512 10.4906 64.5684 10.5583 65.9305 10.6065V22.8246C65.9305 24.6718 65.3219 25.8243 65.3219 25.8243C65.0376 26.5491 65.7417 26.8027 65.9352 26.8027H67.4302C67.8912 26.8027 68.2533 26.4614 68.4703 26.0126C68.6874 25.5639 69.1068 24.2496 69.1068 22.7191V10.6826C70.6612 10.7026 72.1776 10.6974 73.5123 10.6663C73.9028 10.6557 74.187 10.5836 74.3651 10.4497C74.5431 10.3157 74.6758 10.1084 74.7632 9.82765L75.1038 8.7325C75.2985 8.10658 75.1552 7.71875 74.6738 7.56901ZM192.036 24.6518C192.036 24.8451 191.949 25.0447 191.777 25.2505C191.605 25.4566 191.38 25.6434 191.103 25.8115C190.826 25.9796 190.504 26.1266 190.139 26.2526C189.773 26.3785 189.397 26.4838 189.01 26.5677C188.237 26.7356 187.431 26.8197 186.59 26.8197C185.75 26.8197 184.903 26.66 184.05 26.3407C183.198 26.0214 182.46 25.5551 181.838 24.9416C180.502 23.6393 179.834 21.8787 179.834 19.6603C179.834 15.7698 181.204 13.3496 183.943 12.4001C184.801 12.106 185.681 11.9589 186.584 11.9589C187.488 11.9589 188.256 12.0556 188.891 12.2488C189.525 12.4421 190.073 12.7278 190.536 13.1059C191.51 13.9043 191.998 15.0176 191.998 16.4462C191.998 17.8496 191.426 18.9209 190.284 19.6604C189.284 20.3075 187.964 20.6309 186.326 20.6309C185.317 20.6309 184.153 20.4503 182.834 20.0889L182.822 20.3283C182.822 21.4798 183.187 22.404 183.918 23.1013C184.683 23.8408 185.721 24.2106 187.032 24.2106C188.225 24.2106 189.334 23.8535 190.359 23.1391C190.552 23.0048 190.725 22.9375 190.876 22.9375C191.187 22.9375 191.422 23.093 191.582 23.4039L191.922 24.1097C191.998 24.278 192.036 24.4586 192.036 24.6518ZM182.96 17.757C183.683 18.1185 184.603 18.299 185.721 18.299C187.931 18.299 189.036 17.6687 189.036 16.4083C189.036 15.2067 188.229 14.6058 186.616 14.6058C185.078 14.6058 184.002 15.1689 183.389 16.2948C183.17 16.6899 183.027 17.1772 182.96 17.757Z" fill="#F7F7EF"/>
</g>
<defs>
<clipPath id="clip0_2_19">
<rect width="192.036" height="34.4994" fill="white"/>
</clipPath>
</defs>
</svg>
