<svg xmlns="http://www.w3.org/2000/svg" width="310" height="110" viewBox="0 0 310 110">
  <path fill="#F7F7EF" d="M185.041625,84.2489581 C190.669758,84.2489581 191.101625,89.2885579 191.117225,91.4984246 L188.115091,91.4984246 L188.115091,91.4984246 L188.097845,91.1305773 C187.982585,88.9194226 187.61853,86.6770913 185.026025,86.6770913 C184.152025,86.6770913 183.512025,86.909358 183.012025,87.409358 C182.001091,88.4208246 181.530158,90.6150912 181.530158,94.3150912 C181.530158,98.0166911 182.001625,100.210424 183.012025,101.221358 C183.512025,101.721358 184.152025,101.954158 185.026025,101.954158 C187.204158,101.954158 187.589625,99.9989577 187.877625,97.7134911 L190.879225,97.7134911 L190.879225,97.7134911 C190.615625,100.912958 189.431225,104.382824 185.041625,104.382824 C180.658825,104.382824 178.528158,101.090158 178.528158,94.3150912 C178.528158,90.1740246 179.300025,87.3880247 180.889091,85.7994914 C181.917758,84.7702914 183.315091,84.2489581 185.041625,84.2489581 Z M167.404692,84.4844247 L167.404692,98.7172244 C167.404692,100.935891 168.255758,101.925491 170.164558,101.925491 C172.072958,101.925491 172.924425,100.935891 172.924425,98.7172244 L172.924425,84.4844247 L175.926025,84.4844247 L175.926025,98.7697577 C175.926025,102.318691 173.826025,104.353624 170.164558,104.353624 C166.502558,104.353624 164.402025,102.318691 164.402025,98.7697577 L164.402025,84.4844247 L167.404692,84.4844247 Z M199.196424,84.2134914 C204.947891,84.2134914 204.900558,91.0010912 204.900558,91.0010912 L202.500558,90.9916246 C202.500558,90.9916246 202.456291,86.642158 199.196424,86.642158 C196.171358,86.642158 196.062024,90.4781579 196.062024,94.5458911 L204.954158,94.5458911 L204.954158,96.6197578 C204.954158,102.878691 202.505224,104.347891 199.196424,104.347891 C194.951091,104.347891 193.057758,101.247358 193.057758,94.2953578 C193.057758,87.322958 194.951091,84.2134914 199.196424,84.2134914 Z M155.947892,84.2134914 C161.700025,84.2134914 161.652025,91.0010912 161.652025,91.0010912 L159.252559,90.9916246 C159.252559,90.9916246 159.208292,86.642158 155.947892,86.642158 C152.922425,86.642158 152.813492,90.4781579 152.813492,94.5458911 L161.705759,94.5458911 L161.705759,96.6197578 C161.705759,102.878691 159.256292,104.347891 155.947892,104.347891 C151.702025,104.347891 149.809892,101.247358 149.809892,94.2953578 C149.809892,87.322958 151.702025,84.2134914 155.947892,84.2134914 Z M123.677093,84.2134914 C129.428159,84.2134914 129.380693,91.0010912 129.380693,91.0010912 L126.981759,90.9916246 L126.981116,90.9629757 C126.970251,90.5872524 126.782236,86.642158 123.677093,86.642158 C120.651626,86.642158 120.542693,90.4781579 120.542693,94.5458911 L129.434959,94.5458911 L129.434959,96.6197578 C129.434959,102.878691 126.985359,104.347891 123.677093,104.347891 C119.431226,104.347891 117.53856,101.247358 117.53856,94.2953578 C117.53856,87.322958 119.431226,84.2134914 123.677093,84.2134914 Z M135.008293,84.4453581 L135.008293,98.6781577 C135.008293,100.778691 135.710426,101.886424 137.768293,101.886424 C139.167759,101.886424 139.680692,101.308824 140.034426,101.002558 C140.279759,101.972958 140.700026,102.796291 141.268692,103.484424 C140.940692,103.668291 139.799492,104.314558 137.768293,104.314558 C134.106293,104.314558 132.005759,102.278691 132.005759,98.7301577 L132.005759,98.7301577 L132.005759,84.4453581 L135.008293,84.4453581 Z M144.312559,84.4322914 L144.312559,98.665091 C144.312559,100.765624 145.014026,101.873491 147.072426,101.873491 C148.305759,101.873491 148.850026,101.425491 149.204159,101.108824 C149.544826,102.047891 149.980692,102.841091 150.517759,103.502024 C150.135892,103.713491 149.015626,104.301624 147.072426,104.301624 C143.409892,104.301624 141.309892,102.265624 141.309892,98.7172244 L141.309892,84.4322914 L144.312559,84.4322914 Z M112.511493,84.4530914 L112.511493,101.629624 L117.02136,101.629624 L117.02136,104.058291 L105,104.058291 L105,101.629624 L109.508867,101.629624 L109.508867,84.4530914 L112.511493,84.4530914 Z M202.039114,96.9740244 L196.148424,96.9740244 C196.451624,101.036424 197.529224,101.919224 199.196424,101.919224 C201.185891,101.919224 202.044291,101.021891 202.039114,96.9740244 Z M126.51925,96.9740244 L120.628693,96.9740244 C120.932293,101.036424 122.00936,101.919224 123.677093,101.919224 C125.666693,101.919224 126.524426,101.021891 126.51925,96.9740244 Z M158.790711,96.9740244 L152.899492,96.9740244 C153.203092,101.036424 154.280159,101.919224 155.947892,101.919224 C157.938025,101.919224 158.795359,101.021891 158.790711,96.9740244 Z M199.177091,59.533892 C201.092158,59.533892 202.635891,60.065092 203.641091,61.0697586 C204.524424,61.9541586 204.992158,63.2073586 204.992158,64.6948252 C204.992158,68.2161585 202.320824,69.8224251 199.964558,71.2390917 C198.065624,72.381225 196.425491,73.367225 196.425491,75.1082916 C196.425491,76.6973583 197.843758,77.2396249 198.997358,77.2396249 C200.765624,77.2396249 201.717224,76.2328249 201.906824,74.1609583 L201.935891,73.8401583 L204.750558,73.8401583 L204.730158,74.2125583 C204.547358,77.6286916 202.455758,79.6682915 199.135891,79.6682915 C195.856291,79.6682915 193.652558,77.7620249 193.652558,74.9254916 C193.652558,71.8609584 196.216158,70.2692251 198.477624,68.8650918 C200.401624,67.6708251 202.218691,66.5432252 202.218691,64.7208252 C202.218691,62.9677586 201.195358,61.9625586 199.410958,61.9625586 C196.872958,61.9625586 196.292691,63.7369586 196.253091,65.2265585 L196.244291,65.5702919 L193.421358,65.5702919 L193.427624,65.2109585 C193.492158,61.7620253 195.748424,59.533892 199.177091,59.533892 Z M182.730691,59.7849587 L182.730691,74.017225 C182.730691,75.2125583 182.981758,76.0437583 183.496425,76.5588249 C183.945358,77.0073582 184.596825,77.2254916 185.490691,77.2254916 C186.383891,77.2254916 187.035358,77.0073582 187.484425,76.5588249 C187.999491,76.0437583 188.250025,75.2125583 188.250025,74.017225 L188.250025,59.7849587 L191.252558,59.7849587 L191.252558,74.069225 C191.252558,75.8150916 190.761491,77.1910916 189.794291,78.1588249 C188.802558,79.1505582 187.354158,79.6536249 185.490691,79.6536249 C181.828691,79.6536249 179.728691,77.6182916 179.728691,74.069225 L179.728691,59.7849587 L182.730691,59.7849587 Z M150.504159,59.5145587 C152.610425,59.5145587 153.888559,60.2145587 154.339625,60.515092 C154.539092,60.647892 156.285359,61.889092 156.283359,64.5114919 L156.271892,69.3166918 L150.583892,69.3166918 L150.583892,66.8874918 L153.666692,66.8874918 L153.670292,66.8682918 L153.670292,64.5724252 C153.670292,62.9010919 152.516692,61.942692 150.504159,61.942692 C148.719759,61.942692 147.068292,62.8682919 147.068292,69.5806918 C147.068292,76.2942916 148.719759,77.2197582 150.504159,77.2197582 C153.019225,77.2197582 153.324425,74.7926916 153.494825,72.8713584 C154.286959,72.8713584 155.478692,72.8609584 156.508825,72.8609584 C156.401092,75.5614916 155.180159,79.6478915 150.504159,79.6478915 C146.171892,79.6478915 144.065626,76.3505583 144.065626,69.5666918 C144.065626,62.8020253 146.171892,59.5145587 150.504159,59.5145587 Z M165.026025,59.5145587 C167.131758,59.5145587 168.409892,60.2145587 168.861492,60.515092 C169.060425,60.647892 170.807358,61.889092 170.803625,64.5114919 L170.793758,69.3166918 L165.105225,69.3166918 L165.105225,66.8874918 L168.188025,66.8874918 L168.191625,66.8682918 L168.191625,64.5724252 C168.191625,62.9010919 167.037492,61.942692 165.026025,61.942692 C163.241092,61.942692 161.589625,62.8682919 161.589625,69.5806918 C161.589625,76.2942916 163.241092,77.2197582 165.026025,77.2197582 C167.540692,77.2197582 167.846425,74.7926916 168.016158,72.8713584 C168.808292,72.8713584 170.000025,72.8609584 171.030158,72.8609584 C170.922425,75.5614916 169.701625,79.6478915 165.026025,79.6478915 C160.693225,79.6478915 158.586959,76.3505583 158.586959,69.5666918 C158.586959,62.8020253 160.693225,59.5145587 165.026025,59.5145587 Z M125.071359,59.7984253 L125.071359,68.8062918 L131.592159,68.8062918 L131.592159,59.7984253 L134.594293,59.7984253 L134.594293,79.4030915 L131.592159,79.4030915 L131.592159,71.2344251 L125.071359,71.2344251 L125.071359,79.4030915 L122.069226,79.4030915 L122.069226,59.7984253 L125.071359,59.7984253 Z M141.151626,59.7864253 L141.151626,79.3906915 L138.148959,79.3906915 L138.148959,59.7864253 L141.151626,59.7864253 Z M176.624958,59.7864253 L176.624958,79.3906915 L173.622425,79.3906915 L173.622425,59.7864253 L176.624958,59.7864253 Z M186.735358,34.6869593 C188.650558,34.6869593 190.193758,35.2186926 191.198958,36.2240259 C192.083358,37.1077592 192.550024,38.3609592 192.550024,39.8478925 C192.550024,43.3697591 189.879225,44.9760257 187.523491,46.3926923 C185.624025,47.535359 183.984425,48.5218923 183.984425,50.2620256 C183.984425,51.8510922 185.402025,52.3926922 186.555225,52.3926922 C188.324025,52.3926922 189.276025,51.3864256 189.464558,49.3145589 L189.494291,48.993759 L192.308824,48.993759 L192.289091,49.3661589 C192.105224,52.7817589 190.014025,54.8218921 186.694825,54.8218921 C183.414558,54.8218921 181.210958,52.9156255 181.210958,50.0792256 C181.210958,47.014559 183.774425,45.4234924 186.035358,44.0192257 C187.959358,42.8244258 189.776558,41.6968258 189.776558,39.8744258 C189.776558,38.1213592 188.753091,37.1161592 186.969225,37.1161592 C184.430691,37.1161592 183.851625,38.8916259 183.812025,40.3801592 L183.802558,40.7240258 L180.979758,40.7240258 L180.985891,40.3645592 C181.050025,36.9156259 183.307358,34.6869593 186.735358,34.6869593 Z M159.633359,34.8958926 L159.633359,49.1292256 C159.633359,51.2301589 160.334959,52.3369589 162.393225,52.3369589 C163.792692,52.3369589 164.305225,51.7598922 164.659359,51.4530922 C164.904692,52.4234922 165.324425,53.2468255 165.893758,53.9358922 C165.565092,54.1192255 164.423492,54.7650921 162.393225,54.7650921 C158.730692,54.7650921 156.630692,52.7301589 156.630692,49.1812256 L156.630692,49.1812256 L156.630692,34.8958926 L159.633359,34.8958926 Z M172.747892,34.6874926 C174.612025,34.6874926 176.060425,35.1901593 177.052025,36.1822926 C178.019225,37.1500259 178.510425,38.5254925 178.510425,40.2718925 L178.510425,54.5568255 L175.507758,54.5568255 L175.507758,40.3244258 C175.507758,38.1057592 174.656825,37.1161592 172.747892,37.1161592 C171.078158,37.1161592 169.989092,37.8349592 169.989092,40.3244258 L169.989092,54.5568255 L166.985892,54.5568255 L166.985892,40.2718925 C166.985892,38.5254925 167.476558,37.1500259 168.444825,36.1822926 C169.435892,35.1901593 170.883892,34.6874926 172.747892,34.6874926 Z M150.724959,34.9213593 L150.724959,52.0973589 L155.234959,52.0973589 L155.234959,54.5254921 L143.213492,54.5254921 L143.213492,52.0973589 L147.722426,52.0973589 L147.722426,34.9213593 L150.724959,34.9213593 Z M200.509358,34.9213593 L200.509358,52.0973589 L205.018691,52.0973589 L205.018691,54.5254921 L192.997358,54.5254921 L192.997358,52.0973589 L197.506824,52.0973589 L197.506824,34.9213593 L200.509358,34.9213593 Z M191.953624,7 C194.695358,8.1609333 203.874024,16.4500264 204.624024,22.6896263 C205.249491,27.8906928 201.888558,30.3645594 198.735358,30.1833594 C193.883891,30.0104261 192.318291,26.8276262 190.734425,23.9989596 C190.613491,23.7838929 190.574425,23.6025596 190.574425,23.5025596 C190.574425,23.4812263 190.557758,23.4625596 190.536958,23.4625596 C190.515625,23.4625596 190.497891,23.4792263 190.497891,23.5000263 C190.497891,23.5077596 190.500025,23.5145596 190.503625,23.5202929 C190.576558,23.6353596 190.635358,23.9593596 190.531225,24.2796262 C190.334958,24.8812262 189.689625,25.2104262 189.088025,25.0150929 C188.485891,24.8197596 188.156825,24.1734929 188.352025,23.5718929 L189.968691,18.5880264 L194.904158,20.3448263 C195.500558,20.556293 195.812558,21.2104263 195.601091,21.8068263 C195.389091,22.4030929 194.734958,22.7145596 194.138558,22.5036263 C193.820824,22.3901596 193.609891,22.2005596 193.566158,22.0432263 C193.564024,22.0353596 193.560424,22.0281596 193.555224,22.0224263 C193.539624,22.0068263 193.518291,22.0104263 193.506291,22.030693 C193.494824,22.0516263 193.499491,22.0828263 193.514558,22.0984263 C193.586424,22.173493 193.685891,22.2708263 193.792158,22.4926929 C195.760958,26.6052262 198.854158,29.4281594 201.065091,27.9020261 C202.240158,27.0901595 202.725491,24.6145596 201.212024,20.9020263 C199.238024,16.0598931 194.473491,10.7927066 191.988024,9.15729328 C185.972425,13.1702932 181.907358,19.1129597 180.994291,21.877093 C180.539625,23.2516263 179.496425,27.3401595 183.871891,28.7145595 C186.877091,29.5896261 189.599491,27.2874928 190.372958,26.5546928 C190.404691,26.5192262 190.545891,26.4166928 190.599491,26.3792262 C191.013491,26.1994929 191.193758,26.6406928 191.212025,26.8020262 C191.256825,27.0093595 191.076558,27.2353595 191.076558,27.2353595 C190.169225,28.4874928 186.019758,31.6025594 181.716691,29.0025594 C176.854692,25.4104262 180.518691,19.4020264 181.217758,18.1406931 C183.235358,14.5025598 189.934958,7.94687998 191.953624,7 Z" transform="matrix(1 0 0 -1 0 111.383)"/>
</svg>
