<svg xmlns="http://www.w3.org/2000/svg" viewBox="0 0 468.47 164.37"><defs><style>.cls-1{fill:#f7f7ef;}.cls-2{fill:#232323;}</style></defs><g id="Layer_2" data-name="Layer 2"><g id="Back_Wheels" data-name="Back Wheels"><path class="cls-1" d="M2.84,120l16,4,10-3-1-63,14-20h9l13-18,5-13,92-1,12,12s35,0,35-1,8-9,8-9h32l9,8h30l15-12,137-1,8,10,4,53,7,6,2,37-4,4-20-1,8,11,8,1,14-5,1,14c-1.35-6.28-154,4.39-161,4l-7,12-100,2-11-15c-4.25,1.7-133.16,1.65-142,2l-12-9-15-1-17,5Z"/><path d="M355.51,73.31,343.05,72.2V70.05l12.46,1ZM343.09,64.6l12.62.39V63H343.09Zm2.08,2h-2.09v1.71c3.4.15,6.7.35,10,.41a10.84,10.84,0,0,0,2.62-.67,4,4,0,0,0-3.05-1.35Zm9.44,8.32c-.32,0-.64-.08-.95-.1l-9.53-.48c-.35,0-.71,0-1.16.06V76.1c.48.09.91.19,1.35.23q3.74.32,7.47.6c.91.06,1.82.09,2.73.1.66,0,1-.34,1-1A.94.94,0,0,0,354.61,74.89Zm25.82,0c-.18,0-.36,0-.54-.06-3.41-.18-6.81-.36-10.21-.52a4.07,4.07,0,0,0-.83.15v1.74c1.53.14,2.92.29,4.32.39,2.36.17,4.71.32,7.07.46.66,0,1.15-.18,1.18-1S381.16,74.94,380.43,74.88Zm1-3.8-12.45-1a10.34,10.34,0,0,0-.1,1.06A10.49,10.49,0,0,0,369,72.2l12.41,1.11Zm-27-9.94c.36-.27.8-.59.9-1,.06-.2-.49-.64-.84-.85a1.78,1.78,0,0,0-.93-.09q-4.63,0-9.26.13a9.88,9.88,0,0,0-1.19.14v1.39c.46,0,.85.13,1.25.14l9.4.16C354,61.19,354.3,61.25,354.45,61.14Zm15.07,17.21a1.07,1.07,0,0,0-.72.74,1.22,1.22,0,0,0,.61.86,3.09,3.09,0,0,0,1.2.19l7.6.58,3.07.22c0-.75.07-1.36.12-2.25-3.06-.14-5.91-.3-8.76-.41A23.18,23.18,0,0,0,369.52,78.35ZM319,76.19c1.89.17,3.65.35,5.41.48,2,.14,4,.29,6,.34a1.46,1.46,0,0,0,1.08-.72,1.33,1.33,0,0,0-.31-1.18,1.93,1.93,0,0,0-1.16-.28c-3.36-.19-6.71-.37-10.07-.53a5.63,5.63,0,0,0-.94.14Zm.14-11.59L331.7,65V63H319.09Zm50.68,2a3.92,3.92,0,0,0-.81.17V68.3c3.48.14,6.86.32,10.24.37a2.27,2.27,0,0,0,2.26-1.16,11.35,11.35,0,0,0-2.59-.8C375.84,66.59,372.8,66.6,369.77,66.58Zm49.56-7.25c-.57,0-1.14.09-1.76.14v1.41a7.2,7.2,0,0,0,1,.14l9.81.17c.18,0,.42.05.54,0,.35-.28.81-.58.92-1,.05-.2-.49-.64-.82-.87a1.6,1.6,0,0,0-.8-.09C425.24,59.25,422.28,59.28,419.33,59.33ZM331.39,78.79c-.5-.06-.93-.14-1.38-.16-3.12-.12-6.25-.25-9.38-.31-.65,0-1.76-.45-1.76.83s1.08.91,1.75,1c3.26.3,6.52.53,9.77.78a8,8,0,0,0,1-.08ZM319,72.19l12.46,1.12V71.08L319,70Zm11.41-11c.35-.27.8-.58.9-1,.06-.21-.49-.65-.84-.86a1.88,1.88,0,0,0-.93-.09l-9.13.12c-.43,0-.87.09-1.32.14v1.4c.46,0,.85.13,1.25.14l9.4.16C330,61.19,330.3,61.25,330.45,61.14Zm-11.38,7.15c3.44.15,6.78.33,10.12.4a10.8,10.8,0,0,0,2.47-.62,3.6,3.6,0,0,0-2.87-1.39c-2.89-.06-5.79-.08-8.69-.1a7.28,7.28,0,0,0-1.11.15C319,67.26,319,67.69,319.07,68.29Zm25.57,10c-.65,0-1.75-.46-1.77.82s1.07.91,1.74,1c3.26.3,6.52.53,9.77.78a7.65,7.65,0,0,0,1-.07v-2c-.48-.06-.92-.15-1.36-.17C350.9,78.51,347.77,78.38,344.64,78.32ZM439.42,44c0-1.05-.65-1.66-1.83-1.7a1.65,1.65,0,0,0-1.8,1.74,1.7,1.7,0,0,0,1.76,1.81A1.74,1.74,0,0,0,439.42,44Zm-1.33,5.89c.07.72.92,1.39,0,2.15,0-.44-.06-.77-.1-1.3-1,.43-1.19,1.1-.92,1.74a1.71,1.71,0,0,0,1.19.84c.73.08,1.12-.53,1.21-1.2a5.08,5.08,0,0,0,0-1.74C439.24,49.68,438.78,49.39,438.09,49.84ZM417.53,64.59l12.61.41V63H417.53Zm0,7.61L430,73.31V71.08l-12.48-1Zm11,2.64c-3.4-.2-6.81-.37-10.21-.54a6.58,6.58,0,0,0-.88.1v1.74c.76.09,1.47.2,2.18.26,3,.22,6,.46,9,.63,1.17.07,1.61-.48,1.37-1.44C429.74,74.81,429.07,74.87,428.51,74.84Zm-10,3.47c-.54,0-1.15-.07-1.22.72s.49,1,1.12,1l5.29.4,6.11.5c0-.77.07-1.41.1-2.09a7.55,7.55,0,0,0-1.06-.2C425.41,78.54,422,78.42,418.52,78.31Zm-98.84,54.74a68.79,68.79,0,0,0,6.2-9.28C323.67,125,319.54,131.09,319.68,133.05Zm148.79-16.21c0,.76-.28,1.52-.27,2.28.05,3.95.17,7.9.21,11.86,0,2,0,4.09-.12,6.13-.09,1.55-.79,2.38-1.94,2.36-2.21,0-3.16-.62-3.46-2.16a13.66,13.66,0,0,1-.14-2c0-.44,0-.87,0-1.45h-5.58a6.85,6.85,0,0,1-1.36-.06c-5.24-1.25-10.58-.38-15.87-.65a4.26,4.26,0,0,0-1.44.37,2.62,2.62,0,0,1-3.22-3.84c1-1.66,2.17-3.25,3.3-4.84a2.24,2.24,0,0,0,.45-2.42,2.15,2.15,0,0,0-2.31,1.45,15.11,15.11,0,0,1-1.24,2.07l-.4-.15c.33-1,.66-2,1.07-3.22-1.24.14-2.37.19-3.45.42-.35.08-.64.59-.89,1a5.94,5.94,0,0,1-2.12,2.35l-.33-.2c.52-1,1-2,1.62-3a1.69,1.69,0,0,0-2.26.54c-.5.65-1,1.29-1.56,1.89a13.83,13.83,0,0,1-1.26,1c-.19-1.58,1.09-2.25,1.47-3.43-.52-.05-1-.08-1.39-.14a2.9,2.9,0,0,0-3.26,1.6,20.54,20.54,0,0,1-2.1,2.67l-.27-.16,2-3.17a1,1,0,0,0-1.65-.54,7.66,7.66,0,0,0-1.53,1.48c-1.31,1.65-2.58,3.35-3.86,5l-.49-.22a5,5,0,0,1,.4-1.33c.88-1.33,1.84-2.6,2.76-3.9.25-.35.49-.72.75-1.11a3.39,3.39,0,0,0-4.13,1.88,47.91,47.91,0,0,1-5.47,9.09,2.71,2.71,0,0,1-.49.65,5.5,5.5,0,0,1-.92.42c-.14-.35-.47-.76-.39-1.05a11.18,11.18,0,0,1,1-2.51c1.64-2.83,3.34-5.62,5.06-8.49a1.29,1.29,0,0,0-2,.61c-1.73,3-3.48,6.06-5.27,9.06-.18.31-.65.45-1,.67-.08-.37-.32-.81-.2-1.1a18.84,18.84,0,0,1,1.42-2.93c1.3-2.08,2.67-4.11,4-6.16-1.11-.61-1.67-.53-2.23.42-1.48,2.55-2.91,5.13-4.37,7.69-.11.2-.21.41-.33.6-.36.54-.75,1.19-1.5.71s-.4-1.15-.05-1.69c1.52-2.31,3.08-4.61,4.63-6.91l.59-.91c-1.11-.42-2-.05-2.8,1.13q-2.6,3.84-5.21,7.67a11.33,11.33,0,0,1-.91,1.06l-.42-.2a8.27,8.27,0,0,1,.59-1.78c1.34-2.21,2.75-4.38,4.14-6.57.28-.45.56-.9.9-1.43a2,2,0,0,0-2.44.49,4.46,4.46,0,0,0-.55.61c-1.6,2.53-3.17,5.08-4.77,7.62a10.62,10.62,0,0,1-.72.92c-.86-.72-.5-1.4-.17-1.94,1.27-2.09,2.61-4.14,3.94-6.21a6.91,6.91,0,0,0,.86-1.54c-1.17.25-2.36.25-3.07,1.48-1.71,2.94-3.5,5.84-5.26,8.76a3.36,3.36,0,0,1-.58.53c-.82-.53-.39-1.13-.13-1.57,1.64-2.77,3.32-5.52,5-8.27a10.13,10.13,0,0,1,.61-.85c-.06-.08-.13-.16-.19-.25l-2,1.3-.81-1.17a54.77,54.77,0,0,1-6.72,10.72c-.65-.8-.19-1.43.12-2,1.58-2.66,3.21-5.28,4.82-7.91.12-.19.27-.36.4-.54l-.17-.23-1.7,1.31-.67-1.23c-.48.89-.89,1.69-1.34,2.46-1.74,2.93-3.47,5.86-5.26,8.76-.18.3-.69.4-1.05.59-.1-.41-.36-.87-.25-1.21a11.91,11.91,0,0,1,1.15-2.61c1.63-2.66,3.34-5.28,5-7.89-1.4-.51-1.86-.26-2.67,1.07-2.1,3.45-4.27,6.86-6.43,10.27a2.25,2.25,0,0,1-.6.49c-.77-.44-.61-1.06-.37-1.58a42.26,42.26,0,0,1,1.95-3.86c1-1.73,2.13-3.39,3.19-5.09.25-.4.46-.84.71-1.3-2.23-.51-2.38-.33-3.36,1.37-1.55,2.66-3.26,5.23-4.89,7.84-.19.3-.34.64-.55.92a9.52,9.52,0,0,1-.72.83,7.55,7.55,0,0,1-.8-.8,1.58,1.58,0,0,1-.19-.58,1.52,1.52,0,0,0-1.95.64c-.4.49-.81,1.18-1.54.76s-.6-1.25-.26-1.94c.9-1.82,1.82-3.65,2.78-5.45.63-1.19,1.35-2.34,2-3.53-1.55-.51-1.79-.46-2.56.76-2,3.15-3.92,6.33-5.92,9.48-.19.31-.63.47-1,.7-.1-.4-.35-.85-.25-1.19a13,13,0,0,1,1.08-2.78c1.16-2.05,2.43-4.05,3.65-6.07l.62-1c-1-.4-1.36.2-1.7.81-1.13,2-2.2,4.08-3.41,6.06-1,1.61-2.12,3.13-3.24,4.75-.92-.08-1-.78-.79-1.46a9.12,9.12,0,0,1,.93-2.26c1.33-2.17,2.72-4.3,4.09-6.44l.73-1.13c-1.59-.78-2-.7-2.77.56-1.59,2.7-3.15,5.41-4.73,8.11-.14.23-.24.53-.45.67s-.69.36-.8.26a1.1,1.1,0,0,1-.37-.88,4.48,4.48,0,0,1,.59-1.37c1.41-2.38,2.84-4.74,4.35-7.26l-1.08.6L360,123c-.39.44-.76.79-1.05,1.19-1.25,1.79-2.47,3.6-3.73,5.38a5.08,5.08,0,0,1-1.39,1.29c.29-2.68,2.34-4.44,3.51-6.73l-1.2-1.08c-2,2.12-2.95,5-5.32,6.66a10.33,10.33,0,0,1,2-4.08c.46-.72.66-1.37-.13-2.08-1.47,1.79-2.43,4-4.76,5.39.11-2.52,2-3.84,2.83-5.63-1.67-.6-2-.45-2.78,1a26.68,26.68,0,0,1-1.83,2.86,7.23,7.23,0,0,1-1.37,1.1c-.47-2.29,1.36-3.47,1.81-5.11-1.6-.56-1.88-.45-2.61.89a20.32,20.32,0,0,1-1.41,2.33,7.69,7.69,0,0,1-1.31,1.08c-.86-1.92.74-3,1-4.55-1.45-.52-1.88.8-2.65,1.38-.38.29-.54.85-.87,1.21a8.17,8.17,0,0,1-1.12.9l-.38-.16a11.79,11.79,0,0,1,.36-1.69,12.85,12.85,0,0,1,.84-1.58,1,1,0,0,0-1.54.42c-.45.79-.87,1.6-1.39,2.34a13.6,13.6,0,0,1-1.43,1.49c-1-2,.76-3,1-4.29-1.78-.65-2.37-.46-3.26,1-.51.86-1,1.72-1.55,2.57a4.74,4.74,0,0,1-.94,1.15c-.84-1.15-.15-1.88.25-2.61s1-1.51,1.47-2.31c-.84-.39-1.18.1-1.51.61-.9,1.37-1.76,2.76-2.7,4.1a14.51,14.51,0,0,1-1.53,1.61l-.45-.23a8.93,8.93,0,0,1,.58-1.9c.62-1,1.41-2,2.08-3a1.46,1.46,0,0,0,.2-1.07c-.05-.18-.58-.28-.9-.31a22.68,22.68,0,0,0-2.47-.11,1.1,1.1,0,0,0-.76.43q-4.2,6.38-8.36,12.77s0,.09,0,.24l.53.48a2.5,2.5,0,0,1-1,4.46,8.68,8.68,0,0,1-3.09.26,22,22,0,0,1-4-.69,1.25,1.25,0,0,0-1.74.73c-1.32,2.69-2.68,5.37-4,8.05-.24.49-.44,1-.7,1.48a3.28,3.28,0,0,1-3.11,1.8c-16,.28-32,.62-48,.87-12.36.19-24.73.35-37.09.36-3.48,0-7-.57-10.45-.91a2.47,2.47,0,0,0-2,.52,2.36,2.36,0,0,1-3.42-.34,30.84,30.84,0,0,1-1.81-2.55c-.82-1.14-1.63-2.29-2.47-3.41-1.71-2.3-3.47-4.56-5.14-6.88a2.35,2.35,0,0,0-2.38-1.1c-3.85.25-7.72.36-11.58.48a5.2,5.2,0,0,1-2-.3,2,2,0,0,1-.61-3.47,4.57,4.57,0,0,0,1.25-1.86c.58-1.22,1.33-2.36,1.9-3.65-1,1.17-2,2.33-3.15,3.72-.74-2.17.93-3.11,1.54-4.49-.95.91-1.9,1.81-3,2.84a2.1,2.1,0,0,1,.25-2.49c.78-.94,1.63-1.83,2.44-2.75.45-.5.88-1,1.43-1.63a1.45,1.45,0,0,0-1.88.53c-1,1.12-2,2.26-3,3.35a5.38,5.38,0,0,1-1.66,1.14c-.29-2.27,1.78-3.26,2.66-4.93-.77-.4-1.15,0-1.52.51-.78,1-1.54,1.91-2.35,2.83a3.79,3.79,0,0,1-1.3,1c-.17-2,1.69-2.88,2.38-4.4-2.12-.66-2.6-.5-3.76,1.1-.44.6-.94,1.17-1.41,1.75l-.34-.23,1.67-2.91c-1.91-.64-2,1.58-3.48,2,.4-.79.71-1.4,1.05-2a1.62,1.62,0,0,0-2.22.52c-.45.58-1,1.09-1.48,1.64l-.37-.24.92-2.29c-1.52.69-2.81-.07-4.16-.1-1,0-2,.45-3.11,0-.33-.14-1,.38-1.45.74a21.35,21.35,0,0,0-1.59,1.82l-.27-.18c.35-.64.69-1.29,1-1.92a2.33,2.33,0,0,0-3.52.2c-.84,1.19-1.62,2.42-2.5,3.57-.37.48-.69,1.24-1.62.84-.16-.07-.58.35-.82.59-.74.75-1.4,1.56-2.18,2.26-.29.26-1,.49-1.16.34a1.52,1.52,0,0,1-.49-1.25,4.51,4.51,0,0,1,.75-1.86c1-1.41,2.07-2.75,3.11-4.13.28-.37.52-.78.78-1.16l-.32-.26a10.22,10.22,0,0,0-.88.86c-1.2,1.54-2.4,3.09-3.54,4.67-.38.53-.5,1.23-.86,1.78a4.73,4.73,0,0,1-1,.9c-.2-.41-.61-.86-.54-1.21a6.31,6.31,0,0,1,.88-2.11c.84-1.29,1.8-2.51,2.71-3.76.25-.35.49-.71.79-1.16-.85-.29-1.14.19-1.47.61-1.67,2.15-3.36,4.29-5,6.45a13.81,13.81,0,0,1-1.18,1.47,1.74,1.74,0,0,1,0-2.44c1-1.44,2.14-2.82,3.2-4.24.48-.64.92-1.3,1.43-2a1.62,1.62,0,0,0-2.16.6c-1.42,2.06-2.89,4.08-4.31,6.13-.28.41-.38.93-.67,1.32s-.59.54-.82.48a1,1,0,0,1-.57-.76,5.69,5.69,0,0,1,.66-2c1-1.58,2.09-3.08,3.16-4.61.28-.4.58-.79,1-1.3a1.76,1.76,0,0,0-2.3.71c-2,2.79-4.1,5.55-6.17,8.31a10.74,10.74,0,0,1-.75.81,1.22,1.22,0,0,1-.34-1.74,20.87,20.87,0,0,1,1.62-2.67c1-1.47,2.18-2.9,3.27-4.36.26-.35.48-.74.72-1.11-1.35-.84-1.94-.71-2.8.48-1.62,2.24-3.27,4.47-4.9,6.71a5.31,5.31,0,0,1-1.17,1.29,2,2,0,0,1,.43-2.31c1.28-1.77,2.6-3.5,3.9-5.26.29-.39.56-.81.85-1.23-1.55-.67-2.13-.51-3,.74q-2.62,3.58-5.27,7.13c-.29.39-.64.74-1,1.19a1.71,1.71,0,0,1,.22-2.19c1.28-1.87,2.64-3.69,4-5.53l1.07-1.43c-1-.65-1.52-.3-2,.4-1.44,1.88-2.89,3.74-4.39,5.56a20.86,20.86,0,0,1-2,1.9,3.14,3.14,0,0,1,.79-2.59c1.06-1.41,2.19-2.78,3.28-4.18a14.8,14.8,0,0,0,.82-1.24c-1.61-.49-1.88-.38-2.75.78-1.41,1.9-2.83,3.79-4.28,5.66a18.3,18.3,0,0,1-1.46,1.49,2.14,2.14,0,0,1,.25-2.58c1-1.43,2-2.8,3-4.19.28-.39.54-.79.86-1.25-1-.42-1.4.12-1.83.67-1.4,1.79-2.8,3.58-4.24,5.34a13.83,13.83,0,0,1-1.56,1.37A2,2,0,0,1,104,128c1-1.28,2-2.51,2.93-3.77.3-.39.57-.79,1-1.34-1-.39-1.48.16-1.91.7-1.38,1.75-2.71,3.54-4.11,5.27-.59.72-1.31,1.32-2.11,2.12a2.44,2.44,0,0,1,.37-2.62c1-1.49,2.17-2.92,3.26-4.37l.86-1.16a1.43,1.43,0,0,0-2,.41c-2,2.75-4,5.5-6,8.23-.2.28-.62.39-.94.58-.17-.38-.54-.81-.47-1.13a5.39,5.39,0,0,1,.9-2c1.3-1.69,2.68-3.32,4-5,.31-.38.63-.75,1-1.21-.73-.44-1.29-.33-1.67.18q-2.66,3.63-5.23,7.31c-.38.54-.45,1.31-.86,1.8a1.65,1.65,0,0,1-1.36.48c-.25-.05-.58-.87-.47-1.23a8.55,8.55,0,0,1,1.19-2.56c1.25-1.73,2.62-3.37,3.95-5l.75-1c-1.11-.53-1.41-.47-2.23.62-2.1,2.8-4.18,5.62-6.27,8.42-.21.29-.43.56-.68.89a1.06,1.06,0,0,1-.49-1.62,15.05,15.05,0,0,1,1.56-2.7c1.24-1.63,2.57-3.18,3.86-4.77.25-.31.48-.63.77-1-1.13-.54-1.67.08-2.21.79q-2.55,3.38-5.13,6.72c-.35.46-.78.86-1.17,1.29a1,1,0,0,1-.49-1.55,9.6,9.6,0,0,1,1.07-1.73c1.19-1.5,2.41-3,3.61-4.45a13.33,13.33,0,0,0,.79-1.11,1.61,1.61,0,0,0-2.2.68q-2.13,2.92-4.35,5.76a17.07,17.07,0,0,1-1.65,1.57,2.41,2.41,0,0,1,.43-2.54c1-1.27,2-2.48,3-3.73.42-.52.83-1.06,1.26-1.6-1.55-.79-2.51-.56-3.38.74-1,1.51-2,3-3.06,4.51a4.27,4.27,0,0,1-1.54,1.26c-.13-3,2.39-4.48,3.52-6.72-1.12-.48-1.75-.35-2.38.54s-1.26,1.9-1.93,2.81a18.11,18.11,0,0,1-1.36,1.44,2.77,2.77,0,0,1,.73-2.78c.53-.72,1.09-1.41,1.66-2.16-1.82-.54-2.07-.43-3,1-.57.87-1.18,1.72-1.79,2.57a3,3,0,0,1-.67.45,2.35,2.35,0,0,1,.44-2.32c.39-.64.8-1.27,1.22-1.94-2.17-.67-2.68-.49-3.79,1.13a13.51,13.51,0,0,1-1.82,2.13c-.47-1.48,1-2.21,1.21-3.43-.78-.3-1.13.16-1.47.67-.51.75-1,1.52-1.57,2.23a12.39,12.39,0,0,1-1.41,1.26c-.63-2,1-2.87,1.49-4.19a1.45,1.45,0,0,0-2.12.57c-.58.92-1.15,1.85-1.79,2.74a3.85,3.85,0,0,1-1.31,1.1c-.13-1.87,1.43-2.92,2.09-4.46a1.2,1.2,0,0,0-1.83.46c-.76,1.08-1.49,2.18-2.29,3.22a5,5,0,0,1-1.69,1.33c0-2.21,2-3.37,2.72-5.16l-.23-.24a6.79,6.79,0,0,0-1,1c-1.31,1.91-2.58,3.85-3.89,5.76-.37.53-.83,1-1.37,1.63a2.17,2.17,0,0,1,.11-2.44c.92-1.4,1.92-2.76,2.9-4.12.4-.54.84-1,1.35-1.67-1.15-.42-2-.35-2.66.57q-5,6.9-10,13.81s0,.09,0,.23c.37.07.76.12,1.14.21a1.8,1.8,0,0,1,1.63,1.74A1.7,1.7,0,0,1,47.88,140a18.43,18.43,0,0,1-3.24,0,11.7,11.7,0,0,1-1.46-.26c-.06.65-.16,1.17-.16,1.69,0,4.09,0,8.18,0,12.27a5.73,5.73,0,0,1-.3,1.74,1.88,1.88,0,0,1-1.85,1.35,1.68,1.68,0,0,1-1.78-1.23c-.31-1.31-1.17-1.41-2.24-1.43-4.68-.08-9.36-.2-14-.29a9.34,9.34,0,0,0-1.12.09c-.16.56-.28,1.09-.47,1.59a1.82,1.82,0,0,1-2,1.37,1.87,1.87,0,0,1-1.69-1.7,5,5,0,0,1-.08-.95q.07-8.31.14-16.62c0-1.72,0-3.43,0-5.51-3.87,1.57-7.66,1.54-11.61,1.37,0,.92,0,1.68,0,2.44-.12,2.65-1.3,3.09-3.48,3.22A2.7,2.7,0,0,1,0,136.58c0-.86,0-1.73,0-2.59q0-8.79,0-17.59a2.47,2.47,0,0,1,2.64-2.5c1.37-.07,2.19.76,2.29,2.29,0,.67.08,1.34.13,2.13a16.2,16.2,0,0,1,2-.19,14.16,14.16,0,0,1,5.58,1,46.59,46.59,0,0,0,5.13,1.55A12.58,12.58,0,0,0,18,119c-.16-5.59-.38-11.17-.51-16.75-.11-4.5-.18-9-.16-13.49,0-2.51,2.21-5,5-5.85a13.61,13.61,0,0,1,2.68-.5c.89-.08,1.29-.42,1.27-1.35-.05-2.68,0-5.37-.06-8S26,67.71,26,65.07c-.08-2.36-.26-4.72-.2-7.07a8.28,8.28,0,0,1,.85-3.22,29.9,29.9,0,0,1,2.19-3.45c1.69-2.58,3.46-5.12,5.09-7.74a27.06,27.06,0,0,1,4.87-5.84,9,9,0,0,1,5.92-2.46c.72,0,1.45-.08,2.18,0a2.57,2.57,0,0,0,2.39-1.2c4-5.18,7.39-10.81,11.88-15.61A3.49,3.49,0,0,0,62.06,16a17.78,17.78,0,0,1,.26-3.8A32.14,32.14,0,0,1,63.78,8a12,12,0,0,1,1-2.28,2.27,2.27,0,0,1,1.28-1,39.1,39.1,0,0,1,4.59-.54c2.49-.15,5-.2,7.48-.33,1.86-.1,3.71-.34,5.57-.35,19.91-.14,39.82-.3,59.72-.3,4.9,0,9.81.41,14.69.87a19.61,19.61,0,0,1,11.72,5.63c1.77,1.67,3.39,3.52,5.13,5.23a1.85,1.85,0,0,0,1.2.38c2.64,0,5.28-.21,7.9,0,7.47.44,14.9-.27,22.35-.4a2.22,2.22,0,0,0,1.85-.93c1.54-2,3.18-4,4.63-6.07A4.74,4.74,0,0,1,217,5.47c3.54,0,7.09-.1,10.63-.11,5.36,0,10.72,0,16.09,0,1.63,0,3.26-.23,4.89-.34a6,6,0,0,1,5.47,2.42c1.16,1.45,2.57,2.69,3.87,4,.38.39.9.72,1.11,1.19.57,1.26,1.52,1.44,2.77,1.42q10.5-.16,21-.2a2.47,2.47,0,0,0,1.81-.9,53.08,53.08,0,0,1,4.9-4.09c2.24-1.63,4.6-3.1,6.88-4.68a13.82,13.82,0,0,1,7.69-2.4c8-.16,16-.36,24-.45,9.59-.1,19.18,0,28.77-.14Q380.71,1,404.56.61c8-.13,16-.41,24-.59,2.45-.06,4.9,0,7.36,0,4.75,0,7.84,2.64,10.41,6.23,1.05,1.46,2.09,2.94,3.19,4.37a20.61,20.61,0,0,1,2,2.36,3.77,3.77,0,0,1,.4,2.35,34.25,34.25,0,0,1-1.23,3.57,5.5,5.5,0,0,0-.38,1.9c.07,1.58.4,3.16.41,4.74.06,5.41.26,10.8.79,16.19.36,3.74.11,7.54.34,11.3.22,3.49.69,7,1.13,10.42a1.82,1.82,0,0,0,1,1.18,23,23,0,0,1,6.36,4.83,3.31,3.31,0,0,1,.83,1.67,24.88,24.88,0,0,1,.42,3.65c.23,5.31.48,10.62.59,15.94.07,3.76,0,7.54-.11,11.3-.06,2.73-.24,5.45-.37,8.17s-1.93,4.41-4,5.82a3,3,0,0,1-1.7.33c-4.18-.06-8.35-.18-12.52-.27-.44,0-.88,0-1.5.07.48,1.36.84,2.57,1.35,3.71a1.47,1.47,0,0,0,1.11.56c1.26.07,2.54,0,3.81,0,.9,0,1.79.15,2.69.19a4.49,4.49,0,0,0,1.47-.09c1.57-.46,3.12-1,4.66-1.5a13.85,13.85,0,0,1,6.62-.46c0-.75.11-1.45.16-2.15.09-1.24.54-1.92,1.48-2.2a3,3,0,0,1,3,.92A3.39,3.39,0,0,1,468.47,116.84ZM454.45,79c1.46-1.08,1.83-1.79,1.67-3.43C454.42,77.22,454.12,77.86,454.45,79Zm.17,4.21c1.56-1.53,1.93-2.73,1.29-4.1C455.05,80.31,454.2,81.46,454.62,83.2Zm1.55,24.4a3.11,3.11,0,0,0-1.13,3C456.33,110.36,456.71,109.39,456.17,107.6Zm.29-4.51c-1.44,1.12-1.53,2.47-1.26,4.18C456.63,106,456.7,104.69,456.46,103.09Zm.33-4.27c-1.11,1.22-2,2.32-1.55,4.11A4,4,0,0,0,456.79,98.82Zm.16-5c-1.31,1.66-2.32,3.19-1.71,5.31A5,5,0,0,0,457,93.86Zm-1.85-1.59c.87-1,1.9-1.87,1.63-3.4C456,89.91,454.93,90.79,455.1,92.27Zm1.87-.08-.35-.22-1.39,2.19.33.21Zm-.24-6.82c-1.53,1.43-2.11,2.8-1.8,4.25A4.58,4.58,0,0,0,456.73,85.37Zm-.57-3.49c-.73,1.44-1.9,2.67-1.44,4.7C456.91,83.91,457.2,83.13,456.16,81.88Zm-1.87-5.76c.73-1,1.37-1.78,2-2.61l-.14-.45c-.38,0-.86-.18-1.14,0C454.11,73.57,453.84,74.67,454.29,76.12ZM5.88,125.35c.47-.74.94-1.48,1.4-2.22-.06-.1-.12-.2-.19-.3L5.45,123l.14,2.3Zm3.18-.62c.37-.61.83-1.15,1.43-2-1.17.25-3.42,3.41-4.54,6,.6.3.84,0,1.11-.51C7.68,127,8.36,125.88,9.06,124.73Zm4.35-.81c-.7-.68-1.14-.44-1.5.16-.61,1-1.22,2-1.81,3-.36.6-.68,1.22-1,1.85.84.42,1.13-.06,1.42-.53.5-.8,1-1.61,1.51-2.41S12.94,124.62,13.41,123.92Zm3.13.58c-.5-.09-1.13-.13-1.29.12-.61,1-1.08,2-1.6,3l.34.21C15.52,127.37,15.68,125.7,16.54,124.5ZM31.32,57.11h8.51q.18-6.24.37-12.48l-.3,0Zm-.12,3.23c.1,1.5.19,2.84.28,4.15h8.66A30.13,30.13,0,0,0,40,58.74c-.45.32-.69.39-.72.52-.28,1.09-1.12,1.21-2,1.19-1.45,0-2.9-.08-4.36-.11C32.35,60.33,31.82,60.34,31.2,60.34Zm-.76,66.12a2.8,2.8,0,0,0,.42.13,3.51,3.51,0,0,0,.24-.64l-.4-.13C30.61,126,30.52,126.24,30.44,126.46ZM23.29,132c-.52,0-1.22-.12-1.28.65-.08,1,0,2,0,2.72H37.15c-1.15-3-1.56-3.34-4.59-3.34H31.47Zm13.28-4.49.33,0c.75-1.64,2.81-2.65,2.22-5a15.8,15.8,0,0,0-2.93,3.93C36.07,126.64,36.43,127.13,36.57,127.49Zm.47-4.9c-1.14.06-1.2,1-1.65,1.6l.25.19Zm2.23-4.54a15.37,15.37,0,0,0,0-2.18,1.16,1.16,0,0,0-.7-.8c-2.11-.25-4.22-.42-6.48-.63-.08,1.23-.16,2.38-.24,3.61ZM34,122.27l-.82,1.16.51.31.71-1.21ZM31.89,99.56c-.16.61.3.69.84.73,1.17.08,2.34.19,3.51.26.61,0,1.23,0,1.86,0,.19-.88-.32-1-.91-1C35.48,99.55,33.77,99.56,31.89,99.56ZM38,97.91V93.07H31.91v4.84Zm-.61,4.59c-1.36-.09-2.71-.21-4.07-.32-.47,0-.94-.12-1.5-.19v1.78c2,0,3.79,0,5.59,0,.32,0,.84-.32.89-.55C38.44,102.59,37.92,102.53,37.43,102.5ZM33.84,113c-1.45-.34-1.45-.34-1.88.52ZM39,111.2c-.07-1.21-.13-2.22-.19-3.3-2.18,0-4.15,0-6.12,0a1,1,0,0,0-.7.63c-.08.91,0,1.84,0,2.64Zm-.08-24.69c-2.06.12-3.86.26-5.66.34-1.58.07-1.71.23-1.3,2l6.6.75Zm-14.31,38.6c-1.29-.43-1.65-.17-2,1.38C23.89,126.78,24.09,126.64,24.58,125.11Zm1.65,1.43c1.3.16,1.44.07,2.05-1.39C26.81,125,26.52,125.15,26.23,126.54Zm.28-17.92c0-.69-.34-1-1-1-1.09-.07-2.17-.16-3.6-.27-.22,3.88.16,7.63.22,11.49,1.15-.12,2-.27,2.94-.29s1.47-.45,1.46-1.48C26.51,114.25,26.51,111.43,26.51,108.62Zm-4.84-5.4c0,.35.12.69.21,1.21,1.15-.09,2.22-.21,3.3-.23.92,0,1.27-.43,1.26-1.35,0-2.22,0-4.45,0-6.68q0-3.94-.18-7.9a1.71,1.71,0,0,0-.4-1.19c-.73-.55-3.28.19-3.5,1.07-.51,2-1.48,4-1.29,6.23C21.32,97.32,21.47,100.27,21.67,103.22Zm17,37-16.91-1.44c-.11,4-.79,7.94-.19,11.8l17.1-.52Zm.76-12.76c-1.64.95-1.81,1.37-1,2.41C38.87,128.94,39.18,128.19,39.48,127.43Zm.71-45.3c0-2.19,0-4.35,0-6.51,0-.08-.27-.15-.61-.34.44,1.26-.27,1.47-1.06,1.48a22.57,22.57,0,0,1-2.85-.12c-1.21-.13-2.41-.34-3.92-.55,0,1.55,0,2.9,0,4.25,0,1.68,0,1.69,1.61,1.72.77,0,1.54.07,2.31.07C37.11,82.14,38.59,82.13,40.19,82.13Zm-5.7-7c-1.84-.51-1.84-.51-2.81-.09C32.63,75.62,33.44,75.17,34.49,75.11Zm5.77-7.23H31.6c0,1.43,0,2.77,0,4.11,0,.79.39,1.1,1.18,1.12,2,0,4,.12,6,.19l1.49.07ZM441.46,9.11l-2.28,3.35c1.3,0,2.44.59,3.16-.63S442,10.14,441.46,9.11Zm-1.78-2L436,12.34c1.07.13,1.95.47,2.6-.32.87-1.08,1.65-2.24,2.53-3.46Zm-3-.53c-.7.89-1.35,1.82-2,2.73l-2.35,3.15c1.09,0,1.94.3,2.54-.44,1.41-1.75,2.75-3.56,4.1-5.33C437.77,5.56,437.48,5.54,436.68,6.57Zm-3.59.11c-1.12,1.59-2.27,3.17-3.39,4.76a9,9,0,0,0-.48.86l.21.34c.65-.2,1.52-.21,1.9-.64,1.72-2,3.3-4.06,5.05-6.26C434.33,5.25,434,5.38,433.09,6.68Zm-3.57,0c-1,1.62-2.1,3.18-3.15,4.77a7.74,7.74,0,0,0-.43,1,2.43,2.43,0,0,0,2.19-.77c.44-.51.92-1,1.34-1.54,1.12-1.41,2.21-2.83,3.45-4.42C431.24,5.23,430.26,5.5,429.52,6.71Zm-4.2.45c-.95,1.38-1.93,2.74-2.88,4.11-.22.32-.4.66-.62,1,2.19.57,2.82.37,3.93-1.19q1.42-2,2.83-4c.33-.45.65-.91,1-1.43C427.11,5.13,426.56,5.35,425.32,7.16Zm-1.78-1c-1.68,1.94-3.23,4-5,6.19,1.32.42,2.18.27,2.86-.71,1.18-1.66,2.42-3.28,3.61-4.94a4.64,4.64,0,0,0,.45-.89l-.21-.31C424.69,5.68,423.89,5.71,423.54,6.13Zm-4.44,1c-.69,1-1.45,2-2.17,3a2,2,0,0,0-.06,2.45c1.16-.39,5.32-5.24,5.78-6.7A3.1,3.1,0,0,0,419.1,7.08Zm-2.67,2.65,2.93-3.63-.15-.33c-1.22.28-2.64-.5-3.64.9C415,7.4,415.36,8.51,416.43,9.73Zm-3.5.68-1.34,1.9.15.31,2-.12c-.21-.86-.37-1.46-.52-2.06Zm-1-3.53-3.85,5.61c2.16.29,2.27.25,3.3-1.09l.66-.87C413.12,9.11,413.12,8.65,411.93,6.88ZM405,7.19a51.48,51.48,0,0,0-3.43,5.32,1.89,1.89,0,0,0,2.43-.74c1.09-1.45,2.25-2.85,3.38-4.27l-3.35,5c2,.45,3.4.12,4.35-1.63A45.72,45.72,0,0,1,411,7.08a7.92,7.92,0,0,0,.5-1c-1.56-.24-2.84-.13-3.87,1,.08-.26.17-.52.26-.8C406.35,6,406.14,6,405,7.19Zm-3,.22c-1,1.43-2.08,2.75-3.12,4.13-.23.3-.4.64-.64,1,2.44.41,2.49.33,3.7-1.44.92-1.36,2-2.62,3-3.92v0c0-.3.09-.6.14-.93A2.52,2.52,0,0,0,402.07,7.41ZM399.73,7c-1.24,1.56-2.51,3.1-3.76,4.65a9.72,9.72,0,0,0-.55.92c1.51.3,1.65.25,2.44-.74q1.47-1.86,2.93-3.75c.4-.52.77-1.07,1.23-1.72A1.85,1.85,0,0,0,399.73,7Zm-4-.11c-1.4,1.78-2.76,3.59-4.12,5.4-.06.08,0,.25,0,.41a3.1,3.1,0,0,0,3.66-1.29c1-1.38,2.12-2.59,3.19-3.89.27-.33.51-.69.77-1L399,6.23C397.91,6.32,396.64,5.76,395.75,6.9ZM392,7.38c-1.19,1.48-2.4,3-3.58,4.45a7.44,7.44,0,0,0-.52.85c0,.1.11.2.16.31.71-.17,1.68-.1,2.09-.54,1.72-1.85,3.27-3.85,5-6C393.15,6.14,392.93,6.22,392,7.38Zm-3-.52c-1.47,1.87-2.87,3.81-4.4,5.86A1.9,1.9,0,0,0,387,12.1c1.27-1.54,2.58-3,3.85-4.57a10.2,10.2,0,0,0,.66-1C390.08,6.22,389.48,6.23,389,6.86Zm-4.16.79c-1.09,1.4-2.22,2.77-3.32,4.16-.23.3-.42.63-.69,1,1.57.34,2.72.19,3.58-1.17.75-1.19,1.69-2.25,2.54-3.38.4-.52.78-1.06,1.21-1.65C386.16,6.23,385.83,6.36,384.83,7.65Zm-2.51-.72c-1.65,1.83-3.13,3.82-4.71,5.78a2.28,2.28,0,0,0,3-1c1-1.33,2.13-2.58,3.19-3.87.29-.37.52-.78.78-1.17-.07-.12-.14-.24-.22-.36C383.68,6.54,382.72,6.49,382.32,6.93Zm-4.82.86c-1,1.47-2.15,2.79-3.22,4.18a11.5,11.5,0,0,0-.65,1c1.6.33,2.72.08,3.62-1.19s2.08-2.61,3.13-3.91c.3-.37.58-.75,1-1.28C379.68,6.32,378.45,6.34,377.5,7.79Zm-2.62-.37c-.84,1.07-1.68,2.13-2.53,3.19l-1.75,2.17.18.38c.56-.13,1.31-.08,1.62-.43C374,11,375.49,9.07,377,7.21c.1-.12.09-.32.14-.52A1.75,1.75,0,0,0,374.88,7.42ZM372.3,7.1c-1.57,1.86-3,3.83-4.6,5.88a1.52,1.52,0,0,0,2-.55c1.23-1.51,2.5-3,3.74-4.49.3-.36.54-.76.81-1.13L374,6.43C373.45,6.64,372.65,6.68,372.3,7.1Zm-3.69.58c-1.14,1.52-2.32,3-3.47,4.54a7.38,7.38,0,0,0-.54.9,2.18,2.18,0,0,0,2.64-.84c.43-.58.92-1.12,1.37-1.69,1-1.19,1.9-2.39,3-3.75C369.71,6.47,369.44,6.58,368.61,7.68Zm-3.22,0c-1.17,1.55-2.41,3-3.61,4.57a5.87,5.87,0,0,0-.46.84,2.25,2.25,0,0,0,2.72-.74c1.14-1.45,2.35-2.86,3.51-4.3a11.59,11.59,0,0,0,.77-1.24A2.39,2.39,0,0,0,365.39,7.72Zm-2.79,0c-1.19,1.53-2.43,3-3.63,4.56a5.88,5.88,0,0,0-.49.85l.2.3c.56-.17,1.32-.17,1.66-.54C362,11,363.6,9,365.35,6.92A2.19,2.19,0,0,0,362.6,7.7Zm-3.45.18c-1.08,1.46-2.3,2.82-3.44,4.23-.27.33-.5.69-.79,1.09,1.78.41,2.22.3,3.14-.79q1.95-2.28,3.87-4.59a8.07,8.07,0,0,0,.57-.93A2.76,2.76,0,0,0,359.15,7.88ZM351.83,8c-1.07,1.41-2.28,2.7-3.41,4.06-.32.39-.59.84-1,1.35a3.09,3.09,0,0,0,3.66-1.08c1.22-1.63,2.6-3.14,3.92-4.69l.17.14-4.37,5.63c1.72.23,2.93.27,3.91-1.08s2.24-2.62,3.37-3.92c.37-.43.73-.87,1.1-1.31-.06-.13-.12-.26-.17-.39-1.43,0-2.87.06-4.29,0A3.15,3.15,0,0,0,351.83,8Zm-3.18-.44c-1.36,1.75-2.75,3.47-4.11,5.22a3.32,3.32,0,0,0-.33.73,2.88,2.88,0,0,0,3.29-1.09c1.21-1.51,2.59-2.9,3.88-4.34.29-.32.54-.68,1-1.27C350.81,6.7,349.58,6.31,348.65,7.52Zm-4.74.8c-1,1.47-2.24,2.74-3.35,4.11-.26.32-.45.69-.73,1.11,2.53.37,2.85.25,4.23-1.4.79-.94,1.59-1.87,2.37-2.81.63-.75,1.25-1.52,2-2.48C346.43,6.47,345,6.67,343.91,8.32Zm-3.52-1c-1.65,1.9-3.1,4-4.64,6,.07.11.14.22.22.33,1.36.14,2.62.22,3.65-1.18,1.14-1.57,2.53-3,3.8-4.43.27-.33.51-.69,1-1.32C342.8,6.85,341.37,6.23,340.39,7.36Zm-4.6.88c-.94,1.44-2.13,2.71-3.2,4.06-.29.38-.56.78-.94,1.31,1.9.48,3.13.07,4.12-1.39s2.3-2.91,3.46-4.37c.21-.27.35-.58.58-.95C338.08,6.54,336.79,6.71,335.79,8.24Zm-3.25-.15c-1.16,1.45-2.28,2.93-3.4,4.42a10.72,10.72,0,0,0-.7,1.14,2.39,2.39,0,0,0,3-.92c1.2-1.59,2.53-3.08,3.79-4.63.28-.33.52-.69.9-1.2C333.9,6.62,333.64,6.7,332.54,8.09Zm-5.15,1.65c-1.08,1.24-.46,2.6-.39,3.91l.35.14L332.58,7C329.61,6,328.71,8.23,327.39,9.74Zm-.95-.43h.37l2-2.41c-1.18-.1-2.24-.58-2.78.26C325.78,7.62,326.29,8.58,326.44,9.31ZM324.08,9l-3.78,4.93c1.49.08,2.55.34,3.44-.77A3.57,3.57,0,0,0,324.08,9Zm-2.51-1.53c-1.09,1.34-2.15,2.69-3.22,4l-2,2.5c1.92.35,3.23.15,4.22-1.35.84-1.27,1.9-2.41,2.85-3.62.62-.79.63-1.76,0-2.16C322.6,6.36,322,6.9,321.57,7.48Zm-4.32-.09c-1.79,2.1-3.39,4.36-5.05,6.55,0,.05,0,.17.05.31,1.72.27,3.24.2,4.34-1.54a29.56,29.56,0,0,1,2.58-3.15l2.07-2.48c-.06-.12-.12-.24-.17-.37C319.78,6.9,318.25,6.22,317.25,7.39Zm-3.55.33c-1.69,1.94-3.35,3.92-5,5.89a3,3,0,0,0-.3.64c1.52.33,2.72.25,3.6-1.17a30.65,30.65,0,0,1,2.22-2.91c.8-1,1.64-2,2.58-3.16C315,6.73,314.47,6.82,313.7,7.72Zm-12.3,1c-1.33,1.66-2.81,3.21-4.21,4.81a11.8,11.8,0,0,0-.67,1c2.56.4,3.1.23,4.65-1.4,1.16-1.22,2.3-2.45,3.44-3.68l-3.8,5c1.83.19,3.45.42,4.51-1.31a4.23,4.23,0,0,1,.66-.68l-.93,1.84a2.53,2.53,0,0,0,3-.77c1.42-1.76,3-3.44,4.42-5.16.3-.35.56-.75.91-1.23-1.45-.25-2.59-.25-3.48.78.23-.57,0-.82-.58-.84-1.53,0-3,.08-3.9,1.55.19-.42.38-.84.61-1.38C304.1,7,302.59,7.2,301.4,8.68Zm-8.95,6.11a4.11,4.11,0,0,0,4.66-1.87,9.53,9.53,0,0,1,1.09-1.21q1.74-1.87,3.46-3.77l-.18-.22c-.13,0-.29,0-.38,0-2.85,2-5.71,4-8.52,6C292.38,13.94,292.48,14.49,292.45,14.79Zm-2.09-.7.15.38,1.8-.69-.24-.45ZM272.3,19.5c2.12,3.17,3.59,6.31,3.62,9.9.49.05.76.1,1,.1q18.68-.3,37.35-.62,10.44-.19,20.86-.47c5.22-.14,10.44-.42,15.67-.48,8.49-.11,17,0,25.49-.13,15.45-.26,30.89-.65,46.34-1,6.86-.15,13.72-.26,20.58-.4.36,0,.71-.05,1.13-.08V19c0-1.59-.05-1.65-1.71-1.64l-12.39,0-15.95.12q-38.68.32-77.38.63c-9.08.07-18.17.24-27.26.28-8.08.05-16.17-.29-24.24.55-3.78.4-7.62.25-11.44.36C273.52,19.35,273.06,19.42,272.3,19.5Zm-21.15-5.63.85.28.15-.51a5.84,5.84,0,0,0-.82-.22S251.21,13.71,251.15,13.87Zm-2-2.86-1.8,3.11c2.18.38,2.87.13,3.29-1.07C250.93,12.24,250.6,11.75,249.16,11Zm-2.83.13c-.58.95-1.08,1.95-1.61,2.93l.24.36c.5-.16,1.19-.16,1.46-.5.78-1,1.38-2.07,2.23-3.39C247.53,10.49,246.77,10.42,246.33,11.14Zm-2.88,0a24.89,24.89,0,0,0-1.91,3c.1.12.19.25.28.38.59-.19,1.37-.22,1.72-.62a20.07,20.07,0,0,0,1.75-2.81l-.19-.33C244.53,10.9,243.74,10.83,243.45,11.17Zm-3.09.19c-.61.88-1.11,1.82-1.75,2.88,1.75.31,3-.93,3.57-3.19C241,10.8,240.76,10.79,240.36,11.36Zm-3.54.05c-.62.87-1.15,1.81-1.8,2.84,2.24.54,3.58-.58,4.15-3.18C237.73,10.76,237.27,10.78,236.82,11.41Zm-2.59-.08a22.56,22.56,0,0,0-1.8,2.87c1.5.32,2.79-.91,3.58-3.4C235.3,11,234.54,11,234.23,11.33Zm-3.84,2.9c1.26.19,2.21-.77,3.07-3.18C232,10.9,230.67,12.29,230.39,14.23Zm-2.4-.08c1.26.22,2.34-.83,3.09-3.09C229.68,10.91,228.55,12.08,228,14.15Zm-1.19-2.81a20.62,20.62,0,0,0-1.66,2.78c1.55.15,2.74-1.11,3.4-3.41C227.84,11,227.11,11,226.8,11.34Zm-2.1-.21c-.7.89-1.26,1.9-1.92,2.93,1.51.3,2.69-.93,3.3-3.32C225.54,10.88,224.93,10.85,224.7,11.13Zm-2.93.11c-.57.9-1,1.86-1.64,3,1.49.07,2.79-1.32,3.39-3.27C222.44,10.62,222.15,10.62,221.77,11.24Zm-3.27,3c1.57-.6,1.89-2.12,2.5-3.43A6.63,6.63,0,0,0,218.5,14.26Zm-.34-3.21c-.72,1-1.31,2-2,3.07l.36.32c1.56-.69,2.05-2.31,2.9-3.71C218.94,10.72,218.37,10.76,218.16,11.05Zm-4,3.25c1.12-.14,2.63-2.16,2.86-3.75C215.31,11.3,215.18,13,214.2,14.3Zm-1.9,5.75a23.7,23.7,0,0,1,2.88,11.24c.62,0,1.2.1,1.78.08,9.85-.37,19.7-.79,29.56-1.1,8.76-.29,17.53-.46,26.29-.69.62,0,1.23-.08,1.86-.13a7.44,7.44,0,0,0,.11-.81c-.08-3.2-1.44-6-3-8.63a1.69,1.69,0,0,0-1.27-.55c-5.18,0-10.36-.08-15.54,0-7.86.09-15.72.28-23.58.38-5.85.07-11.71.06-17.57.09C213.34,19.91,212.91,20,212.3,20.05ZM177,20.81a15.73,15.73,0,0,0,1.66,2.55c1.42,1.51,3.07,2.82,4.46,4.37a6.67,6.67,0,0,0,4.69,2.11c8.23.77,16.47,1.37,24.73,1.46h1.49c-.28-1.47-.44-2.77-.78-4-.56-2-1.22-4-1.88-5.95a1.72,1.72,0,0,0-2-1.24c-1.81.14-3.63.11-5.45.18-7.21.28-14.42.7-21.64.19-1.66-.12-3.34,0-5,0ZM148.7,9a13.34,13.34,0,0,1,2,7.43h17.65a4,4,0,0,0-.06-.54,1.92,1.92,0,0,0-.29-.45c-2.31-2.42-4.79-4.76-8.14-5.43-3.54-.7-7.17-.87-10.77-1.27C149,8.75,148.93,8.85,148.7,9ZM99.81,9l1.52,7.6h48.89c-.52-2.19-.92-4.09-1.44-6a2.62,2.62,0,0,0-2.93-2c-15,.12-30.08.18-45.11.27A5.33,5.33,0,0,0,99.81,9Zm8.18,92.2c0-.13-.11-.26-.17-.39-.91.13-2.13-.05-2.68.47a28.09,28.09,0,0,0-3,3.9l.22.35c.75,0,1.51,0,2.26,0a1.37,1.37,0,0,0,.92-.42C106.41,103.77,107.19,102.45,108,101.15Zm-2.27,8.54-1.17,1.65.32.24c.39-.56.79-1.11,1.19-1.66Zm-5.15-4.27a1,1,0,0,0,.73-.25c.89-1.28,1.73-2.6,2.59-3.91l-.18-.36-4.37.4c-.53-.56-3-.53-4.32.31-.53-.68-3-.94-3.52-.36a.91.91,0,0,0-.22.49c0,1.16,0,2.32,0,3.71h2.5Zm-3.7,4.12c-.6.94-1.19,1.88-1.78,2.82l.22.15,1.94-2.68ZM90.51,76a12,12,0,0,1,1.95-2l1-2c-1.42.14-2.87-.15-3.54.45a34.29,34.29,0,0,0-3.78,4.64C88,77.62,89.44,77.6,90.51,76ZM86.6,80.26c-.53,0-1.06-.1-1.59-.13-1.22-.06-1.92.53-1.89,1.71,0,.43.23,1.08.53,1.22A1.51,1.51,0,0,0,85,82.75a20.79,20.79,0,0,0,1.81-2.15Zm2.76-8c-1.25-.32-2.13-.45-2.91.69-1.06,1.54-2.34,2.94-3.64,4.54,1.38.29,2.33.22,3-.8.39-.56.84-1.07,1.27-1.6Zm-3-.29-3.94-.23v5.29A24.6,24.6,0,0,0,86.38,72ZM82.46,89.81c2.37-.06,3.13-.59,3.33-2.27C83.52,87.2,82.52,87.86,82.46,89.81Zm4.79,2.42c-1-.06-1.74-.13-2.44-.15-1.19,0-1.79.27-1.92,1.42a30.74,30.74,0,0,0,0,4.07l.52.14C84.65,96,85.86,94.24,87.25,92.23ZM84,97.58c1.38,0,2.45,0,3.52,0,.24,0,.65-.34.65-.53.06-1.51,0-3,0-4.53l-.32-.15A53.44,53.44,0,0,0,84,97.58Zm-1.24,7.66h5.45c0-1.28,0-2.49,0-3.69,0-.23-.69-.67-.8-.61-.8.52-1.48-.11-2.21-.13s-1.31,0-2,0C83,102.32,82.84,103.65,82.71,105.24Zm5.5-15.83V87.62c-1.42-.27-2,.23-2.37,1.9Zm2.84-8.76a3.56,3.56,0,0,0-5.2,2.43C88.78,83.67,89.65,83.26,91.05,80.65Zm-.71,2.42c3.29.69,5.06-.09,6.1-2.7C93.15,79.59,90.93,80.57,90.34,83.07ZM91,89.38c1.53-.24,3.17.46,4.49-.89.13.25.27.7.4.7,1.46,0,3,.37,4.3-.61.25-.49.5-1,.88-1.7-2,.36-4-.24-5.38,1.42-.16-.3-.3-.84-.48-.85a16,16,0,0,0-3.25.06C91.09,87.64,90.62,88.25,91,89.38ZM105,86.76c-1.72-.25-3.25-.29-4.31,1.31a2.77,2.77,0,0,1-.56.51c.88,1.13,2.09.53,3.08.4S104.73,87.82,105,86.76Zm-.37,2.11h5.4c.3-1.9.15-2.1-1.41-2.19-.49,0-1,0-1.49,0C105.62,86.67,105,87.21,104.67,88.87Zm-13.4,8.46a2.71,2.71,0,0,0,3.13-.71c0,.25.07.72.09.72,1.1,0,2.56.3,3.21-.27a31,31,0,0,0,3.55-4.51l-.22-.29c-1.61,0-3.36-.62-4.45,1.35a3.06,3.06,0,0,1-.46.5l.9-1.9c-1.15,0-2,0-2.85,0a2.79,2.79,0,0,0-2.87,2.35A15.89,15.89,0,0,0,91.27,97.33Zm15,8.14a13.71,13.71,0,0,0,2.23.12c.31,0,.81-.38.84-.63.15-1.32.19-2.65.26-4l-.57-.18Zm3.63-9.12a27.94,27.94,0,0,0,.34-4.13c-2.71,0-5.18,0-7.64,0a1,1,0,0,0-.72.34c-1.15,1.49-2.27,3-3.4,4.51l.26.48c1.28-.14,2.55-.29,3.83-.42a2.52,2.52,0,0,1,.82.08,3.67,3.67,0,0,0,4.14-1.37c.6-.79,1.26-1.52,1.89-2.28l.35.27L107.66,97C108.69,97.17,109.66,97.34,109.89,96.35Zm.43-13.81c-.06-1-.11-1.81-.18-2.87a27.36,27.36,0,0,1-3.11.43c-2.56.05-5.12,0-7.67,0-2.06,0-3.18.88-4,3.18,1.67-.24,3.31.12,4.89-.88.11.14.22.4.32.39A95.79,95.79,0,0,1,110.32,82.54Zm.13-6.84a6.8,6.8,0,0,0,0-3.69c-2.07.16-4,.28-6,.51-.43,0-.83.48-1.24.74.18-.65-.2-.79-.73-.8-.94,0-1.89,0-2.84,0a3.15,3.15,0,0,0-2.49.81c.36-.63,0-.77-.54-.85-1.73-.24-3.23,0-4.19,1.67l0,0-2.3,3,.24.3c1.61-.32,3.44.22,4.72-1.38-.11.58,0,1,.74.91s1.69-.14,2.54-.14a3.32,3.32,0,0,0,2.63-1.11c-.4.84.11,1,.75.91,1.21-.08,2.42-.21,3.63-.25s2.72,0,4.07,0C109.85,76.25,110.39,76,110.45,75.7Zm.35-9.14c0-1.31.09-2.63.08-3.94,0-9.49-.08-19-.2-28.47-.05-4.35-.29-8.7-.46-13.28h-2c-3.36.05-6.72.12-10.08.16-5.45.07-10.9.09-16.35.19-1.6,0-1.66.24-1.54,1.79.47,6.56,1.2,13.08.91,19.7-.32,7.43-.14,14.89-.34,22.33a3.9,3.9,0,0,0,3.9,3.78c4.81-.17,9.63-.08,14.43-.25,3.48-.12,7-.52,10.43-.74C110.54,67.79,110.8,67.39,110.8,66.56ZM67.61,17.44l32.47-.57c-.44-2.32-.72-4.34-1.21-6.31-.42-1.69-.63-1.75-2.39-1.75l-20.56,0a9.94,9.94,0,0,0-1.21.13,34.88,34.88,0,0,1-3.92.46,2.78,2.78,0,0,0-2.73,1.87C67.26,13.18,67.43,15.21,67.61,17.44Zm-.7,13.37c1.63-3.66,4.87-5.84,7.55-8.45-.13-.19-.15-.25-.18-.25a10.49,10.49,0,0,1-1.48-.18c-2-.56-3,.18-4,2-2.32,3.89-5,7.53-7.61,11.28-.33.48-.65,1-1.06,1.59a2.46,2.46,0,0,0,.61.18c5.07-.23,10.15-.44,15.22-.71,1.33-.08,1.37-.21,1.42-1.62q.2-5.71.38-11.43c0-.35,0-.7-.07-1a3,3,0,0,0-3.29,1.12c-2,2.36-4.27,4.56-6.44,6.81A6.81,6.81,0,0,1,66.91,30.81ZM53.09,38c1.75.43,2.35.26,2.81-.55a30.12,30.12,0,0,1,2.32-3.82c2.73-3.5,5.55-6.94,8.33-10.4.38-.47.7-1,1.09-1.54-1.7-.4-1.84-.4-2.75.77q-5.82,7.52-11.61,15.07A2.11,2.11,0,0,0,53.09,38ZM42.24,43.3c.49,6.28,1.49,12.51,1.06,18.88-.38,5.65-.21,11.35-.26,17,0,1,.06,2,.09,3h1.14c3.72,0,7.44-.12,11.16,0,7.31.25,14.61.62,21.92.93A16.27,16.27,0,0,0,79.12,83a13.17,13.17,0,0,0,.14-1.75c-.09-1.62-.29-3.23-.34-4.85-.15-4.68-.31-9.36-.36-14-.06-6.81,0-13.62,0-20.44V40.74c-.69,0-1.18.13-1.67.12-7.82-.13-15.63-.32-23.45-.4-2.85,0-5.71.18-8.56.3a4,4,0,0,0-1.32.32C42.35,41.56,42.14,42,42.24,43.3ZM63.15,87.05a5.14,5.14,0,0,0-.11.7l.27,15.65c0,1.39.1,1.47,1.47,1.5l12.65.22a8.35,8.35,0,0,0,1.09-.11c.12-5.88.23-11.61.34-17.36ZM43.28,106.24l.79-.16a38.3,38.3,0,0,1,4.91-1c3.21-.22,6.43-.21,9.65-.31.48,0,.95-.09,1.48-.15,0-.41,0-.68,0-.94-.12-2.72-.29-5.44-.37-8.16-.06-2.54,0-5.08,0-7.62,0-.8-.23-1.26-1.14-1.32-5-.33-10-.7-15.07-1a15.34,15.34,0,0,0-1.58.07C43.15,92.6,42.49,99.43,43.28,106.24Zm.31,21.62,5.56-6.72c-1.67-.6-1.95-.56-2.78.5s-1.67,2.25-2.47,3.4A3,3,0,0,0,43.59,127.86Zm2-7.23a2.64,2.64,0,0,0-2.09,2.3Zm4.48-3c1.8-2.56,3.64-5.09,5.45-7.63.24-.34.41-.72.65-1.14-2.17-.32-2.21-.24-3.14,1.31-1.39,2.33-2.88,4.6-4.33,6.9-.23.37-.47.73-.75,1.17A1.66,1.66,0,0,0,50.1,117.59Zm-.28,5.5.25.18,1.67-2C50.53,121.4,50.37,122.41,49.82,123.09Zm3.51-5.63c1.71-2.51,3.44-5,5.15-7.52.23-.32.42-.67.67-1.08-1.07-.44-1.48.2-1.91.85-1.51,2.32-3,4.63-4.56,6.94l-1,1.43C52.69,118.48,53,118,53.33,117.46Zm-9.8-4.95,2.3-3.44C43.9,109.45,43.23,110.52,43.53,112.51Zm-.1,5.72h2.93c.74-1.23,1.37-2.38,2.1-3.46,1.06-1.58,2.2-3.11,3.29-4.67.26-.38.46-.8.72-1.25a1.93,1.93,0,0,0-2.66.91c-1.26,2.1-2.69,4.1-4.08,6.11a11.69,11.69,0,0,1-1.21,1.23l-.34-.28c.65-3.25,3.37-5.28,5-8-1.42-.47-1.58-.42-2.21.57-1,1.57-2,3.16-3,4.68A5,5,0,0,0,43.43,118.23Zm12,3.27c-1.24-.53-1.74.12-2.24.81q-4.57,6.27-9.14,12.56a12.77,12.77,0,0,0-.78,1.54h2c.36-3.25,2.43-5.51,4.25-7.86S53.42,123.92,55.47,121.5Zm7.29-11.76c.18-.28.33-.59.51-.92-1.86-.33-2-.27-2.89,1.18l-4.12,6.56c-.31.49-.64,1-1.09,1.65,1.19.22,1.87.16,2.46-.77C59.28,114.83,61,112.3,62.76,109.74Zm3.18,0a8.46,8.46,0,0,0,.5-.9,1.9,1.9,0,0,0-2.57,1c-1.36,2.24-2.81,4.44-4.22,6.66L58.72,118a1.62,1.62,0,0,0,2.16-.71C62.53,114.79,64.25,112.29,65.94,109.76Zm3.78.27c.23-.32.43-.66.73-1.12-2-.31-2.15-.27-3,1.13q-2.23,3.57-4.45,7.15c-.15.25-.25.55-.39.85a1.24,1.24,0,0,0,1.79-.49C66.13,115,67.94,112.53,69.72,110Zm2.7-.23c.16-.25.29-.52.47-.85-.89-.28-1.26.21-1.63.75l-5.09,7.38c-.2.29-.35.61-.6,1,1,.34,1.41-.12,1.81-.74C69,114.85,70.74,112.33,72.42,109.8Zm3.7.51c.25-.36.47-.74.72-1.14-2.06-.62-2.59-.43-3.59,1.16-1.42,2.27-2.85,4.53-4.28,6.8-.19.32-.34.67-.53,1.05,2,.39,2,.32,3-1.15C73,114.77,74.58,112.55,76.12,110.31Zm3.16.11c.24-.36.47-.73.79-1.23a1.67,1.67,0,0,0-2.28.74c-1.58,2.5-3.19,5-4.77,7.46a6.86,6.86,0,0,0-.34.76,1.4,1.4,0,0,0,2-.65C76.16,115.12,77.73,112.78,79.28,110.42Zm3.93-1.1c-1.43-.28-1.57-.25-2.18.74-1.24,2-2.45,4-3.68,6.06-.39.65-.8,1.29-1.36,2.19.53,0,.87.12.93,0C79,115.37,81.09,112.37,83.21,109.32Zm2.61,1.16c.21-.32.39-.67.6-1a1.6,1.6,0,0,0-2.26.75c-1.56,2.49-3.16,5-4.74,7.43a4.77,4.77,0,0,0-.31.83,1.54,1.54,0,0,0,2.11-.77C82.71,115.25,84.29,112.88,85.82,110.48Zm5-1c-1.11-.21-1.86-.35-2.33.41-1.29,2.11-2.55,4.25-3.82,6.37l.32.24C86.92,114.27,88.8,112,90.86,109.51Zm3,1.13c.2-.32.36-.67.56-1-1.64-.37-1.82-.31-2.57.93q-2.27,3.72-4.51,7.45a3.89,3.89,0,0,0-.27.66A1.49,1.49,0,0,0,89.2,118C90.73,115.5,92.33,113.08,93.9,110.64Zm6.85-.36a4.65,4.65,0,0,0,.3-.63,1.41,1.41,0,0,0-1.9.62l-5.41,8a1.39,1.39,0,0,0-.1.39c.73.46,1.17.12,1.58-.47C97.05,115.53,98.91,112.91,100.75,110.28Zm3.27-.44-.45-.3c-2.43,2.8-4.21,6.07-6.45,9l.45.4c1.41-1.19,2.12-3,3.21-4.4S102.94,111.41,104,109.84Zm5,.11c-1.06-.39-1.42.18-1.76.71q-2.28,3.54-4.53,7.1a6.19,6.19,0,0,0-.38,1l.32.2Zm1.57,1.19c.19-.29.35-.61.53-.91l-.4-.28q-2.79,4.39-5.6,8.77l.31.2Zm3.36-.88-.33-.26c-1.45,1.1-1.89,2.92-2.88,4.35s-1.95,3-2.92,4.43l.29.18Zm5.34-4.34c-.08-1.11-.19-2.18-.22-3.27-.13-3.85-.21-7.7-.34-11.56,0-.47-.07-1.17-.36-1.36A15,15,0,0,0,113,87.62c.12,6.15.23,12.1.35,18.3Zm-.87,4.24c-1.14,1.19-1.66,2.8-2.57,4.15l.25.15,2.79-4Zm-1.68.24-.41-.33c-1.31,1.18-1.92,2.85-2.9,4.26l.23.17C114.66,113.14,115.68,111.77,116.71,110.4Zm4.81,0c-.91-.37-1.28.19-1.66.78l-4.71,7.29c-.05.09,0,.22-.05.67Zm20.66-3.6-21-15.06a55.4,55.4,0,0,1,1,14.57Zm-6,3.76c-1.07.9-1.48,2.3-2.31,3.4l.23.22,2.52-3.3Zm-12.1-.08c-.93-.37-1.33.12-1.69.68q-2.36,3.65-4.71,7.32a1.49,1.49,0,0,0-.09.44l.24.12Zm2,.22-.38-.34c-1.16.44-1.34,1.73-2,2.62s-1.2,2-1.82,3-1.2,1.89-1.8,2.84l.37.22Q123.24,114.91,126,110.73Zm2.92-.1a1.49,1.49,0,0,0-1.87,1q-1.68,2.94-3.39,5.88c-.31.53-.67,1-1,1.56l.3.19Zm.07,7.43-.26-.18-1.05,1.35.37.27Zm2.39-7.33c-.38-.08-.75-.1-.85.06-1.85,2.75-3.67,5.53-5.5,8.3l.35.25C127.38,116.45,129.71,113.82,131.42,110.73Zm2.51.17-.44-.28-1.34,2.32.25.16Zm5.85-.06c-.82-.31-1.11.28-1.46.82-1.42,2.2-2.87,4.4-4.31,6.6-.29.43-.57.87-.86,1.31l.25.18C134.18,119.36,139.35,112.16,139.78,110.84Zm4,.39c-1.2-.58-1.82-.33-2.36.58-1.46,2.46-3,4.88-4.46,7.32a6.85,6.85,0,0,0-.33.89c.48-.11.89-.08,1-.26C139.66,117,141.67,114.14,143.74,111.23Zm-.5,13.1c-.69.3-3.76,4.31-4.56,6C140.2,129.4,143.14,125.56,143.24,124.33Zm6.54-12.91a1.32,1.32,0,0,0-2,.52c-1.5,2.42-3,4.84-4.5,7.27a2.74,2.74,0,0,0-.22.83l.27.14Zm-5.33,2.22,1.72-2.28-.32-.24c-1,.41-1.12,1.57-1.65,2.37Zm5.22,1.22.26.18,2.65-3.47-.45-.31C151,112.27,150.53,113.69,149.67,114.86Zm6.19-3.26c-.78-.4-1.25,0-1.67.6-1.66,2.44-3.34,4.86-5,7.3a7,7,0,0,0-.46,1C149.64,120.18,155.28,113,155.86,111.6Zm4.31.37c-1.69-.51-2-.44-2.76.74q-2.41,3.54-4.78,7.11a3.47,3.47,0,0,0-.26.73c1.6.3,1.63.28,2.41-.93.49-.76,1-1.51,1.53-2.25Zm3.72.15a1.55,1.55,0,0,0-2.17.75c-1.49,2.44-3,4.86-4.49,7.29-.07.11,0,.29,0,.43l.23.1Zm3.89,4.58c.59-.91.3-1.51-.77-2.08l-4.14,6.24c1.14.41,2,.38,2.62-.61C166.24,119.06,167,117.87,167.78,116.7Zm-2.93-2.41c.26-.36.52-.71.79-1.06l-.27-.2-.78,1Zm4.78,3.09L167.37,121c1.95.43,2.12.3,3.11-1.6C171,118.44,170.48,118,169.63,117.38Zm3.32,3.48-1.22-1.15-.81,1.58,2-.12Zm3.09,7.56,1.63-1.8-.4-.33-1.47,1.89Zm1.11,2.16,2-2.22-.22-.18C178,128.63,177.62,129.65,177.15,130.58Zm1,3.3c.61-1.07,1.3-2.09,1.92-3.14a4.9,4.9,0,0,0,.34-.92,12.68,12.68,0,0,0-3.94,4.69A1.29,1.29,0,0,0,178.15,133.88Zm5,.07-1.89-2.66-1.81,3H183ZM255,147.51c-.55-.75-1.14-1.47-1.63-2.26a2.38,2.38,0,0,0-2.13-1.17c-4.31-.19-8.61-.46-12.92-.66a1.43,1.43,0,0,0-1.12.44c-.85,1.33-1.6,2.73-2.57,4.44l20.19-.44Zm59.84-33.22a1.67,1.67,0,0,0,.07-.52c-.52,0-1-.1-1.48-.1-21.4-.18-42.8-.52-64.21-.48-13.45,0-26.9.15-40.34-.59-10-.55-20.05-1-30.1-1a52.79,52.79,0,0,1-6.22-.68c-.41,0-.81-.13-1.38-.23a3.14,3.14,0,0,0,.29.61c3.19,3.73,6.37,7.46,9.6,11.15a1.71,1.71,0,0,0,1.19.46c5.72-.06,11.44-.2,17.16-.23q31.37-.17,62.71-.26,22.83-.06,45.67,0a7.89,7.89,0,0,1,1.18.18c-.54,1-.55,1.06-1.78,1.12-4.08.21-8.16.44-12.25.48-12.31.14-24.63.27-36.94.26-17.32,0-34.63-.15-51.94-.26-6,0-12.09-.07-18.13-.22-2,0-3.94-.42-6.11-.67.29.42.49.75.71,1,.85,1.13,1.71,2.24,2.56,3.37,4.78,6.4,9.54,12.82,14.35,19.21a3.22,3.22,0,0,0,3.66,1.42,11.42,11.42,0,0,1,3-.14c6.22.1,12.44.23,18.66.31,1.73,0,3.46,0,5.18-.15a2.11,2.11,0,0,0,1.33-.69c1.52-1.8,2.93-3.69,4.47-5.48a2.42,2.42,0,0,1,1.54-.6c.94-.07,1.9.09,2.84.08,3.36,0,6.73-.1,10.09-.15,1.44,0,2.84.07,3.52,1.7.11.26.49.4.71.63a20.11,20.11,0,0,1,2.31,2.49,2.91,2.91,0,0,0,2.83,1.37c11-.24,21.9-.41,32.85-.61,1.14,0,2.27-.13,3.41-.15a1.77,1.77,0,0,0,1.68-1.13c1.51-2.95,3-5.92,4.61-8.82C306.29,129.42,310.55,121.86,314.79,114.29Zm5.4.31-.24-.31c-.35.13-.91.15-1,.4-1,1.88-1.87,3.81-2.8,5.72l.4.36c.21-.19.58-.35.61-.55.2-1.73,1.36-3,2.24-4.3C319.65,115.48,319.92,115,320.19,114.6Zm-2.2,6c1.79.4,1.95.3,2.93-1.21.76-1.18,1.61-2.3,2.42-3.45.24-.35.44-.72.68-1.12-1.85-.47-2.12-.39-2.74.58C320.18,117.13,319.07,118.87,318,120.58Zm-2.83,2c-.76,1.4-1.43,2.86-2.13,4.31l.26.15q1.6-2.28,3.19-4.57l-.29-.41C315.84,122.24,315.31,122.31,315.16,122.59Zm6.45-.28c-1.11,0-1.88,0-2.63,0a1.3,1.3,0,0,0-.9.46c-.65,1-1.23,2.16-2,3.48,1.56-1,1.88-2.92,3.76-3.08a107.56,107.56,0,0,1-7.45,12.21l.38.38a5.16,5.16,0,0,0,.87-.88c1-1.53,1.8-3.15,2.82-4.63,1.39-2,2.93-3.92,4.34-5.92A9.56,9.56,0,0,0,321.61,122.31Zm4.68-7.3-.22-.3c-.33.11-.82.11-1,.34-1.23,1.76-2.39,3.57-3.58,5.36l.14.24a4.59,4.59,0,0,0,.92-.23,1.29,1.29,0,0,0,.45-.5Zm2.47.83a7.76,7.76,0,0,0,.46-.91l-.21-.3c-.5.19-1.19.24-1.45.6-1.17,1.65-2.21,3.38-3.36,5.19a1.23,1.23,0,0,0,1.79-.56C326.91,118.52,327.85,117.18,328.76,115.84Zm3.77-1-.23-.36c-.48.19-1.17.24-1.42.59-1.2,1.73-2.28,3.53-3.41,5.31l.19.27c.37-.14.89-.17,1.09-.44C330.05,118.48,331.28,116.66,332.53,114.87Zm2,1.75c.42-.62.86-1.23,1.36-1.94-.93-.31-1.59-.23-2.05.47-1.16,1.71-2.3,3.44-3.54,5.32,1.49.17,1.47.16,2.07-.73C333,118.69,333.77,117.66,334.5,116.62Zm3.09.55c.53-.82,1.09-1.63,1.72-2.58-1.46-.37-2.29,0-2.86,1.08a29.41,29.41,0,0,1-1.64,2.67c-.45.71-.91,1.4-1.41,2.17,1.28.4,2.09.17,2.65-.93A28,28,0,0,1,337.59,117.17Zm6.2-2.39c-1.83-.47-2.82-.48-3.21.1-1.18,1.76-2.29,3.57-3.47,5.44a6.88,6.88,0,0,0,1.56.35,1.91,1.91,0,0,0,1.34-.43C341.3,118.5,342.49,116.69,343.79,114.78Zm3.73,1a5.62,5.62,0,0,0,.43-.89c-.07-.12-.15-.23-.22-.34-.67.21-1.64.21-2,.66-1.14,1.65-2.07,3.45-3.14,5.3a1.64,1.64,0,0,0,2.11-.73C345.67,118.44,346.61,117.12,347.52,115.78Zm2.7.33c.23-.36.43-.74.75-1.31-.47,0-.78,0-.86.07-1.37,1.84-2.71,3.7-4.06,5.56l.36.44a4.27,4.27,0,0,0,1.16-.8C348.49,118.78,349.35,117.44,350.22,116.11Zm4.27-1.12c-1.29-.41-2-.12-2.48.77s-1.1,1.78-1.67,2.65c-.46.71-.95,1.39-1.43,2.08l.2.34c.53-.12,1.29,0,1.54-.38C352,118.74,353.15,116.92,354.49,115Zm3.35,1.22c.23-.3.41-.65.69-1.1-1.11-.15-2.12-.65-2.81.27-1.23,1.66-2.33,3.42-3.6,5.33,1.37.16,2.28,0,3-1.11S356.94,117.34,357.84,116.21Zm3.44-1c-.83.23-3.09,3.29-4,5.59C359.22,118.8,361.14,116.11,361.28,115.18Zm3.26,1.24a10.15,10.15,0,0,0,.62-1.07c-.91-.25-1.59-.3-2.06.48-.93,1.55-1.87,3.1-2.87,4.75a1.24,1.24,0,0,0,1.69-.51C362.75,118.83,363.67,117.64,364.54,116.42Zm4.37,0a12.08,12.08,0,0,0,.65-1.13c-1,0-1.89-.38-2.46.46-1.09,1.6-2.11,3.24-3.32,5.1,1.32-.08,2.15-.31,2.76-1.3S368.12,117.49,368.91,116.44Zm4.34-.8c-.11-.15-.21-.31-.31-.46-.46.17-1.1.22-1.34.56-1.1,1.57-2.08,3.22-3.13,4.88,1.23,0,1.22,0,1.71-.75.38-.57.76-1.13,1.15-1.67C372,117.34,372.61,116.49,373.25,115.64Zm1.2,4.26c.55-.78,1.11-1.55,1.67-2.33s.93-1.3,1.39-1.95l-.26-.45c-.66.18-1.57.15-1.92.58-1.25,1.53-2.32,3.21-3.46,4.86C373.37,121.09,373.67,121,374.45,119.9Zm.52,8.79-.25-.17-2.85,3.69c.1.12.21.23.31.34.35-.19.86-.29,1-.58C373.86,130.91,374.39,129.78,375,128.69Zm3.47-5.08c-1.37-.71-1.83-.7-2.28.12-.91,1.69-1.75,3.42-2.62,5.13l.34.21Zm3.16-7a10.54,10.54,0,0,0,.63-1.14c-1.25,0-2.37-.55-3.15.48-1,1.37-2,2.81-3,4.3a3.5,3.5,0,0,1,1.22.27c.79.55,1.23.21,1.69-.43C379.83,118.87,380.73,117.73,381.6,116.56Zm3.29.78c.35-.51.75-1,1.26-1.65-.95-.29-1.63-.42-2.09.29-.9,1.39-1.76,2.81-2.63,4.2,1,.92,1.1.87,1.67-.14S384.27,118.23,384.89,117.34Zm4.74-1.55a1.43,1.43,0,0,0-2,.56c-1,1.32-2,2.57-3,3.85a4,4,0,0,0-.27.5l.14.25c.63-.18,1.49-.16,1.84-.57C387.47,119,388.47,117.41,389.63,115.79Zm4.39,1a6,6,0,0,0,.43-.92c-1.55-.38-2.05-.38-2.53.23-1.12,1.41-2.17,2.88-3.39,4.5,1.65.34,2.85.17,3.67-1.27C392.72,118.46,393.43,117.67,394,116.82Zm4.25-.59-.24-.5c-.65.15-1.58.08-1.9.49a48.14,48.14,0,0,0-2.76,4.24l.22.32c.52-.17,1.22-.18,1.52-.53C396.23,119,397.23,117.58,398.27,116.23ZM401,116c-1.59,1.07-2.16,2.89-3.14,4.41A8.74,8.74,0,0,0,401,116Zm3.7.29c-1.29-.18-1.41,1-1.93,1.72s-1.05,1.57-1.57,2.35l.32.22C402.93,119.51,403.71,117.88,404.67,116.31Zm4,0c-1.17-.25-2-.45-2.53.42-.76,1.17-1.5,2.36-2.25,3.54l.12.32c.5-.07,1.21,0,1.48-.26C406.54,119.13,407.49,117.79,408.63,116.33Zm3.25,0c-1.45-.06-1.46,0-3.37,4Zm5.52.13-.44-.36q-1.68,2-3.37,4.07l.36.29Zm6.44-.47c-.7.15-1.5.09-1.78.44-1,1.19-1.79,2.53-2.7,3.88C420.87,120.49,423,118.42,423.84,116Zm6.33.33-.43-.36c-1.5,1-2.08,2.86-3.15,4.26A18.14,18.14,0,0,0,430.17,116.35Zm3.54.05-.43-.31c-.83,1.31-1.67,2.62-2.5,3.94l.32.21Zm-.13,3.8,2.74-3.84-.47-.31c-.88,1.3-1.75,2.61-2.62,3.91Zm5.22-3.82-.41-.2-2.26,3.66.2.37c.4-.09,1.05-.06,1.16-.29A11.38,11.38,0,0,0,438.8,116.38Zm8.9-5.7c1.56,0,1.81-.1,1.75-1.67a60,60,0,0,0-.66-8.28A78.48,78.48,0,0,1,447.72,84c0-1-.07-2-.1-3-.1-3.45-.2-6.9-.28-10.35-.1-4.72,0-9.44-.84-14.13a41.27,41.27,0,0,1-.76-7.18c0-5.49-.26-11-.63-16.46,0-.48-.09-1-.15-1.5-2.29.14-4.41.32-6.53.38-6.23.16-12.45.26-18.68.41-12.9.31-25.8.71-38.7.91-12.59.19-25.18.14-37.76.27-9.18.09-18.36.3-27.53.45-12.41.2-24.82.37-37.22.62q-18.26.38-36.52.9c-12.63.38-25.26,1-37.89.15-6.16-.4-12.32-.95-18.47-1.47a7.45,7.45,0,0,1-4.42-1.63c-3-2.69-6-5.41-7.66-9.26a4.49,4.49,0,0,0-1.31-1.71,2.81,2.81,0,0,0-1.69-.6c-4.86.1-9.72.4-14.57.39-14.14-.05-28.27-.21-42.4-.33h-2c.08.5.14.8.18,1.1.61,4,1.47,8.06,1.76,12.12.36,5.07.35,10.17.32,15.26,0,8.63-.24,17.26-.34,25.89a11,11,0,0,0,.35,1.54c.07.59.32,1.38,0,1.75-1,1.38-.64,3-1,4.53,1.21.36,2.21.65,3.2,1A32.2,32.2,0,0,1,126.51,90c2.56,2,5.15,4,7.81,5.93,3.15,2.24,6.43,4.29,9.56,6.54a19.11,19.11,0,0,1,3.88,3.57,2.74,2.74,0,0,0,2.32,1.24c3.07.11,6.15.18,9.21.47,3.53.33,7.07,0,10.6,1.2s7.63.88,11.5.77c5.86-.17,11.72-.38,17.58-.32,12.72.15,25.45.81,38.16.63,25.5-.36,51-.12,76.49.15a135.07,135.07,0,0,0,18.1-.58,66.89,66.89,0,0,1,9.39-.44c10.72.17,21.44.47,32.16.71,6.36.15,12.72.27,19.08.41,7.59.18,15.18.48,22.76.53C426,110.84,436.84,110.72,447.7,110.68ZM446.33,125c-1.77-.43-2.05-.2-2.68,2.33C445.33,127.64,445.83,127.19,446.33,125Zm4.38,0c-2.2,0-2.35.14-2.92,2.24C449.28,127.67,450.32,126.87,450.71,125Zm2.05,2.28c.86-.93,1.63-2,2.54-3.07-2.49-.23-3.08,1.45-3.71,3.31C452,127.48,452.54,127.55,452.76,127.31Zm5.47-3.86-.38-.26-3.2,4.77.65.44C456.36,126.81,457.26,125.1,458.23,123.45Zm2.83-.16-.45-.27L457,128.84l.21.29c.29-.1.73-.1.85-.3C459.08,127,460.06,125.14,461.06,123.29Zm.68,4.07-1,1.45.38.2Zm1.12-2.61-1,2.44A2.14,2.14,0,0,0,462.86,124.75ZM439.55,35.69a2.34,2.34,0,0,1-.62,2.6,1.9,1.9,0,0,1-2.37-.24,2.49,2.49,0,0,1-.4-1.72c.14-.9.93-.81,1.63-.71C438.33,34.83,439.12,34.86,439.55,35.69Zm-1.76,0c-.13.4-.25.81-.4,1.32.35.31.79.48,1.12-.13S438.43,35.81,437.79,35.66ZM239.35,64.59,252,65V63H239.35Zm165.2-3.49c.3-.22.7-.54.72-.84a1.24,1.24,0,0,0-.65-.87,2.59,2.59,0,0,0-1.19-.16c-2,0-4,0-6,0-1.44,0-2.88.14-4.39.21v1.45a7,7,0,0,0,.9.15c3.32.06,6.63.12,9.95.16A1.09,1.09,0,0,0,404.55,61.1ZM393.88,78.31c-.59,0-1.12,0-1.13.82s.52.88,1.09.92l5.15.4,6.3.52V78.88a4.48,4.48,0,0,0-.81-.19C401,78.55,397.41,78.43,393.88,78.31Zm10.64-3.41c-.32,0-.63-.09-.95-.11-3.18-.16-6.35-.33-9.53-.48-.35,0-.71,0-1.16.06v1.85c3.08.25,6,.49,9,.71.86.07,1.72.09,2.59.1q1,0,1-1C405.44,75.36,405.19,75,404.52,74.9Zm.89-3.82-12.5-1V72.2l12.5,1.11ZM369,64.59l12.61.4V63H369Zm49.86,2c-.43,0-.86.06-1.38.1,0,.59.05,1,.07,1.62,3.44.15,6.78.33,10.12.4a8.8,8.8,0,0,0,2.18-.54c0-.15,0-.31.05-.46a4.07,4.07,0,0,0-2.75-1Zm-15.7.15c-3.26-.09-6.51-.08-9.77-.1-.12,0-.24.11-.37.18v1.5c3.46.14,6.84.31,10.22.37a8.14,8.14,0,0,0,2.25-.62A2.7,2.7,0,0,0,403.13,66.72Zm23.39-11.43a9.28,9.28,0,0,0,1.69-.42c-.2-.36-.35-.49-.51-.49-1.71,0-3.42-.05-5.13,0-1.45,0-2.9.15-4.35.18-12.72.29-25.43-.36-38.15-.62-10.25-.21-20.52.24-30.79.38l-22.47.27c-2.5,0-5,0-7.49.08-.74,0-1.47.16-2.21.24,0,.11,0,.21,0,.31a6,6,0,0,0,.85.12c4.13.11,8.26.28,12.39.28,5.9,0,11.81-.13,17.71-.23,6.9-.11,13.81-.26,20.71-.36,3.22,0,6.45-.15,9.67,0,13.71.51,27.42,1.17,41.14.73C421.91,55.62,424.22,55.46,426.52,55.29ZM380.4,61.12c.31,0,.9-.6.86-.81a2.17,2.17,0,0,0-.87-1c-.18-.14-.53-.09-.8-.08-3.17,0-6.35.08-9.53.14a7.68,7.68,0,0,0-1.11.18c0,.49.06.87.1,1.45C372.89,61.05,376.64,61.12,380.4,61.12ZM393,64.59l12.6.39V63H393ZM53.66,53.46a4.72,4.72,0,0,0-.06,1.46c0,1.35.18,2.71.13,4.06s-.4,1.49-1.71,1.33-2.45-.14-3.64-.37c-1.39-.26-1.53-.53-1.59-1.92s-.06-2.72-.12-4.07c-.05-.89.29-1.32,1.22-1.41,1.57-.15,3.14-.4,4.33-.56C53.92,52,54.06,52.19,53.66,53.46Zm-1.44.19H47.84c.21,1.58.4,3.07.61,4.64l3.39-.19C52,56.6,52.08,55.23,52.22,53.65ZM153.3,71.08l-12.46-1V72.2l12.46,1.1ZM122.8,44.64c-.36,0-.72-.1-1.08-.12-1.8-.08-2.12-.31-2.46-2.15a45.79,45.79,0,0,1-.7-11.92,16.47,16.47,0,0,0,0-3c-.07-.74.18-1.17.84-1.32a25.09,25.09,0,0,1,3.07-.57c1.44-.14,2.9-.18,4.35-.26v0a32.14,32.14,0,0,0,3.54,0,5,5,0,0,1,3.17.95,1.64,1.64,0,0,1,.55,1.14c.11,1.27.12,2.54.17,3.81.13,3.26.25,6.53.41,9.79a3.66,3.66,0,0,0,.41,1.26,1.66,1.66,0,0,1-1.24,2.56,1.84,1.84,0,0,1-.4.06Zm-.61-2.59,9.18-.78c-.22-3.17-.43-6.17-.66-9.4-1.61,1.8-2.61,4-4.85,5a10.88,10.88,0,0,1,1.45-3,43.13,43.13,0,0,1,2.95-3.39,2.49,2.49,0,0,0,.69-2.66c-2.85.21-5.73-.49-8.59.32a1.44,1.44,0,0,0-.83.89,6,6,0,0,0-.15,1.89c.17,3.44.37,6.89.58,10.33A3.49,3.49,0,0,0,122.19,42.05Zm19.72,19,9.81.17c.18,0,.42.05.53,0,.35-.28.81-.58.92-1,.06-.2-.48-.64-.82-.87a1.6,1.6,0,0,0-.8-.09q-4.43,0-8.85.1c-.58,0-1.15.09-1.73.14a4.75,4.75,0,0,0-.1.65,6.16,6.16,0,0,0,.12.77A6.69,6.69,0,0,0,141.91,61Zm-1,3.58,12.61.39V63H140.92Zm11.14,10.28c-3.58-.24-7.17-.4-10.75-.57a1.87,1.87,0,0,0-.55.17V76.2c1.75.16,3.38.32,5,.44,2.09.15,4.17.3,6.26.39,1.09,0,1.59-.49,1.24-1.36A1.61,1.61,0,0,0,152.06,74.88ZM162.8,47.7l-.07-.38c-13.53,0-27,.3-40.58.57l0,.42a13.5,13.5,0,0,0,1.55.13q19.2-.21,38.4-.46A2.39,2.39,0,0,0,162.8,47.7ZM140.69,79.11c-.05,1.28,1.14.94,1.85,1,3.2.31,6.42.53,9.63.78a8,8,0,0,0,1-.06V78.63c-3.6-.12-7.08-.26-10.57-.3C142,78.32,140.75,77.76,140.69,79.11ZM143,66.57H140.9v1.71c3.4.15,6.7.35,10,.41a10.84,10.84,0,0,0,2.62-.67,4,4,0,0,0-3.06-1.35Zm21.93-2.09a5.48,5.48,0,0,0,.74.14L177.5,65c0-.67.06-1.22.09-2H164.92Zm9.68,2.2c-2.9-.05-5.79-.08-8.69-.1a6.08,6.08,0,0,0-1.1.16l.08,1.55c3.45.15,6.79.32,10.13.4a10.9,10.9,0,0,0,2.47-.63A3.64,3.64,0,0,0,174.6,66.68Zm1.65-5.53c.35-.28.81-.58.92-1,.06-.2-.48-.64-.82-.87a1.6,1.6,0,0,0-.8-.09q-4.43,0-8.85.1c-.58,0-1.15.09-1.76.14v1.41a7,7,0,0,0,1,.14l9.81.17C175.9,61.19,176.14,61.24,176.25,61.15Zm-.38,13.69c-3.4-.2-6.8-.37-10.21-.54a6.45,6.45,0,0,0-.87.1v1.74c.76.09,1.46.2,2.17.26,3,.22,6,.46,9,.63,1.16.07,1.6-.48,1.36-1.44C177.1,74.81,176.43,74.87,175.87,74.84Zm-9.42,3.48c-.65,0-1.75-.45-1.76.83s1.07.9,1.75,1c3.25.3,6.51.53,9.77.78a6.23,6.23,0,0,0,1-.08v-2c-.48-.06-.92-.15-1.36-.17C172.71,78.51,169.58,78.38,166.45,78.32Zm10.87-7.24-12.46-1V72.2l12.46,1.11Zm28.16,66.83c0,1.25-.67,2-1.56,2s-1.51-.8-1.44-1.92.73-2.06,1.56-2S205.53,136.79,205.48,137.91Zm-1.08-.79-.46,0c0,.47-.08.94-.13,1.41l.48.05C204.65,138.08,204.9,137.62,204.4,137.12ZM283,135.67a2,2,0,0,0-1.86,2.12,1.78,1.78,0,0,0,1.52,2.06c1.06.09,1.79-.77,1.89-2.2C284.66,136.48,284.05,135.7,283,135.67Zm-236.79-87a2.17,2.17,0,0,1,.1-3.09A23.88,23.88,0,0,1,48.2,43.8a1,1,0,0,1,.49-.21c2.25-.53,5.21,1.86,5.16,4.28a2.93,2.93,0,0,1-1.79,2.84,3.75,3.75,0,0,1-3.88-.16A7.91,7.91,0,0,1,46.24,48.66Zm2.42.31c1.11.54,2.25,1,3.45.22a.58.58,0,0,0,.25-.32,6.65,6.65,0,0,0,.11-2.46c-.28-.89-1.23-1.25-2.32-1.35a7.82,7.82,0,0,0-1.84.45,2,2,0,0,0-1,1.13C47,47.67,47.44,48.37,48.66,49Zm26.06-4.06c.31,0,.62-.5.94-.77-.3-.29-.59-.82-.9-.83-1.76-.07-3.52-.06-5.28,0-.36,0-.71.42-1.27.78.47.32.65.53.83.54C70.93,44.77,72.83,44.89,74.72,44.91Zm187.5,91.6a4.44,4.44,0,0,0-.87,1,1.88,1.88,0,0,0,.1,2.39,2.78,2.78,0,0,0,1.9.64c.95-.07,1.2-1,1.32-1.81,0-.22.05-.45.08-.83a4.53,4.53,0,0,0-.25-1A1.3,1.3,0,0,0,262.22,136.51ZM223,136.35a2.55,2.55,0,0,0-2.56,2.44,2.09,2.09,0,0,0,2.2,2.21,2.29,2.29,0,0,0,2.4-2.37A2.2,2.2,0,0,0,223,136.35ZM203.2,78.87a7.65,7.65,0,0,0-1.07-.2c-3.45-.13-6.89-.25-10.34-.36-.54,0-1.14-.07-1.22.72s.5,1,1.12,1l5.3.4,6.11.5C203.13,80.19,203.16,79.55,203.2,78.87ZM138.65,39.3c-.13-3.72-.19-7.44-.26-11.16,0-1.51.27-2,1.72-2.36a22.56,22.56,0,0,1,4.15-.66c2.72-.15,5.45-.19,8.17-.19a2.17,2.17,0,0,1,1.44.62A46.62,46.62,0,0,1,159,31.3a64.72,64.72,0,0,1,4.63,8.46,6.76,6.76,0,0,1,.24,3.31c-.07.85-.86,1.26-1.68,1.35a34.75,34.75,0,0,1-3.53.29c-2.4,0-4.81,0-7.92,0-1.52-.11-3.74-.31-6-.4a27.52,27.52,0,0,0-4.06.17c-1.16.14-1.45.08-1.65-1.13A32.53,32.53,0,0,1,138.65,39.3ZM141.12,28q.57,6.74,1.16,13.46h5.06c3.77,0,7.54.06,11.31.05a18.61,18.61,0,0,0,2.48-.35c-2.29-3.89-3.91-7.8-6.53-11.3-2.11,2.38-3.71,5.09-6.53,6.54,1-3.22,3.74-5.06,5.78-7.52-.67-1.17-1.44-1.54-2.21-1.05a3.93,3.93,0,0,0-.88,1c-1.61,2.25-3.17,4.54-4.83,6.75a18.84,18.84,0,0,1-2.17,2.11l-.34-.31c1.55-3.7,4.85-6.18,7-9.51C148.37,27.36,142.27,27.44,141.12,28ZM91.53,32.49l5.06-5.33C94.72,29,93,30.6,91.28,32.24Zm151.7,26.73c-1.26,0-2.52.13-3.83.19v1.46a4.57,4.57,0,0,0,.79.14c3.36.07,6.72.12,10.08.17a1.35,1.35,0,0,0,.79-.13c.26-.2.58-.53.58-.81a1.1,1.1,0,0,0-.55-.82,2.74,2.74,0,0,0-1.19-.19C247.68,59.21,245.45,59.19,243.23,59.22ZM102,43.2c-3-.16-5.89-.41-8.84-.54-1.54-.06-3.09.1-4.63.07a21.25,21.25,0,0,1-3.38-.32,2,2,0,0,1-1.07-.89,2.85,2.85,0,0,1-.26-1.31c-.22-4.45-.45-8.89-.61-13.33a10.8,10.8,0,0,1,.36-2.82c.36-1.44.64-1.68,2.17-1.75,2.22-.11,4.44-.11,6.67-.15,1,0,1.91,0,2.86,0v.08h9a1.3,1.3,0,0,1,1.43,1.32c.25,2.39.53,4.78.72,7.17s.36,4.62.41,6.94a23.33,23.33,0,0,1-.33,3.63,2,2,0,0,1-1.92,1.83A14.81,14.81,0,0,1,102,43.2ZM86.13,25.32c.19,2.38.36,4.59.53,6.79l.3.09,6.11-5.88L93,26Zm17.57,14.2c-.07-.46-.11-.94-.22-1.4a20.75,20.75,0,0,1-.45-7,45.31,45.31,0,0,0,0-5h-1.8c-1.62,0-3.23.06-4.84-.05a2.74,2.74,0,0,0-2.53,1.16c-1.83,2.13-3.77,4.17-5.74,6.18A5.35,5.35,0,0,0,87,39.52ZM69.45,47.23a25.5,25.5,0,0,0,2.79.56,14,14,0,0,0,2.12-.49,1.14,1.14,0,0,0,.58-.93,1.14,1.14,0,0,0-.85-.65c-1.49-.09-3-.12-4.48-.07-.34,0-.67.43-1,.66C68.89,46.63,69.11,47.13,69.45,47.23Zm4.74,1.16A10.46,10.46,0,0,0,72,48a15.77,15.77,0,0,0-2.45.31c-.4.11-.69.59-1,.91.42.26.82.7,1.26.75,1.34.15,2.71.14,4.06.24.61,0,1.23,0,1.23-.69A1.59,1.59,0,0,0,74.19,48.39Zm34.68-2.83c0,.76.07,1.53.11,2.3a1.25,1.25,0,0,1-1.18,1.41c-.89.14-1.79.22-2.46.3-.87-.07-1.51-.1-2.13-.18a2.57,2.57,0,0,1-2.12-3.52,1.32,1.32,0,0,1,1.39-1c1.81,0,3.62-.07,5.43-.14A.81.81,0,0,1,108.87,45.56ZM107,47.29l0-.42-4.08-.25-.17.41c.3.19.6.56.88.54C104.7,47.49,106,48.11,107,47.29Zm107.69,28.9c1.94.17,3.75.35,5.55.49s3.9.27,5.85.33a1.34,1.34,0,0,0,1.06-.58,1.37,1.37,0,0,0-.18-1.24,2.09,2.09,0,0,0-1.26-.36c-3.35-.2-6.71-.37-10.07-.53a5.9,5.9,0,0,0-1,.14ZM226,59.3c-3.67-.07-7.34,0-11.25,0,.05.77.09,1.19.13,1.74,3.84,0,7.56.13,11.27.12.33,0,.65-.59,1-.9C226.76,59.9,226.39,59.31,226,59.3ZM214.75,72.2l12.46,1.1V71.08l-12.46-1Zm0-5.53v1.62c3.47.15,6.8.33,10.14.4a10.24,10.24,0,0,0,2.5-.66,3.92,3.92,0,0,0-3-1.36l-8.28-.1C215.67,66.57,215.24,66.63,214.77,66.67Zm25.88-.1c-.43,0-.86.06-1.33.1v1.62c3.46.15,6.8.33,10.14.4A10.3,10.3,0,0,0,252,68a3.9,3.9,0,0,0-3-1.36Zm-.32,11.74c-.55,0-1.15-.06-1.21.74s.51,1,1.13,1c1.72.14,3.44.25,5.16.39l6.21.52c.06-.75.1-1.35.16-2.09a8.47,8.47,0,0,0-1-.2Zm-1-8.26a10.84,10.84,0,0,0-.11,1.14,7.32,7.32,0,0,0,.11,1l12.42,1.11c.05-.56.1-.87.1-1.18a9.51,9.51,0,0,0-.09-1Zm11.17,4.83c-3.58-.24-7.16-.4-10.75-.57a1.74,1.74,0,0,0-.54.17v1.69c1.25.13,2.38.26,3.5.34,2.59.19,5.17.39,7.76.52,1.09,0,1.58-.49,1.24-1.37A1.64,1.64,0,0,0,250.51,74.88ZM227.44,63H214.83V64.6l12.61.39Zm21.09-7.69c0-1-1-.67-1.63-.67-2.45,0-4.9.09-7.35.09-5.82,0-11.63,0-17.44-.07q-20.38-.09-40.75-.15c-5.13,0-10.27,0-15.39.25-8.58.33-17.16.78-25.74,0a2.68,2.68,0,0,0-.62.07l-.09.4a8.39,8.39,0,0,0,1.6.42c3.81.18,7.62.47,11.43.43,8.85-.09,17.71-.45,26.56-.5,10.09-.06,20.17.11,30.25.17q18.81.11,37.61.16C247.55,55.89,248.53,56.16,248.53,55.3ZM190.68,76.2c1.72.15,3.34.32,5,.43,2.13.16,4.27.32,6.4.4,1,0,1.59-.82,1.08-1.6a1.82,1.82,0,0,0-1.26-.57c-3.49-.22-7-.39-10.48-.56a3.05,3.05,0,0,0-.7.15Zm11.69-15.1c.3-.23.7-.54.72-.84a1.28,1.28,0,0,0-.65-.88,2.78,2.78,0,0,0-1.2-.15c-2.09,0-4.18,0-6.27,0-1.35,0-2.69.12-4.11.19v1.45a4.25,4.25,0,0,0,.77.15c3.36.07,6.72.12,10.08.17A1.09,1.09,0,0,0,202.37,61.1Zm-11.56,3.49,12.6.39V63h-12.6Zm0,3.7c3.44.15,6.77.33,10.11.4a8.69,8.69,0,0,0,2.18-.54l0-.46a4.07,4.07,0,0,0-2.75-1l-8.28-.1c-.43,0-.87.06-1.39.1C190.75,67.26,190.77,67.69,190.8,68.29Zm0,3.91,12.46,1.11V71.08l-12.46-1Zm35.47,8.71a5.23,5.23,0,0,0,.87-.09v-2.2c-3.65-.11-7.18-.24-10.71-.3-.65,0-1.75-.47-1.79.8s1,.93,1.72,1C219.62,80.42,222.92,80.66,226.23,80.91ZM186.89,93.85h1.4V92.23h3V98h-2.11v1h5.63V98h-2.12V92.23h3v1.62H197V91.24H186.89ZM209.09,98h-4.33V92.23h1.75v-1h-4.88v1h1.72V98h-1.62v1h8.76v-2.8h-1.4Zm6.33,1h1.17a2.67,2.67,0,0,1-.09.65,1,1,0,0,1-.23.41.89.89,0,0,1-.37.2,2,2,0,0,1-.51.06v.75a2,2,0,0,0,1.51-.56,2.42,2.42,0,0,0,.54-1.74V97.37h-2Zm16.19-6.26a3.87,3.87,0,0,1,.67,2.39,4.7,4.7,0,0,1-.16,1.27,3.41,3.41,0,0,1-.48,1,3.09,3.09,0,0,1-.82.79,3.91,3.91,0,0,1-1.17.51,7.08,7.08,0,0,1-1.14.2c-.43,0-.9.06-1.43.06h-4.72V98h1.69V92.23h-1.69v-1H227c.55,0,1,0,1.45,0a6.19,6.19,0,0,1,1.14.18A3.51,3.51,0,0,1,231.61,92.72ZM230.7,95a3.8,3.8,0,0,0-.18-1.23,1.94,1.94,0,0,0-.57-.85,2.6,2.6,0,0,0-1-.51,6.5,6.5,0,0,0-1.59-.17h-1.87V98h1.93a6.26,6.26,0,0,0,1.55-.16,2.54,2.54,0,0,0,1-.5,1.92,1.92,0,0,0,.57-.86,4.15,4.15,0,0,0,.17-1.25Zm15.62,3h1.26v1h-4.4V98h1.48a2.88,2.88,0,0,0-.33-.69,3.78,3.78,0,0,0-.54-.67,4,4,0,0,0-.72-.54,2.55,2.55,0,0,0-.85-.31h-2V98h1.51v1h-4.54V98h1.63V92.23H237.1v-1h5.09l1.29,0a7.61,7.61,0,0,1,1.05.12,3.64,3.64,0,0,1,.93.29,2,2,0,0,1,.62.45,1.66,1.66,0,0,1,.35.6,2.09,2.09,0,0,1,.11.72,1.88,1.88,0,0,1-.45,1.25,2.69,2.69,0,0,1-1.35.8l-.23.07-.24.06a3.24,3.24,0,0,1,.65.44,4.26,4.26,0,0,1,.61.59,4.33,4.33,0,0,1,.49.66A2.67,2.67,0,0,1,246.32,98Zm-1.83-3.54a1,1,0,0,0,.41-.41,1.2,1.2,0,0,0,.12-.55,1,1,0,0,0-.27-.69,1.63,1.63,0,0,0-.87-.46,3.82,3.82,0,0,0-.63-.09l-.79,0h-2.24v2.56h2.24a7.08,7.08,0,0,0,1.24-.09A2.37,2.37,0,0,0,244.49,94.45Zm16.4-.21a1.22,1.22,0,0,0-.41-.25,1.46,1.46,0,0,0-.52-.09,1.44,1.44,0,0,0-.51.09,1.52,1.52,0,0,0-.41.24,1.25,1.25,0,0,0-.28.37,1.07,1.07,0,0,0-.1.47,1,1,0,0,0,.09.43,1.27,1.27,0,0,0,.27.34,1.36,1.36,0,0,0,.41.23,1.72,1.72,0,0,0,.52.08,1.59,1.59,0,0,0,.55-.09,1.27,1.27,0,0,0,.41-.24.94.94,0,0,0,.25-.35,1.07,1.07,0,0,0,.09-.43,1,1,0,0,0-.1-.44A1,1,0,0,0,260.89,94.24Zm11.88-2h1.68V98h-1.68v1H282V96.56h-1.4V98h-4.71V95.46H279v-.77h-3.12V92.23h4.71v1.44H282V91.24h-9.25ZM293.35,95l3.27-2.79H298v-1h-4.68v1h1.59l-2.33,2-2.13-2h1.42v-1h-4.92v1h1.53l3,2.9L288.06,98h-1.32v1h4.68V98h-1.6l2.47-2.11L294.5,98H293v1h5.12V98h-1.65Zm18-2.23a2.67,2.67,0,0,1,.11.78,2,2,0,0,1-.12.68,2.1,2.1,0,0,1-.36.63,2.33,2.33,0,0,1-.59.53,3.35,3.35,0,0,1-.83.39,5.34,5.34,0,0,1-1.12.19c-.41,0-.85,0-1.33,0h-1.78v2h2.22v1h-5.25V98h1.62V92.23h-1.72v-1h4.91l1.29,0a7.46,7.46,0,0,1,1,.12,3.58,3.58,0,0,1,.94.3,2,2,0,0,1,.62.47A1.74,1.74,0,0,1,311.36,92.79Zm-1.41.83a1.41,1.41,0,0,0-.13-.64,1.1,1.1,0,0,0-.45-.43,2.38,2.38,0,0,0-.79-.24,7.85,7.85,0,0,0-1.19-.08h-2.05V95h2.05c.35,0,.66,0,.92,0a3.32,3.32,0,0,0,.69-.11,1.18,1.18,0,0,0,.74-.48A1.42,1.42,0,0,0,310,93.62ZM325.06,98h1.26v1h-4.39V98h1.48a2.88,2.88,0,0,0-.33-.69,3.78,3.78,0,0,0-.54-.67,4.83,4.83,0,0,0-.72-.54,2.69,2.69,0,0,0-.86-.31h-2V98h1.52v1h-4.54V98h1.62V92.23h-1.72v-1h5.1l1.29,0a7.64,7.64,0,0,1,1,.12,3.64,3.64,0,0,1,.93.29,2,2,0,0,1,.63.45,1.82,1.82,0,0,1,.35.6,2.36,2.36,0,0,1,.11.72,1.88,1.88,0,0,1-.45,1.25,2.78,2.78,0,0,1-1.35.8l-.24.07-.24.06a3.61,3.61,0,0,1,.66.44,4.85,4.85,0,0,1,.61.59,5.12,5.12,0,0,1,.49.66A2.62,2.62,0,0,1,325.06,98Zm-1.83-3.54a.93.93,0,0,0,.42-.41,1.2,1.2,0,0,0,.12-.55,1,1,0,0,0-.28-.69,1.63,1.63,0,0,0-.87-.46,3.67,3.67,0,0,0-.63-.09l-.79,0H319v2.56h2.24a7.08,7.08,0,0,0,1.24-.09A2.37,2.37,0,0,0,323.23,94.45Zm7.55-2.22h1.68V98h-1.68v1H340V96.56h-1.4V98h-4.71V95.46H337v-.77h-3.12V92.23h4.71v1.44H340V91.24h-9.25Zm22.6,3.11a4.66,4.66,0,0,0-1.24-.53,12.25,12.25,0,0,0-1.92-.36,11.51,11.51,0,0,1-1.34-.24,3.28,3.28,0,0,1-.84-.32,1.09,1.09,0,0,1-.43-.38.88.88,0,0,1-.12-.44.66.66,0,0,1,.14-.37,1.26,1.26,0,0,1,.4-.34,3,3,0,0,1,.68-.25,4.19,4.19,0,0,1,.93-.09,3.82,3.82,0,0,1,1,.11,3.72,3.72,0,0,1,.85.31,3.07,3.07,0,0,1,.69.46,2.35,2.35,0,0,1,.48.58H354V91.24h-1.4v.85a5.19,5.19,0,0,0-.59-.42,5,5,0,0,0-.7-.34,4.66,4.66,0,0,0-.82-.22,5,5,0,0,0-1-.09,6.58,6.58,0,0,0-1.62.18,4,4,0,0,0-1.16.48,2.08,2.08,0,0,0-.7.68,1.46,1.46,0,0,0-.24.79,1.92,1.92,0,0,0,.2.84,2.25,2.25,0,0,0,.64.72,4,4,0,0,0,1.13.55,8.32,8.32,0,0,0,1.68.33,13.07,13.07,0,0,1,1.44.22,4.4,4.4,0,0,1,1,.33,1.46,1.46,0,0,1,.55.41.81.81,0,0,1,.18.51.7.7,0,0,1-.16.44,1.52,1.52,0,0,1-.42.36,2.26,2.26,0,0,1-.65.23,3.49,3.49,0,0,1-.82.09,5.71,5.71,0,0,1-2-.34,5.44,5.44,0,0,1-1.76-1.1h-1.28V99H347v-.92a7.19,7.19,0,0,0,1.78.83,7.74,7.74,0,0,0,1,.21,7.26,7.26,0,0,0,1.06.07,5.43,5.43,0,0,0,1.54-.2,3.61,3.61,0,0,0,1.08-.51,2.31,2.31,0,0,0,.63-.71,1.63,1.63,0,0,0,.21-.78,2.11,2.11,0,0,0-.2-.92A1.77,1.77,0,0,0,353.38,95.34Zm13.84,0a4.39,4.39,0,0,0-1.24-.53,11.88,11.88,0,0,0-1.91-.36,11.34,11.34,0,0,1-1.35-.24,3.2,3.2,0,0,1-.83-.32,1,1,0,0,1-.43-.38.88.88,0,0,1-.12-.44.64.64,0,0,1,.13-.37,1.3,1.3,0,0,1,.41-.34,2.86,2.86,0,0,1,.67-.25,4.31,4.31,0,0,1,.93-.09,3.85,3.85,0,0,1,1,.11,3.64,3.64,0,0,1,.84.31,3.07,3.07,0,0,1,.69.46,2.65,2.65,0,0,1,.49.58h1.4V91.24h-1.4v.85a6.42,6.42,0,0,0-.6-.42,4.43,4.43,0,0,0-.69-.34,4.91,4.91,0,0,0-.82-.22,5,5,0,0,0-1-.09,6.46,6.46,0,0,0-1.62.18,4.08,4.08,0,0,0-1.17.48,2.17,2.17,0,0,0-.7.68,1.45,1.45,0,0,0-.23.79,1.79,1.79,0,0,0,.2.84,2.14,2.14,0,0,0,.64.72,3.84,3.84,0,0,0,1.13.55,8.35,8.35,0,0,0,1.67.33,12.92,12.92,0,0,1,1.45.22,4.14,4.14,0,0,1,1,.33,1.51,1.51,0,0,1,.56.41.87.87,0,0,1,.17.51.75.75,0,0,1-.15.44,1.44,1.44,0,0,1-.43.36,2.3,2.3,0,0,1-.64.23,3.58,3.58,0,0,1-.83.09,5.61,5.61,0,0,1-2-.34,5.38,5.38,0,0,1-1.77-1.1h-1.27V99h1.4v-.92a5.3,5.3,0,0,0,.87.48,5.89,5.89,0,0,0,.91.35,7.38,7.38,0,0,0,1,.21,7.17,7.17,0,0,0,1.06.07,5.31,5.31,0,0,0,1.53-.2,3.39,3.39,0,0,0,1.08-.51,2.22,2.22,0,0,0,.64-.71,1.62,1.62,0,0,0,.2-.78,2.1,2.1,0,0,0-.19-.92A1.88,1.88,0,0,0,367.22,95.34Z"/><path class="cls-1" d="M57.26,129.76a18.89,18.89,0,0,0-7.56,20.88c2.43,7.57,10.55,13,18.45,12,4.88-.6,9.27-3.34,12.86-6.71,1.46-1.38,1.1-1.59,3.07-1.15,2.17.48,3.38,2.47,5,4,2,1.93,6.92,1.17,9.73,1.09,9.48-.27,18.78.18,28.27-.09a13.14,13.14,0,0,0,8.24-2.91c1-.92,1.94-2.29,3.3-2.18a3.88,3.88,0,0,1,2,1.15,23.59,23.59,0,0,0,15.62,5.92,19.26,19.26,0,0,0,14.83-7.26,17.33,17.33,0,0,0-15.77-27.72c-5.18.59-9.13,3.93-14.23,5-3.42.71-7.63.13-11.12,0q-22.16-.56-44.31.77c-1.73.1-3.9.12-5.33-1a17.83,17.83,0,0,0-4.45-3.16,20.65,20.65,0,0,0-12.1-1.25A18.32,18.32,0,0,0,57.26,129.76Z"/><path class="cls-1" d="M323.56,129.76c-6.64,4.36-10,13.31-7.55,20.88s10.55,13,18.44,12c4.88-.6,9.28-3.34,12.86-6.71,1.47-1.38,1.1-1.59,3.07-1.15,2.17.48,3.38,2.47,5,4,2.05,1.93,6.92,1.17,9.73,1.09,9.49-.27,18.79.18,28.27-.09a13.17,13.17,0,0,0,8.25-2.91c1-.92,1.93-2.29,3.29-2.18a3.87,3.87,0,0,1,2,1.15,23.57,23.57,0,0,0,15.62,5.92,19.27,19.27,0,0,0,14.83-7.26,17.33,17.33,0,0,0-15.77-27.72c-5.18.59-9.14,3.93-14.24,5-3.41.71-7.63.13-11.11,0q-22.17-.56-44.32.77c-1.73.1-3.9.12-5.32-1a17.71,17.71,0,0,0-4.46-3.16,20.65,20.65,0,0,0-12.1-1.25A18.4,18.4,0,0,0,323.56,129.76Z"/><path class="cls-2" d="M176.24,140.41a28.57,28.57,0,0,0-1.69-5c-1.52-2.85-3.35-5.42-6.31-6.93a31.41,31.41,0,0,0-10.17-3.37,26,26,0,0,0-4.75-.11c-4.37.23-7.86,2.6-11.41,4.8a.39.39,0,0,0-.1.08,2.69,2.69,0,0,1-2.12.72c-1.63,0-3.27.13-4.9.17-2.4,0-4.81.15-7.21.08-1.45,0-2.88-.44-4.32-.55a177.47,177.47,0,0,0-26.69.25,37.1,37.1,0,0,1-4.08.15c-3-.08-6.09-.25-9.13-.39a2.73,2.73,0,0,1-1.18-.23c-1.37-.78-2.75-1.58-4.05-2.48a17.67,17.67,0,0,0-11.92-2.9,33.89,33.89,0,0,0-9,2.51A15.52,15.52,0,0,0,48.84,135a26.28,26.28,0,0,0-1.78,5.26,14.58,14.58,0,0,0-.56,4.15,16.58,16.58,0,0,0,1,4.78c2.47,8.12,8.46,13.56,16.95,14.71a19.75,19.75,0,0,0,12.74-2.48,25.73,25.73,0,0,0,6.9-5.46,1.34,1.34,0,0,1,.32-.24c1,.91,1.93,1.75,2.84,2.63a1.86,1.86,0,0,1,.31.73c.37,1.36.73,1.68,2.15,1.81,1.72.16,3.44.38,5.16.45,3.36.14,6.72.28,10.08.29q11.19,0,22.36-.09c2.14,0,4.27-.22,6.4-.38,1.42-.11,1.77-.44,2.15-1.81a1.76,1.76,0,0,1,.31-.74c.88-.91,1.78-1.78,2.63-2.62,1.47,1.24,2.81,2.37,4.17,3.49a22.29,22.29,0,0,0,8.16,4.18c6.79,2,16.3-.36,21.11-7,.24-.33.51-.63.74-1a23.54,23.54,0,0,0,3.78-9.8A11.87,11.87,0,0,0,176.24,140.41ZM170,135.06A3.44,3.44,0,0,1,171.1,137C169.8,136.55,169.79,136.52,170,135.06Zm.17,3.25a12.82,12.82,0,0,1,1.53.87c.6.38.78.95.62,1.89l-3.3-1.92C169.33,138.08,169.44,138,170.14,138.31Zm-5.29-1.43a3.71,3.71,0,0,1,1-2.12C166.13,136.49,166,136.73,164.85,136.88Zm.69,6.7c-.78-.44-.78-.44-.31-1.26Zm0-10c-1.72,2.77-2.12,3.22-3.06,3.41a7.81,7.81,0,0,1,1.23-3.41C164.07,133.2,164.38,133.2,165.5,133.57Zm-15.69,9.91c.2,1.09.36,1.87.52,2.73-1,.39-2,.79-3,1.11a1,1,0,0,1-1.33-.6,2.26,2.26,0,0,1,0-2.1c.8-1.47,1.61-2.94,2.48-4.37.41-.67.56-.65,1.72-.47-.45,1.87-1.87,3.42-1.88,5.78Zm.49-6.24a32.56,32.56,0,0,1,1.57-2.89c.46-.72,1.25-.52,2.07-.42-.68,1-1.29,2-1.92,2.89C151.64,137.38,151.12,137.51,150.3,137.24Zm7.1,4.32a1.13,1.13,0,0,1,.93-.25c.43.06.49.46.39.85-.28,1.09-.52,2.2-.88,3.25-.43,1.24-.94,1.43-2.54,1A20.07,20.07,0,0,1,157.4,141.56Zm-3.13,4.25c-1.21-.61-1.64-1.43-1.22-2.49a14,14,0,0,1,1.07-2c.35-.6.86-.75,1.56-.3C155.2,142.64,154.73,144.22,154.27,145.81Zm3.9-9.36c-.52.8-.66.84-2,.51a25.13,25.13,0,0,1,1.54-3.12c.55-.82,1.51-.54,2.43-.48C159.44,134.51,158.81,135.48,158.17,136.45Zm-3.36.39a1.07,1.07,0,0,1-1.52.29,28.22,28.22,0,0,1,1.34-2.94c.45-.75,1.27-.62,2.16-.48C156.09,134.82,155.48,135.85,154.81,136.84ZM152,149.75c1.52,1.34,3,2.72,4.52,4.09.05,0,.05.16.1.35-.25,0-.5,0-.65-.1-1.86-1.27-3.7-2.56-5.56-3.86C151.19,149.39,151.45,149.29,152,149.75Zm.29-.41c-.14-.11-.17-.37-.29-.67.31,0,.54-.16.71-.09,1.66.65,3.41,1.14,4.59,2.67a19.39,19.39,0,0,0,2.07,2,.93.93,0,0,1-1.44.33C156,152.17,154.14,150.76,152.27,149.34Zm5,.44c.24-.26.26-.3.3-.33a2.08,2.08,0,0,1,3.08.39,25.72,25.72,0,0,0,2.17,2c-1,1-1.26,1.09-2.14.46C159.51,151.5,158.41,150.65,157.24,149.78Zm2.92-.83a1,1,0,0,1-.32-.42.4.4,0,0,1,.06-.36c.13-.1.36-.21.46-.15,1.33.73,2.65,1.5,3.95,2.27.14.08.22.27.31.4-.62.81-.77.88-1.39.47C162.19,150.45,161.17,149.7,160.16,149Zm1.79-3.27c.21-1.52.37-2.89.59-4.25a3.87,3.87,0,0,1,.48-1.26c.38-.69.54-.72,1.47-.47-.36,2.11-.71,4.21-1.08,6.46Zm-.85-8.91c-.31.48-.84.43-1.47.25a10.42,10.42,0,0,1,1.54-3.4c.42-.65,1.18-.43,2-.2C162.44,134.58,161.8,135.7,161.1,136.77Zm1.51-6.88c-1.7.13-3.4.28-5.1.37a2.81,2.81,0,0,1-2.29-1.25C156.59,128.31,160.57,128.69,162.61,129.89Zm-7,.28c-1.77.74-3,.55-4-.67C153.15,128.77,154.28,129.72,155.61,130.17Zm-4.39.58-2.67.12C149.71,129.82,150,129.79,151.22,130.75ZM150.06,134l.38.24-1.9,3.08-.3-.18A19.59,19.59,0,0,1,150.06,134Zm-4.53,9.34a2.68,2.68,0,0,1,1.76-3.66C146.68,141,146.13,142.12,145.53,143.38Zm.84-9.12a14.66,14.66,0,0,1-2.32,3.55C144.42,136,145.38,134.48,146.37,134.26ZM144.2,134c-.15.43-.2.67-.3.88l-1.15,2.28c-.23.47-.49.86-1.26.57a29.9,29.9,0,0,1,1.93-3.39C143.52,134.22,143.79,134.19,144.2,134Zm-1.88.09-2.23,4A5.42,5.42,0,0,1,142.32,134.11Zm-.92,7a8.55,8.55,0,0,1-2.7,2.52c0-1-.08-1.71-.11-2.45A4.74,4.74,0,0,1,141.4,141.08Zm-1.35-6.81c-.54,1-1.05,2.11-1.6,3.14-.28.52-.34.51-1.4.38.61-1.15,1.16-2.28,1.78-3.36C139.09,134,139.54,133.92,140.05,134.27Zm-2.46-.13c-.68,1.24-1.32,2.42-2,3.58-.31.54-.81.64-1.57.47.68-1.32,1.27-2.58,1.95-3.78C136.33,133.8,136.92,133.83,137.59,134.14Zm-2.54,10.29c0,.32,0,.63.06.95.16,1.24.16,1.25-1.21,2-.14-2.22-.28-4.39-.43-6.72l1.58.17Zm.26-10.31-.58,1c-.5.91-1,1.83-1.51,2.74-.38.68-.42.68-1.62.26.63-1.28,1.17-2.47,1.8-3.61C133.84,133.77,134.08,133.75,135.31,134.12Zm-4.84,1.33c.3-.56.57-1.16,1.51-.82a4.29,4.29,0,0,1-.24.74,55.39,55.39,0,0,0-3.87,8.21,21.75,21.75,0,0,1-1.17,2.27,5,5,0,0,1,.56-4.57C128.44,139.41,129.41,137.4,130.47,135.45Zm-.8,9.32c-.94,1.5-1.92,3-2.9,4.44a3,3,0,0,1-.55.41,9.63,9.63,0,0,1,.54-2.39c1.12-2.06,2.36-4.06,3.55-6.09A4.5,4.5,0,0,1,129.67,144.77Zm-2.4,7.54a16.82,16.82,0,0,1,2.85-7.19C130.65,146.64,129.29,150.12,127.27,152.31Zm1.92-17.79c-1.06,2-2.08,3.89-3.15,5.91-.57-.52-.79-1-.46-1.67.63-1.25,1.25-2.5,1.91-3.73C127.85,134.35,128,134.33,129.19,134.52Zm-5.36,2.92c.37-.88.8-1.72,1.21-2.57.3-.62.75-.86,1.56-.48-.69,1.26-1.29,2.41-2,3.52-.12.2-.49.24-.74.36C123.87,138,123.74,137.67,123.83,137.44Zm-1.25,12.9,1.06-1.46a5.61,5.61,0,0,1,.45,2.22,4.27,4.27,0,0,1-3-.4,49.36,49.36,0,0,1,2.26-4.46C124,148,122.22,148.84,122.58,150.34Zm-4.11,0c-.56.93-.68,1-2,.69,2-3.42,4-6.82,5.94-10.21.1-.16.32-.25.65-.49a5.29,5.29,0,0,1-.33,2.9C121.31,145.64,119.9,148,118.47,150.38Zm2.45-1.92c-.36,1-.46,2.1-1.54,2.66A5.77,5.77,0,0,1,120.92,148.46Zm-12.78,1.45c1.67-2.73,3.36-5.46,5-8.2.8-1.33,1-1.44,2.78-.92-.34.69-.64,1.37-1,2-1.27,2.13-2.58,4.25-3.87,6.37-.14.23-.27.47-.4.7-.86,1.58-1.07,1.67-3.17,1.21Zm-1.79.63c-.55.86-1.16.94-2.73.49.17-.32.3-.65.49-.94,1.81-2.82,3.7-5.59,5.44-8.46a2.31,2.31,0,0,1,2.94-1.1,3.49,3.49,0,0,1-.22.73Q109.33,145.91,106.35,150.54Zm5-.3q2.56-4.4,5.15-8.78a1.59,1.59,0,0,1,2.07-.75c.19.08.25.45.36.71l.64-.46c.44-.3.91-.48,1.35,0s.18.83-.07,1.24c-.86,1.43-1.72,2.87-2.56,4.32-.76,1.28-1.55,2.56-2.22,3.89a1.45,1.45,0,0,1-1.49.9c-1.17,0-2.33,0-3.66,0A10.92,10.92,0,0,1,111.31,150.24Zm12-5.88c.06,1.63-1.28,2.14-1.76,3.13A7,7,0,0,1,123.29,144.36Zm.08-10.41a11.34,11.34,0,0,1-1.57,3.84,2.31,2.31,0,0,1-.74.35l-.2-.2a35.89,35.89,0,0,1,1.85-3.53C122.82,134.22,123.12,134.12,123.37,134Zm-2.16-.08.21.24c-.57,1.21-1.13,2.42-1.75,3.6-.1.21-.48.27-.8.43a14.37,14.37,0,0,1,1.77-4.09A1.47,1.47,0,0,1,121.21,133.87Zm-1.83-.14a22.85,22.85,0,0,1-1.91,4c-.07.13-.36.15-.55.22l-.27-.25c.69-1.24,1.38-2.49,2.09-3.72C118.8,133.87,119,133.86,119.38,133.73Zm-1.62,0c-.62,1.28-1.21,2.54-1.85,3.78-.29.57-.77.49-1.34.25.7-1.26,1.37-2.48,2.07-3.69A.73.73,0,0,1,117.76,133.74Zm-3.58-.25c-.57,1.32-1.05,2.45-1.53,3.58l.31.21c.86-.61,1.24-1.62,2-2.35-.33.84-.63,1.7-1,2.53a.86.86,0,0,1-.63.41c-.66,0-1.32,0-2.18-.08.52-.83.92-1.57,1.4-2.25S113.05,133.92,114.18,133.49Zm-5.84-.08c.84.43,1.7-.31,2.69.06-.39.79-.73,1.5-1.08,2.22.88-.51,1-1.69,2.15-2.27a7.26,7.26,0,0,1-.21,1c-.39,1-.81,1.91-1.19,2.87a.77.77,0,0,1-.78.61h-4.43c.88-1.56,1.65-2.92,2.54-4.22C108.1,133.53,108.29,133.38,108.34,133.41Zm-1.72,0c-.72,1.48-1.34,2.77-2,4.05-.18.35-.45.55-.87.31C104.21,136.36,105.73,133.93,106.62,133.42Zm-7.32,10c.46-.83.9-1.67,1.37-2.5s.59-.9,1.74-.6a21.09,21.09,0,0,1-3.31,5.06A2.43,2.43,0,0,1,99.3,143.39Zm-.39-1.19a1.57,1.57,0,0,1,1.1-2A3.56,3.56,0,0,1,98.91,142.2Zm.74,4c1-1.74,2-3.47,3-5.19.48-.85.61-.89,2-.64l-5.52,8.29A3.2,3.2,0,0,1,99.65,146.19Zm5.28-12.82a2.24,2.24,0,0,1-.06.61c-.56,1.07-1.14,2.14-1.69,3.21a1,1,0,0,1-1.54.6,36.93,36.93,0,0,1,2.47-4.15C104.24,133.48,104.57,133.48,104.93,133.37Zm-2.62.14.28.3c-.67,1.32-1.31,2.65-2,3.95-.27.49-.78.53-1.42.21.79-1.36,1.53-2.68,2.33-4C101.63,133.76,102,133.67,102.31,133.51Zm-2.15.34c-1,2.4-2.71,4.38-3.65,6.77s-2.21,4.54-3.46,7a6.17,6.17,0,0,1,.59-4.31c1.62-2.88,3.2-5.79,4.8-8.67C98.91,133.84,99,133.8,100.16,133.85ZM97.6,134a1.93,1.93,0,0,1-.1.55c-1.52,2.64-3.29,5.16-4.31,8.4a2.89,2.89,0,0,1-.12-2.85c1-1.82,2-3.62,3.07-5.41C96.44,134.21,96.83,133.78,97.6,134Zm-2.48.22a13.77,13.77,0,0,1-2.47,4.41,1.32,1.32,0,0,1-.21-1.49c.44-.88.91-1.75,1.43-2.59A.83.83,0,0,1,95.12,134.25Zm-2.1.12c-.53.9-1,1.76-1.54,2.57a.78.78,0,0,1-1.21.23,6.5,6.5,0,0,1,1.14-2.54C91.72,134.14,92.28,134,93,134.37Zm-3-.76c.23.55.48.84.42,1a22.13,22.13,0,0,1-1.13,2.42c-.22.38-.63.47-1.24.14Zm-.17,6.76c-.14,2.33-.28,4.49-.43,6.86l-1.22-1.07v-5.63ZM84.15,134c.11-.15.47-.13.71-.18L85,134c-.77,1.08-1.53,2.16-2.32,3.23-.06.07-.32,0-.76,0C82.75,136.06,83.42,135,84.15,134Zm.51,6.73v1.68l-1.89-1.47.08-.21Zm-4.9-6.88c0,.38,0,.65-.06.91a1.62,1.62,0,0,1,1.92-.87,5.77,5.77,0,0,0,1.58,0c-.19.41-.31.67-.44.93-.32.64-.69,1.26-1,1.92s-.65.78-1.4.46l.88-2.13c-1,.68-1.08,2.09-2.33,2.31-.39-.83.26-1.35.38-2l-1.65,2A5.44,5.44,0,0,1,79.76,133.85Zm-2.57,9.72c.17-.3.33-.61.48-.89.21.15.34.21.33.24-.18,1.11-.32,2.23-.6,3.31-.21.78-.68,1-1.31.84-1-.32-2-.74-3.07-1.14a24.69,24.69,0,0,1,3-6.41c.09-.14.38-.16.57-.24l.26.24c-.33.72-.66,1.44-1.09,2.36,1.09-.75.88-2.34,2.33-2.63.06,1.57-.94,2.76-1.18,4.14Zm-18.62-.18c.69-1,1.31-2,2-3.08.18-.27.39-.53.59-.8-.26,1.25-1.1,2.26-1.16,3.49.1.1.13.16.15.16l.72-.17.71,2.21a6.36,6.36,0,0,1-3,1C57.79,145,57.82,144.48,58.57,143.39Zm.65-3.82c-.3.57-.59,1.13-1,1.82C58,140.11,58.12,139.91,59.22,139.57Zm1.52-3a11.06,11.06,0,0,1,2.31-3.41A9.42,9.42,0,0,1,60.74,136.59Zm-.31,13.33c1,1.07,2,2.14,2.91,3.23a11.31,11.31,0,0,1,.68.94,3.56,3.56,0,0,1-2.83-1.1c-1.07-1.15-2.17-2.28-3.28-3.45C59.41,148.89,59.5,148.91,60.43,149.92Zm.1-1c1.42-.72,1.64-.68,2.45.27,1.19,1.37,2.39,2.73,3.57,4.1a7.52,7.52,0,0,1,.54.78,1.51,1.51,0,0,1-1.82-.32l-.38-.38Zm2.58-.75c-.07-.07,0-.24-.07-.52l.76.39,2,1.05a3.64,3.64,0,0,1,1,.47,32.7,32.7,0,0,1,3.24,3.79c-1.08.64-1.31.7-1.88.12C66.45,151.77,64.78,150,63.11,148.2Zm9.79-11.56c-.39.56-.64.54-1.91.28a6.94,6.94,0,0,1,1.41-2.85c.47-.63,1.21-.43,2.19-.22C74,134.9,73.48,135.8,72.9,136.64Zm.59,2.53-.63,1.17c-.49-.17-.73-.48-.53-.81S72.89,139.34,73.49,139.17Zm-4.18-2.11c0-.41,0-.73,0-1.05h0l1-1.5c.28-.4.53-.84,1.13-.81A4.84,4.84,0,0,1,69.31,137.06Zm1,5.76c.5.4.31.85.15,1.24a4.86,4.86,0,0,1-.67,1.17,3,3,0,0,1-3.46.93A22.7,22.7,0,0,1,69,140.69c.94.49,1.09.79.78,1.63-.12.3-.29.57-.42.86a1.25,1.25,0,0,0-.17.82Zm-1-6.79c-.58.47-1,1.33-2,.82a6.91,6.91,0,0,1,1.55-3,6.46,6.46,0,0,1,1.51-.38Zm-3.27.55c-.35.48-.94.42-1.6.1a13.35,13.35,0,0,1,1.93-3.05c.32-.38.77-.43,1.32,0A9.6,9.6,0,0,1,66,136.58Zm-1.48,4.68c.62-.35,1.28-.78,1.91,0l1.19-.69a18.59,18.59,0,0,1-2,5.37,5,5,0,0,1-2.09-3A1.48,1.48,0,0,1,64.49,141.26Zm3.21,8.23c1.67-.87,2-.85,3.13.37a14.68,14.68,0,0,1,2.31,2.56c-1.67,1-1.93,1-3-.22C69.32,151.31,68.52,150.41,67.7,149.49Zm3.23-.32a3.25,3.25,0,0,1-.38-.66l.19-.23c.2.05.47,0,.57.16A4.38,4.38,0,0,0,74,149.85a1.78,1.78,0,0,1,1.47,1c-.83,1.24-1.32,1.33-2.3.41C72.44,150.59,71.67,149.89,70.93,149.17Zm3.52-9.73.24.17c-.37.73-.74,1.46-1.12,2.18A2.42,2.42,0,0,1,74.45,139.44ZM76,137l-.26-.17L77.56,134A5.15,5.15,0,0,1,76,137Zm.62-3c-.61,1-1.11,1.89-1.67,2.75-.29.45-.72.66-1.38.2.5-.88,1-1.78,1.53-2.64C75.36,133.81,75.43,133.84,76.61,133.93Zm-12.89-5.24a5.92,5.92,0,0,1,1.86-.29c1.83.09,3.7-.14,5.47.68a17.12,17.12,0,0,0,2.22.52,3.71,3.71,0,0,1,1.42.89,2.5,2.5,0,0,1-1,.06c-1.27-.42-2.57-.12-3.84-.24-.45,0-.89-.18-1.33-.23s-.79,0-1.16,0c-1.38-.23-2.89.21-4.1-.8C63.43,129,63.54,128.73,63.72,128.69Zm-.48.54c-.56.71-.76.71-1.84,0A1.57,1.57,0,0,1,63.24,129.23ZM61.06,133c-.05.89-.66,1.26-1.16,1.67C60.13,134.06,60,133.18,61.06,133Zm-3.51.36c.19-.34.55-.34,1.67-.14-.52.87-1,1.67-1.5,2.48A2.22,2.22,0,0,1,57.55,133.37ZM57.26,150l2.16,2.29-.22.21A4.9,4.9,0,0,1,57,150.21Zm-1.58-10.4c.45.51,0,.84-.15,1.51C55,140.27,55.08,139.88,55.68,139.58Zm-2.37-4.8c.29,1.35.57,2.61.83,3.87,0,0-.1.12-.16.19C51.86,137.63,51.71,136.82,53.31,134.78Zm-1.57,3.1c.82,1,2,1.65,1.59,3.16C51.73,140.42,51.15,139.38,51.74,137.88Zm-.67,2.2a3.59,3.59,0,0,1,1.92,4C51,142.71,50.52,141.63,51.07,140.08ZM58.55,158c-3.14-1.35-4.81-4-6.18-6.95l.29-.21,6.14,6.95Zm3.66,1.54A10.42,10.42,0,0,1,60.13,158c-2.66-2.85-5.27-5.75-7.85-8.66a7.43,7.43,0,0,1-1.12-1.85,3.38,3.38,0,0,1-.16-2.21c.15-.65-.58-1.4-.1-2.52,1.33,1.94,3.24,3.3,3.22,5.91-.38-.3-.68-.54-1.22-.95.22.42.31.62.43.8a24.67,24.67,0,0,0,1.57,2.22q1.6,1.92,3.34,3.74c1.47,1.54,3,3,4.5,4.53a2.05,2.05,0,0,1,.24.48C62.67,159.52,62.38,159.61,62.21,159.51Zm1.82-.06c-1.28-1.13-2.45-2.37-3.66-3.56l.19-.29a5.93,5.93,0,0,1,3.81,1.69,18.8,18.8,0,0,1,2.48,2.79A2.89,2.89,0,0,1,64,159.45Zm3.42.48c-1-1.06-1.93-2.23-3-3.47a1.69,1.69,0,0,1,1.93.09c1.19,1.08,2.32,2.23,3.57,3.45C69,160.55,68.11,160.6,67.45,159.93Zm3.41-.22c-1-1-1.94-2.08-3-3.16.77-.43,1.33-.39,1.79.06.9.87,1.75,1.79,2.67,2.74C71.78,160,71.31,160.11,70.86,159.71Zm2.19-1.18c-.76-.75-1.5-1.54-2.32-2.39.66-.55,1.16-.6,1.57-.21.77.74,1.48,1.55,2.23,2.35C74,158.87,73.55,159,73.05,158.53Zm3.34-1.08c-.74.51-.87.51-1.49-.13s-1.21-1.3-2-2.11a13,13,0,0,1,1.73-.76,1,1,0,0,1,.84.27c.6.59,1.13,1.24,1.75,1.94A8.06,8.06,0,0,1,76.39,157.45ZM78,156.22l-2-2.1c.33-.77.33-.77,1.32-1.24.6.63,1.23,1.29,2,2.05ZM80,154.38c-.64-.67-1.15-1.16-1.59-1.71-.14-.19-.06-.55-.09-.83a3,3,0,0,1,.73,0,4.46,4.46,0,0,1,.88.43c-.38-.88-1.29-1.5-.34-2.36a8,8,0,0,1,2,2.25Zm0-7A12.63,12.63,0,0,1,81.42,144a4.57,4.57,0,0,1,.86.79,1.5,1.5,0,0,0,.85.77.83.83,0,0,1,.51,1.21c-.31.69-.68,1.35-1.07,2.11ZM83.59,150c-.69-.42-.78-.8-.58-1.21a17.08,17.08,0,0,1,.92-1.81c.11-.17.44-.2.66-.29.11.26.38.59.3.77C84.52,148.34,84.06,149.15,83.59,150Zm1.34,1.72c-.15-.29-.47-.62-.41-.86a7.81,7.81,0,0,1,1.4-3c.66.12.88.45.66,1-.41.93-.87,1.85-1.31,2.78Zm1,1c.53-1.19,1-2.33,1.55-3.45,1.26.38,1.38.6.94,1.61a14.52,14.52,0,0,0-.77,2c.88-.54.9-1.67,1.69-2.37l1.32.55c-.32,1-.62,1.91-.91,2.83l.15.11a3.2,3.2,0,0,0,.33-.42,18.19,18.19,0,0,1,2.21-3.38,32.9,32.9,0,0,0,2.9-4.73c.45-.78.8-1.61,1.24-2.51.38,1.81.27,2.28-.72,3.57a44.5,44.5,0,0,0-4.07,7,3.44,3.44,0,0,0-.07.71c1.79-2.41,2.65-5.06,4.41-7.35a1.52,1.52,0,0,1-.32,1.44c-1,1.74-2,3.46-3,5.21-.61,1.1-1.19,2.22-1.89,3.52Zm6,4.88c.13-1.12,1-1.9,1.43-2.85s1.1-2,1.64-3,1-1.89,1.5-2.84a4.07,4.07,0,0,1-.41,4c-.82,1.3-1.48,2.7-2.19,4.06C93.3,158,93.15,158.05,91.86,157.59Zm2.68.16c.86-1.64,1.61-3.19,2.48-4.66.46-.77,1.3-.6,2.15-.43a6.36,6.36,0,0,1-.29.66q-1.25,1.94-2.51,3.87C95.86,158,95.78,158,94.54,157.75Zm5.44,0c-.2-.78.4-1.14.6-1.71l.27.18Zm1.09-4.3q-1.18,1.88-2.4,3.75c-.24.36-.47.78-1.24.61a7.39,7.39,0,0,1,.34-.8l2.08-3.62c.41-.72.41-.71,1.48-.65A3.49,3.49,0,0,1,101.07,153.45Zm-2.18-2.29a1.67,1.67,0,0,1,.44-1.35c2-2.94,3.92-5.87,5.88-8.81.24-.36.46-.78,1.22-.55-.3.5-.53.91-.8,1.3-1.38,2-2.78,4-4.15,6.05-.41.59-.77,1.23-1.12,1.86a1.28,1.28,0,0,0-.06.94,11,11,0,0,0,.78-.89c1.93-2.73,3.86-5.47,5.76-8.23.89-1.28,1-1.36,2.86-.94a7.72,7.72,0,0,1-.48.91c-2.1,3-4.22,6-6.31,9a1.65,1.65,0,0,1-1.58.84C100.54,151.24,99.75,151.21,98.89,151.16Zm2.56,6.87a3.17,3.17,0,0,1,.09-.8c.66-1.28,1.32-2.56,2-3.82.38-.67.41-.65,1.38-.49a18.66,18.66,0,0,1-2.55,4.58C102.25,157.71,101.89,157.79,101.45,158Zm3-.49c-.09.15-.36.19-.7.35a4.11,4.11,0,0,1,.86-1.92,11.37,11.37,0,0,1,1-1.75c.36-.47.37-1.35,1.51-1.32C106.19,154.54,105.32,156.05,104.43,157.54Zm1.43.27a29.82,29.82,0,0,1,2.38-4.5c.12-.18.4-.27.6-.4C107.77,156,106.88,157.4,105.86,157.81Zm4.82-4.88a12.36,12.36,0,0,1-2.52,4.75A12.24,12.24,0,0,1,110.68,152.93Zm-.88,4.69c.71-1.43,1.38-2.85,2.1-4.25.22-.42.32-.39,1.16-.23-.63,1.35-1.24,2.7-1.88,4C110.92,157.73,110.55,158.05,109.8,157.62Zm1.84.1c.76-1.5,1.43-2.88,2.16-4.22.31-.57.44-.55,1.44-.32-.13.33-.24.66-.38,1L113.58,157C113.15,158,113.08,158,111.64,157.72Zm2.38.1a10.47,10.47,0,0,1,1.85-4.13,4.56,4.56,0,0,1,.69-.7l.36.25c-.59,1.4-1.17,2.8-1.78,4.19A.79.79,0,0,1,114,157.82Zm1.57-.07c.78-1.47,1.46-2.82,2.21-4.14.33-.6.52-.6,1.62-.36-.63,1.45-1.37,2.82-2.12,4.18C117,158,116.38,158.06,115.59,157.75Zm2.68.06a23.36,23.36,0,0,1,2.51-4.5c.14-.11.38-.1.88-.22-.84,1.63-1.53,3-2.27,4.37C119.15,157.89,119.09,157.86,118.27,157.81Zm2,.18-.35-.28q1.32-2.24,2.62-4.47l.29.14c-.36.82-.69,1.66-1.09,2.46S121.22,157.63,120.27,158Zm4.17-.12L125.5,156C125.59,157.27,125.43,157.62,124.44,157.87Zm-.88-.33c-.52.84-1.3.56-2.1.4a1.91,1.91,0,0,1,.11-.56c.66-1.18,1.33-2.35,2-3.5.48-.81.66-.85,1.93-.56A17.39,17.39,0,0,1,123.56,157.54Zm2.35.21,4.43-8.32a2.34,2.34,0,0,1,.32,2.31c-.69,1.77-1.34,3.55-2,5.32C128.11,158.39,127.54,158.56,125.91,157.75Zm3.49.31c.08-.28.13-.53.22-.77.63-1.68,1.28-3.36,1.92-5,.2-.53.31-1.16,1.18-.91a2.08,2.08,0,0,1,0,.56q-1,2.74-1.93,5.48C130.57,158,130.2,158.37,129.4,158.06Zm5.52-3.54c-.26,1.31-1.32,1.81-2.4,2.67.09-.44.11-.65.17-.85.61-1.83,1.23-3.67,1.83-5.51a2.08,2.08,0,0,1,1.58-1.6c-.07.38-.1.68-.17,1C135.59,151.64,135.2,153.07,134.92,154.52Zm2.3-1.87c-.06.66-.33.87-1.46,1.35.61-1.92,1.18-3.85,1.85-5.75a4.87,4.87,0,0,1,.94-1.22l.27.13a7.77,7.77,0,0,1-.23,1A16.46,16.46,0,0,0,137.22,152.65Zm3.41-3c-.78.75-1.48,1.57-2.22,2.36l-.28-.18c.8-2,1.55-4,2.42-6a5.73,5.73,0,0,1,1.51-1.74c.18,1-.44,2-.32,3.18l1-1.1c.88,1.29.81,1.48-.42,2.18A8.23,8.23,0,0,0,140.63,149.65Zm6.06,7.81a8.11,8.11,0,0,1-2.93-2.89l3.09,2.68Zm3,.28c-.33-.22-.67-.43-1-.67-1.95-1.49-3.9-3-5.83-4.48-.76-.58-.75-.67.1-1.36l6.86,6.33Zm-2.62-7.22a2.08,2.08,0,0,1,2.07-.08,43.35,43.35,0,0,1,4.2,3.37C151.52,154.09,148.62,152.5,147.07,150.52Zm8.23,9.68q-1.89-1.56-3.76-3.14a2.77,2.77,0,0,1-.32-.46c2.92-.06,4.6,1.84,6.63,3.68C156.79,160.6,156,160.81,155.3,160.2Zm2.9-.81-2.6-2.23a1.87,1.87,0,0,1,2.12.05l3.65,2.3C160,160.36,159.28,160.33,158.2,159.39Zm1.18-2.78a8.48,8.48,0,0,1,3.39,2.54C161.75,159.27,161.75,159.27,159.38,156.61Zm5.67,1.51c-.28,0-.63.22-.85.12a14.77,14.77,0,0,1-3.29-2.39.85.85,0,0,1,1.32-.23c1,.7,1.93,1.45,2.89,2.18Zm1.88-.89-3.16-2.58c.53-.83.93-1,1.6-.5s1.53,1.24,2.52,2.07C167.53,156.61,167.27,156.88,166.93,157.23Zm1.94-2.44a.7.7,0,0,1-.68.11c-.74-.49-1.42-1.06-2.15-1.62.42-.71.83-.94,1.41-.51a10,10,0,0,1,1.46,1.21A.93.93,0,0,1,168.87,154.79Zm.78-1.51c-.62-.45-1.18-.83-1.7-1.24a.63.63,0,0,1-.12-.95.65.65,0,0,1,.92-.27c.32.17.63.36.93.56C170.68,152,170.69,152.22,169.65,153.28Zm1.33-2.35c-2.16-.41-2.65-1.23-1.49-2.58.44.3.89.6,1.31.93C171.56,149.89,171.55,149.91,171,150.93Zm-1.33-3.71c-.21-.17-.21-.6-.3-.91l.38-.25c.72.57,1.46,1.13,2.16,1.73.12.1.08.39.14.7A4.18,4.18,0,0,1,169.65,147.22Zm2.61-.42c-.83-.56-1.56-1-2.24-1.51a1.6,1.6,0,0,1-.51-1.91,10.24,10.24,0,0,1,2.83,2.12C172.61,145.74,172.56,145.8,172.26,146.8Zm.25-2.88c-1.78-1.33-3.57-2.37-5.09-3.77l.15-.28a3,3,0,0,1,.81.24c1.2.73,2.37,1.5,3.55,2.25A1.15,1.15,0,0,1,172.51,143.92Zm-53.63-2.49h0a.08.08,0,0,1,0,0l-.09.09Zm-.06.12a14,14,0,0,1-2.31,3.84A9.89,9.89,0,0,1,118.82,141.55Zm-2.41,4,.1-.12-.06.15-.12.17Zm-1,1.59,1-1.39c-.21.52-.43,1-.64,1.57Z"/><path class="cls-2" d="M442.54,140.41c-1.66-10.73-12.85-16.12-22.92-15.41-5.36-.08-8.94,4.35-13.62,5.6-15.76.46-31.42-1.56-47.21.1-5-.29-10.34.52-14.35-3.1-9.18-6.11-24.24-2.37-29.3,7.42-10.43,23.14,19.62,39.68,35.54,20.72,1.05,1.18,2.65,1.9,3.14,3.36s.74,1.68,2.16,1.81a152,152,0,0,0,15.24.74c9.58-.11,19.19.29,28.75-.47,1.43-.11,1.77-.44,2.15-1.81s2.05-2.28,2.94-3.36C419.42,172.23,446,162.9,442.54,140.41Zm-6.26-5.35a3.5,3.5,0,0,1,1.13,1.92C436.11,136.55,436.09,136.52,436.28,135.06Zm.16,3.25c1.16.63,2.55,1,2.15,2.76l-3.29-1.92C435.63,138.08,435.75,138,436.44,138.31Zm-5.28-1.43a3.64,3.64,0,0,1,1-2.12C432.44,136.49,432.32,136.73,431.16,136.88Zm.68,6.7c-.78-.44-.78-.44-.31-1.26Zm0-10c-1.71,2.77-2.12,3.22-3.05,3.41C429.12,135.38,429.36,132.37,431.8,133.57Zm-15.69,9.91c.21,1.09.36,1.87.53,2.73-7,3.52-4.22-2.54-1.82-6,.41-.67.55-.65,1.71-.47-.44,1.87-1.86,3.42-1.87,5.78Zm.5-6.24c.95-1.56,1.31-4,3.64-3.31C419.05,135.17,418.73,137.89,416.61,137.24Zm7.1,4.32c2.53-1.37.65,2.8.43,3.85-.43,1.24-.94,1.43-2.53,1A19.33,19.33,0,0,1,423.71,141.56Zm-3.14,4.25c-1.21-.61-1.63-1.43-1.21-2.49.58-1,1.06-3.33,2.63-2.33C421.5,142.64,421,144.22,420.57,145.81Zm3.91-9.36c-.53.8-.67.84-2,.51.89-1.81,1.37-4.4,4-3.6Zm-3.36.39a1.08,1.08,0,0,1-1.52.29c.8-1.62,1.08-4.2,3.5-3.42C422.4,134.82,421.79,135.85,421.12,136.84Zm-2.84,12.91c1.48,1.51,3.49,2.72,4.63,4.44-2.28-.68-4.11-2.74-6.22-4C417.49,149.39,417.76,149.29,418.28,149.75Zm.3-.41c-.15-.11-.17-.37-.3-.67,3.1-.17,5.19,2.62,7.37,4.54C424.12,155,420.32,150.09,418.58,149.34Zm5,.44c2.07-2.34,3.89.84,5.55,2.05C427.18,154.1,425.4,150.61,423.55,149.78Zm2.91-.83c-1.69-2.44,4.18,1.15,4.47,1.74C429.61,152.57,427.86,149.49,426.46,149Zm1.8-3.27c.57-1.8-.2-6.59,2.53-6-.35,2.11-.7,4.21-1.08,6.46Zm-.86-8.91c-.31.48-.83.43-1.46.25.59-1.66,1.17-4.64,3.5-3.6C428.74,134.58,428.11,135.7,427.4,136.77Zm1.52-6.88c-2.43-.12-5.66,1.42-7.39-.88C422.9,128.31,426.88,128.69,428.92,129.89Zm-7,.28c-1.78.74-3,.55-4-.67C419.45,128.77,420.58,129.72,421.92,130.17Zm-4.4.58-2.67.12C416,129.82,416.35,129.79,417.52,130.75ZM416.37,134l.37.24-1.9,3.08-.3-.18A19.65,19.65,0,0,1,416.37,134Zm-4.54,9.34a2.69,2.69,0,0,1,1.76-3.66Zm.85-9.12a14.66,14.66,0,0,1-2.32,3.55C410.72,136,411.68,134.48,412.68,134.26Zm-2.17-.24c-.6,1.1-1.17,4.24-2.71,3.73C408.69,136.41,408.93,134.58,410.51,134Zm-1.89.09c-.77,1.38-1.43,2.54-2.22,4A5.41,5.41,0,0,1,408.62,134.11Zm-.92,7a8.45,8.45,0,0,1-2.7,2.52c0-1-.07-1.71-.11-2.45A4.74,4.74,0,0,1,407.7,141.08Zm-1.35-6.81c-1,1.23-.93,4-3,3.52C404.3,136.73,404.57,133.45,406.35,134.27Zm-2.46-.13c-1.16,1.37-1.32,4.46-3.55,4.05C401.44,136.84,401.65,133.2,403.89,134.14Zm-2.53,10.29c0,1.47.7,2.18-1.16,2.93-.14-2.22-.28-4.39-.42-6.72l1.58.17C401.36,142.11,401.35,143.27,401.36,144.43Zm.26-10.31c-1.11,1.22-1.68,5.25-3.72,4C399.12,136.62,399,133.15,401.62,134.12Zm-4.85,1.33c.31-.56.58-1.16,1.51-.82-1.87,3.77-3.39,7.39-5.28,11.22C391.79,141.72,395.45,139,396.77,135.45Zm-.79,9.32c-1.2,1.63-1.91,3.53-3.46,4.85.37-3.34,2.61-5.6,4.09-8.48A4.46,4.46,0,0,1,396,144.77Zm-2.4,7.54a16.94,16.94,0,0,1,2.84-7.19C397,146.64,395.6,150.12,393.58,152.31Zm1.92-17.79-3.16,5.91c-1.62-1.6,1-3.72,1.45-5.4C394.16,134.35,394.28,134.33,395.5,134.52Zm-5.36,2.92c.75-1.08.89-3.87,2.77-3.05-1,1.34-1.19,3.29-2.71,3.88C390.18,138,390.05,137.67,390.14,137.44Zm-1.26,12.9,1.07-1.46a5.6,5.6,0,0,1,.44,2.22,4.25,4.25,0,0,1-3-.4,49.36,49.36,0,0,1,2.26-4.46C390.29,148,388.53,148.84,388.88,150.34Zm-4.11,0c-.56.93-.68,1-2,.69,2.32-3.5,3.85-7.64,6.6-10.7C389.71,144.28,386.32,147,384.77,150.38Zm2.46-1.92c-.36,1-.47,2.1-1.55,2.66A5.88,5.88,0,0,1,387.23,148.46Zm-12.78,1.45c1.67-2.73,3.36-5.46,5-8.2.79-1.33,1-1.44,2.78-.92-1.52,3.18-3.58,6-5.31,9.08-.85,1.58-1.07,1.67-3.16,1.21C374,150.67,374.22,150.29,374.45,149.91Zm-1.8.63c-.55.86-1.16.94-2.72.49,1.9-2.33,5.77-11.94,8.86-10.5C377.2,144.06,374.63,147.18,372.65,150.54Zm5-.3c1.38-1.36,5.68-12.78,7.58-8.82,5.81-3.56-2.47,7.48-2.87,9-1.05,1.72-3.34.57-5.15.89A10.49,10.49,0,0,1,377.62,150.24Zm12-5.88c.07,1.63-1.28,2.14-1.75,3.13A7,7,0,0,1,389.59,144.36Zm.09-10.41c-.21,1-1,4-2.31,4.19l-.21-.2C387.91,136.59,388.36,134.81,389.68,134Zm-2.17-.08.22.24c-.88,1.32-1,3.39-2.56,4C385.46,137.16,386.4,133.86,387.51,133.87Zm-1.83-.14c-.73,1.54-1.07,3.53-2.45,4.22l-.27-.25C383.93,136.44,384.18,134.36,385.68,133.73Zm-1.61,0c-1,1.2-1.18,4.77-3.19,4C381.88,136.69,382.38,133.26,384.07,133.74Zm-3.59-.25L379,137.07l.31.21c.86-.61,1.24-1.62,2-2.35-.84,2.36-.92,3.4-3.82,2.86C378.71,136.23,378.73,134.6,380.48,133.49Zm-5.83-.08c.83.43,1.69-.31,2.68.06-.38.79-.73,1.5-1.07,2.22.87-.51,1-1.69,2.15-2.27-1.36,5.13-1.62,4.51-6.62,4.43C372.82,136.26,373.43,134.51,374.65,133.41Zm-1.73,0c-1,1.23-1.36,4.57-2.84,4.36C370.51,136.36,372,133.93,372.92,133.42Zm-7.32,10c1-1.15,1.06-3.9,3.12-3.1a21.13,21.13,0,0,1-3.32,5.06A2.43,2.43,0,0,1,365.6,143.39Zm-.39-1.19a1.58,1.58,0,0,1,1.11-2A3.58,3.58,0,0,1,365.21,142.2Zm.75,4c1.4-1.64,2.45-6.81,5-5.83l-5.53,8.29A3.2,3.2,0,0,1,366,146.19Zm5.28-12.82c-.29,1.1-1.78,5.33-3.3,4.42C369.08,136.31,369.34,133.88,371.24,133.37Zm-2.63.14.28.3c-1.07,1.24-1.27,5-3.43,4.16C366.56,136.5,366.94,134.33,368.61,133.51Zm-2.14.34c-2.64,4.65-4.63,9-7.12,13.82-.64-5,3.61-8.64,5.4-13C365.22,133.84,365.34,133.8,366.47,133.85Zm-2.56.18c-1.14,3-3.46,5.45-4.42,8.95-1.4-3.21,1.87-5.5,2.95-8.26A1.16,1.16,0,0,1,363.91,134Zm-2.48.22a13.81,13.81,0,0,1-2.48,4.41C357.92,137.84,360.17,133.34,361.43,134.25Zm-2.1.12c-.85.92-1.18,3.54-2.76,2.8C357,135.92,357.52,133.53,359.33,134.37Zm-3-.76c.24.55.49.84.42,1-.62.94-.73,3.39-2.37,2.56C355,136.06,355.59,135,356.33,133.61Zm-.16,6.76c-.15,2.33-.29,4.49-.44,6.86l-1.21-1.07v-5.63ZM350.46,134c.1-.15.46-.13.7-.18l.17.21c-1.08,1-1.48,3.28-3.08,3.24C349.05,136.06,349.73,135,350.46,134Zm.51,6.73v1.68l-1.9-1.47.08-.21Zm-4.9-6.88c0,.38,0,.65-.06.91.75-1.44,2.1-.65,3.5-.92-.9,1.1-1,4-2.82,3.31.28-.67.55-1.3.89-2.13-1.05.68-1.09,2.09-2.34,2.31-.38-.83.27-1.35.38-2l-1.64,2A5.4,5.4,0,0,1,346.07,133.85Zm-2.57,9.72.47-.89c.75.79-.2,2.46-.27,3.55-.7,2.06-3-.06-4.38-.3.87-2.34,1.69-5.29,3.61-6.65l.26.24c-.33.72-.67,1.44-1.09,2.36,1.08-.75.88-2.34,2.33-2.63.06,1.57-.95,2.76-1.19,4.14Zm-18.62-.18c.89-1.26,1.59-2.66,2.54-3.88-.25,1.25-1.09,2.26-1.15,3.49.23.33.47,0,.87,0l.71,2.21a6.4,6.4,0,0,1-3,1C324.09,145,324.13,144.48,324.88,143.39Zm.65-3.82-1,1.82C324.34,140.11,324.43,139.91,325.53,139.57Zm1.51-3a11.09,11.09,0,0,1,2.32-3.41A9.32,9.32,0,0,1,327,136.59Zm-.31,13.33a46.1,46.1,0,0,1,3.59,4.17c-3,0-4.11-2.87-6.1-4.55C325.71,148.89,325.8,148.91,326.73,149.92Zm.11-1c1.42-.72,1.63-.68,2.45.27,1.35,1.65,2.89,3.11,4.11,4.88C330.64,154.57,329,150.46,326.84,149Zm2.57-.75c-.06-.07,0-.24-.06-.52a14.31,14.31,0,0,1,7,5.7C334.33,155.27,331.17,149.4,329.41,148.2Zm9.8-11.56c-.39.56-.65.54-1.91.28.5-1.74,1.28-4,3.59-3.07C340.27,134.9,339.79,135.8,339.21,136.64Zm.59,2.53c-.33.6-.48.88-.63,1.17C338,139.82,338.67,139.28,339.8,139.17Zm-4.18-2.11c0-.41,0-.73,0-1.05h0c.74-.74,1-2.2,2.19-2.31A4.91,4.91,0,0,1,335.62,137.06Zm.95,5.76c1.07,2-2,4.28-4,3.34a22.7,22.7,0,0,1,2.75-5.47c2,.8.16,2,.19,3.31Zm-1-6.79c-.59.47-1,1.33-2,.82.46-1.65,1.11-3.38,3.06-3.38Zm-3.27.55c-.35.48-.95.42-1.61.1.78-1.1,1.52-4.11,3.25-3.06A9.37,9.37,0,0,1,332.28,136.58Zm-1.48,4.68c.61-.35,1.28-.78,1.91,0l1.19-.69a18.89,18.89,0,0,1-2,5.37C330.55,144.94,328.64,142.34,330.8,141.26Zm3.2,8.23c2.56-1.75,3.89,1.29,5.45,2.93C336.73,154.51,335.79,150.89,334,149.49Zm3.23-.32a2.82,2.82,0,0,1-.37-.66l.19-.23c1.14.41,1.91,1.52,3.28,1.57a1.81,1.81,0,0,1,1.48,1C340.33,153.51,338.62,150.1,337.23,149.17Zm3.53-9.73.24.17-1.12,2.18A2.42,2.42,0,0,1,340.76,139.44Zm1.53-2.48-.25-.17,1.83-2.84A5.11,5.11,0,0,1,342.29,137Zm.63-3c-1,1.06-1.28,3.88-3.06,2.95C341,135.64,340.67,133.53,342.92,133.93ZM330,128.69a15.74,15.74,0,0,1,11,1.8c-2.41,0-4.87-.29-7.3-.45-1.37-.23-2.88.21-4.09-.8C329.73,129,329.85,128.73,330,128.69Zm-.48.54c-.56.71-.75.71-1.84,0A1.57,1.57,0,0,1,329.54,129.23ZM327.37,133c-.06.89-.66,1.26-1.16,1.67C326.44,134.06,326.28,133.18,327.37,133Zm-3.52.36c.19-.34.56-.34,1.68-.14-.53.87-1,1.67-1.5,2.48A2.23,2.23,0,0,1,323.85,133.37ZM323.56,150l2.16,2.29-.21.21a4.88,4.88,0,0,1-2.17-2.27ZM322,139.58c.44.51.05.84-.15,1.51C321.32,140.27,321.38,139.88,322,139.58Zm-2.38-4.8c.14,1.37,1,2.91.67,4.06C318.17,137.63,318,136.82,319.61,134.78Zm-1.57,3.1c.83,1,2,1.65,1.6,3.16C318,140.42,317.46,139.38,318,137.88Zm-.66,2.2a3.59,3.59,0,0,1,1.91,4C317.32,142.71,316.83,141.63,317.38,140.08ZM324.86,158c-3.14-1.35-4.81-4-6.18-6.95l.29-.21,6.13,6.95Zm3.66,1.54c-4-2.58-6.62-6.79-9.94-10.14a4.64,4.64,0,0,1-1.27-4.06c.15-.65-.58-1.4-.1-2.52,1.32,1.94,3.24,3.3,3.21,5.91l-1.21-.95c2.44,4.68,6.88,7.75,10.08,11.77C329,159.52,328.68,159.61,328.52,159.51Zm1.81-.06c-1.27-1.13-2.44-2.37-3.66-3.56.07-.1.13-.2.2-.29,2.79.2,4.67,2.26,6.28,4.48A2.9,2.9,0,0,1,330.33,159.45Zm3.43.48c-1-1.06-1.93-2.23-3-3.47,2.57-.91,3.6,2.26,5.49,3.54C335.26,160.55,334.41,160.6,333.76,159.93Zm3.41-.22c-1.06-1-1.94-2.08-3-3.16,2.1-1.08,3,1.77,4.46,2.8C338.08,160,337.61,160.11,337.17,159.71Zm2.19-1.18c-.77-.75-1.5-1.54-2.32-2.39,1.72-1.44,2.59,1.29,3.8,2.14C340.32,158.87,339.85,159,339.36,158.53Zm3.34-1.08c-1.48,1.12-2.27-1.37-3.44-2.24,2.25-1.55,2.87-.24,4.32,1.45A10.48,10.48,0,0,1,342.7,157.45Zm1.61-1.23-2-2.1c.32-.77.32-.77,1.32-1.24l2,2.05Zm1.94-1.84c-.76-1-1.79-1.34-1.67-2.54a2,2,0,0,1,1.6.43c-.37-.88-1.28-1.5-.34-2.36a8.15,8.15,0,0,1,2,2.25Zm0-7a12.35,12.35,0,0,1,1.48-3.36c2.4,2.45,3.07,1.49,1.15,4.88Zm3.64,2.68c-1.45-.63,0-3.08,1-3.31C351.67,147.88,350.29,148.88,349.89,150Zm1.35,1.72c-1-1.21.31-2.74,1-3.81,1.81.5-.45,2.66-.65,3.76Zm.95,1c.54-1.19,1.05-2.33,1.55-3.45,2.39.46.34,2.23.18,3.61.88-.54.89-1.67,1.69-2.37l1.32.55-.92,2.83.16.11c2.31-3.64,5-7,6.68-11,.38,1.81.27,2.28-.72,3.57-1.65,2.43-3.41,4.92-4.15,7.76,1.8-2.41,2.65-5.06,4.42-7.35-.78,3.7-3.66,6.52-5.16,10.17Zm6,4.88c1.14-3,3.23-5.68,4.57-8.66,1.26,3.06-1.61,5.35-2.59,8C359.61,158,359.46,158.05,358.16,157.59Zm2.68.16c1.43-1.85,1.67-6,4.64-5.09a46.83,46.83,0,0,1-2.81,4.53C362.17,158,362.09,158,360.84,157.75Zm5.45,0c-.2-.78.39-1.14.59-1.71l.27.18Zm1.09-4.3c-1.23,1.28-1.72,4.25-3.65,4.36a48.55,48.55,0,0,1,2.43-4.42c.41-.72.41-.71,1.48-.65A4.2,4.2,0,0,1,367.38,153.45Zm-2.18-2.29c1.21-3.65,4.39-6.73,6.31-10.16.25-.36.46-.78,1.23-.55-1.72,3.53-5.36,6.35-6.13,10.15,2.39-2.86,4.35-6.09,6.54-9.12.88-1.28,1-1.36,2.85-.94-2,3.46-4.59,6.57-6.79,9.92C368.32,151.88,366.62,151.08,365.2,151.16Zm2.56,6.87c.18-1.75,1.41-3.05,2.11-4.62.37-.67.41-.65,1.37-.49C370.38,154.82,369.66,157,367.76,158Zm3-.49c-.09.15-.36.19-.7.35.3-1.51,1.19-2.43,1.9-3.67.36-.47.36-1.35,1.51-1.32C372.49,154.54,371.63,156.05,370.74,157.54Zm1.42.27c.93-1.77,1.46-3.82,3-4.9C374.08,156,373.19,157.4,372.16,157.81Zm4.82-4.88a12.22,12.22,0,0,1-2.52,4.75A12.51,12.51,0,0,1,377,152.93Zm-.87,4.69c.93-1.17,1.52-5.13,3.26-4.48C378.37,154.33,378.09,158.39,376.11,157.62Zm1.83.1c1.14-1.41,1.51-5.28,3.61-4.54C380.57,154.7,380.37,158.62,377.94,157.72Zm2.38.1a9.8,9.8,0,0,1,2.54-4.83l.36.25C382.26,154.52,382.25,158,380.32,157.82Zm1.58-.07c1.25-1.51,1.47-5.23,3.82-4.5C384.63,154.73,384.34,158.62,381.9,157.75Zm2.67.06c.55-1,1.9-4.87,3.39-4.72C386.85,154.54,386.34,158.09,384.57,157.81Zm2,.18-.35-.28q1.31-2.24,2.62-4.47l.28.14C388.26,154.87,388.11,157,386.58,158Zm4.17-.12,1.06-1.91C391.89,157.27,391.74,157.62,390.75,157.87Zm-.89-.33c-.51.84-1.29.56-2.09.4.34-1.49,1.44-2.7,2.13-4.06.49-.81.66-.85,1.93-.56A16.67,16.67,0,0,1,389.86,157.54Zm2.35.21c1.5-2.8,2.93-5.5,4.44-8.32,1.37,2.51-1.19,5.13-1.72,7.63C394.41,158.39,393.85,158.56,392.21,157.75Zm3.5.31c.68-1.29,1.8-7.19,3.32-6.72C398.72,152.56,397.36,159.09,395.71,158.06Zm5.51-3.54c-.25,1.31-1.31,1.81-2.39,2.67.93-2.32,1.19-7,3.58-8C402.11,151.06,401.56,152.72,401.22,154.52Zm2.3-1.87c-.06.66-.32.87-1.45,1.35.93-2.31,1-5.12,2.79-7l.26.13C404.76,149.05,403.64,150.69,403.52,152.65Zm3.41-3c-.77.75-1.48,1.57-2.21,2.36l-.29-.18c1.26-2.62,1.61-5.81,3.93-7.75.19,1-.43,2-.31,3.18.42-.46.7-.78,1-1.1C410.82,148.14,407.87,148.32,406.93,149.65Zm6.06,7.81a8.11,8.11,0,0,1-2.93-2.89l3.09,2.68Zm3,.28c-2.35-1.61-4.54-3.43-6.82-5.15-.76-.58-.74-.67.1-1.36l6.87,6.33Zm-2.61-7.22c2.56-1.16,4.24,2,6.27,3.29C417.83,154.09,414.92,152.5,413.38,150.52Zm8.22,9.68c-1.33-1.23-2.94-2.19-4.08-3.6,2.93-.06,4.61,1.84,6.64,3.68C423.1,160.6,422.33,160.81,421.6,160.2Zm2.9-.81-2.6-2.23c2.24-1,3.85,1.56,5.77,2.35C426.25,160.36,425.58,160.33,424.5,159.39Zm1.19-2.78a8.46,8.46,0,0,1,3.38,2.54C428.06,159.27,428.06,159.27,425.69,156.61Zm5.67,1.51c-1.65.45-2.87-1.38-4.15-2.27,1.41-1.34,2.92,1.39,4.22,2Zm1.88-.89-3.17-2.58c1.3-2,2.68.73,4.13,1.57Zm1.94-2.44c-1,.52-1.94-1-2.83-1.51C432.89,151.51,435.81,153.82,435.18,154.79Zm.77-1.51c-.66-.7-2.42-1.09-1.81-2.19a.64.64,0,0,1,.92-.27C436.14,151.52,437.61,151.91,436,153.28Zm1.34-2.35c-2.16-.41-2.66-1.23-1.49-2.58C436.66,149.15,438.43,149.46,437.29,150.93ZM436,147.22c-.2-.17-.2-.6-.3-.91l.38-.25c.78.82,2.25,1.18,2.3,2.43A4.25,4.25,0,0,1,436,147.22Zm2.61-.42c-1.25-1-3.35-1.46-2.74-3.42a10.24,10.24,0,0,1,2.83,2.12C438.91,145.74,438.86,145.8,438.56,146.8Zm.25-2.88a63.19,63.19,0,0,1-5.08-3.77l.15-.28C435.09,140.36,439.55,142.34,438.81,143.92Zm-53.63-2.49h0s0,0,0,0l-.09.09S385.17,141.47,385.18,141.43Zm-.05.12a14.06,14.06,0,0,1-2.32,3.84A9.91,9.91,0,0,1,385.13,141.55Zm-2.41,4,.09-.12a1,1,0,0,1-.17.32Zm-1.05,1.59,1-1.39c-.22.52-.43,1-.65,1.57Z"/></g></g></svg>