<svg xmlns="http://www.w3.org/2000/svg" viewBox="0 0 520.89 175.78"><defs><style>.cls-1{fill:#f7f7ef;}.cls-2{fill:#232323;}</style></defs><g id="Layer_2" data-name="Layer 2"><g id="UX"><path class="cls-1" d="M39.23,141.36a18.89,18.89,0,0,0-7.56,20.88c2.43,7.58,10.56,13,18.45,12,4.88-.61,9.28-3.34,12.86-6.71,1.47-1.39,1.1-1.6,3.07-1.16,2.17.48,3.38,2.47,5,4,2,1.93,6.92,1.17,9.73,1.09,9.48-.26,18.79.18,28.27-.09a13.12,13.12,0,0,0,8.24-2.91c1-.92,1.94-2.29,3.3-2.18a3.84,3.84,0,0,1,2,1.15,23.62,23.62,0,0,0,15.63,5.92,19.27,19.27,0,0,0,14.83-7.26,17.34,17.34,0,0,0-15.78-27.72c-5.17.59-9.13,3.93-14.23,5-3.41.71-7.63.13-11.12,0q-22.16-.56-44.31.77c-1.73.1-3.9.12-5.32-1A17.67,17.67,0,0,0,57.84,140a20.65,20.65,0,0,0-12.1-1.25A18.7,18.7,0,0,0,39.23,141.36Z"/><path class="cls-1" d="M375.23,141.36c-6.64,4.36-10,13.31-7.55,20.88s10.55,13,18.44,12c4.88-.61,9.28-3.34,12.86-6.71,1.47-1.39,1.1-1.6,3.07-1.16,2.18.48,3.38,2.47,5,4,2.05,1.93,6.92,1.17,9.73,1.09,9.49-.26,18.79.18,28.27-.09a13.17,13.17,0,0,0,8.25-2.91c1-.92,1.93-2.29,3.29-2.18a3.87,3.87,0,0,1,2,1.15,23.57,23.57,0,0,0,15.62,5.92,19.27,19.27,0,0,0,14.83-7.26,17.33,17.33,0,0,0-15.77-27.72c-5.18.59-9.14,3.93-14.24,5-3.41.71-7.63.13-11.11,0q-22.17-.56-44.32.77c-1.73.1-3.9.12-5.32-1a17.49,17.49,0,0,0-4.46-3.17,20.65,20.65,0,0,0-12.1-1.25A18.78,18.78,0,0,0,375.23,141.36Z"/><path class="cls-2" d="M158.21,152c-1.67-10.72-12.85-16.11-22.92-15.41-5.36-.08-8.94,4.35-13.62,5.6-15.76.46-31.43-1.56-47.21.11-5-.3-10.34.51-14.36-3.1-9.18-6.12-24.23-2.38-29.29,7.41-10.43,23.14,19.62,39.68,35.54,20.72,1,1.18,2.65,1.9,3.14,3.37s.73,1.67,2.16,1.8a149.09,149.09,0,0,0,15.24.74c9.58-.11,19.19.29,28.75-.47,1.43-.11,1.77-.44,2.15-1.81s2-2.27,2.94-3.35C135.09,183.83,161.67,174.5,158.21,152ZM152,146.66a3.51,3.51,0,0,1,1.12,1.93C151.78,148.15,151.76,148.12,152,146.66Zm.16,3.25c1.15.63,2.55,1,2.15,2.76l-3.3-1.91C151.3,149.68,151.42,149.59,152.11,149.91Zm-5.28-1.42a3.67,3.67,0,0,1,1-2.13C148.1,148.09,148,148.34,146.83,148.49Zm.68,6.69c-.78-.44-.78-.44-.31-1.26Zm0-10c-1.71,2.77-2.12,3.22-3.05,3.41C144.78,147,145,144,147.47,145.17Zm-15.69,9.92c.21,1.08.36,1.86.52,2.72-7,3.52-4.21-2.54-1.81-6,.41-.66.55-.65,1.71-.46-.44,1.86-1.87,3.41-1.88,5.77Zm.49-6.25c1-1.56,1.32-4,3.65-3.31C134.72,146.77,134.4,149.5,132.27,148.84Zm7.11,4.32c2.53-1.37.65,2.8.43,3.86-.43,1.23-.94,1.43-2.54,1A19.72,19.72,0,0,1,139.38,153.16Zm-3.14,4.25c-1.21-.61-1.63-1.43-1.21-2.49.57-1,1.06-3.33,2.62-2.33C137.17,154.24,136.71,155.82,136.24,157.41Zm3.9-9.36c-.52.8-.66.84-1.95.51.88-1.81,1.37-4.4,4-3.6Zm-3.36.39a1.06,1.06,0,0,1-1.51.29c.8-1.62,1.07-4.2,3.5-3.42C138.07,146.42,137.45,147.45,136.78,148.44ZM134,161.35c1.48,1.51,3.49,2.72,4.63,4.44-2.29-.68-4.11-2.74-6.22-4C133.16,161,133.43,160.89,134,161.35Zm.3-.41c-.15-.11-.18-.37-.3-.67,3.1-.17,5.19,2.62,7.37,4.54C139.79,166.57,136,161.69,134.25,160.94Zm5,.44c2.07-2.34,3.89.84,5.54,2.05C142.84,165.7,141.06,162.21,139.22,161.38Zm2.91-.83c-1.69-2.44,4.17,1.15,4.46,1.74C145.28,164.17,143.53,161.09,142.13,160.55Zm1.79-3.27c.58-1.8-.19-6.59,2.54-6-.35,2.11-.7,4.21-1.08,6.46Zm-.85-8.91c-.31.48-.83.43-1.47.25.59-1.66,1.18-4.64,3.51-3.6C144.41,146.19,143.77,147.3,143.07,148.37Zm1.51-6.87c-2.42-.13-5.65,1.41-7.39-.89C138.56,139.91,142.55,140.3,144.58,141.5Zm-7,.27c-1.78.75-3,.55-4-.67C135.12,140.37,136.25,141.33,137.59,141.77Zm-4.4.58-2.67.12C131.68,141.42,132,141.39,133.19,142.35ZM132,145.64l.38.24-1.9,3.08-.3-.18A20.38,20.38,0,0,1,132,145.64ZM127.5,155a2.68,2.68,0,0,1,1.76-3.66Zm.84-9.12a14.31,14.31,0,0,1-2.31,3.55C126.39,147.59,127.35,146.08,128.34,145.86Zm-2.17-.23c-.6,1.09-1.16,4.23-2.71,3.72C124.35,148,124.59,146.18,126.17,145.63Zm-1.88.08-2.22,4A5.38,5.38,0,0,1,124.29,145.71Zm-.92,7a8.58,8.58,0,0,1-2.7,2.53c0-1-.08-1.72-.11-2.46A4.74,4.74,0,0,1,123.37,152.68ZM122,145.87c-1,1.23-.93,4-3,3.53C120,148.33,120.23,145.05,122,145.87Zm-2.46-.13c-1.16,1.37-1.32,4.46-3.55,4.06C117.1,148.44,117.32,144.81,119.56,145.74ZM117,156c0,1.47.7,2.18-1.16,2.93-.14-2.22-.28-4.39-.43-6.72l1.58.17C117,153.71,117,154.87,117,156Zm.26-10.31c-1.12,1.22-1.68,5.26-3.72,4C114.78,148.22,114.68,144.75,117.29,145.72Zm-4.85,1.34c.3-.57.58-1.17,1.51-.83-1.88,3.77-3.39,7.39-5.28,11.22C107.46,153.33,111.12,150.6,112.44,147.06Zm-.79,9.31c-1.2,1.63-1.91,3.53-3.46,4.86.36-3.35,2.61-5.61,4.09-8.48A4.48,4.48,0,0,1,111.65,156.37Zm-2.4,7.54a16.81,16.81,0,0,1,2.84-7.19C112.63,158.24,111.26,161.72,109.25,163.91Zm1.92-17.79L108,152c-1.63-1.59,1-3.72,1.45-5.4C109.82,146,109.94,145.93,111.17,146.12ZM105.81,149c.75-1.08.89-3.87,2.77-3-1,1.33-1.19,3.28-2.71,3.87C105.84,149.59,105.71,149.27,105.81,149Zm-1.26,12.9,1.06-1.45a5.4,5.4,0,0,1,.45,2.21,4.29,4.29,0,0,1-3-.39c.6-1.52,1.41-2.84,2.25-4.47C106,159.58,104.19,160.45,104.55,161.94Zm-4.11,0c-.56.93-.68,1-2,.69,2.32-3.5,3.85-7.64,6.59-10.7C105.38,155.88,102,158.63,100.44,162Zm2.46-1.91c-.36,1-.47,2.09-1.55,2.65A5.62,5.62,0,0,1,102.9,160.07Zm-12.78,1.45c1.67-2.74,3.36-5.46,5-8.21.79-1.32,1-1.44,2.78-.92-1.52,3.18-3.58,6-5.31,9.09-.85,1.57-1.07,1.66-3.16,1.2C89.68,162.27,89.89,161.89,90.12,161.52Zm-1.8.62c-.55.86-1.16,1-2.72.5,1.9-2.34,5.77-11.95,8.86-10.51C92.87,155.66,90.3,158.78,88.32,162.14Zm5-.3c1.38-1.36,5.67-12.78,7.58-8.82,5.8-3.56-2.47,7.48-2.87,9-1,1.72-3.34.57-5.15.89A10.49,10.49,0,0,1,93.29,161.84Zm12-5.88c.07,1.63-1.28,2.14-1.75,3.13A7,7,0,0,1,105.26,156Zm.09-10.4c-.21,1-1,4-2.32,4.18-.06-.07-.13-.13-.2-.2C103.58,148.19,104,146.41,105.35,145.56Zm-2.17-.09.22.24c-.88,1.32-1,3.39-2.56,4C101.12,148.76,102.06,145.46,103.18,145.47Zm-1.83-.13c-.73,1.54-1.07,3.52-2.46,4.21l-.27-.24C99.6,148,99.85,146,101.35,145.34Zm-1.61,0c-1,1.21-1.18,4.77-3.19,4C97.55,148.29,98.05,144.87,99.74,145.34Zm-3.59-.25c-.56,1.32-1,2.45-1.53,3.58l.32.21c.85-.61,1.23-1.62,2-2.35-.83,2.36-.91,3.4-3.81,2.86C94.37,147.84,94.4,146.2,96.15,145.09ZM90.32,145c.83.43,1.69-.31,2.68.06-.38.79-.73,1.5-1.07,2.22.87-.51,1-1.69,2.15-2.26-1.36,5.12-1.62,4.5-6.62,4.42C88.49,147.86,89.1,146.11,90.32,145Zm-1.73,0c-1,1.23-1.36,4.58-2.85,4.36C86.18,148,87.71,145.53,88.59,145Zm-7.32,10c1-1.15,1.06-3.9,3.12-3.1A21.13,21.13,0,0,1,81.07,157,2.43,2.43,0,0,1,81.27,155Zm-.39-1.19a1.58,1.58,0,0,1,1.11-2A3.61,3.61,0,0,1,80.88,153.8Zm.74,4c1.41-1.64,2.46-6.81,5-5.82l-5.52,8.28A3.24,3.24,0,0,1,81.62,157.79ZM86.91,145c-.29,1.11-1.79,5.33-3.3,4.43C84.75,147.92,85,145.48,86.91,145Zm-2.63.14.28.3c-1.08,1.24-1.28,5-3.43,4.16C82.22,148.1,82.61,145.93,84.28,145.11Zm-2.14.34c-2.64,4.65-4.63,9-7.12,13.82-.65-5,3.61-8.64,5.4-13C80.88,145.45,81,145.4,82.14,145.45Zm-2.56.18c-1.14,3-3.47,5.45-4.42,9-1.4-3.21,1.86-5.5,3-8.26A1.15,1.15,0,0,1,79.58,145.63Zm-2.49.23a13.54,13.54,0,0,1-2.47,4.4C73.59,149.44,75.83,144.94,77.09,145.86ZM75,146c-.84.92-1.18,3.54-2.75,2.8C72.62,147.52,73.19,145.13,75,146Zm-3-.75c.24.54.49.84.42,1-.62.94-.73,3.39-2.37,2.56C70.67,147.66,71.25,146.58,72,145.22ZM71.84,152c-.15,2.33-.29,4.49-.44,6.86l-1.21-1.07v-5.63Zm-5.72-6.37c.11-.15.47-.12.71-.18l.17.21c-1.09,1-1.48,3.28-3.09,3.24C64.72,147.66,65.4,146.61,66.12,145.6Zm.52,6.73V154l-1.9-1.47.08-.21Zm-4.91-6.88c0,.38,0,.65,0,.92.75-1.45,2.1-.66,3.5-.93-.91,1.1-1,4-2.82,3.31l.89-2.13c-1,.68-1.09,2.09-2.34,2.31-.39-.83.27-1.34.38-2-.5.6-1,1.21-1.65,2A5.44,5.44,0,0,1,61.73,145.45Zm-2.56,9.72.47-.89c.75.79-.21,2.47-.27,3.55-.7,2.06-3-.06-4.38-.3.87-2.33,1.68-5.29,3.6-6.65l.27.24-1.1,2.36c1.09-.75.89-2.34,2.34-2.63,0,1.57-1,2.76-1.19,4.14ZM40.55,155c.89-1.26,1.59-2.65,2.54-3.88-.26,1.25-1.1,2.26-1.15,3.49.23.33.47,0,.87,0l.7,2.21a6.36,6.36,0,0,1-3,1C39.76,156.55,39.8,156.08,40.55,155Zm.65-3.82-1,1.82C40,151.71,40.09,151.51,41.2,151.17Zm1.51-3A11.36,11.36,0,0,1,45,144.78,9.22,9.22,0,0,1,42.71,148.19Zm-.31,13.34A44.64,44.64,0,0,1,46,165.69c-3,0-4.11-2.87-6.11-4.54C41.38,160.5,41.47,160.51,42.4,161.53Zm.11-1c1.42-.72,1.63-.67,2.45.27,1.35,1.66,2.89,3.11,4.11,4.88C46.31,166.17,44.69,162.06,42.51,160.55Zm2.57-.75c-.07-.07,0-.24-.06-.52a14.31,14.31,0,0,1,7,5.7C50,166.87,46.84,161,45.08,159.8Zm9.79-11.56c-.39.56-.64.55-1.9.28.5-1.74,1.28-4,3.59-3.07C55.93,146.5,55.46,147.4,54.87,148.24Zm.59,2.53-.62,1.17C53.66,151.42,54.34,150.89,55.46,150.77Zm-4.18-2.11c0-.41,0-.73,0-1h0c.73-.74,1-2.2,2.19-2.31A4.87,4.87,0,0,1,51.28,148.66Zm.95,5.76c1.07,2-2,4.28-4,3.35A22.59,22.59,0,0,1,51,152.29c2,.8.16,2,.19,3.31Zm-1-6.78c-.59.46-1,1.32-2,.81.46-1.65,1.1-3.38,3.05-3.37Zm-3.28.54c-.34.48-.94.42-1.6.1.78-1.1,1.52-4.11,3.25-3.06A9.1,9.1,0,0,1,47.94,148.18Zm-1.48,4.68c.62-.35,1.29-.78,1.91,0l1.2-.69a18.7,18.7,0,0,1-2,5.38C46.21,156.54,44.31,154,46.46,152.86Zm3.21,8.23c2.56-1.75,3.89,1.29,5.44,2.93C52.4,166.11,51.46,162.5,49.67,161.09Zm3.23-.32a2.82,2.82,0,0,1-.37-.66l.19-.23c1.14.41,1.91,1.52,3.28,1.57a1.78,1.78,0,0,1,1.47,1C56,165.11,54.28,161.7,52.9,160.77ZM56.43,151l.24.18c-.38.72-.75,1.45-1.12,2.17A2.38,2.38,0,0,1,56.43,151ZM58,148.56l-.25-.17,1.82-2.84A5.09,5.09,0,0,1,58,148.56Zm.63-3c-1,1.07-1.28,3.88-3.06,2.95C56.61,147.24,56.34,145.13,58.59,145.53Zm-12.9-5.24a15.8,15.8,0,0,1,11,1.8c-2.42,0-4.87-.29-7.3-.45-1.37-.23-2.88.21-4.1-.8C45.4,140.64,45.51,140.33,45.69,140.29Zm-.48.54c-.56.71-.76.72-1.84,0A1.57,1.57,0,0,1,45.21,140.83ZM43,144.61c-.06.89-.67,1.26-1.17,1.68C42.11,145.66,42,144.78,43,144.61Zm-3.52.36c.19-.34.55-.34,1.68-.14l-1.51,2.48A2.22,2.22,0,0,1,39.52,145Zm-.29,16.61,2.16,2.29-.21.21A4.9,4.9,0,0,1,39,161.82Zm-1.58-10.4c.45.51.05.84-.15,1.51C37,151.87,37.05,151.48,37.65,151.18Zm-2.37-4.8c.14,1.38,1,2.91.67,4.06C33.84,149.24,33.69,148.42,35.28,146.38Zm-1.57,3.1c.82,1,2,1.65,1.6,3.16C33.71,152,33.12,151,33.71,149.48Zm-.66,2.2a3.6,3.6,0,0,1,1.91,4C33,154.31,32.5,153.23,33.05,151.68Zm7.47,17.89c-3.14-1.35-4.81-4-6.17-6.95l.28-.21,6.14,7Zm3.67,1.54c-4-2.58-6.63-6.79-9.94-10.14A4.64,4.64,0,0,1,33,156.91c.16-.65-.58-1.4-.1-2.52,1.33,2,3.25,3.3,3.22,5.91l-1.21-1C37.32,164,41.76,167.1,45,171.12,44.64,171.12,44.35,171.21,44.19,171.11Zm1.81-.06c-1.27-1.13-2.45-2.37-3.66-3.56l.19-.29c2.8.2,4.68,2.27,6.29,4.48A2.87,2.87,0,0,1,46,171.05Zm3.43.48c-1-1.06-1.93-2.22-3-3.47,2.57-.91,3.6,2.26,5.49,3.54C50.92,172.15,50.08,172.21,49.43,171.53Zm3.41-.22c-1.06-1-1.94-2.07-3-3.16,2.09-1.08,3,1.77,4.46,2.81C53.75,171.59,53.28,171.71,52.84,171.31ZM55,170.13c-.77-.75-1.5-1.54-2.32-2.38,1.72-1.45,2.59,1.28,3.8,2.13C56,170.47,55.52,170.62,55,170.13Zm3.34-1.08c-1.48,1.12-2.27-1.37-3.45-2.24,2.26-1.54,2.88-.24,4.33,1.45A10.48,10.48,0,0,1,58.37,169.05ZM60,167.82l-2-2.1c.33-.77.33-.77,1.33-1.23l2,2ZM61.92,166c-.77-1-1.79-1.34-1.68-2.54a2.06,2.06,0,0,1,1.61.43c-.37-.88-1.29-1.49-.34-2.36a8,8,0,0,1,2,2.25Zm0-7a12.63,12.63,0,0,1,1.47-3.36c2.4,2.45,3.08,1.49,1.16,4.88Zm3.64,2.68c-1.45-.62,0-3.08,1-3.31C67.34,159.48,66,160.48,65.56,161.64Zm1.34,1.73c-1-1.22.32-2.75,1-3.82,1.81.5-.45,2.66-.66,3.76Zm1,.94c.53-1.19,1-2.32,1.55-3.45,2.39.46.34,2.23.17,3.61.89-.53.9-1.67,1.69-2.37l1.33.55-.92,2.84.16.1c2.31-3.64,5-7,6.68-11,.37,1.82.27,2.28-.73,3.57-1.64,2.44-3.4,4.92-4.14,7.76,1.8-2.41,2.65-5.06,4.41-7.35-.78,3.7-3.65,6.53-5.15,10.17Zm6,4.88c1.13-3,3.22-5.68,4.57-8.65,1.26,3.05-1.61,5.34-2.6,8C75.27,169.58,75.13,169.65,73.83,169.19Zm2.68.16c1.43-1.85,1.67-5.95,4.63-5.09a46.14,46.14,0,0,1-2.8,4.54C77.83,169.57,77.76,169.6,76.51,169.35Zm5.45,0c-.21-.78.39-1.14.59-1.71l.27.18C82.53,168.33,82.24,168.84,82,169.35Zm1.08-4.3c-1.22,1.28-1.71,4.26-3.64,4.36A46.23,46.23,0,0,1,81.83,165c.41-.71.41-.71,1.47-.65A3.28,3.28,0,0,1,83,165.05Zm-2.18-2.29c1.22-3.65,4.4-6.73,6.32-10.16.25-.36.46-.77,1.22-.55-1.72,3.53-5.35,6.36-6.13,10.15,2.39-2.86,4.35-6.09,6.55-9.11.88-1.29,1-1.37,2.85-1-2,3.46-4.59,6.57-6.79,9.92C84,163.48,82.28,162.68,80.86,162.76Zm2.57,6.87c.18-1.75,1.4-3,2.11-4.62.37-.67.41-.65,1.37-.49C86.05,166.42,85.32,168.64,83.43,169.63Zm3-.48c-.08.14-.35.18-.69.34.3-1.51,1.19-2.43,1.89-3.67.37-.47.37-1.35,1.51-1.32C88.16,166.14,87.3,167.65,86.4,169.15Zm1.43.26c.92-1.77,1.46-3.82,3-4.89C89.74,167.6,88.86,169,87.83,169.41Zm4.82-4.88a12.28,12.28,0,0,1-2.52,4.75A12.38,12.38,0,0,1,92.65,164.53Zm-.87,4.69c.93-1.16,1.52-5.13,3.25-4.48C94,165.93,93.76,170,91.78,169.22Zm1.83.1c1.14-1.41,1.51-5.28,3.61-4.54C96.24,166.3,96,170.22,93.61,169.32Zm2.38.1a9.75,9.75,0,0,1,2.54-4.83l.36.26C97.93,166.13,97.91,169.62,96,169.42Zm1.58-.07c1.24-1.51,1.47-5.23,3.82-4.5C100.29,166.33,100,170.22,97.57,169.35Zm2.67.06c.54-1,1.9-4.86,3.39-4.71C102.52,166.14,102,169.69,100.24,169.41Zm2,.18-.35-.28,2.61-4.47.29.14C103.93,166.47,103.78,168.64,102.25,169.59Zm4.17-.12c.33-.59.66-1.19,1-1.91C107.56,168.87,107.41,169.22,106.42,169.47Zm-.89-.33c-.51.84-1.3.56-2.1.4.35-1.48,1.45-2.7,2.14-4.06.49-.81.66-.85,1.93-.56A16.67,16.67,0,0,1,105.53,169.14Zm2.35.21,4.43-8.32c1.38,2.51-1.19,5.13-1.71,7.63C110.08,170,109.52,170.16,107.88,169.35Zm3.5.31c.67-1.29,1.8-7.19,3.31-6.72C114.39,164.16,113,170.69,111.38,169.66Zm5.51-3.54c-.26,1.31-1.31,1.82-2.4,2.67.94-2.31,1.2-7,3.58-8C117.78,162.66,117.22,164.32,116.89,166.12Zm2.3-1.87c-.06.66-.32.87-1.46,1.35.94-2.31,1-5.12,2.8-7l.26.14C120.43,160.65,119.31,162.29,119.19,164.25Zm3.41-3c-.78.75-1.48,1.57-2.22,2.36l-.28-.18c1.26-2.62,1.61-5.81,3.93-7.75.19,1-.44,2-.31,3.18l1-1.1C126.49,159.74,123.53,159.92,122.6,161.25Zm6.06,7.81a8.11,8.11,0,0,1-2.93-2.89l3.09,2.68Zm3,.28c-2.35-1.6-4.55-3.43-6.82-5.15-.76-.58-.74-.67.1-1.36q3.44,3.16,6.86,6.34ZM129,162.12c2.57-1.16,4.25,2,6.28,3.29C133.5,165.69,130.59,164.1,129,162.12Zm8.23,9.69a36.16,36.16,0,0,1-4.08-3.61c2.93-.06,4.6,1.85,6.64,3.69C138.77,172.2,138,172.41,137.27,171.81Zm2.9-.82-2.6-2.23c2.24-1,3.84,1.56,5.77,2.35C141.92,172,141.25,171.93,140.17,171Zm1.18-2.78a8.48,8.48,0,0,1,3.39,2.54C143.72,170.88,143.72,170.88,141.35,168.21Zm5.68,1.51c-1.65.45-2.87-1.37-4.15-2.27,1.41-1.34,2.92,1.39,4.21,2Zm1.87-.89-3.16-2.58c1.3-2,2.68.73,4.13,1.58Zm1.94-2.43c-1,.51-1.93-1.06-2.83-1.51C148.55,163.11,151.48,165.42,150.84,166.4Zm.78-1.52c-.66-.7-2.43-1.09-1.82-2.19a.66.66,0,0,1,.93-.27C151.81,163.12,153.28,163.51,151.62,164.88Zm1.34-2.35c-2.16-.41-2.66-1.23-1.49-2.58C152.32,160.75,154.09,161.06,153,162.53Zm-1.34-3.71c-.21-.17-.21-.6-.3-.91l.38-.25c.78.83,2.24,1.18,2.3,2.43A4.22,4.22,0,0,1,151.62,158.82Zm2.61-.42c-1.25-1-3.35-1.46-2.75-3.41a10,10,0,0,1,2.83,2.11C154.58,157.34,154.53,157.4,154.23,158.4Zm.25-2.87c-1.78-1.33-3.57-2.38-5.09-3.78l.15-.28C150.76,152,155.22,153.94,154.48,155.53ZM100.85,153h0s0,0,0,0-.06.06-.09.08A.61.61,0,0,1,100.85,153Zm0,.12A14.06,14.06,0,0,1,98.48,157,9.79,9.79,0,0,1,100.8,153.15Zm-2.41,4,.09-.12a1,1,0,0,1-.18.32Zm-1,1.6,1-1.4c-.21.52-.43,1-.64,1.57Z"/><path class="cls-2" d="M494.21,152c-1.66-10.72-12.85-16.11-22.92-15.41-5.36-.08-8.94,4.35-13.62,5.6-15.76.46-31.42-1.56-47.21.11-5-.3-10.34.51-14.35-3.1-9.18-6.12-24.24-2.38-29.3,7.41-10.43,23.14,19.62,39.68,35.54,20.72,1,1.18,2.65,1.9,3.14,3.37s.74,1.67,2.16,1.8a149.09,149.09,0,0,0,15.24.74c9.58-.11,19.19.29,28.75-.47,1.43-.11,1.77-.44,2.16-1.81s2-2.27,2.93-3.35C471.09,183.83,497.67,174.5,494.21,152ZM488,146.66a3.53,3.53,0,0,1,1.13,1.93C487.78,148.15,487.76,148.12,488,146.66Zm.17,3.25c1.15.63,2.54,1,2.14,2.76L487,150.76C487.3,149.68,487.42,149.59,488.12,149.91Zm-5.29-1.42a3.67,3.67,0,0,1,1-2.13C484.11,148.09,484,148.34,482.83,148.49Zm.68,6.69c-.78-.44-.78-.44-.31-1.26Zm0-10c-1.71,2.77-2.12,3.22-3.05,3.41C480.79,147,481,144,483.47,145.17Zm-15.69,9.92c.21,1.08.36,1.86.53,2.72-7,3.52-4.22-2.54-1.82-6,.41-.66.55-.65,1.72-.46-.45,1.86-1.87,3.41-1.88,5.77Zm.5-6.25c1-1.56,1.31-4,3.64-3.31C470.72,146.77,470.4,149.5,468.28,148.84Zm7.1,4.32c2.53-1.37.65,2.8.43,3.86-.43,1.23-.94,1.43-2.53,1A19.33,19.33,0,0,1,475.38,153.16Zm-3.14,4.25c-1.21-.61-1.63-1.43-1.21-2.49.58-1,1.06-3.33,2.63-2.33C473.17,154.24,472.71,155.82,472.24,157.41Zm3.91-9.36c-.52.8-.66.84-2,.51.89-1.81,1.37-4.4,4-3.6Zm-3.36.39a1.08,1.08,0,0,1-1.52.29c.8-1.62,1.08-4.2,3.5-3.42C474.07,146.42,473.46,147.45,472.79,148.44ZM470,161.35c1.48,1.51,3.49,2.72,4.63,4.44-2.28-.68-4.1-2.74-6.22-4C469.17,161,469.43,160.89,470,161.35Zm.3-.41c-.15-.11-.17-.37-.3-.67,3.1-.17,5.2,2.62,7.37,4.54C475.79,166.57,472,161.69,470.25,160.94Zm5,.44c2.07-2.34,3.89.84,5.55,2.05C478.85,165.7,477.07,162.21,475.22,161.38Zm2.91-.83c-1.69-2.44,4.18,1.15,4.47,1.74C481.28,164.17,479.54,161.09,478.13,160.55Zm1.8-3.27c.57-1.8-.19-6.59,2.53-6-.35,2.11-.7,4.21-1.08,6.46Zm-.86-8.91c-.31.48-.83.43-1.46.25.59-1.66,1.17-4.64,3.5-3.6C480.41,146.19,479.78,147.3,479.07,148.37Zm1.52-6.87c-2.43-.13-5.66,1.41-7.39-.89C474.57,139.91,478.55,140.3,480.59,141.5Zm-7,.27c-1.78.75-3,.55-4-.67C471.12,140.37,472.25,141.33,473.59,141.77Zm-4.4.58-2.67.12C467.69,141.42,468,141.39,469.19,142.35ZM468,145.64l.37.24-1.9,3.08-.3-.18A19.65,19.65,0,0,1,468,145.64ZM463.5,155a2.69,2.69,0,0,1,1.76-3.66C464.65,152.59,464.11,153.73,463.5,155Zm.85-9.12a14.66,14.66,0,0,1-2.32,3.55C462.39,147.59,463.35,146.08,464.35,145.86Zm-2.17-.23c-.6,1.09-1.17,4.23-2.71,3.72C460.36,148,460.6,146.18,462.18,145.63Zm-1.89.08c-.77,1.38-1.42,2.55-2.22,4A5.41,5.41,0,0,1,460.29,145.71Zm-.92,7a8.58,8.58,0,0,1-2.7,2.53c0-1-.07-1.72-.11-2.46A4.74,4.74,0,0,1,459.37,152.68ZM458,145.87c-1,1.23-.93,4-3,3.53C456,148.33,456.24,145.05,458,145.87Zm-2.46-.13c-1.16,1.37-1.31,4.46-3.55,4.06C453.11,148.44,453.32,144.81,455.56,145.74ZM453,156c0,1.47.7,2.18-1.16,2.93-.14-2.22-.28-4.39-.42-6.72l1.58.17C453,153.71,453,154.87,453,156Zm.26-10.31c-1.11,1.22-1.68,5.26-3.72,4C450.79,148.22,450.68,144.75,453.29,145.72Zm-4.85,1.34c.31-.57.58-1.17,1.51-.83-1.87,3.77-3.39,7.39-5.28,11.22C443.46,153.33,447.12,150.6,448.44,147.06Zm-.79,9.31c-1.2,1.63-1.91,3.53-3.46,4.86.37-3.35,2.61-5.61,4.09-8.48A4.44,4.44,0,0,1,447.65,156.37Zm-2.4,7.54a16.94,16.94,0,0,1,2.84-7.19C448.63,158.24,447.27,161.72,445.25,163.91Zm1.92-17.79L444,152c-1.62-1.59,1-3.72,1.45-5.4C445.83,146,446,145.93,447.17,146.12ZM441.81,149c.75-1.08.89-3.87,2.77-3-1,1.33-1.19,3.28-2.7,3.87C441.85,149.59,441.72,149.27,441.81,149Zm-1.26,12.9,1.07-1.45a5.55,5.55,0,0,1,.44,2.21,4.29,4.29,0,0,1-3-.39,48.19,48.19,0,0,1,2.26-4.47C442,159.58,440.2,160.45,440.55,161.94Zm-4.11,0c-.56.93-.68,1-2,.69,2.32-3.5,3.86-7.64,6.6-10.7C441.38,155.88,438,158.63,436.44,162Zm2.46-1.91c-.36,1-.47,2.09-1.55,2.65A5.79,5.79,0,0,1,438.9,160.07Zm-12.78,1.45c1.67-2.74,3.36-5.46,5-8.21.79-1.32,1-1.44,2.78-.92-1.52,3.18-3.58,6-5.31,9.09-.85,1.57-1.07,1.66-3.16,1.2C425.68,162.27,425.89,161.89,426.12,161.52Zm-1.79.62c-.55.86-1.17,1-2.73.5,1.9-2.34,5.77-11.95,8.86-10.51C428.87,155.66,426.3,158.78,424.33,162.14Zm5-.3c1.38-1.36,5.68-12.78,7.58-8.82,5.81-3.56-2.47,7.48-2.87,9-1.05,1.72-3.34.57-5.15.89A10.49,10.49,0,0,1,429.29,161.84Zm12-5.88c.07,1.63-1.27,2.14-1.75,3.13A7.08,7.08,0,0,1,441.26,156Zm.09-10.4c-.21,1-1,4-2.31,4.18l-.21-.2C439.58,148.19,440,146.41,441.35,145.56Zm-2.17-.09.22.24c-.88,1.32-1,3.39-2.56,4C437.13,148.76,438.07,145.46,439.18,145.47Zm-1.82-.13c-.74,1.54-1.08,3.52-2.46,4.21l-.27-.24C435.6,148,435.85,146,437.36,145.34Zm-1.62,0c-1,1.21-1.18,4.77-3.19,4C433.55,148.29,434.05,144.87,435.74,145.34Zm-3.59-.25-1.52,3.58.31.21c.86-.61,1.24-1.62,2-2.35-.84,2.36-.92,3.4-3.82,2.86C430.38,147.84,430.4,146.2,432.15,145.09Zm-5.83-.08c.83.43,1.69-.31,2.68.06-.38.79-.73,1.5-1.07,2.22.87-.51,1-1.69,2.15-2.26-1.36,5.12-1.62,4.5-6.62,4.42C424.49,147.86,425.1,146.11,426.32,145Zm-1.73,0c-1,1.23-1.36,4.58-2.84,4.36C422.18,148,423.71,145.53,424.59,145Zm-7.32,10c1-1.15,1.06-3.9,3.12-3.1a21.13,21.13,0,0,1-3.32,5.06A2.43,2.43,0,0,1,417.27,155Zm-.38-1.19a1.57,1.57,0,0,1,1.1-2A3.59,3.59,0,0,1,416.89,153.8Zm.74,4c1.4-1.64,2.45-6.81,5-5.82l-5.53,8.28A3.24,3.24,0,0,1,417.63,157.79ZM422.91,145c-.29,1.11-1.78,5.33-3.3,4.43C420.75,147.92,421,145.48,422.91,145Zm-2.62.14.27.3c-1.07,1.24-1.27,5-3.43,4.16C418.23,148.1,418.61,145.93,420.29,145.11Zm-2.15.34c-2.64,4.65-4.63,9-7.12,13.82-.64-5,3.61-8.64,5.4-13C416.89,145.45,417,145.4,418.14,145.45Zm-2.56.18c-1.13,3-3.46,5.45-4.42,9-1.4-3.21,1.87-5.5,2.95-8.26A1.16,1.16,0,0,1,415.58,145.63Zm-2.48.23a13.77,13.77,0,0,1-2.48,4.4C409.59,149.44,411.84,144.94,413.1,145.86ZM411,146c-.85.92-1.18,3.54-2.76,2.8C408.62,147.52,409.19,145.13,411,146Zm-3-.75c.24.54.49.84.42,1-.62.94-.73,3.39-2.36,2.56Zm-.16,6.75c-.15,2.33-.29,4.49-.44,6.86l-1.21-1.07v-5.63Zm-5.71-6.37c.11-.15.46-.12.7-.18l.17.21c-1.08,1-1.48,3.28-3.08,3.24C400.72,147.66,401.4,146.61,402.13,145.6Zm.51,6.73V154l-1.89-1.47.07-.21Zm-4.9-6.88c0,.38,0,.65-.06.92.75-1.45,2.1-.66,3.5-.93-.9,1.1-1,4-2.81,3.31.27-.67.54-1.3.88-2.13-1,.68-1.08,2.09-2.34,2.31-.38-.83.27-1.34.38-2l-1.64,2A5.4,5.4,0,0,1,397.74,145.45Zm-2.57,9.72c.16-.3.33-.61.47-.89.75.79-.2,2.47-.27,3.55-.7,2.06-3-.06-4.38-.3.87-2.33,1.69-5.29,3.61-6.65l.26.24c-.33.72-.67,1.44-1.09,2.36,1.08-.75.88-2.34,2.33-2.63.06,1.57-1,2.76-1.19,4.14ZM376.55,155c.89-1.26,1.59-2.65,2.54-3.88-.25,1.25-1.09,2.26-1.15,3.49.23.33.47,0,.87,0l.71,2.21a6.4,6.4,0,0,1-3,1C375.76,156.55,375.8,156.08,376.55,155Zm.65-3.82-1,1.82C376,151.71,376.1,151.51,377.2,151.17Zm1.51-3a11.21,11.21,0,0,1,2.32-3.41A9.24,9.24,0,0,1,378.71,148.19Zm-.31,13.34a44.64,44.64,0,0,1,3.59,4.16c-3,0-4.11-2.87-6.1-4.54C377.38,160.5,377.47,160.51,378.4,161.53Zm.11-1c1.42-.72,1.64-.67,2.45.27,1.35,1.66,2.89,3.11,4.11,4.88C382.31,166.17,380.69,162.06,378.51,160.55Zm2.57-.75c-.06-.07,0-.24-.06-.52a14.31,14.31,0,0,1,7,5.7C386,166.87,382.84,161,381.08,159.8Zm9.8-11.56c-.39.56-.65.55-1.91.28.5-1.74,1.28-4,3.59-3.07C391.94,146.5,391.46,147.4,390.88,148.24Zm.59,2.53c-.32.6-.48.88-.63,1.17C389.67,151.42,390.34,150.89,391.47,150.77Zm-4.18-2.11c0-.41,0-.73,0-1h0c.73-.74,1-2.2,2.18-2.31A4.89,4.89,0,0,1,387.29,148.66Zm.95,5.76c1.07,2-2,4.28-4,3.35a22.59,22.59,0,0,1,2.75-5.48c2,.8.16,2,.19,3.31Zm-1-6.78c-.59.46-1,1.32-2,.81.46-1.65,1.11-3.38,3.06-3.37C387.84,146.13,387.53,146.89,387.22,147.64Zm-3.27.54c-.35.48-.95.42-1.61.1.78-1.1,1.52-4.11,3.25-3.06A9.26,9.26,0,0,1,384,148.18Zm-1.48,4.68c.61-.35,1.28-.78,1.91,0l1.19-.69a18.94,18.94,0,0,1-2,5.38C382.22,156.54,380.31,154,382.47,152.86Zm3.2,8.23c2.56-1.75,3.9,1.29,5.45,2.93C388.4,166.11,387.46,162.5,385.67,161.09Zm3.23-.32a2.82,2.82,0,0,1-.37-.66l.19-.23c1.14.41,1.91,1.52,3.28,1.57a1.79,1.79,0,0,1,1.48,1C392,165.11,390.29,161.7,388.9,160.77Zm3.53-9.73.24.18-1.12,2.17A2.42,2.42,0,0,1,392.43,151Zm1.53-2.48-.25-.17,1.83-2.84A5.11,5.11,0,0,1,394,148.56Zm.63-3c-1,1.07-1.28,3.88-3.06,2.95C392.62,147.24,392.34,145.13,394.59,145.53Zm-12.89-5.24a15.77,15.77,0,0,1,11,1.8c-2.41,0-4.87-.29-7.3-.45-1.37-.23-2.88.21-4.09-.8C381.41,140.64,381.52,140.33,381.7,140.29Zm-.49.54c-.56.71-.75.72-1.84,0A1.57,1.57,0,0,1,381.21,140.83ZM379,144.61c-.06.89-.66,1.26-1.16,1.68C378.11,145.66,378,144.78,379,144.61Zm-3.52.36c.19-.34.56-.34,1.68-.14l-1.5,2.48A2.23,2.23,0,0,1,375.52,145Zm-.29,16.61,2.16,2.29-.21.21a4.9,4.9,0,0,1-2.17-2.26Zm-1.57-10.4c.44.51,0,.84-.15,1.51C373,151.87,373.05,151.48,373.66,151.18Zm-2.38-4.8c.14,1.38,1,2.91.67,4.06C369.84,149.24,369.69,148.42,371.28,146.38Zm-1.57,3.1c.83,1,2,1.65,1.6,3.16C369.71,152,369.13,151,369.71,149.48Zm-.66,2.2a3.62,3.62,0,0,1,1.92,4C369,154.31,368.5,153.23,369.05,151.68Zm7.48,17.89c-3.14-1.35-4.81-4-6.18-6.95l.29-.21,6.13,7Zm3.66,1.54c-4-2.58-6.62-6.79-9.94-10.14a4.63,4.63,0,0,1-1.27-4.06c.15-.65-.58-1.4-.1-2.52,1.32,2,3.24,3.3,3.21,5.91l-1.21-1c2.44,4.68,6.88,7.75,10.08,11.77C380.64,171.12,380.35,171.21,380.19,171.11Zm1.81-.06c-1.27-1.13-2.44-2.37-3.66-3.56l.2-.29c2.79.2,4.67,2.27,6.28,4.48A2.88,2.88,0,0,1,382,171.05Zm3.43.48c-1-1.06-1.93-2.22-3-3.47,2.57-.91,3.6,2.26,5.49,3.54C386.93,172.15,386.08,172.21,385.43,171.53Zm3.41-.22c-1.06-1-1.94-2.07-3-3.16,2.1-1.08,3,1.77,4.46,2.81C389.75,171.59,389.28,171.71,388.84,171.31Zm2.19-1.18c-.77-.75-1.5-1.54-2.32-2.38,1.72-1.45,2.59,1.28,3.8,2.13C392,170.47,391.53,170.62,391,170.13Zm3.34-1.08c-1.48,1.12-2.27-1.37-3.44-2.24,2.25-1.54,2.87-.24,4.32,1.45A10.48,10.48,0,0,1,394.37,169.05Zm1.61-1.23-2-2.1c.32-.77.32-.77,1.32-1.23l2,2Zm1.94-1.84c-.76-1-1.79-1.34-1.67-2.54a2.06,2.06,0,0,1,1.61.43c-.38-.88-1.29-1.49-.35-2.36a8.15,8.15,0,0,1,2,2.25Zm0-7a12.35,12.35,0,0,1,1.48-3.36c2.4,2.45,3.07,1.49,1.15,4.88Zm3.64,2.68c-1.45-.62,0-3.08,1-3.31C403.34,159.48,402,160.48,401.56,161.64Zm1.35,1.73c-1-1.22.32-2.75,1-3.82,1.81.5-.45,2.66-.65,3.76Zm.95.94c.54-1.19,1.05-2.32,1.55-3.45,2.39.46.34,2.23.18,3.61.88-.53.89-1.67,1.69-2.37l1.32.55-.92,2.84.16.1c2.31-3.64,5-7,6.68-11,.38,1.82.27,2.28-.72,3.57-1.65,2.44-3.41,4.92-4.15,7.76,1.8-2.41,2.65-5.06,4.42-7.35-.78,3.7-3.66,6.53-5.16,10.17Zm6,4.88c1.13-3,3.22-5.68,4.56-8.65,1.26,3.05-1.61,5.34-2.59,8C411.28,169.58,411.13,169.65,409.84,169.19Zm2.67.16c1.43-1.85,1.68-5.95,4.64-5.09a48.23,48.23,0,0,1-2.81,4.54C413.84,169.57,413.76,169.6,412.51,169.35Zm5.45,0c-.2-.78.39-1.14.59-1.71l.27.18Zm1.09-4.3c-1.23,1.28-1.72,4.26-3.65,4.36a48.55,48.55,0,0,1,2.43-4.42c.41-.71.41-.71,1.48-.65A3.91,3.91,0,0,1,419.05,165.05Zm-2.18-2.29c1.21-3.65,4.39-6.73,6.31-10.16.25-.36.47-.77,1.23-.55-1.72,3.53-5.36,6.36-6.13,10.15,2.39-2.86,4.35-6.09,6.54-9.11.88-1.29,1-1.37,2.85-1-2,3.46-4.58,6.57-6.78,9.92C420,163.48,418.29,162.68,416.87,162.76Zm2.56,6.87c.18-1.75,1.41-3,2.11-4.62.37-.67.41-.65,1.37-.49C422.05,166.42,421.33,168.64,419.43,169.63Zm3-.48c-.09.14-.36.18-.7.34.3-1.51,1.19-2.43,1.9-3.67.36-.47.36-1.35,1.51-1.32C424.16,166.14,423.3,167.65,422.41,169.15Zm1.42.26c.93-1.77,1.46-3.82,3-4.89C425.75,167.6,424.86,169,423.83,169.41Zm4.82-4.88a12.27,12.27,0,0,1-2.51,4.75A12.34,12.34,0,0,1,428.65,164.53Zm-.87,4.69c.93-1.16,1.52-5.13,3.26-4.48C430,165.93,429.76,170,427.78,169.22Zm1.84.1c1.13-1.41,1.5-5.28,3.6-4.54C432.24,166.3,432,170.22,429.62,169.32Zm2.37.1a9.79,9.79,0,0,1,2.55-4.83l.35.26C433.93,166.13,433.92,169.62,432,169.42Zm1.58-.07c1.25-1.51,1.47-5.23,3.83-4.5C436.3,166.33,436,170.22,433.57,169.35Zm2.68.06c.54-1,1.89-4.86,3.38-4.71C438.52,166.14,438,169.69,436.25,169.41Zm2,.18-.35-.28q1.31-2.24,2.62-4.47l.28.14C439.93,166.47,439.78,168.64,438.25,169.59Zm4.17-.12,1.06-1.91C443.56,168.87,443.41,169.22,442.42,169.47Zm-.88-.33c-.52.84-1.3.56-2.1.4.34-1.48,1.44-2.7,2.13-4.06.49-.81.66-.85,1.93-.56A17,17,0,0,1,441.54,169.14Zm2.34.21c1.5-2.8,2.93-5.5,4.44-8.32,1.37,2.51-1.19,5.13-1.72,7.63C446.08,170,445.52,170.16,443.88,169.35Zm3.5.31c.68-1.29,1.8-7.19,3.32-6.72C450.39,164.16,449,170.69,447.38,169.66Zm5.51-3.54c-.25,1.31-1.31,1.82-2.39,2.67.93-2.31,1.19-7,3.58-8C453.78,162.66,453.23,164.32,452.89,166.12Zm2.3-1.87c-.06.66-.32.87-1.45,1.35.93-2.31,1-5.12,2.79-7l.26.14C456.43,160.65,455.32,162.29,455.19,164.25Zm3.41-3c-.77.75-1.48,1.57-2.21,2.36l-.29-.18c1.26-2.62,1.61-5.81,3.93-7.75.19,1-.43,2-.31,3.18l1-1.1C462.49,159.74,459.54,159.92,458.6,161.25Zm6.06,7.81a8,8,0,0,1-2.92-2.89l3.09,2.68Zm3,.28c-2.35-1.6-4.54-3.43-6.82-5.15-.76-.58-.74-.67.1-1.36l6.87,6.34Zm-2.61-7.22c2.57-1.16,4.25,2,6.27,3.29C469.5,165.69,466.59,164.1,465.05,162.12Zm8.22,9.69a38,38,0,0,1-4.08-3.61c2.93-.06,4.61,1.85,6.64,3.69C474.77,172.2,474,172.41,473.27,171.81Zm2.9-.82-2.6-2.23c2.24-1,3.85,1.56,5.77,2.35C477.92,172,477.25,171.93,476.17,171Zm1.19-2.78a8.46,8.46,0,0,1,3.38,2.54C479.73,170.88,479.73,170.88,477.36,168.21Zm5.67,1.51c-1.65.45-2.87-1.37-4.15-2.27,1.41-1.34,2.92,1.39,4.22,2Zm1.88-.89-3.17-2.58c1.3-2,2.68.73,4.13,1.58Zm1.94-2.43c-1,.51-1.94-1.06-2.83-1.51C484.56,163.11,487.48,165.42,486.85,166.4Zm.77-1.52c-.66-.7-2.42-1.09-1.81-2.19a.64.64,0,0,1,.92-.27C487.81,163.12,489.28,163.51,487.62,164.88Zm1.34-2.35c-2.16-.41-2.66-1.23-1.49-2.58C488.33,160.75,490.1,161.06,489,162.53Zm-1.34-3.71c-.2-.17-.2-.6-.3-.91l.39-.25c.77.83,2.24,1.18,2.29,2.43A4.25,4.25,0,0,1,487.62,158.82Zm2.61-.42c-1.25-1-3.35-1.46-2.74-3.41a10,10,0,0,1,2.83,2.11C490.58,157.34,490.53,157.4,490.23,158.4Zm.25-2.87c-1.77-1.33-3.56-2.38-5.08-3.78l.15-.28C486.76,152,491.22,153.94,490.48,155.53ZM436.85,153h0l0,0-.09.08A.61.61,0,0,0,436.85,153Zm-.05.12a14.06,14.06,0,0,1-2.32,3.84A9.91,9.91,0,0,1,436.8,153.15Zm-2.41,4,.09-.12a1,1,0,0,1-.17.32Zm-1.05,1.6,1-1.4c-.22.52-.43,1-.65,1.57Z"/><path class="cls-1" d="M3.2,132.64l14,3,33-1s-22-3-23-62c0-15,2-50,21-52,4,1,190,0,190,0s1-9,0-11c-6-1-8-7,1-7h41c5.16,0,4.55,7,0,7v9h186s20,12,22,59c-1,45-21,58-21,58h36l15-3v13l-16-2-143-1v7h-13l-2,9-67-2-4-13-254-1-16,3Z"/><path class="cls-2" d="M520.29,127.49a2.8,2.8,0,0,0-2.81-.57,2.11,2.11,0,0,0-1.28,2.2c0,.69-.12,1.39-.18,2.12a13.73,13.73,0,0,0-7.9.94,14.89,14.89,0,0,1-4.47,1.11,41.73,41.73,0,0,1-4.45-.19l-26-.09h-1.78c1.35-1.38,2.42-2.63,3.64-3.71a15.87,15.87,0,0,0,3.94-5,4.45,4.45,0,0,0,.4-1.69,4.78,4.78,0,0,1,1.71-3.71,3.38,3.38,0,0,0,.92-1.14c.9-2,1.83-4,2.6-6a81.27,81.27,0,0,0,5.21-25.53c.51-13.37-.46-26.54-4.48-39.36-1.23-3.89-2.8-7.68-4.21-11.51a60.13,60.13,0,0,0-8.37-14.63,13.68,13.68,0,0,0-13.25-5.65,17.33,17.33,0,0,1-1.91.09l-14,.15-90.41.82q-10.9.11-21.81.18a2.8,2.8,0,0,1-2.15-.59,6.92,6.92,0,0,0-8.31-.15,3.55,3.55,0,0,1-2.47.88c-11,.08-22,.19-33,.26a32,32,0,0,1-3.28-.28c-.24-1.77-.46-3.36-.68-5,.38-.09.68-.17,1-.23A2.94,2.94,0,0,0,285,8.75a11.81,11.81,0,0,0-.41-6.58,2.82,2.82,0,0,0-2.45-2.1,44.13,44.13,0,0,0-4.88,0c-1.08.05-2.15.3-3.23.33-1.82.07-3.64.06-5.46,0C257.38.33,246.2.93,235,.15a3.13,3.13,0,0,0-2.66,1.12,6.41,6.41,0,0,0-1.46,4.29c-.07,1.84.49,3.32,2.38,4a13.76,13.76,0,0,0,1.91.71c.86.16,1.1.63,1.05,1.43-.09,1.27-.11,2.54-.18,3.81-.1,1.61-.14,1.64-1.79,1.65q-87.48.77-174.95,1.5a42.85,42.85,0,0,1-10.4-1.08,4.26,4.26,0,0,0-2.5.31A28.25,28.25,0,0,1,42.53,19c-2.55.5-4,2.44-5.55,4.15-.06.06,0,.18-.07.26a8,8,0,0,1-.72,1.69,60.93,60.93,0,0,0-9.66,21.79c-1.42,6.28-1.6,12.7-1.94,19.1-.18,3.49-.14,7-.15,10.49a49.55,49.55,0,0,0,.23,5.72c.42,3.7,1,7.38,1.52,11.07A117.39,117.39,0,0,0,32.36,117a38.21,38.21,0,0,0,9.12,14.4,11.07,11.07,0,0,1,.9,1.28c-2.32,0-4.3,0-6.29,0-5,.12-10.1.06-15.12.49a18.36,18.36,0,0,1-8.63-1.37,14.77,14.77,0,0,0-5.58-1c-.62,0-1.23.12-1.94.19-.08-1-.09-1.91-.24-2.79a2,2,0,0,0-2.69-1.56c-1.49.35-2.09,1.2-1.83,2.51a11.18,11.18,0,0,1,.26,2.15c-.06,4.54-.18,9.08-.23,13.63a39.92,39.92,0,0,0,.22,4.89,1.93,1.93,0,0,0,2.46,1.88c2.05-.24,2.8-1,2.89-3.08,0-.8,0-1.6,0-2.46.64,0,1.09,0,1.54,0,2.48-.12,5,.28,7.42-.62a22.12,22.12,0,0,1,7.92-1q83.25.23,166.5.41l56.46.12c1.65,0,1.67,0,1.67,1.68q0,8.31,0,16.63a4.3,4.3,0,0,0,.07,1,1.7,1.7,0,0,0,1.68,1.49,1.73,1.73,0,0,0,1.74-1.43c.11-.43.16-.87.21-1.14,1.73,0,3.31,0,4.89,0q7.5-.24,15-.56c.79,0,1.37-.08,1.63.93a1.82,1.82,0,0,0,2,1.52c.88-.09,1.47-.72,1.74-1.84a2.56,2.56,0,0,1,.46-1.23,1.91,1.91,0,0,0,.51-2.74c2.43.19,4.64.39,6.85.52.85.05,1.6.14,1.78.86a11.34,11.34,0,0,1,2.47-.6q19.3.06,38.59.23a21.1,21.1,0,0,1,2.84.4,12.94,12.94,0,0,1,2.11-.45c1.54-.1,3.09-.07,4.63-.11,2.54-.07,5.09-.11,7.63-.25,1.71-.1,2.33-.73,2.56-2.42s.4-3.43.61-5.14a3.68,3.68,0,0,1,.2-.7h11c1.89,0,2.66-.8,2.51-2.69-.06-.77-.23-1.53-.33-2.3,0-.38-.06-.77-.1-1.36H363l128.3.35c3.72,0,7.45.1,11.18.06a15.76,15.76,0,0,1,5.51.56,5.13,5.13,0,0,0,1.62.12h5.45a5.13,5.13,0,0,1,.16.78,24.53,24.53,0,0,0,.13,2.72c.27,1.48,1.52,2.23,3.33,2.14,1.17,0,1.84-.78,2-2.34s.17-3.18.15-4.77c0-4.41-.17-8.82-.23-13.22a11.1,11.1,0,0,1,.27-2.29A1.69,1.69,0,0,0,520.29,127.49Zm-515,7.93,2.13-.18-1.8,2.81-.33-.13Zm1.59,5.45c-.3.57-.61.72-1.35.45,1.27-2,2.5-4,3.76-5.92.1-.14.47-.11.71-.16l.2.27c-.34.47-.72.9-1,1.39C8.36,138.21,7.56,139.52,6.85,140.87Zm2.15.94c-.1-.12-.19-.24-.29-.35,1-1.73,2.06-3.48,3.14-5.18.34-.53.85-.38,1.37.13-1.06,1.66-2,3.28-3.11,4.84C9.91,141.55,9.38,141.63,9,141.81Zm4.19-1.17A21.66,21.66,0,0,1,15,137c.17-.24.84-.14,1.27-.2l.16.43C15.42,138.28,15.3,140.1,13.19,140.64Zm5-1.48c.3-1.75.76-2.09,2.59-1.85C20.06,139.21,19.73,139.43,18.2,139.16Zm4-.07c.43-1.62.79-1.87,2.34-1.59C23.86,139.28,23.6,139.44,22.19,139.09Zm3.68,0c.38-1.51.77-1.78,2.32-1.49C27.45,139.23,27.23,139.36,25.87,139.11Zm4.07.11c.35-.87.57-1.59,1.67-1.6C31.37,138.48,31.25,139.27,29.94,139.22Zm3.44-.1c.4-1.48.77-1.73,2.1-1.35C35,139.17,34.7,139.35,33.38,139.12Zm438.17-13.84c-2.07,1.63-4.16,3.22-6.26,4.81a1.88,1.88,0,0,1-1,.41c-2,0-4.08,0-6.26,0,.74-1.61,1.46-3,2-4.4s.9-2.86,1.3-4.3c.15-.58.34-1,1-1l11.72.16c.12,0,.23.11.46.22A9.3,9.3,0,0,1,471.55,125.28ZM458.22,20.55a39.2,39.2,0,0,1,5.43.14,8.62,8.62,0,0,1,3.4,1.56,9.46,9.46,0,0,1,2.17,2.41,80.51,80.51,0,0,1,9.53,18.77c5.35,15,6.77,30.42,5.6,46.19a72.67,72.67,0,0,1-6.61,24.89c-.62,1.37-1.25,2.73-1.86,4.1a1.44,1.44,0,0,1-1.44,1c-3.95,0-7.9,0-11.85-.06a3.21,3.21,0,0,1-.67-.17c.18-1.52.38-2.9.5-4.3.73-8.32,1.7-16.64,2.07-25,.4-9,.28-18,.25-27,0-4.4-.23-8.81-.53-13.2-.16-2.3-.7-4.58-1.06-6.87a4.57,4.57,0,0,1,0-1.66c.24.39.47.78.71,1.16-.71-7.75-1.56-15.46-7.18-21.9C457.31,20.62,457.77,20.55,458.22,20.55Zm-220.5-16,31,.35c3.08,0,6.17,0,9.25,0a2.16,2.16,0,0,1,.81,0,4.86,4.86,0,0,1,.86.65c-.23.28-.42.76-.7.82a18.49,18.49,0,0,1-4,.68c-8.49,0-17-.11-25.46-.17-2.72,0-5.45-.09-8.16,0-1.78.09-3-1.08-4.58-1.53-.12,0-.16-.37-.32-.79C237,4.58,237.37,4.54,237.72,4.55Zm12,8.12c-.09-.52-.15-1.05-.25-1.76h1.36l25.2.43c1.84,0,1.88,0,2.06,1.84.14,1.44.14,2.9.23,4.35a1.37,1.37,0,0,1-.92,1.49c-.46.19-.9.45-1.37.61-6,2-12.09,3.67-18.54,3-1.94-.19-3.89-.33-5.83-.49-.63-.05-1.2-.14-1.12-1C250.77,18.29,250.15,15.49,249.68,12.67ZM247,10.93c.8-.3,1.21-.11,1.29.68.35,3.33.71,6.67,1.08,10.2-.35,0-.57,0-.79,0-2.25-.22-2.25-.22-1.84-2.45A24.58,24.58,0,0,0,247,10.93Zm-1.54.79a30,30,0,0,1-.2,3.79c-.22,1.74-.54,3.46-.86,5.43-1.4-.54-2.58-1-3.72-1.47a1.11,1.11,0,0,1-.52-.84c.15-2.7.36-5.4.56-8.28a15.63,15.63,0,0,1,4.18.3C245.14,10.69,245.46,11.35,245.46,11.72ZM38.93,31a32.61,32.61,0,0,1,6-5.86c1.81-1.35,3.77-1.27,6-1.15-.27.73-.48,1.31-.71,1.88-.87,2.14-1.72,4.3-2.66,6.42a1.49,1.49,0,0,1-1,.82c-2.72,0-5.45-.15-8.17-.25-.11,0-.22-.13-.47-.29A14.43,14.43,0,0,1,38.93,31Zm1.19,89.3A79.4,79.4,0,0,1,36.85,113a116.73,116.73,0,0,1-5.13-20.17c-.57-3.87-1.16-7.73-1.62-11.61a46.78,46.78,0,0,1-.16-5.3c0-7.49.2-15,1-22.45a53.07,53.07,0,0,1,5.91-19,1.53,1.53,0,0,1,1.45-1c2.77.09,5.54.17,8.3.27a2.46,2.46,0,0,1,.54.24,17.14,17.14,0,0,1-1,3.58A15,15,0,0,0,44.83,43c-.61,5.5-1.23,11-1.51,16.54-.37,7.2-.45,14.42-.59,21.64-.11,5.45,1,10.76,2.25,16,1.65,7.12,3.62,14.16,5.44,21.23.26,1,.45,2,.71,3.17-.82,0-1.44,0-2.07,0-2.36-.08-4.72-.2-7.08-.25A1.84,1.84,0,0,1,40.12,120.31ZM37.37,139.1c.38-1.54.86-1.79,2.65-1.37C39.61,139.27,39.08,139.54,37.37,139.1Zm4.34,0c.34-1.52.7-1.73,2.42-1.36C43.48,139.31,43.17,139.47,41.71,139.11Zm4.38,0c.27-1.39.5-1.57,1.87-1.4C47.38,139.19,47.26,139.28,46.09,139.13Zm3.3,0c.37-1.61,1-1.85,3-1.15C51.69,139.42,51.3,139.57,49.39,139.14Zm1.53-8.06a30.74,30.74,0,0,0-3.43-2.2,16.36,16.36,0,0,1-5.85-6.12,2.68,2.68,0,0,1-.19-.57,2.94,2.94,0,0,1,.69-.12c2.76.17,5.52.37,8.27.54a1.43,1.43,0,0,1,1.33.94c1.29,2.58,2.65,5.14,4,7.71a3.64,3.64,0,0,1,.2.63C54.11,132,52.45,132.26,50.92,131.08ZM54,139.17c.08-1.36.46-1.59,2.38-1.38C55.63,139.33,55.45,139.42,54,139.17Zm3.77,0c.53-1.53.61-1.57,2-1.43C59.55,139.05,59.16,139.33,57.76,139.16Zm3.49,0c.19-1.51.6-1.76,2.5-1.41C63.06,139.37,62.87,139.46,61.25,139.19Zm4.08,0c.14-1.53.74-1.84,2.79-1.43C68,139.32,66.86,139.62,65.33,139.2Zm4.2-.06c.49-1.62.93-1.8,3-1.38C72.67,139.22,71.26,139.7,69.53,139.14Zm4.56,0c-.06-1.4,1.06-1.84,2.83-1.37C76.4,139.42,75.89,139.65,74.09,139.13Zm4.15,0c.23-1.62,1-2,3.06-1.36C80.88,139.41,80.26,139.68,78.24,139.16Zm4.66,0c.31-1.63.83-1.88,3-1.4C85.48,139.4,84.82,139.71,82.9,139.14Zm4.72.09c-.12-1.66,1.26-2,3.14-1.5C90.61,139.24,89.64,139.72,87.62,139.23Zm4.76.06c.08-1.61.87-2,2.83-1.54C95.11,139.41,94.36,139.64,92.38,139.29Zm4.51,0c.31-1.62.76-1.9,2.38-1.49C99.28,139.22,98.26,139.79,96.89,139.24Zm4.66,0c.11-1.52.58-1.87,2.2-1.55C103.38,139.43,103.2,139.55,101.55,139.29Zm3.84,0c.06-1.68.65-2,2.71-1.54C107.62,139.48,107.32,139.64,105.39,139.29Zm4.63,0c.15-1.67.6-2,2.46-1.52C111.9,139.42,111.6,139.59,110,139.27Zm4.21,0c.53-1.65.72-1.79,2-1.58C115.9,139.14,115.59,139.4,114.23,139.31Zm3.72,0c.46-.84.62-1.7,1.69-1.68C119.55,139,119.29,139.24,118,139.32Zm3.9-.07c.43-1.54.74-1.76,2.3-1.54C123.73,139.39,123.33,139.65,121.85,139.25Zm6.16.23c-.62,0-1.24,0-1.86,0,0-2.08,1.08-2.15,3.81-1.79C129.58,139.29,129.39,139.47,128,139.48Zm6.47,0c-.7,0-1.41,0-2.14,0,.26-1.75.45-1.94,1.86-2h2.16C136.08,139.17,135.79,139.47,134.48,139.49Zm3.88-.13c.13-1.47.45-1.79,1.86-1.82h2.25C141.93,139.45,141.44,139.79,138.36,139.36Zm5.28,0c.42-1.63.8-2.11,3.82-1.64C147.23,139.56,145.89,139.81,143.64,139.33Zm5.15,0c.61-1.67.93-1.89,2.32-1.63C150.84,139.3,150.42,139.62,148.79,139.36Zm3.32,0c.33-1.7.95-2,2.93-1.6C154.63,139.46,154,139.8,152.11,139.32Zm4.63.06c.59-1.57.75-1.71,1.89-1.67C158.37,139.13,158.06,139.42,156.74,139.38Zm3.66,0c.51-1.64.77-1.86,1.9-1.66C161.88,139.16,161.66,139.37,160.4,139.42Zm4.22,0c.5-1.79.85-2,2.49-1.65C166.71,139.33,166.25,139.66,164.62,139.37Zm4.48,0c.51-1.5.81-1.75,1.91-1.59C170.55,139.25,170.25,139.5,169.1,139.35Zm4.1,0c.42-1.74.84-2,2.75-1.67C175.41,139.49,174.94,139.77,173.2,139.37Zm5.11,0c.32-1.74.92-2.12,2.53-1.63C180.37,139.49,180,139.75,178.31,139.39Zm4.78.05c.22-1.76.95-2.2,2.87-1.73C185.58,139.47,185.11,139.75,183.09,139.44Zm4.95.06c.58-1.71.84-1.92,2-1.75C189.65,138.58,189.4,139.53,188,139.5Zm3.73-.13,1-1.56C192.74,139.25,192.74,139.25,191.77,139.37Zm3,.09c-.18-1.81,1.42-2.41,3.27-1.7C197.82,139.69,197.44,139.89,194.77,139.46Zm5.12-.05c0-1.56.6-2.38,3.09-1.67C203,139.38,202.44,140,199.89,139.41Zm7.28.2q-.81,0-1.62,0a1.3,1.3,0,0,1-.36-.13c.22-1.64.51-1.93,2-1.95H209C209,139.22,208.61,139.59,207.17,139.61Zm4.27-.19c.19-1.8.79-2.35,3.52-1.7C214.79,139.46,214.41,140,211.44,139.42Zm5.42,0c.16-1.8,1.2-2.37,3-1.72C219.14,139.74,218.83,139.92,216.86,139.44Zm4.94.05c.23-1.74.76-2.48,3.59-1.8C225,139.57,225.21,139.92,221.8,139.49Zm8.11.18c-.72,0-1.44,0-2.16,0-.12,0-.23-.12-.34-.18.37-1.76.63-2,2.28-2l1.9,0a3.14,3.14,0,0,1,.47.14C231.78,139.64,231.76,139.66,229.91,139.67Zm6.61,0h-3.11c.34-1.9.72-2.24,2.38-2.24,1,0,2,0,3.1,0C238.44,139.62,238.34,139.7,236.52,139.7Zm3.51-.24c1.14-2.16,1.47-2.32,3.76-1.8C243,139.81,242.27,140.15,240,139.46Zm6.4.21a8.5,8.5,0,0,1-1.36,0,5.85,5.85,0,0,1,.45-1.41,4.29,4.29,0,0,1,.94-.78c.21.3.54.57.59.89C247.13,138.89,247.16,139.53,246.43,139.67Zm2.33-100.24a3.39,3.39,0,0,1,.19-2.71,3.29,3.29,0,0,0-.5-3.59c-.26-.36-.54-.69-.94-1.19h22.8c-.1,1.25.69,1.63,1.57,2s1.15.93.81,1.69c-.42.94-1.17,1-2,0l1-1c-.17-.79-.77-.85-1.38-.85a2.41,2.41,0,0,0-2.28,1.65,2.73,2.73,0,0,0,.83,3c.42.41,1.39.54,1.09,1.36s-1.19.41-1.81.39a135.83,135.83,0,0,0-17.7.49C249.11,40.82,249.13,40.78,248.76,39.43Zm20,3.2c.74,0,1.07.3,1,1.07-.05,1.68-.06,3.36-.06,5,0,.73-.26,1-1,1.09-6.12.39-12.23.82-18.35,1.24a3.33,3.33,0,0,1-.67-.11c-.18-2.7-.37-5.38-.57-8.32Zm-19.06,12c0-.76.17-1.13,1.07-1.14,5.49-.1,11-.25,16.47-.39.45,0,.91,0,1.36,0,.95-.1,1.29.33,1.3,1.25,0,3,.13,6.08.18,9.12,0,1.23-.06,1.3-1.3,1.35-3.9.16-7.8.27-11.7.45-2,.1-4,.33-6,.5l-1.36.07a9.94,9.94,0,0,1-.12-1.24C249.65,61.29,249.69,58,249.7,54.66Zm0,13.93a.27.27,0,0,1,.07-.15c6.55-.2,12.94-.38,19.33-.6.81,0,1.17.21,1.18,1,0,2.18.07,4.36.15,6.54a1,1,0,0,1-1,1.16c-1.53.2-3.05.55-4.58.67-4.66.34-9.33.59-14,.89-.65,0-1.07-.11-1.08-.84C249.75,74.39,249.71,71.49,249.68,68.59Zm.26,13.09c0-1.21.06-1.33,1.17-1.26a82.21,82.21,0,0,0,19-1.11s.08,0,.29.07a7.66,7.66,0,0,1,.16,1.06c.1,2.86.18,5.72.26,8.58,0,1.33,0,1.36-1.35,1.44-4.71.25-9.43.47-14.14.75-1.62.09-3.24.33-5,.52-.06-.5-.14-.85-.15-1.2Q250,86.1,249.94,81.68Zm.26,21.06q0-3.54,0-7.08c0-1.58,0-1.57,1.58-1.64,5.49-.26,11-.52,16.46-.81.8,0,1.61-.18,2.49-.28a6.12,6.12,0,0,1,.2,1c.1,3,.16,5.9.26,8.85,0,.87-.16,1.32-1.17,1.37-6.21.35-12.41.75-18.62,1.13a10.07,10.07,0,0,1-1.18-.07Zm0,6.12c0-.44.06-.87.09-1.43,4.8,0,9.47,0,14.13,0,1.86,0,3.72-.15,5.58-.27.84-.05,1.27.17,1.27,1.1,0,3,.06,5.9.12,8.85,0,.79-.24,1.13-1.08,1.16-6.17.19-12.34.43-18.51.63-1.58,0-1.59,0-1.6-1.59Zm21,12.66c-1,.83-8.75,1-10.68.38C264.24,121.7,267.71,121.24,271.22,121.52Zm-21,2.43c0-1.39,0-1.44,1.5-1.4,2.36,0,4.72.22,7.08.21,3.64,0,7.27-.11,10.9-.18,1.69,0,1.7,0,1.74,1.61,0,1.9.08,3.81.1,5.72,0,1.22-.09,1.33-1.32,1.33-3.13,0-6.27,0-9.41,0v.07h-9.13c-1.34,0-1.41-.07-1.43-1.36Q250.22,127,250.22,124Zm21.28,14.36c-.09.62-.24,1.3-1,1.42a17.37,17.37,0,0,1-2,0,7,7,0,0,1,1.06-2c.36-.3,1.09-.21,1.64-.19C271.33,137.54,271.53,138.06,271.5,138.31Zm-4.77-.66c-.39,2-1,2.38-2.81,1.9C264,137.56,265.07,137,266.73,137.65Zm-3.33,10.16c.06.79.11,1.45.17,2.31l-3.19.09-2.71,0c-1.34,0-1.44-.07-1.64-1.39,0-.3,0-.62-.08-1.06Zm-9.29-8.25c0-1.95.48-2.35,2.51-1.93C256.16,139.62,255.77,139.91,254.11,139.56Zm5.07,0c-.06-2.15.83-2.5,3-1.94C261.54,139.76,261.19,140,259.18,139.59Zm-6.8,5.81-1.72.12v-.4h1.7Zm-.15-7.68a15.93,15.93,0,0,1-.84,1.65c-.11.17-.56.33-.67.25a1,1,0,0,1-.39-.74C250.33,137.75,250.9,137.38,252.23,137.72Zm18.5,21.71c-3.9.21-7.8.37-11.7.53-2.36.09-4.72.16-7.08.17-1.35,0-1.37-.06-1.4-1.39-.06-3.31-.12-6.63-.17-9.94,0-.39,0-.79.07-1.25a3.67,3.67,0,0,1,.85-.12c.51.06,1.13-.14,1.36.6s.11,1.95-.52,2.29c-.84.47-.84,1-.47,1.79a3.21,3.21,0,0,0,2.91,2.1c3.3.2,6.6.47,9.9.64,2,.11,3.06-1.44,2.59-3.49-.21-.92-.33-1.86-.45-2.8-.07-.53.15-.88.74-.9,1,0,2.09-.08,3.13-.1.35,0,.71,0,1.27.08,0,.89.1,1.66.12,2.42q.11,3.94.2,7.89C272.11,159.25,272,159.36,270.73,159.43Zm8.13-14.27c.79-.06,1.52-.51,1.62.61l-1,.65Zm-1-5.55c.52-2.28,1-2.53,3.72-2.06C281.46,139.93,280.86,140,277.89,139.61Zm2.62,6.17c1.19-.85,1.35-.87,3.5-.6a25.87,25.87,0,0,1-4,4.33C279.21,147.94,280,146.89,280.51,145.78Zm3.29-6.15c.13-1.94.42-2.23,2.13-2.23.58,0,1.15,0,1.74,0C287.44,139.9,287.12,140.06,283.8,139.63Zm-3.2,11.1c1.42-1.64,2.89-3.25,4.33-4.87.47-.53.95-1,1.74-.68-.26.94-4.84,5.81-6.56,7l-.3-.16A8.3,8.3,0,0,1,280.6,150.73ZM280,156.4a2.45,2.45,0,0,1,.53-2.59c2.32-2.67,4.66-5.33,7-8,.72-.82,1.63-.87,2.86-.61a12.5,12.5,0,0,1-.89,1.2c-2.14,2.29-4.3,4.56-6.45,6.84-.65.7-1.26,1.43-1.92,2.12C280.8,155.68,280.46,156,280,156.4Zm9.41-16.81c.32-2.21.76-2.48,3.19-2.05C292.58,139.91,291.68,140.12,289.38,139.59Zm.68,16.46,3-3.48C293.44,154.75,292,156.43,290.06,156.05Zm2.43-4.81c-1.33,1.36-2.59,2.78-3.87,4.18a1.67,1.67,0,0,1-2.19.59c2.22-2.7,4.4-5.35,6.59-8A2.67,2.67,0,0,1,292.49,151.24Zm.6-5.42c-2.74,3.13-5.5,6.26-8.25,9.39-.48.54-.94,1.13-2,.74.27-.38.42-.64.62-.87,2.54-3,5.09-5.89,7.63-8.85.6-.69,1.18-1.37,2.38-1A4,4,0,0,1,293.09,145.82Zm1.16-6.22c.22-2.06.81-2.49,2.89-2C296.75,139.83,296.28,140.14,294.25,139.6Zm.62,6.33c.34-.78,1.28-1,3.32-.71l-2.84,2.8A2.08,2.08,0,0,1,294.87,145.93Zm.91,3.57a41.07,41.07,0,0,1,3.26-3.84,2.62,2.62,0,0,1,1.75-.49,38.46,38.46,0,0,1-5.08,6.16l-.39-.16A4.57,4.57,0,0,1,295.78,149.5Zm2.7-9.85c.18-1.79.72-2.33,2.06-2.07C300.31,139.51,299.93,139.9,298.48,139.65Zm-2.6,16.44c-.31-.18-.46-1-.37-1.41a4.3,4.3,0,0,1,.87-1.63c1.73-2.16,3.56-4.24,5.22-6.44a3.06,3.06,0,0,1,3.07-1.53,11.68,11.68,0,0,0,1.45,0l.15.37-1.06,1.19c-2.53,3-5.08,5.91-7.57,8.9C297.11,156.18,296.49,156.44,295.88,156.09Zm5.92-16.49c.16-2.16,1.07-2.57,3.29-2C304.91,139.74,304.54,140.22,301.8,139.6Zm.65,15.21c-1.06,1.43-1,1.44-3.14,1.11.36-.49.65-.91,1-1.29l6.81-8.15c1.22-1.47,1.42-1.54,3.69-1.2-.39.49-.65.84-.94,1.17-1.94,2.16-3.9,4.31-5.83,6.47A23.34,23.34,0,0,0,302.45,154.81Zm4.2-15.17c.51-1.86.72-2.09,1.81-2.08C308.37,139.3,308,139.8,306.65,139.64Zm3.35,0c.39-2,1.11-2.54,2.83-2C312.69,139.76,311.85,140.22,310,139.62Zm-2.83,16.48a24.5,24.5,0,0,1-2.9-.13c.47-.6.74-1,1-1.33,2.16-2.57,4.47-5,6.45-7.75,1.39-1.91,3-2,5.31-1.6-.72.8-1.24,1.35-1.73,1.93-2.31,2.75-4.59,5.52-6.93,8.24A2,2,0,0,1,307.17,156.1Zm7.45-16.44c.05-2.27.69-2.64,3.38-2.09C318,139.86,317.36,140.18,314.62,139.66Zm-2.85,16.53c-.12-.3-.21-.41-.18-.46,1.88-3.74,4.72-6.76,7.41-9.9.65-.74.94-.76,2.48-.46-.45.52-.76.89-1.09,1.25-1.7,1.82-3.46,3.59-5.11,5.46-.93,1-1.69,2.23-2.56,3.33A6.5,6.5,0,0,1,311.77,156.19Zm8-16.56c.06-2.15.52-2.66,3.43-2.06C323.24,139.75,322.37,140.27,319.8,139.63Zm-3.34,16.63c0-1.1,0-1.1,1.3-1.62Zm-1.16-.76-.22-.2c.37-.44.73-.88,1.11-1.31,2.17-2.55,4.36-5.09,6.52-7.64,1.06-1.24,1.29-1.34,3.39-1C322.57,149,319.34,152.71,315.3,155.5Zm13.33-17.94c-.24,2.49-.94,2.56-3.22,2.15C325.19,137.28,326.22,137,328.63,137.56ZM321,155.89l3.22-3.2C323.13,153.77,322.62,155.4,321,155.89Zm3.47-.27,3.25-3.65A3.2,3.2,0,0,1,324.44,155.62Zm5-9.38a1.21,1.21,0,0,0-1.19,1.06,3,3,0,0,1-.73,1.26c-1.73,1.66-3.49,3.28-5.25,4.91a1.14,1.14,0,0,1-.75.28,2.42,2.42,0,0,1,.24-.42c2-2.37,4-4.72,5.9-7.1a2.41,2.41,0,0,1,2.83-.93l.14.36A3.64,3.64,0,0,1,329.45,146.24Zm1-6.55c.22-2.15.73-2.74,3.13-2.12C333.28,140.08,332.68,140.12,330.44,139.69Zm.66,11.13c-.53-1.32-.53-2.28.31-3.15a11.27,11.27,0,0,0,1.06-1.23c.88-1.27,2.07-1.47,3.79-1.09Zm4-11.13c.44-2.11,1-2.76,2.85-2.11C337.64,139.68,337.07,140.12,335.11,139.69Zm-3,13.77,4.62-5.82c.48-.6,1-1.21,1.46-1.8a1.25,1.25,0,0,1,1.68-.43l-7.54,8.24ZM339,139.74c.08-2.19.93-2.69,4-2.27C341.62,140.24,341.08,140.08,339,139.74Zm.46,15.78,3.54-4.77.3.18C343.56,153.81,342.17,155.63,339.5,155.52Zm4.15-9.3a5.43,5.43,0,0,1-.87,1.36c-1,1.21-2.09,2.38-3.15,3.57.09.09.26.24.25.26-.94,1.34-1.87,2.68-2.84,4-.37.5-.88.54-1.72.13l4.24-4.31-3,2.51c-.72.61-1.41,1.25-2.26,2,0-.35,0-.49,0-.56,2.37-2.93,4.74-5.87,7.13-8.78a5,5,0,0,1,1.23-1.06.7.7,0,0,1,1,.89Zm.09-6.47c.32-2,1.32-2.61,3.63-2.28C346.39,139.48,345.46,140.05,343.74,139.75Zm4.92,8.76c-.27.67-.73.47-1.21.33.68-1.9,1.67-3.24,2.42-3.33Zm-.33-8.77c.78-2.13,1.05-2.38,2.31-2.28C350.42,139,349.61,139.82,348.33,139.74Zm4.4,9-.44-.29c.25-.38.51-.75.76-1.12l.3.17C353.14,147.92,352.93,148.33,352.73,148.74Zm0-9c.49-2,1.28-2.61,2.85-2.21C355.17,139.59,354.5,140.11,352.78,139.74Zm2.51,8.65c.35-2.06,1.21-3.13,2.4-3C357.85,148.52,357.41,148.81,355.29,148.39Zm1.88-8.64c.57-2.34,1-2.68,2.83-2.25C359.62,139.38,358.83,140,357.17,139.75Zm5.25,0c.77-2.44,1.1-2.67,3.17-2.32C365.4,139.43,364.4,140.19,362.42,139.77Zm5.38,0c.77-2.51,1.2-2.78,3.57-2.3C370.78,139.47,369.68,140.2,367.8,139.76Zm5.42,0c1.35-2.88,1.77-2.68,3.61-2.37C376.62,139.51,375.54,140.26,373.22,139.8Zm4.89,0c.88-2.57,1.32-2.86,4.4-2.29C381.84,140,381,140.38,378.11,139.79Zm5.5.07c.75-2.53,1.41-2.91,4.07-2.43C387.32,139.61,386.19,140.31,383.61,139.86Zm4.65,0c1.17-2.91,1.94-2.9,3.62-2.43C391.31,139.71,390.57,140.22,388.26,139.89Zm8.36.15h-4.47c.73-2.15,1.68-2.88,3.38-2.6l-.51,1.72.31.27c.59-.59,1.17-1.2,1.78-1.76s1.51-.38,2.31-.35C399.12,139.48,398.52,140.05,396.62,140Zm3.53-.08c.45-2.36,2.53-3.32,5.37-2.48C404.72,140,403.85,140.4,400.15,140Zm5.79,0c.52-2.26,2-3.13,4.23-2.49C409.62,139.9,408.87,140.34,405.94,140Zm7.9.12h-2.66l-.16-.39a15.59,15.59,0,0,1,.92-1.77,1.45,1.45,0,0,1,.95-.63c1.16-.07,2.33,0,3.48,0C416.41,139.34,415.72,140.08,413.84,140.08Zm4.07-.14c0-2.46.74-3,3.36-2.52C420.16,139.68,419.48,140.17,417.91,139.94Zm4,0c.9-2.39,1.64-2.92,3.44-2.53C424.79,139.38,423.69,140.21,421.9,139.94Zm4.73-.05c.74-2.16,1.49-2.79,2.91-2.43C429,139.44,428,140.22,426.63,139.89Zm4.23,0c1-3,1.55-2.87,3.68-2.48C434,139.63,432.81,140.43,430.86,139.88Zm5,.08c1-2.22,1.67-2.79,3.1-2.55C438.54,139.29,437.49,140.19,435.85,140Zm3.75,0c.59-2.43,1.8-3.08,4.75-2.49C442.82,140.31,442.65,140.41,439.6,139.93Zm5.22,0c1.1-2.49,1.74-2.92,3.66-2.53C447.82,139.67,446.88,140.34,444.82,140Zm4.33-.05c.88-2.46,2.7-3.35,4.69-2.27C452.49,140.16,451.59,140.6,449.15,139.91Zm-7.34-9.27c-7.45.05-14.9.14-22.35.18-5.44,0-10.89,0-16.34,0l-120.79.33c-2,0-3.91,0-5.87,0-.91,0-1.32-.3-1.32-1.25q0-3.21-.19-6.41c-.05-1,.42-1.28,1.3-1.28,2.41,0,4.82,0,7.22,0q15.61-.28,31.22-.61l10.36-.2c.53,0,1.06-.06,1.59-.09v-.48c-4,0-8-.09-12,0-6.72.18-13.44.55-20.16.74-6,.16-12.09.19-18.13.27-1.39,0-1.6-.13-1.64-1.54-.14-4.85-.21-9.71-.33-14.57,0-1-.18-2-.2-3q-.45-18.75-.86-37.49c-.08-3.59-.16-7.18-.33-10.77-.21-4.71-.51-9.42-.8-14.13,0-.53,0-.91.5-1.25,2.72-1.69,3.15-4.12,1.24-6.64a2.35,2.35,0,0,1-.21-.51c.56,0,1-.08,1.52-.07,22.36.16,44.72.25,67.08.52,13.54.17,27.08.75,40.62.91,13.91.16,27.82,0,41.73,0,4.58,0,9.17.11,13.76.24.89,0,1.76.41,2.65.53a7,7,0,0,0,2.23-.14c-1.51-.86-2.73-2.16-4.61-2.19-2.08,0-4.17-.3-6.25-.3-14.23.07-28.46.33-42.68.24-17-.12-34.08-.69-51.13-.78-33.49-.17-67-.11-100.49-.21-8.82,0-17.63-.39-26.45-.41q-18.06,0-36.13.24c-5,.08-9.88.68-14.83.9-6.49.27-13,.38-19.48.59q-13.91.45-27.8.94c-6.13.22-12.26.49-18.39.74a2.65,2.65,0,0,0-1.37.34,34.51,34.51,0,0,0,3.49.31c5-.07,10.09-.16,15.13-.31,7-.22,13.9-.54,20.85-.76,6.31-.2,12.63-.26,18.94-.5,4.58-.18,9.16-.64,13.74-.82,6.9-.27,13.81-.47,20.71-.56,8.73-.12,17.46-.19,26.18-.14,10,.07,19.91.29,29.86.45.27,0,.53.05,1.08.11-1.17,1.34-1.73,2.72-1,4.3a4.48,4.48,0,0,0,3.62,2.37,7.4,7.4,0,0,1,.05.88,166.28,166.28,0,0,0-.45,20.7c.2,5.27.22,10.55.28,15.82.15,13.45.27,26.9.45,40.35a19.58,19.58,0,0,0,0,4.26c.21,1-.09,1.15-1.31,1.16-3.86,0-7.73,0-11.59.11-5.54.16-11.07.46-16.61.63-2.45.08-4.91,0-7.36,0l-10.63.09c-2.18,0-4.35,0-6.56.08,1.31.14,2.6.36,3.91.39,1.58,0,3.18-.13,4.76-.12,3,0,5.91.2,8.86.16,5.63-.08,11.27-.28,16.9-.39q9.13-.18,18.27-.28c1.38,0,1.44.11,1.47,1.5,0,1.9.06,3.81.08,5.72,0,1.67,0,1.68-1.64,1.69l-27.41.08q-78.6.27-157.21.58c-1.6,0-2.53-.42-3.12-1.91C56.7,128,55.74,126,54.86,124a9.39,9.39,0,0,1-.3-1.08c.63,0,1.14-.09,1.66-.09,9.09,0,18.18.09,27.27,0,10.08-.15,20.17-.52,30.25-.8a10.49,10.49,0,0,0,2-.29c-3.12,0-6.25-.09-9.37,0q-25.5.82-51,.19a1.6,1.6,0,0,1-1.77-1.28c-1.32-4.48-2.84-8.92-4-13.45-1.39-5.4-2.5-10.88-3.7-16.34-1.23-5.62-.9-11.3-.67-17,.07-1.72.1-3.45.21-5.17q.46-8,1-15.9A56.42,56.42,0,0,1,47,46.37c.71-3.83,1.65-7.62,2.46-11.44a1.4,1.4,0,0,1,1.61-1.26c1.54,0,3.09,0,4.63-.07l-5.38-.32c-.12-.25-.21-.35-.19-.41,1-2.93,1.89-5.88,3.92-8.29A2.27,2.27,0,0,1,55.62,24q19.83-.26,39.67-.44,69.54-.62,139.08-1.23a12.76,12.76,0,0,1,5.76,1.25,27.45,27.45,0,0,0,6.55,2.25,57.69,57.69,0,0,0,19.39.81,41,41,0,0,0,13.33-4.19,6.39,6.39,0,0,1,2.76-.49q21.75-.21,43.5-.36l24-.21,56.83-.47c14.71-.12,29.42-.16,44.13-.39a5.17,5.17,0,0,1,5.17,3.18c1.58,3.32,2.76,6.81,4.19,10.2a17.76,17.76,0,0,1,1.15,5.81c.22,3,.83,5.94,1.21,8.91.15,1.21.14,2.44.21,3.67.65,11.12.46,22.26.35,33.39,0,3.72-.56,7.43-.92,11.14-.47,4.93-1,9.86-1.54,14.78-.26,2.16-.57,4.32-1,6.46-.27,1.47-.31,1.52-1.86,1.51q-16-.06-32-.12-13.17,0-26.32,0a3.63,3.63,0,0,0-1.51.22c2.43.15,4.85.39,7.28.43,11.41.18,22.81.31,34.22.45l18,.23c.48,0,1,.06,1.62.11a11.38,11.38,0,0,1-.33,1.58c-.84,2.35-1.73,4.68-2.56,7a1.58,1.58,0,0,1-1.77,1.13Q448,130.57,441.81,130.64ZM454.37,140c1.49-2.72,1.83-3,4.55-2.46C457.73,140.42,457.32,140.39,454.37,140Zm5.66,0c.51-2.22,1.25-2.8,3.13-2.49C462.69,139.46,461.58,140.34,460,140Zm4.16.15c-.33-2,1.42-3.18,3.95-2.57C467.4,139.81,466.65,140.29,464.19,140.1Zm4.75-.07c.23-2.09,1.47-3,3.53-2.45C471.55,140.06,471.08,140.37,468.94,140Zm4.54,0c.86-2.66,1.28-3,3.24-2.42C476.14,139.86,475.48,140.38,473.48,140Zm4.72,0c.25-2.45,1.08-3,3.84-2.48C481.22,139.8,480.22,140.43,478.2,140Zm4.47-.07c.61-2,1.12-2.58,2.32-2.38C484.74,139.41,483.92,140.25,482.67,140Zm4.12-.2c.57-2.32.83-2.56,2.26-2.14C488.73,139.61,488.27,140.06,486.79,139.75Zm4.35.21c.53-2.28.86-2.61,2.48-2.54A2,2,0,0,1,491.14,140Zm4.55,0c.21-2.15,1.09-2.88,3.16-2.51C498.13,140,497.73,140.31,495.69,140Zm4.43-.07c.41-2.13.9-2.5,3.19-2.38C502.54,139.63,501.73,140.24,500.12,139.91Zm3.57.07c.82-1.71,1.42-3.48,4.13-3.28-.95,1.18-1.74,2.2-2.57,3.19C504.82,140.4,504.3,140.22,503.69,140Zm4.58.24c-.25.45-.49.9-1.32.31l3.31-4.91.33.18a3.82,3.82,0,0,1-.23.77C509.67,137.79,509,139,508.27,140.22Zm1,1.18c1.27-2,2.5-4,3.74-5.94l.27.11a1.91,1.91,0,0,1,0,.68c-.83,1.61-1.68,3.22-2.53,4.83C510.44,141.62,510.07,142,509.28,141.4Zm4,.41-.31-.17,2.39-4.51.34.17C515.37,139.08,514.06,140.3,513.26,141.81Z"/><path class="cls-2" d="M289.66,70c15.67,7.34,18.2-13.37,15-24-4.08-5.34,9.35-2.2,7.49-5.62-.57-7.76-13.56-2.74-15.06,2.08,2.91,4.84,4.93,15.05,2.1,21.23-1.31-.5-1.38,1.12-.53,1.49-3.13,3.66-8.08.22-7.44-4.51-.6-1.34-.68.23-1.17.52.09-2.93,1.83-1.81-.52-5a7.85,7.85,0,0,1,.16-2.35c-.29-.6-.88-.84.25-1.17.07,0,1.08-3.93.88-4.48-.16-.73,1.64-1.4,1.24-1.74-1.19-.9-2.4,2.47-2.45-1-.28-.14-1.56-.48-.57-1.41.61.7,2.37,2.6,2.73,1.1-1.05-.27-.32-2.58-1.57-1.28-.28-.33-.26-1.44-1.17-1-5.71-.33,2.49,5.21-1.81,3.41.89-.78-.5-1-.69-1.14.76-2.83-1.87.39-.54,1.41.08.18,0,.29-.19.3-1.5-1.28-2,2.24-1.95,2.41a20.23,20.23,0,0,1-.47,5.94c-.47,1.28-1.24,2.6.52,3.48C283.91,61.67,285.85,67.9,289.66,70Zm28.8,15.89c-.7-19.4-33.68-9.34-30.86,3.39.35,0,3,1.48,3.49,1.23,1.39-1.11,3.85-5.34,4.3-4-.37,2.12.21,6.45.43,9.8.14,4.31-.13,4.65-5.13,4.83-1.61-.06-.16,2.34-.16,2.46-.48,1.19-1.11-.27-1.3-.37-1.56.7,1.19,3.6.18,5,2.51.37-.3-3,1.53-3.94,4.06,5.27,11.08-.2,16.46-1.89,4.93-1.93,3.85-2.77,5.38,3.23,3.21-.58-1.27-5.92,2.09-7.46,1.88,3.61-1.19,8.29.73,11,1.7-.11,1.22-7.82,1-9.28C316.41,96.41,318.89,89.81,318.46,85.86Zm-5.87,5c-3,4.85-11.29,11.55-10.39,2.09-.14-10.32-2.86-11.68,5-12.3C313.77,79.64,315.69,86,312.59,90.85Zm28.87-6.72c-5.14-3.54-6.75,3.36-3.58,6-1.26,1.57-10,6.12-10.16,5.86-.64-6.56,13-16.61,1.85-20.14-.32,0,3-1.5,7.49-1.62-4.35,3.58-.86,4.93,1.68,7.23,3.22-1.44,5.13-6.8,8.17-6.41-.63.26,3.11-6.18,0-6.23-1.19-1-5.88-2.51-6.77-.38-.56-2.42-5.24.13-6.76.2-.37-.61-1.81-1.59-1-3.18-1.27-1.46.74-4.45,1.34-1.67.61.63.66-1.11.1-1.48.89-.36,3.18-.25,1.7-1.58-.77-4.1-1.69-4.17,1.31-1.06.23-.9-1.79-5.08-2.93-3.12-.23-1.72-5.47,1.55-5.75-.77-.95-5.66-2-10.2-1.46-13.82,2.95.4,3.49-2,2.79-4.4-1-4.09-9.18-1.78-14.81-.63-2.36.72-.92,2.46-1.69,3.55,1.12.12.87.63,1.24,1.69-.14,3.3,4.75.5,5.18.56,1.43,2,.48,4.18,1.21,6.93-.2,2.61,1.6,6.65,1.62,9.16-5.23,3.33-4.88,5.93,0,8.32,2.77-1.05,7.11-6.43,8.62-1.67,1.48,5-1.92,3.82-5.24,5.08-.65,1.93-.53.25-1.65.34-1.37,2.22-3.78.3-4,4.46-.56,4.65,4.39,4,8.22,7-3.54,3.39-10.41,12.67-7.29,18,3.26,2.23,4.88,3.73,7.61,2,2.38,1.59,4.67-1.29,1.07-.28C335.82,97.18,353.8,91.85,341.46,84.13Zm51,6.54c-.92-.86-.93-1.54-1.91-.56,0-1.78-5.62,1-5.62-1.43-.22-5.7-.95-10.54.23-13.91,4.12,1.16,3.83-4.44,1.87-6.25.51-.11-13.13-2.09-14.93,1.07-4.34-4.24-3.33,2.67-7.9.5-3.78-1.49-12.82-.88-14.56,4.59.55,8.25-7.46,6.81-4.13,8,.85-.59,4-1.05,3.88.86-.81-.7-1.35-.29-2.14-1-.77,0,.52,2.35.71,3.25.6.07.8-1.43.9-1.29.06,1.13,1.93,2,2.66,2.1,3.67-1,22.59-1.74,14,7.12-1.14,1.34-8,2.94-8.18.22.69-1.87-2.59-2.66-4.66-3.38-2.24,1-2.71,2.9-3.14,4.83-.62,3.28-2.93,3.84-.89,5.75,2.46,0,1.43,8.86,3.36,5-.42-7.22,2.63-1.27,1.29,1.83,2.73,6.32.47-8,1.14-8,1.65,1.5,2.8.58,4.53-.31.63-.2,5.28.81,4.75-.43-1.32.39-.84-.39.64-.76.65.46,1.18,1.42,1.62,1.24,8.18-3.47,9.6-16.45-.65-19.14.22-1.16-7-.55-8.13-.09.76.6-7.23-.09-4.95-1.46,1-3.21,14.23-5.58,11.32-1,7.14,4.87,5.81.52,9.07-4.71-.62,3.63,4.67,1.23,5.14,1.38,1.19,2.11,0,4.2.39,7-.56,2.36.86,6.59.51,8.87-4.32,3.83-6.85,4.36-.94,8.68,15.32-8.31,4.4,5.36,10.52,4.12-.58-.22-.2-1.55-.07-1.51s.69.41.58-.06c-1.64-.06-1.39-8,.81-5.13.05,1.85.85-.09.31-1,4.06,1.1.72-3.45,1.45-4.69C392.78,93.18,393.88,95.63,392.42,90.67Zm31-10.9c-1.37-5.92-18.07-2.8-19.91,1.91,1.12,6.47,5.31,3.26,7.59,2.58-.25,2.82-8.16,7.6-10.23,5.19-6.7,4.22-2.34-6.82-2.18-9.62,4.28-3.21,5.95-7.37,12.67-9.15-.9,3.88-.45,4.1,5.15,4.18,1.14-.91.93-2.67,3.7-6.45,1.76-2.36,1.91-2,1.56-3.61.93-3.51-5.47-2.31-6.58-.15-3.23-1.79-7.7.95-10.52,2.36-6.87,3.62-14.88,11.51-12.83,21.36,5.24,10.08,17.3,7.56,22.41.27,1.07-.71,3.78-1.77,5.14-3.15.13-.09-.73-1.9-.06-2.18C421.51,83.41,424.81,82.68,423.46,79.77Zm34.92-19.88c-.74-4.23-11.36.23-15.58-.14-3.81.19-1.28,2.73-2.29,4.61,1.17,3.47,5.91.63,6.68,1.91-1.12,17.51-6.61-1.71-19.56-5.19-8.11.11-.62,11.61,1.67,15.22-1.11,1.48,2.29,7.55,1.78,8.15,0,.86-7.93,1.09-5.83,3.8a3.84,3.84,0,0,0,2.4,4.46c5.54-3.89,19.19,1.88,12.19-9-3.51.84-2-1.34-4.09-6-7-13.94,10.81,6.63,9.07,7-1.49-.81-.22.55-.54,1.32.94,0,3.8.19,2.72,1.82.53.61,1.44-1.44,1.65-1.1,1.24,0,3.6,0,2.93-1.73,1-3.73-1.4-18.3,4.77-20.44C458.84,65.13,457.5,61.46,458.38,59.89Z"/><path class="cls-2" d="M82,60.51A44.57,44.57,0,0,1,80.4,48c0-2,.09-3.69.13-5q1.88-15.7,8-15.11,3.12.49,2.15,3.28A83.84,83.84,0,0,0,88.5,46.05q.09,13.14,3.14,13.76,3.38.33,5.33-9a49.49,49.49,0,0,0-1.82-19.15q.33-3,5.19-3.13,6.27,6.07,3.7,25.19a34.47,34.47,0,0,1-1.71,5.2q5-5.2,8.41-9.27a62.75,62.75,0,0,1-2.86-9.18q-2-9.73,1-10.51l.89-.25,2.92.94A114.93,114.93,0,0,0,116,43.19a85.85,85.85,0,0,0,9-14.11l3.24.62q4.22,4.47-9.09,21.3,2.38,5.11,5.53,7.17,4.87,3.54.61,6.88l-2.08.39a24,24,0,0,1-8.84-8.54c.3-.37.06-.09-.71.84A45.17,45.17,0,0,1,108.17,63a9.25,9.25,0,0,0-1,4.72c.16,2-.2,3-1.07,3.05q-1.76.34-1.27-3.11c.36-1.59.17-2.35-.56-2.28-.27.11-.54.21-.81.29l-.2.11v-.07a2.33,2.33,0,0,1-.49.12l-1.48-1.67a2.79,2.79,0,0,1-.81-1.84c-2.26,3.27-5.17,4.75-8.74,4.4a11.62,11.62,0,0,1-5.15-1.67,1.32,1.32,0,0,0-1.79,1.27,21.25,21.25,0,0,0-.33,4.48c-.12.91-.6,1.32-1.44,1.24a1.25,1.25,0,0,1-1.24-1.5A33.22,33.22,0,0,0,82,60.51Zm24.57,48.88c.19,1.57-.14,2.34-1,2.31-1.33.17-1.86-.64-1.59-2.44.35-1.37.07-2-.83-1.92A37.72,37.72,0,0,1,93,108.66q-9.51-.21-8.79-12.86l0-2.26A2.81,2.81,0,0,1,82,91.06l0-1.28a4.23,4.23,0,0,1,2.53-2.72c0-1,0-1.9.06-2.78-1.77.47-2.82,0-3.15-1.26a18.1,18.1,0,0,1-.6,4q-2.33,7.81-10,13.07t-13.22,4.63q-3.91-.92-3.43-3.54a3.82,3.82,0,0,1,2.73-2.67Q55,83,55.69,78h0c-2,0-3-1.19-2.86-3.68q.57-3.93,14.2-5.92a10.89,10.89,0,0,1,4.37.19q8.22,1.55,9.94,11.87c0,.17,0,.35,0,.53.06-.42.14-.87.25-1.35Q86,75,95.92,73.05a47.41,47.41,0,0,1,7-.35q7.31.19,7.82,4.07C110.53,79,109.63,80,108,80q-5.19-.2-10.47-.17a15.14,15.14,0,0,0-6.32,1.45,16.81,16.81,0,0,0-.37,3.4l0,.39q3.26-1.18,11.92-1c2.1.88,2.64,2.41,1.62,4.61-.66,1-3,1.71-7.09,2.12a2.48,2.48,0,0,0-2.18,2.9c.2,1.57-.14,2.34-1,2.31-1.34.17-1.87-.64-1.6-2.44.37-1.45,0-2.08-1-1.89l-.86.31-.11,3.06c0,4.42.7,6.65,2.1,6.67q7,.13,10.34-2.75c1.7-1.35,3-2,3.82-2,2.08.2,3.09,1.46,3,3.77a5.91,5.91,0,0,1-1.64,3.78A6.81,6.81,0,0,0,106.6,109.39ZM69.28,75.07c-1.63-.18-2.38.56-2.25,2.24.19,1.51-.15,2.33-1,2.45-1.36.42-1.91-.28-1.63-2.11q.66-2.59-1.6-1.43-.12,17.36-.11,21a17.37,17.37,0,0,0,11-13.27Q74.83,77.39,69.28,75.07ZM128.8,94q-12.08-4.17-12.19-5.61a6.56,6.56,0,0,1,1.78-4.55q4.39-4.11,7.14-4.15a3.21,3.21,0,0,1,.65.27q0,.57-2.85,4.11-1.47,4.35,4.3,3.69,4.63-4.5,5.16-7.93,1.32-9-8.45-7.41-14.1,4.53-15,15.34c-.32,3,1,5.43,4,7.39h0a3.06,3.06,0,0,1,1.62,3q-.72,2.18.54,2.61c1.25.67,1.92.08,2-1.77.13-1.08.76-1.5,1.89-1.25,4.07,1.51,6.08,2.42,6,2.7,0,.71-1.82,1.67-5.41,2.86a12.4,12.4,0,0,1-3.92.44,7,7,0,0,0-4.25-.16c-2.65.74-3.89,2.16-3.7,4.23q.33,4,4.29,3.78,2.2-.09,10.27-2.22c1.11-.38,2.13-.76,3.06-1.17.92.67,1,3.08.18,7.25,0,.92.3,1.41,1,1.48s1.11-.35,1.23-1.26a54,54,0,0,1,.5-6.28,8.39,8.39,0,0,1,3-5l-.11.07a5.73,5.73,0,0,0,1.64-3.35Q133.62,95.66,128.8,94Zm13.63-6.85a2.63,2.63,0,0,0-2.6-2.72l-2-.32q-2.88,2-4.09,10.55-1.34,9.61,1.28,12.88a5.75,5.75,0,0,1,1,4.85c-.49,1.46-.31,2.32.53,2.61,1.25.67,1.92.08,2-1.76a5.84,5.84,0,0,1,1.94-4.7Q139.82,101,142.43,87.11Zm-3.54-3.92,1.8.33q2.48.45,4-5.3c.47-1.29-.08-2.27-1.64-2.94-3.12-.53-4.94-.08-5.46,1.37L137,78.1C136.61,81,137.23,82.74,138.89,83.19Zm48.83,12.92Q190,79.42,185.89,79c-2-.2-3.15.47-3.35,2l-1.76,12.38c-.36,2.62-.64,5.15-.84,7.61a22,22,0,0,1-3.25-9q-1.75-12.89-4.19-13.12l-1-.1c-1.79.2-2.78,1-3,2.53l-1.95,14c-.5-1.15-1.68-1.59-3.59-1.26q-12,.84-12.38,4.45-.85,5.15,4.75,4.17l2.81-1.4c-1.94,2.94-4,4.31-6.29,4.09l-.28,0q-3.86-1.12-3.11-7.47a29.77,29.77,0,0,1,.94-4.85q2.57-6.86,7.64-7.22c-.09,2.07.58,3.32,2,3.76q6-.76,6.43-5.32l.05-.51q-.39-5.77-8.11-4.39Q143,83.57,141.56,97.17a18.73,18.73,0,0,0,1,8.59,10.71,10.71,0,0,0,9.08,6.44,10.29,10.29,0,0,0,4.33-.47c.36.2.4.84.13,1.93-.28,1.83.27,2.53,1.63,2.12.87-.13,1.21-.94,1-2.46a5.71,5.71,0,0,1,1.78-4.42,24.58,24.58,0,0,0,4.58-6.2c.22-.43.42-.85.59-1.27q-1.32,11,1.12,13.84a2.31,2.31,0,0,0,.63.58,2.2,2.2,0,0,1,.86,2.1c-.11,1.06-.31,2.49-.57,4.28-.06.91.33,1.41,1.17,1.49a1.25,1.25,0,0,0,1.5-1.24,12.87,12.87,0,0,1,1.41-7,1,1,0,0,0,.38-.66q.38-10.55.47-11.72a28.11,28.11,0,0,0,1.65,3.45,13.61,13.61,0,0,1,.92,8.77,1.57,1.57,0,0,0,1.21,1.72q1.25.39,1.41-.87a24.34,24.34,0,0,1,.23-2.62c.06-.57.32-.65.79-.25.93,1.17,1.94,2.39,3,3.63q2.18,2,6-.45A69.24,69.24,0,0,1,187.72,96.11Z"/></g></g></svg>