<svg xmlns="http://www.w3.org/2000/svg" width="310" height="110" viewBox="0 0 310 110">
  <path fill="#F7F7EF" fill-rule="evenodd" d="M96.486,41.2402857 L102.38,41.2402857 L92.7858,69.7583333 L88.5578,69.7583333 L79,41.2402857 L84.8548,41.2402857 L90.6704,59.8251429 L96.486,41.2402857 Z M109.9428,69.7569524 L109.9428,41.2416667 L115.5946,41.2416667 L115.5946,69.7583333 L109.9428,69.7583333 L109.9428,69.7569524 Z M136.092,70 C132.921,70 130.3184,68.8786667 128.2856,66.8762857 C125.3568,63.9900952 125.4366,60.4258571 125.4366,55.5 C125.4366,50.5727619 125.3568,47.0071429 128.2856,44.1237143 C130.317,42.1213333 132.9182,41 136.0906,41 C141.4974,41 145.7254,44.043619 146.7446,50.0107143 L141.0102,50.0107143 C140.4418,47.728 138.9774,45.9645238 136.1312,45.9645238 C134.5842,45.9645238 133.3256,46.5279524 132.5108,47.4490476 C131.4132,48.6504762 131.087,50.0107143 131.087,55.5 C131.087,60.9865238 131.4132,62.3495238 132.5108,63.5509524 C133.3256,64.4706667 134.5842,65.0340952 136.1312,65.0340952 C138.9774,65.0340952 140.4418,63.270619 141.0102,60.9879048 L146.7446,60.9879048 C145.7254,66.953619 141.4582,70 136.0906,70 L136.092,70 Z M165.6768,46.2061905 L165.6768,69.7583333 L160.0264,69.7583333 L160.0264,46.2061905 L152.465,46.2061905 L152.465,41.2402857 L173.241,41.2402857 L173.241,46.2061905 L165.6768,46.2061905 Z M222.0646,46.2061905 L216.7362,46.2061905 L216.7362,53.7379048 L222.0646,53.7379048 C224.5426,53.7379048 226.1708,52.1746667 226.1708,49.9720476 C226.1708,47.7694286 224.5426,46.2061905 222.0646,46.2061905 Z M226.455,69.7583333 L220.8032,58.3820476 L216.7362,58.3820476 L216.7362,69.7583333 L211.0844,69.7583333 L211.0844,41.2402857 L222.43,41.2402857 C228.3254,41.2402857 231.8226,45.206381 231.8226,49.9720476 C231.8226,53.9768095 229.3418,56.4597619 226.5362,57.4609524 L233,69.7583333 L226.455,69.7583333 L226.455,69.7583333 Z M194.171,47.4877143 C193.3576,46.566619 192.0962,45.9659048 190.5506,45.9659048 C189.005,45.9659048 187.7058,46.566619 186.8896,47.4877143 C185.7934,48.6919048 185.5064,50.0107143 185.5064,55.5 C185.5064,60.9865238 185.7934,62.3080952 186.8896,63.5095238 C187.7058,64.432 189.005,65.0340952 190.5506,65.0340952 C192.0962,65.0340952 193.3576,64.432 194.1696,63.5081429 C195.2672,62.3080952 195.592,60.9865238 195.592,55.5 C195.592,50.0107143 195.2672,48.6919048 194.1696,47.4877143 L194.171,47.4877143 Z M198.357,66.8762857 C196.3242,68.8786667 193.842,70 190.5506,70 C187.2564,70 184.735,68.8772857 182.7022,66.8762857 C179.7734,63.9900952 179.8546,60.4258571 179.8546,55.5 C179.8546,50.5727619 179.7734,47.0071429 182.7022,44.1237143 C184.735,42.1213333 187.2564,41 190.552,41 C193.8448,41 196.3256,42.1213333 198.3584,44.1237143 C201.2872,47.0071429 201.245233,50.5727619 201.245233,55.5 C201.245233,60.4258571 201.2872,63.9914762 198.3584,66.8762857 L198.357,66.8762857 Z"/>
</svg>
