<svg xmlns="http://www.w3.org/2000/svg" viewBox="0 0 468.23 180.07"><defs><style>.cls-1{fill:#f7f7ef;}.cls-2{fill:#232323;}</style></defs><g id="Layer_2" data-name="Layer 2"><g id="Webflow"><path class="cls-1" d="M30.24,145.65a18.89,18.89,0,0,0-7.56,20.88c2.43,7.57,10.56,13,18.45,12,4.88-.6,9.28-3.34,12.86-6.71,1.47-1.38,1.1-1.59,3.07-1.15,2.17.48,3.38,2.47,5,4,2,1.93,6.92,1.17,9.73,1.09,9.48-.27,18.79.18,28.27-.09a13.12,13.12,0,0,0,8.24-2.91c1-.92,1.94-2.3,3.3-2.18a3.71,3.71,0,0,1,2,1.15,23.56,23.56,0,0,0,15.63,5.91,19.23,19.23,0,0,0,14.83-7.25,17.33,17.33,0,0,0-15.78-27.72c-5.17.59-9.13,3.93-14.23,5-3.41.71-7.63.13-11.12,0q-22.15-.56-44.31.77c-1.73.1-3.9.12-5.32-1a17.71,17.71,0,0,0-4.46-3.16A20.65,20.65,0,0,0,36.75,143,18.32,18.32,0,0,0,30.24,145.65Z"/><path class="cls-1" d="M323.69,145.65a18.89,18.89,0,0,0-7.56,20.88c2.43,7.57,10.56,13,18.45,12,4.88-.6,9.28-3.34,12.86-6.71,1.47-1.38,1.1-1.59,3.07-1.15,2.17.48,3.38,2.47,5,4,2,1.93,6.92,1.17,9.73,1.09,9.48-.27,18.79.18,28.27-.09a13.17,13.17,0,0,0,8.25-2.91c1-.92,1.93-2.3,3.29-2.18a3.71,3.71,0,0,1,2,1.15,23.56,23.56,0,0,0,15.63,5.91,19.23,19.23,0,0,0,14.83-7.25,17.33,17.33,0,0,0-15.78-27.72c-5.17.59-9.13,3.93-14.23,5-3.41.71-7.63.13-11.12,0q-22.15-.56-44.31.77c-1.73.1-3.9.12-5.32-1a17.71,17.71,0,0,0-4.46-3.16A20.65,20.65,0,0,0,330.2,143,18.32,18.32,0,0,0,323.69,145.65Z"/><path class="cls-2" d="M149.22,156.3c-1.66-10.73-12.85-16.12-22.92-15.41-5.36-.08-8.94,4.35-13.62,5.6-15.76.46-31.42-1.56-47.21.1-5-.29-10.34.52-14.36-3.1-9.18-6.11-24.23-2.37-29.29,7.42-10.43,23.14,19.62,39.68,35.54,20.72,1,1.18,2.65,1.9,3.14,3.36s.73,1.68,2.16,1.81a152,152,0,0,0,15.24.74c9.58-.11,19.19.29,28.75-.47,1.43-.11,1.77-.44,2.15-1.81s2-2.28,2.94-3.36C126.1,188.12,152.68,178.79,149.22,156.3ZM143,150.94a3.55,3.55,0,0,1,1.12,1.93C142.79,152.43,142.77,152.4,143,150.94Zm.16,3.26c1.15.63,2.55,1,2.15,2.76L142,155C142.31,154,142.43,153.87,143.12,154.2Zm-5.28-1.43a3.64,3.64,0,0,1,1-2.12C139.11,152.38,139,152.62,137.84,152.77Zm.68,6.7c-.78-.45-.78-.45-.31-1.26Zm0-10c-1.71,2.77-2.12,3.22-3,3.41C135.79,151.26,136,148.26,138.48,149.46Zm-15.69,9.91c.21,1.09.36,1.87.52,2.73-7,3.51-4.21-2.54-1.81-6,.41-.67.55-.65,1.71-.47-.44,1.87-1.86,3.42-1.88,5.77Zm.49-6.24c1-1.56,1.32-4,3.65-3.31C125.73,151.06,125.41,153.78,123.28,153.13Zm7.11,4.32c2.53-1.37.65,2.79.43,3.85-.43,1.24-.94,1.43-2.54,1A19.81,19.81,0,0,1,130.39,157.45Zm-3.14,4.24c-1.21-.6-1.63-1.43-1.21-2.48s1.06-3.34,2.63-2.34C128.18,158.53,127.72,160.11,127.25,161.69Zm3.91-9.35c-.53.8-.67.84-2,.51.89-1.82,1.37-4.4,4-3.6C132.42,150.39,131.79,151.37,131.16,152.34Zm-3.37.39a1.06,1.06,0,0,1-1.51.29c.8-1.62,1.07-4.2,3.5-3.42C129.08,150.71,128.46,151.74,127.79,152.73ZM125,165.64c1.48,1.51,3.49,2.72,4.63,4.44-2.28-.68-4.11-2.74-6.22-4C124.17,165.28,124.44,165.18,125,165.64Zm.3-.41c-.15-.11-.18-.38-.3-.67,3.1-.17,5.19,2.62,7.37,4.54C130.8,170.86,127,166,125.26,165.23Zm5,.44c2.07-2.34,3.89.84,5.54,2.05C133.86,170,132.07,166.49,130.23,165.67Zm2.91-.83c-1.69-2.44,4.17,1.15,4.46,1.74C136.29,168.46,134.54,165.38,133.14,164.84Zm1.79-3.27c.58-1.8-.19-6.59,2.54-6-.35,2.11-.7,4.21-1.08,6.46Zm-.85-8.91c-.31.48-.83.43-1.47.25.6-1.67,1.18-4.64,3.51-3.6C135.42,150.47,134.78,151.59,134.08,152.66Zm1.51-6.88c-2.42-.12-5.65,1.42-7.39-.88C129.57,144.2,133.56,144.58,135.59,145.78Zm-7,.27c-1.78.75-3,.55-4-.66C126.13,144.66,127.26,145.61,128.6,146.05Zm-4.4.59-2.67.12C122.69,145.71,123,145.68,124.2,146.64Zm-1.15,3.29.37.24-1.9,3.08-.3-.18A19.65,19.65,0,0,1,123.05,149.93Zm-4.54,9.34a2.69,2.69,0,0,1,1.76-3.66C119.66,156.88,119.11,158,118.51,159.27Zm.84-9.12A14.31,14.31,0,0,1,117,153.7C117.4,151.88,118.36,150.36,119.35,150.15Zm-2.17-.24c-.6,1.1-1.16,4.24-2.71,3.73C115.36,152.3,115.6,150.46,117.18,149.91Zm-1.88.09c-.77,1.38-1.43,2.54-2.22,4A5.38,5.38,0,0,1,115.3,150Zm-.92,7a8.56,8.56,0,0,1-2.7,2.52c0-1-.08-1.71-.11-2.45A4.74,4.74,0,0,1,114.38,157ZM113,150.15c-1,1.24-.93,4-3,3.53C111,152.62,111.24,149.34,113,150.15Zm-2.46-.12c-1.16,1.37-1.32,4.46-3.55,4.05C108.11,152.72,108.33,149.09,110.57,150ZM108,160.32c0,1.46.7,2.18-1.16,2.93-.14-2.22-.28-4.39-.43-6.72l1.58.17C108,158,108,159.16,108,160.32ZM108.3,150c-1.12,1.22-1.68,5.25-3.72,4C105.79,152.51,105.69,149,108.3,150Zm-4.85,1.33c.3-.56.58-1.16,1.51-.82-1.88,3.76-3.39,7.38-5.28,11.21C98.47,157.61,102.13,154.89,103.45,151.34Zm-.79,9.32c-1.2,1.63-1.91,3.52-3.46,4.85.37-3.34,2.61-5.61,4.09-8.48A4.5,4.5,0,0,1,102.66,160.66Zm-2.4,7.54A16.76,16.76,0,0,1,103.1,161C103.64,162.53,102.27,166,100.26,168.2Zm1.92-17.79L99,156.31c-1.63-1.59,1-3.71,1.45-5.39C100.83,150.24,101,150.22,102.18,150.41Zm-5.36,2.92c.75-1.08.89-3.87,2.77-3.05-1,1.34-1.19,3.29-2.71,3.88C96.85,153.88,96.72,153.56,96.82,153.33Zm-1.26,12.9,1.06-1.46a5.43,5.43,0,0,1,.45,2.21,4.23,4.23,0,0,1-3-.39c.6-1.51,1.41-2.83,2.25-4.46C97,163.87,95.2,164.73,95.56,166.23Zm-4.11,0c-.56.94-.68,1-2,.7,2.32-3.5,3.85-7.64,6.59-10.7C96.39,160.17,93,162.92,91.45,166.26Zm2.46-1.91c-.36,1-.47,2.1-1.55,2.66A5.7,5.7,0,0,1,93.91,164.35ZM81.13,165.8c1.67-2.73,3.36-5.46,5-8.21.79-1.32,1-1.43,2.78-.91-1.52,3.18-3.58,6-5.31,9.08-.85,1.58-1.07,1.67-3.16,1.21C80.69,166.55,80.9,166.17,81.13,165.8Zm-1.8.63c-.55.85-1.16.94-2.72.49,1.9-2.33,5.77-11.94,8.86-10.5C83.88,159.94,81.31,163.07,79.33,166.43Zm5-.3c1.38-1.36,5.67-12.78,7.58-8.82,5.8-3.56-2.47,7.48-2.87,9-1.05,1.73-3.34.58-5.15.9A10.49,10.49,0,0,1,84.3,166.13Zm12-5.88c.07,1.63-1.28,2.14-1.75,3.13A7,7,0,0,1,96.27,160.25Zm.09-10.41c-.21,1-1,4-2.32,4.19l-.2-.21C94.59,152.47,95,150.7,96.36,149.84Zm-2.17-.08.22.24c-.88,1.32-1,3.39-2.56,4C92.13,153.05,93.07,149.75,94.19,149.76Zm-1.83-.14c-.73,1.54-1.07,3.53-2.46,4.22l-.27-.25C90.61,152.33,90.86,150.25,92.36,149.62Zm-1.61,0c-1,1.2-1.18,4.77-3.19,4C88.56,152.58,89.06,149.15,90.75,149.63Zm-3.59-.26L85.64,153l.31.21c.85-.61,1.23-1.62,2-2.36-.83,2.37-.91,3.41-3.81,2.87C85.38,152.12,85.41,150.49,87.16,149.37Zm-5.83-.07c.83.43,1.69-.31,2.68.06-.38.79-.73,1.5-1.07,2.22.87-.51,1-1.69,2.15-2.27-1.36,5.13-1.62,4.5-6.62,4.43C79.5,152.15,80.11,150.4,81.33,149.3Zm-1.73,0c-1,1.24-1.36,4.58-2.84,4.37A10.54,10.54,0,0,1,79.6,149.3Zm-7.32,10c1-1.16,1.06-3.9,3.12-3.1a21.13,21.13,0,0,1-3.32,5.06A2.43,2.43,0,0,1,72.28,159.28Zm-.39-1.19a1.58,1.58,0,0,1,1.11-2A3.64,3.64,0,0,1,71.89,158.09Zm.74,4c1.41-1.64,2.46-6.81,5-5.83l-5.53,8.29A3.23,3.23,0,0,1,72.63,162.08Zm5.29-12.82c-.29,1.1-1.78,5.33-3.3,4.42C75.76,152.2,76,149.77,77.92,149.26Zm-2.63.14.28.3c-1.08,1.23-1.27,5-3.43,4.16C73.23,152.39,73.62,150.22,75.29,149.4Zm-2.14.34c-2.64,4.65-4.63,8.95-7.12,13.82-.65-5,3.61-8.64,5.4-13C71.9,149.73,72,149.69,73.15,149.74Zm-2.56.18c-1.14,3-3.47,5.45-4.42,9-1.4-3.22,1.87-5.5,3-8.26C69.42,150.09,69.81,149.66,70.59,149.92Zm-2.49.22a13.58,13.58,0,0,1-2.47,4.41C64.6,153.73,66.84,149.23,68.1,150.14Zm-2.1.12c-.84.92-1.18,3.54-2.75,2.8C63.63,151.81,64.2,149.42,66,150.26Zm-3-.76c.24.55.49.84.42,1-.62.94-.73,3.38-2.37,2.56Zm-.16,6.76c-.15,2.33-.29,4.49-.44,6.86L61.2,162v-5.62Zm-5.72-6.37c.11-.15.47-.13.71-.18.06.07.11.14.17.2-1.08,1-1.48,3.29-3.09,3.24C55.73,151.94,56.41,150.9,57.13,149.89Zm.52,6.73v1.68l-1.9-1.47.08-.21Zm-4.91-6.88c0,.38,0,.65-.05.91.75-1.44,2.1-.65,3.5-.92-.91,1.1-1,4-2.82,3.31l.89-2.13c-1,.68-1.09,2.09-2.34,2.3-.39-.82.27-1.34.38-2l-1.64,2A5.36,5.36,0,0,1,52.74,149.74Zm-2.56,9.72.47-.89c.75.79-.21,2.46-.27,3.55-.7,2.06-3-.06-4.38-.3.87-2.34,1.69-5.29,3.61-6.65l.26.24c-.34.72-.67,1.43-1.09,2.35,1.08-.74.88-2.33,2.33-2.62.06,1.57-1,2.76-1.19,4.14Zm-18.62-.18c.89-1.27,1.59-2.66,2.54-3.88-.26,1.25-1.1,2.26-1.15,3.49.23.32.47,0,.87,0,.23.72.45,1.43.7,2.2a6.27,6.27,0,0,1-3,1C30.77,160.83,30.81,160.37,31.56,159.28Zm.65-3.82-1,1.82C31,156,31.1,155.8,32.21,155.46Zm1.51-3A11.23,11.23,0,0,1,36,149.07,9.3,9.3,0,0,1,33.72,152.48Zm-.31,13.33A44.77,44.77,0,0,1,37,170c-3,0-4.11-2.87-6.11-4.55C32.39,164.78,32.48,164.79,33.41,165.81Zm.11-1c1.42-.72,1.63-.68,2.45.27,1.35,1.65,2.89,3.11,4.11,4.88C37.32,170.46,35.7,166.35,33.52,164.84Zm2.57-.75c-.07-.07,0-.24-.06-.52a14.31,14.31,0,0,1,7,5.7C41,171.15,37.85,165.29,36.09,164.09Zm9.8-11.56c-.39.56-.65.54-1.91.28.5-1.74,1.28-4,3.59-3.07C46.94,150.79,46.47,151.69,45.89,152.53Zm.59,2.53-.63,1.16C44.67,155.71,45.35,155.17,46.48,155.06Zm-4.19-2.12c0-.4,0-.72,0-1h0c.73-.74,1-2.2,2.19-2.31A4.85,4.85,0,0,1,42.29,152.94Zm1,5.77c1.07,2-2,4.28-4,3.34A22.7,22.7,0,0,1,42,156.58c2,.8.16,2,.19,3.31Zm-1-6.79c-.59.46-1,1.32-2,.82.46-1.65,1.1-3.38,3.05-3.38C42.85,150.42,42.54,151.17,42.23,151.92Zm-3.27.55c-.35.48-1,.42-1.61.1.78-1.1,1.52-4.11,3.25-3.06A9.48,9.48,0,0,1,39,152.47Zm-1.49,4.67c.62-.34,1.29-.78,1.91,0l1.2-.69a18.89,18.89,0,0,1-2,5.37C37.22,160.83,35.32,158.23,37.47,157.14Zm3.21,8.24c2.56-1.75,3.89,1.29,5.44,2.93C43.41,170.4,42.47,166.78,40.68,165.38Zm3.23-.32a2.82,2.82,0,0,1-.37-.66,2.11,2.11,0,0,1,.19-.23c1.14.41,1.91,1.52,3.28,1.57a1.78,1.78,0,0,1,1.47,1C47,169.4,45.3,166,43.91,165.06Zm3.53-9.73.24.17-1.12,2.18A2.38,2.38,0,0,1,47.44,155.33ZM49,152.85l-.25-.17,1.82-2.84A5.09,5.09,0,0,1,49,152.85Zm.63-3c-1,1.06-1.28,3.88-3.06,3C47.62,151.53,47.35,149.42,49.6,149.82Zm-12.9-5.25a15.81,15.81,0,0,1,11,1.81c-2.42,0-4.87-.29-7.3-.45-1.37-.23-2.88.21-4.1-.8C36.41,144.93,36.52,144.62,36.7,144.57Zm-.48.55c-.56.71-.76.71-1.84,0A1.56,1.56,0,0,1,36.22,145.12Zm-2.17,3.78c-.06.89-.66,1.26-1.16,1.67C33.12,150,33,149.07,34.05,148.9Zm-3.52.36c.19-.34.55-.34,1.68-.14l-1.51,2.47A2.23,2.23,0,0,1,30.53,149.26Zm-.29,16.61,2.16,2.29-.21.21A5,5,0,0,1,30,166.1Zm-1.57-10.4c.44.51,0,.84-.16,1.51C28,156.16,28.06,155.77,28.67,155.47Zm-2.38-4.8c.14,1.37,1,2.9.67,4.06C24.85,153.52,24.7,152.71,26.29,150.67Zm-1.57,3.1c.82,1,2,1.65,1.6,3.16C24.72,156.3,24.13,155.27,24.72,153.77Zm-.66,2.2A3.59,3.59,0,0,1,26,160C24,158.6,23.51,157.51,24.06,156Zm7.47,17.89c-3.14-1.35-4.8-4-6.17-7l.28-.21,6.14,6.94Zm3.67,1.54c-4-2.58-6.62-6.79-9.94-10.15A4.62,4.62,0,0,1,24,161.2c.16-.65-.57-1.41-.1-2.52,1.33,1.94,3.25,3.3,3.22,5.9l-1.21-.94c2.44,4.68,6.88,7.75,10.07,11.77C35.65,175.41,35.36,175.5,35.2,175.4Zm1.81-.07c-1.27-1.12-2.44-2.36-3.66-3.55l.19-.29c2.8.2,4.68,2.26,6.29,4.48A2.88,2.88,0,0,1,37,175.33Zm3.43.49c-1-1.06-1.93-2.23-3-3.47,2.57-.91,3.6,2.25,5.49,3.53C41.94,176.44,41.09,176.49,40.44,175.82Zm3.41-.22c-1.06-1-1.94-2.08-3-3.17,2.09-1.07,3,1.77,4.46,2.81C44.76,175.88,44.29,176,43.85,175.6ZM46,174.42c-.77-.75-1.5-1.54-2.32-2.39,1.72-1.44,2.59,1.28,3.8,2.14C47,174.76,46.53,174.91,46,174.42Zm3.34-1.08c-1.48,1.12-2.27-1.37-3.44-2.24,2.25-1.55,2.87-.24,4.32,1.45A10.48,10.48,0,0,1,49.38,173.34ZM51,172.11,49,170c.32-.77.32-.77,1.32-1.24.59.63,1.23,1.29,2,2Zm1.94-1.84c-.77-1-1.79-1.34-1.68-2.54a2,2,0,0,1,1.61.43c-.37-.88-1.29-1.5-.34-2.36a8,8,0,0,1,2,2.25Zm0-7a12.84,12.84,0,0,1,1.47-3.37c2.4,2.46,3.08,1.5,1.16,4.89Zm3.64,2.67c-1.45-.62,0-3.07,1-3.3C58.35,163.77,57,164.77,56.57,165.92Zm1.34,1.73c-.95-1.22.32-2.74,1-3.81,1.81.49-.45,2.66-.65,3.76Zm1,.95c.53-1.19,1.05-2.33,1.55-3.45,2.39.46.34,2.23.17,3.61.89-.54.9-1.67,1.69-2.38l1.33.56-.92,2.83.16.1c2.31-3.63,4.95-7,6.68-11,.37,1.81.27,2.28-.72,3.57-1.65,2.43-3.41,4.92-4.15,7.76,1.8-2.41,2.65-5.06,4.41-7.35-.78,3.7-3.65,6.52-5.15,10.17Zm6,4.88c1.13-3,3.22-5.68,4.57-8.66,1.26,3.06-1.61,5.35-2.59,8C66.29,173.87,66.14,173.94,64.84,173.48Zm2.68.15c1.43-1.84,1.67-5.95,4.63-5.08a44.85,44.85,0,0,1-2.8,4.53C68.84,173.86,68.77,173.89,67.52,173.63Zm5.45,0c-.21-.79.39-1.15.59-1.71l.27.18Zm1.09-4.31c-1.23,1.29-1.72,4.26-3.65,4.37a50.09,50.09,0,0,1,2.43-4.43c.41-.71.41-.71,1.47-.64A4.09,4.09,0,0,1,74.06,169.33Zm-2.19-2.28c1.22-3.65,4.4-6.73,6.32-10.16.25-.37.46-.78,1.22-.55-1.72,3.52-5.35,6.35-6.13,10.15,2.4-2.87,4.36-6.09,6.55-9.12.88-1.28,1-1.36,2.85-.94-2,3.46-4.59,6.57-6.79,9.92C75,167.77,73.29,167,71.87,167.05Zm2.57,6.87c.18-1.75,1.4-3,2.11-4.62.37-.67.41-.65,1.37-.49C77.06,170.71,76.33,172.93,74.44,173.92Zm3-.49c-.08.15-.35.19-.69.35.3-1.51,1.19-2.43,1.89-3.67.37-.47.37-1.35,1.51-1.33C79.17,170.43,78.31,171.94,77.41,173.43Zm1.43.27c.92-1.77,1.46-3.82,3-4.9C80.75,171.89,79.87,173.29,78.84,173.7Zm4.82-4.88a12.36,12.36,0,0,1-2.52,4.75A12.38,12.38,0,0,1,83.66,168.82Zm-.87,4.69c.93-1.17,1.52-5.14,3.25-4.48C85.05,170.22,84.77,174.28,82.79,173.51Zm1.83.09c1.14-1.4,1.51-5.28,3.61-4.54C87.25,170.59,87.05,174.51,84.62,173.6Zm2.38.11a9.71,9.71,0,0,1,2.54-4.83l.36.25C88.94,170.41,88.93,173.91,87,173.71Zm1.58-.08c1.24-1.5,1.47-5.22,3.82-4.49C91.3,170.61,91,174.51,88.58,173.63Zm2.67.07c.54-1,1.9-4.87,3.39-4.72C93.53,170.43,93,174,91.25,173.7Zm2,.18-.35-.28,2.61-4.47.29.13C94.94,170.76,94.79,172.92,93.26,173.88Zm4.17-.12,1.06-1.91C98.57,173.16,98.42,173.51,97.43,173.76Zm-.89-.33c-.51.84-1.3.56-2.1.4.35-1.49,1.45-2.7,2.14-4.06.49-.81.66-.85,1.93-.56A16.67,16.67,0,0,1,96.54,173.43Zm2.35.21,4.43-8.32c1.38,2.51-1.18,5.13-1.71,7.63C101.09,174.28,100.53,174.44,98.89,173.64Zm3.5.31c.67-1.29,1.8-7.19,3.32-6.72C105.4,168.44,104,175,102.39,174Zm5.51-3.54c-.26,1.31-1.31,1.81-2.4,2.67.94-2.32,1.2-7,3.59-8C108.79,166.94,108.23,168.61,107.9,170.41Zm2.3-1.87c-.06.66-.32.87-1.46,1.35.94-2.31,1.05-5.12,2.8-7l.26.13C111.44,164.94,110.32,166.57,110.2,168.54Zm3.41-3c-.77.75-1.48,1.57-2.22,2.36l-.28-.18c1.26-2.62,1.61-5.81,3.93-7.75.19,1-.43,2-.31,3.18l1-1.1C117.5,164,114.54,164.21,113.61,165.54Zm6.06,7.81a8.11,8.11,0,0,1-2.93-2.89l3.09,2.67Zm3,.28c-2.35-1.61-4.55-3.44-6.82-5.15-.76-.59-.74-.67.1-1.36l6.86,6.33Zm-2.62-7.22c2.57-1.16,4.25,2,6.28,3.29C124.51,170,121.6,168.39,120.05,166.41Zm8.23,9.68c-1.34-1.23-3-2.19-4.08-3.6,2.93-.06,4.6,1.84,6.64,3.68C129.78,176.49,129,176.69,128.28,176.09Zm2.9-.81-2.6-2.23c2.24-1,3.84,1.56,5.77,2.35C132.93,176.25,132.26,176.22,131.18,175.28Zm1.18-2.78a8.48,8.48,0,0,1,3.39,2.54C134.73,175.16,134.73,175.16,132.36,172.5ZM138,174c-1.65.46-2.87-1.37-4.15-2.26,1.41-1.34,2.92,1.39,4.21,1.95Zm1.87-.88-3.16-2.58c1.3-2,2.68.73,4.13,1.57Zm2-2.44c-1,.52-1.94-1.05-2.84-1.51C139.57,167.4,142.49,169.71,141.86,170.68Zm.77-1.52c-.66-.69-2.43-1.08-1.82-2.18a.65.65,0,0,1,.93-.27C142.82,167.41,144.29,167.8,142.63,169.16Zm1.34-2.34c-2.16-.41-2.66-1.23-1.49-2.59C143.34,165,145.1,165.35,144,166.82Zm-1.34-3.72c-.21-.16-.2-.59-.3-.9l.38-.25c.78.82,2.24,1.18,2.3,2.42A4.1,4.1,0,0,1,142.63,163.1Zm2.61-.41c-1.25-1-3.35-1.46-2.75-3.42a10.09,10.09,0,0,1,2.83,2.12C145.59,161.63,145.54,161.69,145.24,162.69Zm.25-2.88c-1.78-1.33-3.57-2.37-5.09-3.77l.15-.28C141.77,156.25,146.23,158.22,145.49,159.81Zm-53.63-2.49h0a.08.08,0,0,0,0,0l-.09.09A.61.61,0,0,1,91.86,157.32Zm0,.12a14.06,14.06,0,0,1-2.32,3.84A9.79,9.79,0,0,1,91.81,157.44Zm-2.41,4,.09-.12a1.23,1.23,0,0,1-.17.32ZM88.35,163c.32-.46.64-.93,1-1.39-.22.52-.44,1-.65,1.56Z"/><path class="cls-2" d="M442.67,156.3c-1.66-10.73-12.85-16.12-22.92-15.41-5.36-.08-8.94,4.35-13.62,5.6-15.76.46-31.42-1.56-47.21.1-5-.29-10.34.52-14.36-3.1-9.18-6.11-24.23-2.37-29.29,7.42-10.43,23.14,19.62,39.68,35.54,20.72,1,1.18,2.65,1.9,3.14,3.36s.73,1.68,2.16,1.81a152,152,0,0,0,15.24.74c9.58-.11,19.19.29,28.75-.47,1.43-.11,1.77-.44,2.15-1.81s2.05-2.28,2.94-3.36C419.55,188.12,446.13,178.79,442.67,156.3Zm-6.26-5.36a3.55,3.55,0,0,1,1.12,1.93C436.24,152.43,436.22,152.4,436.41,150.94Zm.16,3.26c1.15.63,2.55,1,2.15,2.76l-3.3-1.92C435.76,154,435.88,153.87,436.57,154.2Zm-5.28-1.43a3.64,3.64,0,0,1,1-2.12C432.56,152.38,432.45,152.62,431.29,152.77Zm.68,6.7c-.78-.45-.78-.45-.31-1.26Zm0-10c-1.71,2.77-2.12,3.22-3.05,3.41C429.24,151.26,429.49,148.26,431.93,149.46Zm-15.69,9.91c.21,1.09.36,1.87.52,2.73-7,3.51-4.21-2.54-1.81-6,.41-.67.55-.65,1.71-.47-.44,1.87-1.86,3.42-1.88,5.77Zm.49-6.24c1-1.56,1.32-4,3.65-3.31C419.18,151.06,418.86,153.78,416.73,153.13Zm7.11,4.32c2.53-1.37.65,2.79.43,3.85-.43,1.24-.94,1.43-2.54,1A19.81,19.81,0,0,1,423.84,157.45Zm-3.14,4.24c-1.21-.6-1.63-1.43-1.21-2.48s1.06-3.34,2.63-2.34C421.63,158.53,421.17,160.11,420.7,161.69Zm3.91-9.35c-.53.8-.67.84-2,.51.89-1.82,1.37-4.4,4-3.6C425.87,150.39,425.24,151.37,424.61,152.34Zm-3.37.39a1.06,1.06,0,0,1-1.51.29c.8-1.62,1.07-4.2,3.5-3.42C422.53,150.71,421.91,151.74,421.24,152.73Zm-2.83,12.91c1.48,1.51,3.49,2.72,4.63,4.44-2.28-.68-4.11-2.74-6.22-4C417.62,165.28,417.89,165.18,418.41,165.64Zm.3-.41c-.15-.11-.18-.38-.3-.67,3.1-.17,5.19,2.62,7.37,4.54C424.25,170.86,420.45,166,418.71,165.23Zm5,.44c2.07-2.34,3.89.84,5.54,2.05C427.31,170,425.52,166.49,423.68,165.67Zm2.91-.83c-1.69-2.44,4.17,1.15,4.46,1.74C429.74,168.46,428,165.38,426.59,164.84Zm1.79-3.27c.58-1.8-.19-6.59,2.54-6-.35,2.11-.7,4.21-1.08,6.46Zm-.85-8.91c-.31.48-.83.43-1.47.25.6-1.67,1.18-4.64,3.51-3.6C428.87,150.47,428.23,151.59,427.53,152.66Zm1.51-6.88c-2.42-.12-5.65,1.42-7.39-.88C423,144.2,427,144.58,429,145.78Zm-7,.27c-1.78.75-3,.55-4-.66C419.58,144.66,420.71,145.61,422.05,146.05Zm-4.4.59-2.67.12C416.14,145.71,416.48,145.68,417.65,146.64Zm-1.15,3.29.37.24-1.9,3.08-.3-.18A19.65,19.65,0,0,1,416.5,149.93ZM412,159.27a2.69,2.69,0,0,1,1.76-3.66C413.11,156.88,412.56,158,412,159.27Zm.84-9.12a14.31,14.31,0,0,1-2.31,3.55C410.85,151.88,411.81,150.36,412.8,150.15Zm-2.17-.24c-.6,1.1-1.16,4.24-2.71,3.73C408.81,152.3,409.05,150.46,410.63,149.91Zm-1.88.09c-.77,1.38-1.43,2.54-2.22,4A5.38,5.38,0,0,1,408.75,150Zm-.92,7a8.56,8.56,0,0,1-2.7,2.52c0-1-.08-1.71-.11-2.45A4.74,4.74,0,0,1,407.83,157Zm-1.35-6.82c-1,1.24-.93,4-3,3.53C404.42,152.62,404.69,149.34,406.48,150.15ZM404,150c-1.16,1.37-1.32,4.46-3.55,4.05C401.56,152.72,401.78,149.09,404,150Zm-2.53,10.29c0,1.46.7,2.18-1.16,2.93-.14-2.22-.28-4.39-.43-6.72l1.58.17C401.48,158,401.48,159.16,401.49,160.32Zm.26-10.31c-1.12,1.22-1.68,5.25-3.72,4C399.24,152.51,399.14,149,401.75,150Zm-4.85,1.33c.3-.56.58-1.16,1.51-.82-1.88,3.76-3.39,7.38-5.28,11.21C391.92,157.61,395.58,154.89,396.9,151.34Zm-.79,9.32c-1.2,1.63-1.91,3.52-3.46,4.85.37-3.34,2.61-5.61,4.09-8.48A4.5,4.5,0,0,1,396.11,160.66Zm-2.4,7.54a16.76,16.76,0,0,1,2.84-7.19C397.09,162.53,395.72,166,393.71,168.2Zm1.92-17.79-3.16,5.9c-1.63-1.59,1-3.71,1.45-5.39C394.28,150.24,394.4,150.22,395.63,150.41Zm-5.36,2.92c.75-1.08.89-3.87,2.77-3.05-1,1.34-1.19,3.29-2.71,3.88C390.3,153.88,390.17,153.56,390.27,153.33ZM389,166.23l1.06-1.46a5.43,5.43,0,0,1,.45,2.21,4.23,4.23,0,0,1-3-.39c.6-1.51,1.41-2.83,2.25-4.46C390.41,163.87,388.65,164.73,389,166.23Zm-4.11,0c-.56.94-.68,1-2,.7,2.32-3.5,3.85-7.64,6.59-10.7C389.84,160.17,386.44,162.92,384.9,166.26Zm2.46-1.91c-.36,1-.47,2.1-1.55,2.66A5.7,5.7,0,0,1,387.36,164.35Zm-12.78,1.45c1.67-2.73,3.36-5.46,5-8.21.79-1.32,1-1.43,2.78-.91-1.52,3.18-3.58,6-5.31,9.08-.85,1.58-1.07,1.67-3.16,1.21C374.14,166.55,374.35,166.17,374.58,165.8Zm-1.8.63c-.55.85-1.16.94-2.72.49,1.9-2.33,5.77-11.94,8.86-10.5C377.33,159.94,374.76,163.07,372.78,166.43Zm5-.3c1.38-1.36,5.67-12.78,7.58-8.82,5.8-3.56-2.47,7.48-2.87,9-1,1.73-3.34.58-5.15.9A10.49,10.49,0,0,1,377.75,166.13Zm12-5.88c.07,1.63-1.28,2.14-1.75,3.13A7,7,0,0,1,389.72,160.25Zm.09-10.41c-.21,1-1,4-2.32,4.19l-.2-.21C388,152.47,388.49,150.7,389.81,149.84Zm-2.17-.08.22.24c-.88,1.32-1,3.39-2.56,4C385.58,153.05,386.52,149.75,387.64,149.76Zm-1.83-.14c-.73,1.54-1.07,3.53-2.46,4.22l-.27-.25C384.06,152.33,384.31,150.25,385.81,149.62Zm-1.61,0c-1,1.2-1.18,4.77-3.19,4C382,152.58,382.51,149.15,384.2,149.63Zm-3.59-.26L379.09,153l.31.21c.85-.61,1.23-1.62,2-2.36-.83,2.37-.91,3.41-3.81,2.87C378.83,152.12,378.86,150.49,380.61,149.37Zm-5.83-.07c.83.43,1.69-.31,2.68.06-.38.79-.73,1.5-1.07,2.22.87-.51,1-1.69,2.15-2.27-1.36,5.13-1.62,4.5-6.62,4.43C373,152.15,373.56,150.4,374.78,149.3Zm-1.73,0c-1,1.24-1.36,4.58-2.84,4.37A10.54,10.54,0,0,1,373.05,149.3Zm-7.32,10c1-1.16,1.06-3.9,3.12-3.1a21.13,21.13,0,0,1-3.32,5.06A2.43,2.43,0,0,1,365.73,159.28Zm-.39-1.19a1.58,1.58,0,0,1,1.11-2A3.64,3.64,0,0,1,365.34,158.09Zm.74,4c1.41-1.64,2.46-6.81,5-5.83l-5.53,8.29A3.23,3.23,0,0,1,366.08,162.08Zm5.29-12.82c-.29,1.1-1.78,5.33-3.3,4.42C369.21,152.2,369.46,149.77,371.37,149.26Zm-2.63.14.28.3c-1.08,1.23-1.27,5-3.43,4.16C366.68,152.39,367.07,150.22,368.74,149.4Zm-2.14.34c-2.64,4.65-4.63,8.95-7.12,13.82-.65-5,3.61-8.64,5.4-13C365.35,149.73,365.47,149.69,366.6,149.74Zm-2.56.18c-1.14,3-3.47,5.45-4.42,9-1.4-3.22,1.87-5.5,2.95-8.26C362.87,150.09,363.26,149.66,364,149.92Zm-2.49.22a13.58,13.58,0,0,1-2.47,4.41C358.05,153.73,360.29,149.23,361.55,150.14Zm-2.1.12c-.84.92-1.18,3.54-2.75,2.8C357.08,151.81,357.65,149.42,359.45,150.26Zm-3-.76c.24.55.49.84.42,1-.62.94-.73,3.38-2.37,2.56Zm-.16,6.76c-.15,2.33-.29,4.49-.44,6.86L354.65,162v-5.62Zm-5.72-6.37c.11-.15.47-.13.71-.18.06.07.11.14.17.2-1.08,1-1.48,3.29-3.09,3.24C349.18,151.94,349.86,150.9,350.58,149.89Zm.52,6.73v1.68l-1.9-1.47.08-.21Zm-4.91-6.88c0,.38,0,.65-.05.91.75-1.44,2.1-.65,3.5-.92-.91,1.1-1,4-2.82,3.31l.89-2.13c-1,.68-1.09,2.09-2.34,2.3-.39-.82.27-1.34.38-2l-1.64,2A5.36,5.36,0,0,1,346.19,149.74Zm-2.56,9.72.47-.89c.75.79-.21,2.46-.27,3.55-.7,2.06-3-.06-4.38-.3.87-2.34,1.69-5.29,3.61-6.65l.26.24c-.34.72-.67,1.43-1.09,2.35,1.08-.74.88-2.33,2.33-2.62.06,1.57-.95,2.76-1.19,4.14ZM325,159.28c.89-1.27,1.59-2.66,2.54-3.88-.26,1.25-1.1,2.26-1.15,3.49.23.32.47,0,.87,0,.23.72.45,1.43.7,2.2a6.27,6.27,0,0,1-3,1C324.22,160.83,324.26,160.37,325,159.28Zm.65-3.82-1,1.82C324.47,156,324.55,155.8,325.66,155.46Zm1.51-3a11.23,11.23,0,0,1,2.31-3.41A9.3,9.3,0,0,1,327.17,152.48Zm-.31,13.33a44.77,44.77,0,0,1,3.59,4.17c-3,0-4.11-2.87-6.11-4.55C325.84,164.78,325.93,164.79,326.86,165.81Zm.11-1c1.42-.72,1.63-.68,2.45.27,1.35,1.65,2.89,3.11,4.11,4.88C330.77,170.46,329.15,166.35,327,164.84Zm2.57-.75c-.06-.07,0-.24-.06-.52a14.31,14.31,0,0,1,7,5.7C334.46,171.15,331.3,165.29,329.54,164.09Zm9.8-11.56c-.39.56-.65.54-1.91.28.5-1.74,1.28-4,3.59-3.07C340.39,150.79,339.92,151.69,339.34,152.53Zm.59,2.53-.63,1.16C338.12,155.71,338.8,155.17,339.93,155.06Zm-4.19-2.12c0-.4,0-.72,0-1h0c.73-.74,1-2.2,2.19-2.31A4.85,4.85,0,0,1,335.74,152.94Zm.95,5.77c1.07,2-2,4.28-4,3.34a22.7,22.7,0,0,1,2.75-5.47c2,.8.16,2,.19,3.31Zm-1-6.79c-.59.46-1,1.32-2,.82.46-1.65,1.1-3.38,3.05-3.38C336.3,150.42,336,151.17,335.68,151.92Zm-3.27.55c-.35.48-1,.42-1.61.1.78-1.1,1.52-4.11,3.25-3.06A9.48,9.48,0,0,1,332.41,152.47Zm-1.49,4.67c.62-.34,1.29-.78,1.91,0l1.2-.69a18.89,18.89,0,0,1-2,5.37C330.67,160.83,328.77,158.23,330.92,157.14Zm3.21,8.24c2.56-1.75,3.89,1.29,5.44,2.93C336.86,170.4,335.92,166.78,334.13,165.38Zm3.23-.32a2.82,2.82,0,0,1-.37-.66,2.11,2.11,0,0,1,.19-.23c1.14.41,1.91,1.52,3.28,1.57a1.78,1.78,0,0,1,1.47,1C340.45,169.4,338.75,166,337.36,165.06Zm3.53-9.73.24.17L340,157.68A2.38,2.38,0,0,1,340.89,155.33Zm1.53-2.48-.25-.17,1.82-2.84A5.09,5.09,0,0,1,342.42,152.85Zm.63-3c-1,1.06-1.28,3.88-3.06,3C341.07,151.53,340.8,149.42,343.05,149.82Zm-12.9-5.25a15.81,15.81,0,0,1,11,1.81c-2.42,0-4.87-.29-7.3-.45-1.37-.23-2.88.21-4.1-.8C329.86,144.93,330,144.62,330.15,144.57Zm-.48.55c-.56.71-.76.71-1.84,0A1.56,1.56,0,0,1,329.67,145.12Zm-2.17,3.78c-.06.89-.66,1.26-1.16,1.67C326.57,150,326.41,149.07,327.5,148.9Zm-3.52.36c.19-.34.55-.34,1.68-.14l-1.51,2.47A2.23,2.23,0,0,1,324,149.26Zm-.29,16.61,2.16,2.29-.21.21a5,5,0,0,1-2.17-2.27Zm-1.57-10.4c.44.51.05.84-.16,1.51C321.45,156.16,321.51,155.77,322.12,155.47Zm-2.38-4.8c.14,1.37,1,2.9.67,4.06C318.3,153.52,318.15,152.71,319.74,150.67Zm-1.57,3.1c.82,1,2,1.65,1.6,3.16C318.17,156.3,317.58,155.27,318.17,153.77Zm-.66,2.2a3.59,3.59,0,0,1,1.91,4C317.45,158.6,317,157.51,317.51,156ZM325,173.86c-3.14-1.35-4.8-4-6.17-7l.28-.21,6.14,6.94Zm3.67,1.54c-4-2.58-6.62-6.79-9.94-10.15a4.62,4.62,0,0,1-1.28-4.05c.16-.65-.57-1.41-.1-2.52,1.33,1.94,3.25,3.3,3.22,5.9l-1.21-.94c2.44,4.68,6.88,7.75,10.07,11.77C329.1,175.41,328.81,175.5,328.65,175.4Zm1.81-.07c-1.27-1.12-2.44-2.36-3.66-3.55l.19-.29c2.8.2,4.68,2.26,6.29,4.48A2.88,2.88,0,0,1,330.46,175.33Zm3.43.49c-1-1.06-1.93-2.23-3-3.47,2.57-.91,3.6,2.25,5.49,3.53C335.39,176.44,334.54,176.49,333.89,175.82Zm3.41-.22c-1.06-1-1.94-2.08-3-3.17,2.09-1.07,3,1.77,4.46,2.81C338.21,175.88,337.74,176,337.3,175.6Zm2.19-1.18c-.77-.75-1.5-1.54-2.32-2.39,1.72-1.44,2.59,1.28,3.8,2.14C340.44,174.76,340,174.91,339.49,174.42Zm3.34-1.08c-1.48,1.12-2.27-1.37-3.44-2.24,2.25-1.55,2.87-.24,4.32,1.45A10.48,10.48,0,0,1,342.83,173.34Zm1.61-1.23-2-2.1c.32-.77.32-.77,1.32-1.24.59.63,1.23,1.29,2,2Zm1.94-1.84c-.77-1-1.79-1.34-1.68-2.54a2,2,0,0,1,1.61.43c-.37-.88-1.29-1.5-.34-2.36a8,8,0,0,1,2,2.25Zm0-7a12.84,12.84,0,0,1,1.47-3.37c2.4,2.46,3.08,1.5,1.16,4.89Zm3.64,2.67c-1.45-.62,0-3.07,1-3.3C351.8,163.77,350.42,164.77,350,165.92Zm1.34,1.73c-.95-1.22.32-2.74,1-3.81,1.81.49-.45,2.66-.65,3.76Zm1,.95c.53-1.19,1.05-2.33,1.55-3.45,2.39.46.34,2.23.17,3.61.89-.54.9-1.67,1.69-2.38l1.33.56-.92,2.83.16.1c2.31-3.63,4.95-7,6.68-11,.37,1.81.27,2.28-.72,3.57-1.65,2.43-3.41,4.92-4.15,7.76,1.8-2.41,2.65-5.06,4.41-7.35-.78,3.7-3.65,6.52-5.15,10.17Zm6,4.88c1.13-3,3.22-5.68,4.57-8.66,1.26,3.06-1.61,5.35-2.59,8C359.74,173.87,359.59,173.94,358.29,173.48Zm2.68.15c1.43-1.84,1.67-5.95,4.63-5.08a44.85,44.85,0,0,1-2.8,4.53C362.29,173.86,362.22,173.89,361,173.63Zm5.45,0c-.21-.79.39-1.15.59-1.71l.27.18Zm1.09-4.31c-1.23,1.29-1.72,4.26-3.65,4.37a50.09,50.09,0,0,1,2.43-4.43c.41-.71.41-.71,1.47-.64A4.09,4.09,0,0,1,367.51,169.33Zm-2.19-2.28c1.22-3.65,4.4-6.73,6.32-10.16.25-.37.46-.78,1.22-.55-1.72,3.52-5.35,6.35-6.13,10.15,2.4-2.87,4.36-6.09,6.55-9.12.88-1.28,1-1.36,2.85-.94-2,3.46-4.59,6.57-6.79,9.92C368.45,167.77,366.74,167,365.32,167.05Zm2.57,6.87c.18-1.75,1.4-3,2.11-4.62.37-.67.41-.65,1.37-.49C370.51,170.71,369.78,172.93,367.89,173.92Zm3-.49c-.08.15-.35.19-.69.35.3-1.51,1.19-2.43,1.89-3.67.37-.47.37-1.35,1.51-1.33C372.62,170.43,371.76,171.94,370.86,173.43Zm1.43.27c.92-1.77,1.46-3.82,3-4.9C374.2,171.89,373.32,173.29,372.29,173.7Zm4.82-4.88a12.36,12.36,0,0,1-2.52,4.75A12.38,12.38,0,0,1,377.11,168.82Zm-.87,4.69c.93-1.17,1.52-5.14,3.25-4.48C378.5,170.22,378.22,174.28,376.24,173.51Zm1.83.09c1.14-1.4,1.51-5.28,3.61-4.54C380.7,170.59,380.5,174.51,378.07,173.6Zm2.38.11a9.71,9.71,0,0,1,2.54-4.83l.36.25C382.39,170.41,382.38,173.91,380.45,173.71Zm1.58-.08c1.25-1.5,1.47-5.22,3.82-4.49C384.75,170.61,384.47,174.51,382,173.63Zm2.67.07c.54-1,1.9-4.87,3.39-4.72C387,170.43,386.47,174,384.7,173.7Zm2,.18-.35-.28,2.61-4.47.29.13C388.39,170.76,388.24,172.92,386.71,173.88Zm4.17-.12,1.06-1.91C392,173.16,391.87,173.51,390.88,173.76Zm-.89-.33c-.51.84-1.3.56-2.1.4.35-1.49,1.45-2.7,2.14-4.06.49-.81.66-.85,1.93-.56A16.67,16.67,0,0,1,390,173.43Zm2.35.21,4.43-8.32c1.38,2.51-1.18,5.13-1.71,7.63C394.54,174.28,394,174.44,392.34,173.64Zm3.5.31c.67-1.29,1.8-7.19,3.32-6.72C398.85,168.44,397.49,175,395.84,174Zm5.51-3.54c-.26,1.31-1.31,1.81-2.4,2.67.94-2.32,1.2-7,3.59-8C402.24,166.94,401.68,168.61,401.35,170.41Zm2.3-1.87c-.06.66-.32.87-1.46,1.35.94-2.31,1.05-5.12,2.8-7l.26.13C404.89,164.94,403.77,166.57,403.65,168.54Zm3.41-3c-.77.75-1.48,1.57-2.22,2.36l-.28-.18c1.26-2.62,1.61-5.81,3.93-7.75.19,1-.43,2-.31,3.18.42-.46.7-.78,1-1.1C411,164,408,164.21,407.06,165.54Zm6.06,7.81a8.11,8.11,0,0,1-2.93-2.89l3.09,2.67Zm3,.28c-2.35-1.61-4.55-3.44-6.82-5.15-.76-.59-.74-.67.1-1.36l6.86,6.33Zm-2.62-7.22c2.57-1.16,4.25,2,6.28,3.29C418,170,415.05,168.39,413.5,166.41Zm8.23,9.68c-1.34-1.23-3-2.19-4.08-3.6,2.93-.06,4.6,1.84,6.64,3.68C423.23,176.49,422.46,176.69,421.73,176.09Zm2.9-.81-2.6-2.23c2.24-1,3.84,1.56,5.77,2.35C426.38,176.25,425.71,176.22,424.63,175.28Zm1.18-2.78A8.48,8.48,0,0,1,429.2,175C428.18,175.16,428.18,175.16,425.81,172.5Zm5.68,1.5c-1.65.46-2.87-1.37-4.15-2.26,1.41-1.34,2.92,1.39,4.21,1.95Zm1.87-.88-3.16-2.58c1.3-2,2.68.73,4.13,1.57Zm1.95-2.44c-1,.52-1.94-1.05-2.83-1.51C433,167.4,435.94,169.71,435.31,170.68Zm.77-1.52c-.66-.69-2.43-1.08-1.82-2.18a.65.65,0,0,1,.93-.27C436.27,167.41,437.74,167.8,436.08,169.16Zm1.34-2.34c-2.16-.41-2.66-1.23-1.49-2.59C436.79,165,438.55,165.35,437.42,166.82Zm-1.34-3.72c-.21-.16-.2-.59-.3-.9l.38-.25c.78.82,2.24,1.18,2.3,2.42A4.1,4.1,0,0,1,436.08,163.1Zm2.61-.41c-1.25-1-3.35-1.46-2.75-3.42a10.09,10.09,0,0,1,2.83,2.12C439,161.63,439,161.69,438.69,162.69Zm.25-2.88c-1.78-1.33-3.57-2.37-5.09-3.77l.15-.28C435.22,156.25,439.68,158.22,438.94,159.81Zm-53.63-2.49h0a.08.08,0,0,0,0,0,.76.76,0,0,0-.09.09A.61.61,0,0,1,385.31,157.32Zm-.05.12a14.06,14.06,0,0,1-2.32,3.84A9.79,9.79,0,0,1,385.26,157.44Zm-2.41,4,.09-.12a1.23,1.23,0,0,1-.17.32ZM381.8,163c.32-.46.64-.93,1-1.39-.22.52-.44,1-.65,1.56Z"/><path class="cls-1" d="M3.63,147.44,1.85,134.83l14.78,2.61h27V4.44s9-4,9,3h352c4-7,11-3,11-3l3,132,33,1,14-2v13l-13-3-183-1,1,9h-14l-1,8s-65,0-66-1-3-15-3-15h-169Z"/><path class="cls-2" d="M467.94,131.37a3,3,0,0,0-3.05-1,2.15,2.15,0,0,0-1.52,2.18c-.05.66-.09,1.33-.14,2.05-.41,0-.67,0-.93,0a13.49,13.49,0,0,0-6.4.88c-2.09.81-4.21,1.78-6.58,1.06a3.77,3.77,0,0,0-.95,0H422.75c-1.24,0-1.38-.17-1.41-1.45-.15-5.76-.31-11.52-.42-17.28s-.2-11.79-.29-17.69c-.11-6.67-.2-13.34-.32-20-.06-3.67-.16-7.35-.22-11q-.3-16.61-.57-33.21c-.11-5.94-.18-11.89-.38-17.83-.12-3.44-.46-6.87-.68-10.31a13.06,13.06,0,0,1,0-3.36c.42-2,.06-2.92-1.87-3.51a16.49,16.49,0,0,0-6.47-.71c-1.55.15-3.32.39-4.18,1.67s-2,1.42-3.36,1.3c-.58-.05-1.18,0-1.77,0l-41.7,0-300,0c-1.18,0-2.36,0-3.53.13a1.26,1.26,0,0,1-1.23-.6A5.64,5.64,0,0,0,52.47.93c-3.31-1.46-6.67-1-10,.09A2.21,2.21,0,0,0,41,3.74a11.94,11.94,0,0,1,.32,2.79c-.13,4.08-.45,8.16-.46,12.24,0,8.57.1,17.15.17,25.73q.13,17,.29,34c.08,9.8.19,19.6.26,29.41q.09,13.13.13,26.27c0,.23,0,.46,0,.68,0,.81-.36,1.15-1.16,1.14-1.5,0-3,0-4.5,0-5,.14-10.09.1-15.1.55a18,18,0,0,1-8.23-1.28,17.57,17.57,0,0,0-5-1.13c-.85-.05-1.71,0-2.73,0,0-.74-.07-1.54-.18-2.33A2.09,2.09,0,0,0,2.17,130c-1.55.26-2.44,1.22-2.1,2.45.62,2.29.33,4.6.31,6.9,0,4.27-.12,8.53-.14,12.8A4,4,0,0,0,.58,154a2.31,2.31,0,0,0,1.33,1.2c1.82.22,3.7-.22,4-2.64a10,10,0,0,0,0-1.22c0-1.69,0-1.67,1.75-1.68,2.77,0,5.55.14,8.21-.88a14.11,14.11,0,0,1,5.36-.76q5.59.12,11.17.14,24.06.06,48.11.08,41,.09,82,.22c.56,0,1.11.1,1.5.13,0,1.74.05,3.27,0,4.8a1.62,1.62,0,0,1-.7,1,1.16,1.16,0,0,0-.4,1.64,3.46,3.46,0,0,0,3.34,2.32c3,.13,6.07.34,9.1.61,2.46.22,3.7-1.42,3.14-3.86a60.87,60.87,0,0,1-.85-6.62c2.91,0,5.59-.08,8.4.06a19,19,0,0,0,.08,8.59c.29,1.42.88,2.78,1.1,4.2a2,2,0,0,0,2,2c1.81.2,3.61.35,5.42.5,1,.08,2,0,2.55,1.44.81-1.41,2-1.19,3.12-1.15s2.09.12,3.13.13c11.54,0,23.08.06,34.62.12a19.94,19.94,0,0,1,2.85.4,13.69,13.69,0,0,1,2.26-.44c3.76-.13,7.53-.19,11.3-.29a10.61,10.61,0,0,0,1.49-.16,2.23,2.23,0,0,0,1.94-2c.24-1.62.48-3.23.64-4.86.14-1.44.09-1.41,1.49-1.4,3.31,0,6.63.06,9.94.05,1.55,0,2.3-.72,2.26-2.25a32.56,32.56,0,0,0-.4-3.24c-.06-.46-.06-.93-.09-1.58.72,0,1.25,0,1.79,0,3.4,0,6.81.1,10.21.12q52.26.2,104.51.37c16.62.05,33.24,0,49.85.06,4,0,8,.1,12,.14a13.35,13.35,0,0,1,3,0,19,19,0,0,0,5.25.59c.91,0,1.82,0,2.73,0,1.14,0,1.2.07,1.23,1.24a17,17,0,0,0,.07,1.76c.28,1.84,1.5,2.73,3.52,2.64,1.31-.06,2-1,2.1-2.84a4.87,4.87,0,0,0,0-.54c-.06-4.27-.14-8.53-.17-12.8,0-2.25-.33-4.52.33-6.76A1.85,1.85,0,0,0,467.94,131.37ZM7.15,139.19l-1.5,2.29C5.15,139.58,5.4,138.57,7.15,139.19Zm-.28,5.16a3.41,3.41,0,0,1-.75.65l-.32-.36c1.57-1.75,2.23-4.12,3.89-5.81L10,139a8.09,8.09,0,0,1-.4.84C8.72,141.36,7.81,142.86,6.87,144.35Zm2.94.72c-.08.12-.39.06-.72.1a3.23,3.23,0,0,1,.19-.74c.83-1.4,1.66-2.8,2.51-4.19.31-.51.69-.86,1.51-.24C12.11,141.74,11,143.42,9.81,145.07Zm3.83-1.45c.48-1,.92-1.91,1.45-2.82.3-.52.79-.47,1.26-.16C15.69,142.38,14.85,143.45,13.64,143.62Zm4.85-1c.23-1.59.63-1.88,2.25-1.58C20,142.68,19.84,142.81,18.49,142.62Zm4.07,0c.14-1.39.55-1.72,1.9-1.41C23.86,142.7,23.78,142.75,22.56,142.6Zm3.6,0c.3-1.32.52-1.48,1.94-1.31C27.51,142.67,27.38,142.74,26.16,142.6Zm4.45.08-.34-.24.91-1.21A.94.94,0,0,1,30.61,142.68Zm3.07-.07c.38-1.37.58-1.5,1.87-1.17C35.16,142.24,34.77,142.93,33.68,142.61Zm4-.07c.46-1.4.69-1.51,2.21-1.16C39.67,142.69,39.23,142.94,37.66,142.54Zm4.55.29-.27-.33c.16-.31.26-.81.49-.87a3.32,3.32,0,0,1,1.27.12l.06.61Zm4.34-.08c-.08-.15-.16-.3-.25-.44l1.07-.59.23.42ZM48,132.29v-.14q-.15-17.28-.31-34.57l-.3-31.44q-.12-10.68-.25-21.37c-.09-8-.12-16.06-.31-24.09-.1-4.53-.48-9-.73-13.58-.11-2,.16-2.23,2.12-2s2,.48,1.9,2.31c-.18,5.43-.26,10.87-.32,16.31,0,2.09.14,4.17.14,6.26,0,10.3-.08,20.6,0,30.9.1,11.34.34,22.68.55,34q.24,13.68.55,27.35c.07,3.18.17,6.35.33,9.52.1,1.92.07,2-1.84,2.06C48.05,133.82,48,133.77,48,132.29Zm1.62,10.17c.69-1.1,1.58-.76,2.46-.67C51.64,142.9,51.2,143,49.58,142.46ZM406.19,90.92c.14,7.39.35,14.78.53,22.17.07,3.22.14,6.44.19,9.66,0,1.39-.07,1.47-1.46,1.47-2.4,0-4.81,0-7.22,0-.77,0-1.2-.21-1.2-1.06s-.11-1.45-.12-2.17c-.13-5.94-.22-11.89-.36-17.83q-.41-17.34-.85-34.69c-.17-7-.32-14.06-.49-21.09q-.29-12.37-.58-24.76c0-1.17-.1-2.34-.17-3.71.74,0,1.24-.07,1.73-.08l7.62-.08c1.41,0,1.52.07,1.53,1.55.1,12.84.15,25.68.3,38.52C405.76,69.51,406,80.21,406.19,90.92ZM355.65,19.09a7.8,7.8,0,0,0-.19,1.31q.15,6.81.33,13.61c0,1,.1,1.91.13,2.86q.33,13.74.66,27.49c.26,10.11.56,20.23.82,30.34q.28,11,.54,21.91c.05,2.09.12,4.17.19,6.26,0,.74-.27,1.08-1,1s-.8-.59-.82-1.15c-.09-2.08-.19-4.17-.25-6.25q-.34-12.45-.67-24.9c-.1-3.71-.22-7.43-.46-11.15,0,.46,0,.92,0,1.38q.17,14.49.34,29c0,3.76.14,7.53.18,11.3,0,1.71,0,1.71-1.76,1.7s-3.82-.06-5.72,0c-.8,0-1.2-.3-1.17-1.11,0-.27,0-.54,0-.81q-.33-13.76-.65-27.49-.27-12-.55-24.09L345,46.74q-.25-11.3-.54-22.59c0-1.41-.09-2.81-.18-4.22,0-.83.32-1.12,1.12-1.11,2.18,0,4.36,0,6.54,0,1,0,1.27.38,1.28,1.29,0,2.63.17,5.25.23,7.88.14,5.49.24,11,.38,16.47.17,7.12.37,14.24.56,21.35a4.75,4.75,0,0,0,.05.53h.26q-.4-23.58-.8-47.27a3.7,3.7,0,0,1,.86-.2q4.71,0,9.4,0c1.32,0,1.35,0,1.41,1.39.09,2,.15,4,.2,6l.63,25.58.54,23q.29,12.45.54,24.9c.12,5.81.18,11.61.27,17.42,0,1.86.07,3.72.15,5.58,0,.91-.27,1.31-1.24,1.28-2.13,0-4.27,0-6.4,0-.91,0-1.33-.27-1.33-1.23,0-1.77-.13-3.54-.18-5.31q-.48-20.88-.95-41.78-.26-11-.52-22-.39-16.47-.8-32.93C356.47,20.1,356.62,19.44,355.65,19.09Zm-25.32,64.1q.18,15.16.37,30.35c0,2.94.12,5.89.16,8.84,0,1.27-.05,1.31-1.29,1.32q-3.54,0-7.09,0c-1.28,0-1.34-.06-1.38-1.41-.09-3-.16-6-.23-9q-.35-14.56-.68-29.12l-.54-23.81q-.4-17.62-.82-35.24c-.05-2.06-.2-4.12-.31-6.29h9.17a.85.85,0,0,1,.95.91c0,.23,0,.46,0,.68.11,4.63.21,9.25.33,13.88q.28,11.56.6,23.13.13,4.89.26,9.79c.11,4.12.21,8.24.48,12.37V78.27Q330.18,67.11,330,56q-.12-7.08-.27-14.15Q329.53,31.4,329.3,21a5,5,0,0,1,0-1.35,1.25,1.25,0,0,1,.71-.76c.55-.15.81.25.83.79,0,.23,0,.45,0,.68.21,8.35.39,16.69.61,25q.39,14.68.82,29.38.29,10.55.55,21.09t.52,21.22c.05,2.12,0,4.24,0,6.38-1.43.45-1.64.33-1.69-1.14-.2-6-.41-12-.58-18-.21-7.35-.38-14.69-.57-22a.62.62,0,0,0-.23-.54Zm-62.09,31.68q-.35-12.11-.66-24.21c-.09-3-.18-6.07-.25-9.11q-.15-7-.29-14c-.11-5.35-.19-10.7-.29-16.05q-.27-14.82-.55-29.66c0-.9-.09-1.79-.15-2.88h1.57c.08,2.06.16,4.09.22,6.12.24,9.57.46,19.14.71,28.71.25,9.74.55,19.49.8,29.24.21,7.71.36,15.42.56,23.13.13,5.17.3,10.34.45,15.51a2.66,2.66,0,0,1-.06,1.2,1.15,1.15,0,0,1-.85.6c-.3,0-.65-.32-.89-.58s-.06-.44-.07-.66C268.41,119.77,268.31,117.32,268.24,114.87ZM242.3,82.55l.36,30.34c0,3.09.13,6.17.16,9.26,0,1.25,0,1.31-1.3,1.31-2.72,0-5.44,0-8.3,0-.07-.59-.15-1.07-.16-1.54-.1-4-.18-7.9-.27-11.84q-.33-13.2-.64-26.4-.26-10.68-.5-21.36-.42-18.7-.86-37.42c0-2-.2-3.95-.31-6,3,0,6,0,9,0,1.08,0,1.14.6,1.16,1.39q.13,5.58.29,11.16.31,12.45.62,24.9c.1,3.58.22,7.16.4,10.75,0-.25.07-.5.07-.75-.11-9.34-.21-18.69-.35-28-.1-5.85-.27-11.7-.4-17.55a2.78,2.78,0,0,1,0-1.08c.13-.3.49-.69.74-.69s.58.39.77.67,0,.45.05.67c.2,8.08.38,16.15.59,24.22q.41,15.18.84,30.34.27,10,.53,20c.19,7.35.36,14.7.55,22,0,1.68.12,3.36.17,5,0,.45,0,.89-.08,1.43h-1.73c-.5-14-1-27.89-1.43-41.83ZM179.42,22.41q.24,9.18.5,18.37Q180.48,61.39,181,82c.15,5.39.31,10.79.45,16.19l.57,23c0,.46,0,.91,0,1.37s-.31.8-.86.8-.91-.14-1-.73c0-.22,0-.45,0-.68-.22-7.25-.46-14.51-.64-21.76-.22-8.3-.38-16.6-.56-24.9q-.27-12.11-.53-24.22c-.2-10.11-.37-20.23-.57-30.35a12.12,12.12,0,0,0-.25-1.66h-.29a2.81,2.81,0,0,0-.19.67c.14,5.63.3,11.25.45,16.87,0,.27,0,.55.05.82q.18,8.09.37,16.19.14,6,.3,12c.07,2.81.15,5.62.21,8.42q.16,8.23.32,16.46c.09,4.49.2,9,.27,13.47q.13,8.85.23,17.69c0,1.64,0,1.66-1.68,1.66l-5.72,0c-1.51,0-1.54,0-1.57-1.51-.12-5.36-.21-10.71-.34-16.06q-.4-17.62-.85-35.24l-.51-22.18q-.28-12.12-.57-24.23c0-1.27-.11-2.54-.17-3.8,0-.48.07-1.07-.78-1.07a4.45,4.45,0,0,0-.13.88q.19,8.91.42,17.83c.11,4.12.26,8.25.37,12.38q.35,13.26.66,26.53.42,16.81.83,33.61c.1,3.86.24,7.71.36,11.56,0,.59.17,1.22-.76,1.28s-1.15-.35-1.18-1.11c0-.32,0-.63,0-.95l-.39-14.42q-.28-11.08-.56-22.17-.14-5.72-.25-11.43-.28-13.74-.56-27.48-.25-12.32-.5-24.63c0-.72-.07-1.43-.11-2.25h24.92c.08.88.2,1.68.22,2.49.14,6,.25,12.06.4,18.1.17,7.25.38,14.51.55,21.76q.3,12,.55,23.95c.2,10.66.36,21.32.55,32,0,1.68.07,3.36.14,5,0,.89-.22,1.33-1.22,1.31-2.45-.06-4.91,0-7.36,0-.89,0-1.2-.36-1.21-1.22,0-1.86-.12-3.71-.16-5.57q-.36-15.1-.7-30.21-.27-11.43-.52-22.87-.42-18.36-.83-36.74c0-2.13-.14-4.26-.22-6.39,0-.52.09-1.14-1-1.32C179.42,20.27,179.39,21.34,179.42,22.41ZM155.1,123.08h-8.84c-.06-.55-.14-1.08-.15-1.61-.12-5.49-.22-11-.35-16.46q-.4-17.22-.84-34.43c-.18-7.57-.34-15.15-.52-22.72Q144.13,36,143.84,24c0-1.36-.08-2.72-.18-4.08-.07-.95.42-1.14,1.24-1.13,2.18,0,4.36,0,6.54,0,1.31,0,1.39.09,1.43,1.38.09,2.54.17,5.07.24,7.61.13,5.58.24,11.16.38,16.74q.27,10.74.56,21.49a.64.64,0,0,0,.21.52c0-.39,0-.78,0-1.17-.11-9.58-.21-19.15-.36-28.72-.08-5.35-.25-10.7-.38-16a4.12,4.12,0,0,1,.06-1.22.88.88,0,0,1,.63-.52,1.19,1.19,0,0,1,.81.5c.15.23.08.61.09.93q.28,11.43.57,22.86.41,15.57.85,31.15.27,10.08.54,20.14.27,11.09.54,22.18c0,1.72.15,3.45.17,5.17,0,1.44-.08,1.49-1.87,1.18q-.63-21.09-1.27-42.3h-.12C154.7,94.79,154.9,108.88,155.1,123.08ZM128.89,84.79q.18,14.7.37,29.4c0,2.49.12,5,.16,7.48,0,1.46,0,1.49-1.41,1.49-2.09,0-4.18,0-6.27,0-.94,0-1.28-.37-1.29-1.29,0-2.76-.13-5.53-.2-8.3q-.34-14.62-.68-29.25-.27-11.91-.54-23.82-.39-17.68-.82-35.38c0-2-.19-4.06-.3-6.24h8.31a.84.84,0,0,1,1,.9c0,.36.06.72.06,1.09.13,5.57.24,11.15.38,16.73.17,6.76.37,13.52.55,20.27.1,3.49.18,7,.27,10.48q.16,6,.32,12.09l.27-.07c-.12-4-.27-8.06-.36-12.09-.06-2.67,0-5.35,0-8Q128.34,43.11,128,26c0-2.26,0-4.53,0-7l1.3-.06c0,.49.11.84.12,1.19.2,8.35.38,16.7.6,25,.27,10.25.57,20.5.84,30.75.2,7.21.37,14.43.56,21.64.21,7.61.45,15.23.67,22.85,0,.59,0,1.18,0,1.77s-.12,1-.81,1-1-.19-1.06-.91c0-1.22-.16-2.44-.19-3.66q-.21-6.81-.38-13.61c-.1-3.63-.2-7.25-.29-10.88l-.27-10.88a1.19,1.19,0,0,0-.24-.78C128.89,83.22,128.88,84,128.89,84.79Zm-62.47-4c0,3.77,0,7.84,0,11.92,0,.41.06.81.06,1.22l.27,26.68c0,.36,0,.73,0,1.09,0,.73-.28,1.07-1.05,1.07-2.9,0-5.81,0-8.72,0-1.06,0-1.14-.61-1.14-1.41q0-7.23-.05-14.44c-.09-15-.13-30-.29-45C55.44,54,55.14,46.22,55,38.42c-.12-6-.18-12.06-.25-18.1,0-1.32.07-1.37,1.4-1.37,2.31,0,4.63,0,6.94,0,1.37,0,1.43.07,1.48,1.47.09,2.5.18,5,.24,7.48.13,5.49.24,11,.37,16.47q.27,10.74.57,21.49a1.82,1.82,0,0,0,0,.32c0-5.09,0-10.21,0-15.34,0-2.95-.07-5.9-.13-8.84q-.21-10.76-.44-21.5c0-1.46,0-1.53,1.43-1.47a8.48,8.48,0,0,1,.15,1q.28,11,.56,22,.42,16,.86,32,.27,10.27.55,20.55.34,12.85.71,25.71c0,.5,0,1,0,1.5s-.18,1-.85,1a.88.88,0,0,1-1-1c-.07-1.86-.18-3.71-.23-5.57Q67,103.92,66.7,91.53c-.1-3.54-.18-7.07-.27-10.61C66.42,80.76,66.4,80.6,66.42,80.75Zm3,7.29q-.27-11.51-.52-23-.42-18.71-.85-37.42c0-2.4-.16-4.8-.21-7.21,0-1.36,0-1.43,1.33-1.43,2.49,0,5,0,7.67,0,.08,1.34.19,2.47.22,3.6.14,6.12.26,12.24.4,18.37.18,7.16.38,14.32.55,21.49.19,8,.39,16,.54,23.94q.3,15.91.55,31.84c0,1.48,0,3,0,4.54a7.86,7.86,0,0,1-1.06.13c-2.09,0-4.17,0-6.26,0-1.36,0-1.44-.09-1.53-1.48-.07-1.18-.12-2.36-.15-3.53Q69.76,102.93,69.42,88ZM79,85.14c-.1-4.22-.18-8.43-.28-12.65s-.19-8.52-.27-12.78q-.29-14.3-.55-28.57c-.08-4-.2-8-.3-12.08h1.57c0,.43.1.78.11,1.13.21,8.66.39,17.32.62,26,.26,10.43.57,20.86.85,31.29Q81,87.73,81.26,98q.33,11.76.66,23.53c0,.4,0,.8-.07,1.27H80.07c-.06-.79-.14-1.55-.16-2.31-.14-4.76-.26-9.52-.39-14.28Q79.25,95.68,79,85.14Zm2.72-2.35-.54-24.22q-.39-17.07-.8-34.15c0-1.79-.18-3.58-.28-5.49,3,0,6.06,0,9.1,0,.9,0,1,.49,1,1.21,0,2.22.16,4.44.21,6.66.13,5.08.22,10.16.35,15.24.18,7.43.39,14.87.57,22.3.1,4,.18,8,.27,12q.13,6.52.28,13c.09,4.54.2,9.07.27,13.6q.14,9.18.23,18.37c0,1.61,0,1.62-1.55,1.62-2.23,0-4.45,0-6.68,0-1.51,0-1.52,0-1.56-1.49-.08-3.26-.16-6.53-.23-9.79Q82,97.2,81.7,82.79Zm10.6,4.58q-.28-12-.54-24.09-.29-14.69-.55-29.39-.12-6.6-.26-13.2A4.12,4.12,0,0,1,91,19.47a.87.87,0,0,1,.66-.48,1,1,0,0,1,.68.47,1.74,1.74,0,0,1,.08.8Q92.71,30.61,93,41q.4,15.31.83,30.62c.17,6,.35,12.06.5,18.1q.31,12.58.6,25.17c0,2.13.14,4.27.2,6.4,0,.49,0,1-.07,1.53-1.7.25-1.76.22-1.8-1.25-.11-3.27-.21-6.53-.3-9.8Q92.61,99.56,92.3,87.37Zm2.46-14q-.26-10.81-.51-21.63-.36-15.11-.75-30.2c0-.8,0-1.61,0-2.49a8.8,8.8,0,0,1,1.16-.16q3.27,0,6.54,0c1.29,0,1.36.09,1.46,1.39,0,.22,0,.45,0,.68q.19,9.11.39,18.22c.18,7.26.38,14.51.56,21.76q.28,11.77.54,23.53.3,16,.56,32c0,1.63.09,3.26.12,4.89,0,.49,0,1-.1,1.62h-3.9c-1.22,0-2.45-.06-3.67,0-1,0-1.27-.33-1.29-1.26-.05-3.9-.16-7.8-.25-11.7Q95.2,91.7,94.76,73.41Zm9.83,9.8c-.09-3.71-.17-7.43-.25-11.14q-.15-7-.29-14-.14-7.41-.28-14.82-.22-11.22-.46-22.44c0-.57,0-1.15.08-1.8h1.39c0,.45.11.85.12,1.24.21,8.39.39,16.78.61,25.16.27,10.25.57,20.5.84,30.74.19,7,.36,14,.55,21q.31,11.68.67,23.39c0,.45,0,.9,0,1.36s0,1.1-.79,1.15-1.07-.29-1.09-1-.13-1.63-.16-2.44q-.2-6.81-.37-13.6Q104.87,94.57,104.59,83.21Zm2.46-14.67c-.18-7.3-.32-14.6-.51-21.9q-.33-13.2-.69-26.4c0-.35,0-.71.05-1.2h8.76c.1,1.83.22,3.58.27,5.33.15,6.08.26,12.16.41,18.24.17,7.2.37,14.41.55,21.62.09,3.85.17,7.71.26,11.56.19,8.8.39,17.59.55,26.39.12,6.44.18,12.88.26,19.32,0,1.63,0,1.65-1.68,1.63-2,0-3.9-.1-5.86-.11-.81,0-1.16-.36-1.15-1.15,0-.4,0-.81,0-1.22-.12-6-.22-12-.36-18C107.62,91.31,107.32,79.92,107.05,68.54Zm9.52,5.26q-.28-13-.54-26-.27-13.53-.53-27.08c0-.54,0-1.08,0-1.76h1.61c0,.85,0,1.65,0,2.45q.33,14.16.67,28.31c.17,6.58.37,13.15.54,19.73l.84,33.2q.24,9.2.51,18.37c0,.36,0,.73,0,1.09,0,.65-.19,1-.93,1s-.94-.41-.95-1c0-.23,0-.46,0-.68q-.33-11.85-.65-23.68T116.57,73.8Zm15-7.49-.48-20.14q-.3-12.66-.61-25.31a17.78,17.78,0,0,0-.28-2c3.05,0,6.09,0,9.13,0,.87,0,1.07.43,1.08,1.18,0,1.82.14,3.63.18,5.44.14,5.4.24,10.8.38,16.2.17,7.16.37,14.33.54,21.49q.3,12.1.54,24.22.33,17.34.59,34.7c0,.3,0,.61-.08,1a4.21,4.21,0,0,1-.7.13c-2.59,0-5.18,0-7.76,0-.8,0-1.19-.27-1.21-1.08,0-.59-.09-1.18-.11-1.77-.11-5.39-.2-10.79-.32-16.19Q132,85.23,131.57,66.31Zm10.63,6.34q-.28-13.26-.55-26.52-.26-12.65-.5-25.3a4.34,4.34,0,0,1,0-1.35,1,1,0,0,1,.72-.57,1.07,1.07,0,0,1,.76.54,2.94,2.94,0,0,1,.07,1.08q.33,13.8.66,27.61.24,9.86.54,19.72c0,1.08.12,2.17.17,3.15.22,9.85.43,19.6.66,29.35.17,6.84.36,13.69.53,20.53,0,.41,0,.82,0,1.23,0,.61-.11,1-.88,1.06s-.9-.45-.94-1-.08-.9-.09-1.35q-.34-12.32-.67-24.62Q142.46,84.41,142.2,72.65ZM157.74,88.6q-.26-11.49-.52-23-.43-18.76-.85-37.54c-.06-2.58-.17-5.17-.22-7.75,0-1.41,0-1.53,1.39-1.56,2.3-.05,4.6,0,7.13,0,.08,3.28.17,6.31.25,9.34q.3,12,.59,23.94.27,10.81.52,21.62.3,13.39.57,26.79c.11,5.49.17,11,.26,16.46,0,1.59.09,3.17.12,4.76,0,.44,0,.89-.06,1.38a3,3,0,0,1-.7.18c-2.18,0-4.36,0-6.54,0-.74,0-1.08-.27-1.1-1,0-1.22-.14-2.44-.17-3.67Q158.07,103.57,157.74,88.6Zm34.63-4.49c-.1-4.21-.18-8.43-.27-12.64q-.15-6.6-.28-13.19c-.1-4.76-.18-9.52-.28-14.28-.15-7.8-.32-15.6-.47-23.39a3.81,3.81,0,0,1,0-1.22c.08-.26.46-.64.66-.61a1.57,1.57,0,0,1,.84.62c.12.14,0,.44,0,.66.2,8.3.38,16.6.61,24.9.23,8.75.5,17.49.87,29.93.12,5.29.31,14.27.54,23.24.19,7.57.44,15.14.65,22.71,0,.5,0,1,0,1.5s-.12,1.06-.88,1.07-1-.28-1-1c0-.91-.13-1.81-.16-2.72q-.21-7-.38-14Q192.65,94.92,192.37,84.11Zm2.44-15.52q-.26-10.74-.49-21.49-.28-12-.58-24.08c0-1.08-.08-2.17-.15-3.26-.05-.76.3-1.05,1-1.05,2.36,0,4.73,0,7.09,0,.85,0,1.07.43,1.09,1.19,0,1.85.13,3.71.18,5.57.13,5.71.25,11.43.39,17.14q.26,10.6.55,21.21c.08,2.53.21,5.07.32,7.6h-.08c.11,5.84.2,11.69.31,17.54.07,3.4.19,6.8.23,10.2q.16,11.28.29,22.58c0,1.68,0,1.68-1.64,1.67-2,0-4,0-6,0-.92,0-1.36-.31-1.33-1.24,0-.41,0-.82,0-1.23-.12-5.94-.22-11.88-.36-17.82Q195.25,85.86,194.81,68.59Zm9.8,4.93q-.27-11.77-.52-23.54-.3-14.62-.55-29.26a4.14,4.14,0,0,1,0-1.22c.07-.27.43-.72.58-.68a1.18,1.18,0,0,1,.82.62,6.88,6.88,0,0,1,.17,1.76c.23,9.25.43,18.51.67,27.76q.41,15.65.85,31.3c.18,6.8.33,13.6.51,20.41s.36,13.87.54,20.81c0,.58,0,1.16,0,1.8-1.69.2-1.8.14-1.86-1.19q-.16-4-.28-8-.21-7.89-.41-15.78Q204.88,85.91,204.61,73.52Zm3,11q-.27-11.83-.53-23.67-.41-18-.82-36.05c0-1.94,0-3.88,0-5.9a1.94,1.94,0,0,1,.56-.18c2.36,0,4.72.06,7.08.07a.91.91,0,0,1,1,1c0,.37.07.73.08,1.09.13,5.8.24,11.61.38,17.41.18,7.44.39,14.87.57,22.31.1,3.85.18,7.7.27,11.56q.27,12.57.55,25.16c.07,3.44.15,6.89.21,10.33q.12,7,.2,14c0,.53-.05,1.06-.08,1.67-.51,0-.9.1-1.3.1h-5.86c-1.35,0-1.38,0-1.42-1.35q-.14-4.23-.22-8.44Zm9.56,9.87c-.1-3.67-.19-7.35-.27-11-.1-4.08-.18-8.16-.27-12.24-.09-4.44-.19-8.88-.27-13.32-.1-5.31-.19-10.62-.3-15.92q-.21-10.76-.44-21.5c0-.44,0-.89,0-1.47l1.45-.09c.06.46.13.81.14,1.16q.3,12.65.61,25.31c.26,10.2.56,20.41.83,30.61.19,7.08.36,14.15.56,21.23.21,7.75.45,15.5.67,23.26,0,.94,0,1.88,0,2.95h-1.75c-.1-1.57-.25-3.09-.3-4.61-.14-4.4-.25-8.8-.37-13.2C217.36,101.85,217.26,98.14,217.17,94.42Zm2.17-27.25c-.18-7.71-.34-15.43-.53-23.14s-.36-15.33-.56-23c0-.66-.17-1.32-.27-2.1a6.23,6.23,0,0,1,.72-.11c2.46,0,4.91,0,7.36,0,.92,0,1.3.29,1.3,1.24,0,2,.13,3.9.18,5.85.13,5.44.24,10.89.38,16.33.17,7.17.37,14.33.54,21.5.1,3.94.18,7.89.27,11.83.19,8.57.39,17.14.55,25.71.13,6.85.2,13.71.28,20.56,0,1.61,0,1.62-1.56,1.62-2,0-4,0-6,0-1.2,0-1.28-.09-1.39-1.31-.05-.5-.06-1-.07-1.5-.11-5.72-.21-11.43-.34-17.15Q219.79,85.34,219.34,67.17Zm10.08,18.2q-.13-5.64-.26-11.29-.28-13.74-.56-27.47-.25-12.18-.49-24.36c0-1,0-2.08,0-3.31h1.58c0,.59,0,1.12,0,1.65q.31,14.16.66,28.3c.16,6.39.36,12.79.52,19.18q.44,16.53.85,33.06c.17,6.71.36,13.42.53,20.13,0,.45,0,.91,0,1.36s-.25.82-.83.84-1-.19-1-.82c0-.32-.05-.63-.06-1q-.19-6.66-.37-13.33Q229.7,96.87,229.42,85.37Zm16.09,3.93c-.16-7.12-.34-14.23-.5-21.35-.2-8.89-.38-17.78-.59-26.66-.15-6.76-.34-13.51-.51-20.27,0-.41,0-.82,0-1.22a.78.78,0,0,1,.91-.91H252c.71,0,.94.34,1,1,0,.95.13,1.9.15,2.85q.18,7.48.35,15,.3,12.59.61,25.16c.09,3.54.17,7.07.24,10.61.19,8.7.4,17.4.57,26.11.12,6.35.19,12.69.27,19,0,1.54,0,3.07,0,4.86-2.14,0-4.17,0-6.21,0-2.49,0-2.5,0-2.71-2.48-.06-.72-.07-1.45-.09-2.17Zm9.54-4.77c-.09-3.72-.18-7.43-.25-11.15q-.3-14.16-.58-28.31Q254,33,253.73,20.85a4.31,4.31,0,0,1,.06-1.35.94.94,0,0,1,.72-.56,1,1,0,0,1,.76.52,3,3,0,0,1,.07,1.08c.22,9,.42,18,.65,27,.16,6.57.36,13.15.53,19.73q.42,16.05.84,32.11c.2,7.67.43,15.33.64,23a7.71,7.71,0,0,1-.09,1c-1.66.22-1.76.21-1.82-1.24-.18-4.31-.31-8.62-.43-12.93Q255.33,96.85,255.05,84.53Zm2.45-14.48q-.25-10.87-.51-21.76c-.22-8.89-.47-17.77-.7-26.66,0-.85,0-1.7,0-2.65h9c.06.44.14.83.16,1.23.09,3,.19,6,.26,9,.13,5.26.24,10.52.37,15.78.17,6.84.36,13.68.53,20.53.11,4.16.19,8.33.28,12.5.09,4.35.2,8.7.28,13.05q.25,15.3.48,30.6c0,.32,0,.64,0,1,0,.63-.3.91-.92.9-2.36,0-4.72,0-7.08,0-.64,0-.9-.33-.92-.92,0-.32,0-.64,0-1-.11-5.13-.21-10.25-.33-15.38Q257.95,88.14,257.5,70.05Zm12.8,17q-.27-11.77-.53-23.54-.4-18.3-.83-36.61c-.05-2.18-.13-4.35-.22-6.53,0-.48-.1-1-.17-1.55h9.12c.61,0,.93.25.95.88s.13,1.54.15,2.31c.14,6.08.25,12.16.4,18.23.17,7.08.37,14.15.55,21.23q.13,5.71.25,11.42c.19,8.71.4,17.42.57,26.13.11,5.85.17,11.7.27,17.55,0,1.91.1,3.81.12,5.72,0,1.22-.07,1.3-1.32,1.29-2.41,0-4.81-.09-7.22-.09-.87,0-1.22-.32-1.23-1.19,0-2.23-.13-4.45-.18-6.67Q270.64,101.39,270.3,87.1Zm10.38-2.78q-.14-5.85-.26-11.69l-.57-28.43-.48-23.4c0-.36,0-.72,0-1.09,0-.55.24-.83.82-.82s.77.36.77.88c0,.18,0,.36,0,.54.21,8.67.4,17.33.63,26,.22,8.34.49,16.68.83,28,.14,6,.33,15.12.56,24.19.2,7.66.44,15.32.66,23,0,.45,0,.9,0,1.36s-.34.78-.88.76-.92-.09-1-.7c-.06-.86-.16-1.72-.18-2.58q-.21-7.08-.39-14.15Q281,95.26,280.68,84.32Zm2.45-14.93q-.27-11.08-.51-22.17-.28-12.18-.57-24.35c0-1.26,0-2.51,0-4,2.83,0,5.55,0,8.27,0,.79,0,.77.62.79,1.17.09,2.76.18,5.53.25,8.29q.31,12.72.62,25.43c.08,3.31.18,6.62.26,9.93q.15,6.32.28,12.64c.09,4.26.2,8.52.27,12.78q.29,16.24.52,32.5c0,.32,0,.64,0,1,.06.82-.31,1.12-1.12,1.11-2.23,0-4.45,0-6.68,0-.81,0-1.18-.29-1.16-1.1,0-.36,0-.72,0-1.09-.12-5.8-.22-11.61-.36-17.41Q283.56,86.73,283.13,69.39Zm10.06,17.14q-.29-11.91-.54-23.81-.28-14.55-.55-29.11-.12-6.41-.25-12.79c0-.32,0-.64,0-.95,0-.47,0-.94.66-1s.79.45.82,1,.1,1.27.11,1.9c.15,6.17.27,12.34.43,18.51q.42,15.51.87,31h0c.13,3.86.28,7.71.37,11.56.15,6.49.25,13,.4,19.46s.34,13,.51,19.46c0,.36,0,.72,0,1.09,0,.56-.28.8-.84.81s-1-.17-1-.82c0-.23,0-.46,0-.68-.11-3.27-.22-6.53-.3-9.8Q293.51,99.46,293.19,86.53Zm2.74-1.29q-.27-11.7-.53-23.4-.42-18.23-.84-36.45c0-1.72-.15-3.44-.18-5.17,0-1.3,0-1.36,1.39-1.37,2,0,3.9,0,5.85,0,.94,0,1.32.35,1.34,1.25.05,2.58.12,5.16.19,7.75.18,7.43.38,14.87.56,22.3s.35,15.14.55,22.71c.06,2.45.19,4.9.29,7.34h0q.14,8.72.28,17.41.13,8.91.27,17.82c0,2.32.12,4.63.14,6.94,0,1.26-.06,1.32-1.29,1.33-1.87,0-3.73,0-5.59,0-1.42,0-1.46,0-1.5-1.43q-.13-3.94-.22-7.89Q296.27,99.8,295.93,85.24Zm9-1.79c-.08-3.44-.16-6.89-.23-10.33q-.17-7.56-.3-15.1c-.1-4.63-.18-9.25-.27-13.88-.17-8.34-.35-16.68-.53-25.21h1.56c0,.51.08,1,.09,1.47.21,8.75.4,17.51.63,26.26.25,9.66.55,19.32.8,29,.29,11.39.55,22.77.84,34.16.11,4.17.29,8.34.4,12.51a1.8,1.8,0,0,1-.33,1.22,1,1,0,0,1-1.52-.78c-.08-1-.15-2-.18-3q-.21-6.73-.38-13.47Q305.23,94.87,304.93,83.45Zm2.46-15.15L306.88,46q-.28-12-.59-24.08c0-1-.15-2-.25-3.07,2.76,0,5.52,0,8.29,0,.76,0,1,.33,1.05,1.06,0,2.13.15,4.26.2,6.39.13,5,.23,10,.35,15q.29,11.28.57,22.57c.1,3.76.17,7.52.26,11.29.19,8.79.4,17.58.56,26.38.13,6.89.19,13.78.27,20.68,0,1.5,0,1.52-1.51,1.52-2.05,0-4.09,0-6.13,0-.95,0-1.32-.37-1.32-1.27,0-.63,0-1.26-.05-1.9-.12-5.94-.22-11.88-.35-17.82Q307.82,85.51,307.39,68.3Zm10.07,17.51c-.09-3.72-.18-7.44-.25-11.16q-.3-13.94-.58-27.89-.12-6-.23-12c-.12-5.25-.24-10.5-.36-15.85h1.62c0,.49,0,.93.06,1.37q.33,14.36.67,28.71c.16,6.62.37,13.24.54,19.87q.44,16.59.85,33.2.25,9.8.52,19.59c0,.41,0,.82,0,1.23,0,.58-.33.77-.88.78s-.89-.16-.93-.74c0-.36-.06-.72-.07-1.09q-.2-6.8-.38-13.6Q317.73,97,317.46,85.81ZM333,67q-.28-12.66-.57-25.31c-.16-7-.35-14-.52-21,0-.27,0-.55,0-.82-.06-.83.35-1.12,1.14-1.11q3.4,0,6.81,0c.81,0,1.14.3,1.16,1.11,0,2,.13,4,.18,6q.33,13,.64,26l.54,22.85c.19,8.57.4,17.14.54,25.71.07,4,0,8,0,12h.38v9.93c0,1.34,0,1.38-1.38,1.38-2.13,0-4.27,0-6.4,0-.78,0-1.17-.24-1.18-1.08,0-1.14-.14-2.27-.17-3.4q-.34-14.76-.66-29.52Q333.29,78.36,333,67Zm9.8,6.32q-.3-14-.57-28-.25-12.24-.49-24.49a4.34,4.34,0,0,1,.05-1.35,1,1,0,0,1,.71-.57,1,1,0,0,1,.77.53,2.69,2.69,0,0,1,.07,1.07c.22,9,.42,18,.65,27.07q.25,10.14.55,20.27c0,1.17.13,2.35.18,3.34.22,9.71.42,19.23.65,28.76.18,7.52.4,15,.6,22.57,0,.62.12,1.21-.79,1.25s-1-.36-1-1.07-.12-1.54-.14-2.31q-.34-12.3-.66-24.61Q343.08,84.55,342.83,73.33Zm24.8,11.54q-.15-6-.26-12-.28-13.73-.56-27.47-.26-12.37-.5-24.75c0-.54,0-1.07,0-1.78h1.53c0,.54.07,1,.08,1.5.22,9.16.41,18.32.65,27.48.25,9.56.54,19.13.79,28.69.29,11.25.55,22.49.84,33.73.1,4.08.28,8.16.4,12.24,0,1.43-.07,1.49-1.8,1.24-.07-.93-.2-1.9-.23-2.88q-.21-7.07-.38-14.14Q367.91,95.81,367.63,84.87ZM370.36,83q-.27-12.31-.55-24.63-.39-16.86-.8-33.74c0-1.89-.19-3.77-.3-5.8,3,0,6.06,0,9.1,0,.88,0,1,.49,1.06,1.22.06,2.22.16,4.44.22,6.66.12,5.12.22,10.25.35,15.37.18,7.53.39,15.06.57,22.58.1,3.72.17,7.43.25,11.15l.3,13.73c.09,4.45.19,8.89.26,13.33q.15,9.74.24,19.46c0,1.66,0,1.66-1.64,1.66L373,124c-1.68,0-1.68,0-1.73-1.76L371,111.71Q370.7,97.36,370.36,83Zm10.32-8.06c-.08-3.76-.19-7.52-.26-11.29q-.29-15-.55-29.92-.14-6.54-.26-13.06c0-.28,0-.55,0-.82,0-.47,0-.94.68-1s.78.47.8,1c0,1.13.1,2.26.13,3.39.14,5.9.26,11.79.42,17.69q.39,15.3.83,30.6c.16,6,.35,12.06.5,18.09.21,8.44.39,16.87.6,25.31.06,2.44.14,4.89.21,7.34,0,.49,0,1,0,1.53-1.74.23-1.8.18-1.86-1.29-.09-2.4-.19-4.8-.26-7.2-.15-5.26-.3-10.52-.42-15.78C381,91.35,380.87,83.15,380.68,74.94Zm3,11q-.29-12.31-.55-24.64-.25-11.35-.54-22.72c-.14-5.67-.3-11.34-.45-17,0-.59,0-1.18,0-1.77s.24-1,.95-1q3.62,0,7.22,0a.85.85,0,0,1,1,.9c0,.59.08,1.18.09,1.77.14,6,.25,12.07.4,18.1.17,7,.37,14.06.54,21.09.19,8.12.39,16.23.55,24.35.2,10.3.36,20.6.55,30.9,0,2.13.09,4.26.14,6.39,0,.49,0,1,0,1.67-.68,0-1.12.07-1.57.07l-5.72,0c-1.6,0-1.6,0-1.65-1.56-.07-2.31-.14-4.63-.2-6.94Q384,100.76,383.7,86Zm9.55-2.57c-.1-4.08-.18-8.15-.27-12.23l-.27-12.92q-.15-7.55-.29-15.09-.23-11.24-.46-22.45a5.06,5.06,0,0,1,.07-1.35.84.84,0,0,1,.65-.49,1,1,0,0,1,.79.5,4.63,4.63,0,0,1,.1,1.35c.2,8.57.39,17.14.62,25.71.23,8.38.5,16.77.75,25.16h0q.43,18.84.86,37.67c.11,4.54.29,9.07.41,13.6,0,.5.21,1.15-.63,1.27s-1.16-.19-1.21-1c-.1-1.4-.18-2.8-.22-4.21-.14-4.53-.25-9.06-.37-13.6Q393.53,94.38,393.25,83.42ZM55.73,8.82l63.5,0H229.88v0H401.57c.95,0,1.91,0,2.86,0,.71,0,1.14.21,1.11,1L405.33,17a.77.77,0,0,1-.88.81h-1.09l-172.51.05q-48.3,0-96.61.09c-24.57,0-49.14-.12-73.71-.19-1.59,0-3.18,0-4.77.06-.9,0-1.2-.34-1.22-1.2-.06-2.13-.19-4.25-.26-6.38C54.23,8.91,54.33,8.82,55.73,8.82ZM54.1,142.59c.68-1.23.94-1.36,2.11-1.16C55.77,142.75,55.57,142.87,54.1,142.59Zm4,0c.49-1.35.55-1.39,1.69-1.11C59.34,142.68,59.26,142.73,58.08,142.55Zm3.42,0c.25-1.35.69-1.59,2.08-1.14C63.17,142.78,62.89,142.93,61.5,142.59Zm4-.16c.57-1.28.85-1.4,2.57-1.08C67.76,142.87,66.94,143.22,65.51,142.43Zm4.46.2c0-1.4.59-1.69,2.64-1.24C72.08,142.86,71.74,143,70,142.63Zm4.41,0c.15-1.4.71-1.69,2.44-1.25C76.47,142.82,76.14,143,74.38,142.64Zm4.09,0c.24-1.45.79-1.7,2.85-1.24C80.78,142.88,80.3,143.07,78.47,142.62Zm4.67,0c.29-1.46.76-1.68,2.67-1.24C85.45,142.86,84.93,143.1,83.14,142.6Zm4.82,0c0-1.46.77-1.8,2.75-1.25C90.24,142.87,89.83,143.06,88,142.64Zm4.59,0c.5-1.52,1-1.75,2.62-1.21C94.84,142.89,94.51,143.05,92.55,142.64Zm4.64,0c.27-1.35.56-1.53,2.1-1.23C98.84,142.9,98.63,143,97.19,142.6Zm4.63,0c.2-1.3.48-1.49,1.89-1.24C103.37,142.84,103.18,143,101.82,142.62Zm3.82,0c.12-1.43.56-1.67,2.4-1.24C107.58,142.92,107.28,143.07,105.64,142.62Zm4.59,0c.3-1.44.37-1.49,1.93-1.39C112.43,142.49,111.8,143,110.23,142.63Zm4.3,0c.19-.87.53-1.5,1.6-1.31C115.9,142.61,115.68,142.79,114.53,142.59Zm3.76.3c.27-1,.49-1.55,1.44-1.63A1.67,1.67,0,0,1,118.29,142.89Zm3.85-.2c.29-1.31.56-1.5,2-1.34C123.65,142.81,123.48,142.92,122.14,142.69Zm4.24-.07c.31-1.52,1.39-1.89,3.44-1.18C129.5,143,128.47,143.32,126.38,142.62Zm6.3.15c-.05-1.21.18-1.56,1.23-1.57.81,0,1.69-.27,2.46.26C135.7,143.1,134.91,143.37,132.68,142.77Zm5.84,0c.36-1.67,1.17-2,3.75-1.4C141.88,143,140.86,143.41,138.52,142.75Zm5.31,0c.65-1.67,1.49-2,3.59-1.36C146.81,143,146,143.37,143.83,142.76Zm5.16,0c.58-1.46.76-1.58,2-1.46C150.84,142.72,150.4,143.06,149,142.8Zm3.24,0c.56-1.64.9-1.82,2.62-1.45C154.63,142.87,154,143.22,152.23,142.81Zm4.69,0c.28-.77.47-1.53,1.53-1.52C158.34,142.6,158.14,142.8,156.92,142.82Zm3.65.15c.25-1,.5-1.75,1.71-1.68C162,142.16,161.78,142.86,160.57,143Zm4.2-.13c.53-1.62.69-1.73,2.21-1.53C166.72,142.75,166.26,143.09,164.77,142.84Zm9.3,11.33-5.43.08a1,1,0,0,1-1-.85c-.4-1.56-.86-3.1-1.36-4.9,2.83,0,5.73,0,8.64,0,0,1.77,0,3.3,0,4.83A.73.73,0,0,1,174.07,154.17Zm-4.86-11.31c.36-.87.62-1.57,1.58-1.63C170.72,142.45,170.51,142.68,169.21,142.86Zm4.24,0c.35-1.6.71-1.82,2.33-1.51C175.51,142.83,175.05,143.14,173.45,142.85Zm5,0c.29-1.59.73-1.88,2.25-1.47C180.27,143,180,143.15,178.49,142.86Zm4.72-.09c.6-1.63,1-1.82,2.64-1.4C185.44,143,184.91,143.3,183.21,142.77Zm5.54,5.91a11.11,11.11,0,0,1,3.7-.05l-1.24,1.56Zm-.42-5.81a1.74,1.74,0,0,1,1.47-1.69A1.52,1.52,0,0,1,188.33,142.87Zm4.35,6.39c.75-1.11,1.89-.72,2.93-.64l.22.35-4.39,4.51C190.6,151.48,191.9,150.43,192.68,149.26Zm2.19-6.39c-.07-1.51,1.11-2.08,3.1-1.49C197.65,143.17,197.14,143.4,194.87,142.87Zm4,5.87-7.14,7.41-.4-.35c.25-.35.48-.72.76-1,1.59-1.81,3.19-3.6,4.78-5.41A1.57,1.57,0,0,1,198.9,148.74ZM192,157.87c2.46-2.78,4.94-5.56,7.39-8.34a2.33,2.33,0,0,1,2.83-.78c-3.33,4.05-7.06,7.57-10.67,11.55A2.15,2.15,0,0,1,192,157.87Zm8-15c.26-1.72.93-2.06,2.84-1.43C202.7,143.11,202.11,143.4,200,142.85Zm1.53,17.22,2.77-3.17A2.57,2.57,0,0,1,201.57,160.07Zm2.55-5.17c-1.45,1.6-2.94,3.18-4.42,4.76A1.31,1.31,0,0,1,198,160l6.49-7.86A2.49,2.49,0,0,1,204.12,154.9Zm.76-5.55-8.62,9.77a1.9,1.9,0,0,1-2,.89c.76-.84,1.34-1.46,1.88-2.1,2.26-2.65,4.5-5.31,6.78-7.95.59-.68,1.11-1.59,2.43-1.33A6.24,6.24,0,0,1,204.88,149.35Zm1.57.53a2.9,2.9,0,0,1,3.67-1.12L206.78,152C206.34,151.23,205.94,150.62,206.45,149.88Zm-1.07-6.9c.24-1.89,1.3-2.32,3.51-1.55-.16,1.39-.35,1.61-1.55,1.63C206.69,143.07,206,143,205.38,143Zm7.48,5.84c-1.89,2.17-3.74,4.27-5.59,6.38L207,155c-.1-1.13,1.74-3.81,4.05-5.95A1.39,1.39,0,0,1,212.86,148.82Zm-1.19-6c-.1-1.45.73-2,3.2-1.49C214.46,143.17,213.74,143.48,211.67,142.84Zm-4.3,17.22a1.65,1.65,0,0,1-.38-1.41,3.28,3.28,0,0,1,.77-1.38c1.82-2.25,3.8-4.39,5.44-6.76,1.26-1.83,2.76-2.28,5.06-1.77-.4.47-.66.81-.95,1.13-2.1,2.32-4.22,4.61-6.29,6.95a29.84,29.84,0,0,0-2,2.7C208.55,160.13,207.94,160.44,207.37,160.06Zm9.74-17.21c.19-1.61.78-2,2.42-1.45C219.33,143,218.77,143.35,217.11,142.85ZM213.66,159c-.94,1.36-.94,1.36-2.7.74l6.08-7.31c.73-.87,1.52-1.69,2.16-2.62.83-1.18,1.88-1.43,3.43-1-.37.45-.64.82-.95,1.16q-3.59,4-7.18,8A12.35,12.35,0,0,0,213.66,159ZM222,142.87c.42-1.76,1-2,3.18-1.53C225.36,142.87,224.63,143.48,222,142.87Zm-1.47,15.5c-.85,1.68-1.61,2.16-4.59,1.38,1-1.09,1.81-2,2.61-3,1.74-2.08,3.57-4.1,5.15-6.3,1.31-1.83,2.9-2.26,5.15-1.73-.34.43-.6.81-.91,1.15-2.24,2.54-4.5,5.07-6.75,7.61A4.92,4.92,0,0,0,220.5,158.37ZM227.67,143c0-1.43.36-1.8,1.67-1.83.8,0,1.6,0,2.5,0-.09,1.81-.2,1.93-1.63,1.95-.72,0-1.44,0-2.17,0A1.7,1.7,0,0,1,227.67,143Zm-4.45,16.7A58.6,58.6,0,0,1,231,149.29c.71-.75.86-.76,2.28-.51l-10,11.09C223.28,159.82,223.19,159.72,223.22,159.68Zm4-1.12c2.55-3,5.12-6,7.65-9a2.5,2.5,0,0,1,3-.8A74.31,74.31,0,0,1,227,159.11,4,4,0,0,1,227.24,158.56Zm6.28-15.45c.51-1.78.7-2,2.17-2,1,0,1.95,0,3,0-.26,1.77-.43,2-1.74,2C235.83,143.13,234.75,143.11,233.52,143.11Zm-1.05,16.63,1.86-1.72C233.85,158.73,233.58,159.64,232.47,159.74Zm3.5-.08,3.09-3.47C239.23,157.8,237.94,159.28,236,159.66Zm4.64-9.4c-.35,0-.7.46-1,.79-.46.59-.77,1.31-1.28,1.85-1,1.09-2.13,2.1-3.21,3.13-.31.29-.67.53-1,.8l-.2-.22,2-2.46c1.24-1.5,2.5-3,3.73-4.5a2.57,2.57,0,0,1,2.95-.93A2.79,2.79,0,0,1,240.61,150.26Zm-.3-7.32c.8-1.89,1.38-2.16,3.17-1.53C243.35,143,242.39,143.42,240.31,142.94Zm2.31,11.69a2.08,2.08,0,0,1,.08-2.64c.8-.92,1.59-1.86,2.41-2.76s1.75-.67,2.7-.56l.17.29Zm5.4-13.32c-.8,1.81-1.11,2-2.56,1.57C245.31,141.29,246.23,140.83,248,141.31Zm-.8,11.67,2.78-3.52c.43-.53.88-1,1.82-.69a3.38,3.38,0,0,1-.31.52c-2.24,2.37-4.49,4.73-6.85,7C245.51,155.19,246.36,154.08,247.22,153Zm2.86-10.11c.31-1.44.54-1.65,1.75-1.57C251.78,142.82,251.35,143.21,250.08,142.87Zm-2.64,16.89-.32-.39,3.22-2.8C249.26,157.51,249.11,159.33,247.44,159.76Zm3.61-.26,3.19-4.31C255.52,157.12,253.11,159.66,251.05,159.5Zm3.45-8.37c-2.78,2.76-5.6,5.5-8.4,8.25l-.25-.28c2.69-3.29,5.37-6.58,8.08-9.86a6.54,6.54,0,0,1,1.19-.82C255.15,149.6,255.16,150.48,254.5,151.13Zm-.29-8.24c.12-1.7.61-2,2.13-1.47C256.12,143,255.69,143.34,254.21,142.89Zm5.43,9.92c0,.07-.32,0-.88.06,1-1.49,1.52-2.87,2.42-4l.34.19C260.9,150.29,260.28,151.56,259.64,152.81Zm-.29-9.92c0-1.74.73-2.15,2.63-1.5C261.54,143.12,261,143.42,259.35,142.89Zm4.29,6.79-.27-.26.68-.76.25.23Zm2.12-.07-.21-.12.36-.79.34.19ZM264,142.92c.45-1.83.86-2.06,2.56-1.57C266.17,143.1,265.74,143.37,264,142.92Zm4.84,8.83c-.31,1-1.23.81-2,.72.26-1.79,1.37-3.59,2.51-3.77A21.51,21.51,0,0,1,268.83,151.75ZM269,143c.19-1.82.74-2.18,2.65-1.67C271.19,143.21,270.64,143.54,269,143Zm4.74,0c.36-1.79.59-2,1.89-1.69C275.49,143,275.1,143.33,273.72,143Zm4.37,0c.29-2,1.19-2.42,3.32-1.67C281.5,142.91,280.93,143.73,278.09,143.06Zm7.57.22c-.57,0-1.14-.06-1.68-.09-.21-2.11.85-2.38,3.45-1.87C287.35,143,287.08,143.27,285.66,143.28Zm4-.17c-.48-1.84,1-2.44,2.79-1.77C292.47,142.94,291.81,143.68,289.66,143.11Zm4.77,0c-.07-1.82.74-2.43,2.54-1.81C296.58,143.29,296.28,143.5,294.43,143.12Zm4.12,0c.37-1.77.62-2,1.8-1.92C300.26,142.84,299.9,143.24,298.55,143.11Zm3.27-.05c.48-2.06,1.09-2.42,3-1.84C305,143.21,304.07,143.69,301.82,143.06Zm5,.05c.16-1.39.44-1.74,1.44-1.82C308.18,142.83,307.9,143.18,306.82,143.11Zm3.24,0c.57-2,1-2.32,2.57-1.93C312.61,143.11,312.07,143.53,310.06,143.13Zm4.64-.06c-.07-1.65.49-2.65,3.24-1.8C317.58,143.41,316.92,143.76,314.7,143.07Zm5.15.05c.2-2.19.89-2.58,3.23-1.92C323.16,143.37,322,143.64,319.85,143.12Zm5.66.13a1.58,1.58,0,0,1,.37-1.92c.71-.69,1.67-.34,2.63-.21C328.21,143.27,327.9,143.48,325.51,143.25Zm5-.1c.05-1.82.84-2.65,2.86-1.94C333.24,143.56,332.33,143.59,330.52,143.15Zm4.71,0c.37-2.05.86-2.42,2.56-1.93C337.5,143.14,336.9,143.59,335.23,143.12Zm3.88.08c.12-2.38,1.44-2.56,3.66-2C341.69,143.31,341.21,143.56,339.11,143.2Zm4.67-.07c.76-2,1.41-2.4,3.23-2C346.41,142.87,345.42,143.5,343.78,143.13Zm4.83.08c.1-1.39.6-2,1.83-2.11C350.07,142.63,349.66,143.08,348.61,143.21Zm4.25,0c.64-1.95,1.1-2.31,2.55-2.09C355.16,142.85,354.46,143.45,352.86,143.19Zm4.37,0c.59-2.15.91-2.4,2.56-2.07C359.52,142.8,358.76,143.44,357.23,143.18Zm5.48,0q.1-2.88,2.66-2C365,143.08,364.35,143.56,362.71,143.18Zm5.34.07c0-2.07,1.28-2.91,3.13-1.95C369.93,143.38,369.71,143.51,368.05,143.25Zm5.38,0c.61-2.07,1.4-2.57,3.36-2.05C375.74,143.43,375.35,143.66,373.43,143.21Zm4.79,0c.69-2.34,1.37-2.6,4-2.12C382.07,143.17,381,143.77,378.22,143.22Zm5.49,0c.81-2.38,1.47-2.73,3.71-2.06C387,143.21,386,143.75,383.71,143.21Zm4.67,0c.77-2,1.2-2.28,2.78-2C390.74,143,390.11,143.42,388.38,143.24Zm4.17-.08c.78-1.79,1.22-2.12,2.48-1.83C394.67,143.26,394.23,143.58,392.55,143.16Zm4.22,0c.63-1.61,1.05-2,2.27-1.82C398.9,143,398.23,143.58,396.77,143.11Zm5.3.09c.62-1.86,1.29-2.28,3.09-1.88C404.31,143.43,404,143.62,402.07,143.2Zm3.35-10H57.66c-1.77,0-1.83,0-1.83-1.84,0-2.17,0-4.35,0-6.53,0-1.13.19-1.25,1.27-1.25l45.65.17c4.16,0,8.33,0,12.5,0q19.24.12,38.48.25,32.16.18,64.31.32c7.85,0,15.71.16,23.57.23,3.63,0,7.26,0,10.89.05l50,.29,39.65.25q19.68.14,39.37.24c7.85,0,15.71,0,23.56,0,1.83,0,1.82,0,1.88,1.89.05,1.36.17,2.71.21,4.07C407.24,133.19,407.18,133.23,405.42,133.23Zm2.13,9.92c.58-1.65.74-1.74,1.9-1.21C409,143.34,408.86,143.42,407.55,143.15Zm4.05,0c.47-1.55.95-1.76,3.1-1.29C414.16,143.44,413.54,143.68,411.6,143.18Zm2-9.38-.95,0c-.75,0-1.07-.38-1.06-1.1,0-.27,0-.55,0-.82V108.19h-.09c0-6.67,0-13.34,0-20-.06-9.43-.11-18.87-.28-28.3-.17-9.16-.5-18.31-.75-27.47-.05-1.95-.05-3.9-.05-5.85a155,155,0,0,0-.9-20.09c-.08-.62.1-1,.68-1.12.22-.06.44-.12.67-.16,2.55-.56,3-.15,2.78,2.42-.1,1.22-.18,2.44-.18,3.66,0,9.8,0,19.59.06,29.39,0,5.35.17,10.7.25,16.05q.15,9,.27,18t.28,17.82q.27,16.4.55,32.79c0,2.35.14,4.71.17,7.07C415.1,133.76,415,133.82,413.63,133.8Zm2.74,9.58c.35-1.54.66-1.7,2.65-1.35C418.54,143.64,418.05,143.89,416.37,143.38Zm4.59.05c.49-2.23,1.07-2.68,2.85-2.26C423.49,143.15,422.72,143.79,421,143.43Zm4.7,0c.28-2.65,1.37-2.75,3.53-2.26C428.27,143.37,427.47,143.87,425.66,143.44Zm4.25.05c.64-1,.72-2.29,2.14-2.49C432.07,142.55,431.35,143.44,429.91,143.49Zm4.46-.32c0-1.69.44-2.17,1.84-2C435.84,143.05,435.54,143.36,434.37,143.17Zm4.29.16c.16-1.86.71-2.42,2.24-2.17C440.47,143.26,440,143.72,438.66,143.33Zm4.42,0c.32-2.06,1.11-2.67,2.85-2.22C445.42,143.37,444.78,143.87,443.08,143.36Zm4.37,0c.62-2.17.85-2.34,2.91-2.19C449.66,143.08,449,143.6,447.45,143.41Zm3.82.26c.37-2.24,1.38-3.22,3.21-3.06C453.51,141.66,453.19,143.4,451.27,143.67Zm6.43-4.14a23.87,23.87,0,0,1-2.92,4.75C454.71,143.39,456.59,140.42,457.7,139.53Zm1.87,1.9a18.5,18.5,0,0,1-1.14,2.16c-.39.59-.42,1.65-1.86,1.47l3.68-5.86.31.15C460.23,140,459.92,140.74,459.57,141.43Zm2.27,1.68-.31-.15c.34-.67.67-1.34,1-2l.37.18ZM354.66,68.5h.13v9.74l-.13,0ZM66,68.44h.16v9.84L66,78.17ZM242.09,69h.15v9.83h-.15Zm-87.79-.53h.15v9.8l-.15-.06Z"/><path class="cls-2" d="M123.59,42.09c-5.4-14.93-9.73,12.85-12.41,17C106.33,52.91,106,39.2,96.11,39.75,91,44.14,90.41,56,87.61,59c-1.76,1.08-9.8-24.74-14.7-17.65-3.54,10.08,8,22.41,10.1,32.1,1.41,4,4.95-2.52,4.15,3.43,7.29-4,9.41-13.09,11.33-21.42,4,.2,5.78,24.66,15.46,16.55,6.1-3,5.21-10.54,7.27-16.38C121.26,52.12,128.39,41.81,123.59,42.09Zm5.48,8.26c1.2-5.06-1.77-14.56,3.6-16.56,5.78-1.68,11.06-3.34,14.37-.48,2.48,1.39.39,2.13-.81,2.91.65,0,1.52.35.87,1.11.35,6.17-13.31,0-10.41,5.89.07,10.69,11-2.61,12.38,7.64.63,1.27.85,2.8-1.51,2.7-1.46.86-2.21,3-4.5,2.47-5.57-1.14-3.52,3-3.71,7,.58,1,13.18.44,9,3.53,6,7.55-14.54,8.66-17.14,1.94C129.54,62.62,130.17,56.34,129.07,50.35Zm23.39-5.76c.75,8.36,1.1,16.77,2.56,23.88,7.27,4.19,11.53,6.12,18.24.36,5.44-5.23,5.1-11.32,1.06-15.75,2-2.88,2.43-5,3.83-10C176.47,26.77,148.11,27.18,152.46,44.59Zm14.75,17.82c-4,4.88-4.64-1.35-4.41-4.16C164.61,56.29,170,60,167.21,62.41ZM161,41.05c1.92-2.76,11,1,6.78,4.69C161.6,51.93,160.8,45.57,161,41.05Zm27.37,27.4c1.19-2.19.7-2.19,2.91-1.57,3.07-2.67-2.41-13.8,3.15-13.88,3.38-.93,7.1.23,7.34-3.46-.28-.19-.51-.88.06-.69,2.2-.23.06-2.06.59-3.85-1.81-1.53-3,1.17-2.89-2-7,1.22-9.85,2.78-8.46-5.36,4.39-.29,10.21.91,10-4.27,1.83.49,1.6-1.8.84-2.6-.54-.66-3.46-.19-1.78-1.21-3-2.88-12.55,2.89-14.92,1-6,3.78-2.9,13.91-3.28,20.67C183.54,58.15,179.85,67.41,188.38,68.45Zm23.79-6.05c-7.89-2-4.66-11.68-6.27-18.43-1.59-5.14-.09-19.7,5.87-12,1.28,3.37,3.12,5.28,2.39,8a7.14,7.14,0,0,1,1.53,7c2.7-1-.25,8.26,2.12,9.55,4.81-1,5.67-.58,6.21,2.49,3.8.22-2,4.89-3.31,5.94-4.41,1.87-1.45-1.16-2.48-1.53C216.36,63.08,212.2,65.35,212.17,62.4Zm31.66.53c6-2.34,13.82-12.75,10.82-21.76-.33-6.35-5.7-17.71-13.59-15.5C219.23,27.28,222.73,70.85,243.83,62.93Zm-2.49-7.83c-5.39,1.3-6.82-8.05-5.64-11.38.29-3.36,2.7-5.76,3.9-9C248.42,34.43,247.14,50.75,241.34,55.1Zm45.59-6.46c3.89,17.52,16.93,14.59,18.35-1.18,1.94-8.11,6.89-15.26,3.15-20.86-10.06-7-7.24,22.75-13.33,18.32-.82-3.1-2.63-6.36-4-9.32-10.8-21.85-14.69,4.61-18.28,11-2.44.25-8.48-22.87-14.61-18-3.12,4.45,1.34,11.1,2.83,16.17,2.56,5.67,5.84,12,7.69,17.44,1.41.82,5-1.83,3.4,1,.53,3.38,6.84-5,8.11-7.06C282.24,50.07,283.6,35.58,286.93,48.64ZM181.72,83.11c-5.77-15.9-10.38,13.7-13.24,18.11-5.17-6.57-5.56-21.18-16.06-20.6-5.43,4.69-6.08,17.34-9.06,20.54-1.87,1.15-10.45-26.37-15.66-18.82-3.77,10.78,8.56,23.89,10.76,34.22,1.73,4.41,5.23-2.83,4.43,3.65,7.76-4.3,10-13.95,12.07-22.82,4.19,0,6.1,26.27,16.48,17.63,6.5-3.24,5.55-11.23,7.75-17.45C179.23,93.81,186.83,82.82,181.72,83.11ZM210,111.92c-3.46,5.75-12,4.37-18.15,2-4.24-2.9-2.3-9.64-3.42-13.88.16-6.83-3.79-23.41,3.67-26,6.71-1.66,11.36-3.44,15.55.37,1.51,1.72-1.29,1.65-1.75,2.48,2.23,0,.22,1.26.76,2.15-3.31,5.64-15.3-1.89-10.19,8.76,2.13,5.37,10.83-6.53,13,6.35-4.41,5.75-13,2-10.93,6.21-1.16,8.28,2.31,4.49,10.12,6.94C209.79,109.49,206.54,108.48,210,111.92ZM238.63,87.7c6.93-19-31.67-23.09-26.14-1.91-.05,6.07,1,11.76,2.12,17.35-.74,3.46-1,5.83,1,8.63,9.92,6.56,21.28,3.86,23.76-10.12C234.72,90.49,235.13,99.88,238.63,87.7Zm-10.42,17.07c-4.28,5.21-5-1.43-4.7-4.42C225.43,98.26,231.16,102.24,228.21,104.77Zm1.87-20c-1.1,4.3-5.88,5-7.87,4.76-1.11-1.37.58-6.35-.82-6.43C221.29,78.91,230.18,81.77,230.08,84.72Zm42.73,15.19c.54,18.68-35.82,17.11-23,2.62,4.52,1.29,9.29,2.86,12.87-.08,4.17-10.83-29.76,1.73-17.51-24.62,10.52-17.78,39.11-1.35,9.12,3.91C247.28,93.68,272.41,84.42,272.81,99.91Zm13.05-.65c.76,6.69-.57,5.23-3.11,8.34-1.34-3.65-3.61,1.5-5.24-3.26C274,96,275.16,84.1,275.24,75.59,283,54,285.61,91.8,285.86,99.26Zm30.42-26.93c-3-2.54,1.27-4.29-5.36-4.1-6.19,0-26.18-1.47-23.09,5.84-.68,4.71,8.68,2.36,10.16,4.9-1.11,9.75.47,23,3,28.42,1.46-1.19,1.79.74,3.7.43,4.91-2,3.66-4.48,3.15-10.2.87-6.1-4.85-20.41,3-19.17a3.47,3.47,0,0,0,4.26-3C315.18,74.41,317.82,74.52,316.28,72.33ZM342.55,103c-3.46,5.75-12,4.36-18.15,2-4.23-2.91-2.3-9.65-3.42-13.88.17-6.83-3.78-23.41,3.67-26.05,6.72-1.65,11.36-3.44,15.55.37,1.51,1.73-1.29,1.66-1.75,2.49,2.24,0,.22,1.25.77,2.15-3.31,5.64-15.3-1.89-10.19,8.76,2.12,5.36,10.82-6.54,13,6.35-4.41,5.75-13,2-10.93,6.2-1.16,8.28,2.31,4.5,10.12,7C342.39,100.58,339.15,99.58,342.55,103Zm32.07-10c.54,18.69-35.82,17.11-23,2.62,4.51,1.29,9.28,2.86,12.86-.07C368.69,84.78,334.77,97.34,347,71c10.53-17.78,39.11-1.36,9.12,3.9C349.1,86.85,374.22,77.58,374.62,93.07Z"/></g></g></svg>