<svg xmlns="http://www.w3.org/2000/svg" viewBox="0 0 1254 980"><defs><style>.cls-1{fill:#e0a9af;}.cls-2{fill:#cf8b93;}.cls-3{fill:#93696e;}.cls-4{fill:#dde8c4;}.cls-5{fill:#777f63;}.cls-6{fill:#cec49d;}.cls-7{fill:#dbdbdb;}.cls-8{fill:#d08a92;}.cls-9{fill:#e1a9b0;}.cls-10{fill:#b28a93;}.cls-11{fill:#d7eef7;}.cls-12{fill:#d3b28d;}.cls-13{fill:#e8bfc3;}.cls-14{fill:#eecfd2;}.cls-15{fill:#c1c9a9;}</style></defs><g id="Layer_2" data-name="Layer 2"><g id="Layer_1-2" data-name="Layer 1"><rect class="cls-1" width="1254" height="980"/><path class="cls-1" d="M569,546.19c12.11-17.83,19.66-56.65,9.84-62.94-5.54-3.51-8.45-38.74-61.09-31.42l-1.73.27a.07.07,0,0,0-.06,0q-2.38.39-4.77.9a.37.37,0,0,1-.14,0c-1.17.26-2.34.53-3.51.83a152.17,152.17,0,0,0-35.71,14.55c-1.11.6-2.2,1.22-3.3,1.85q-3.06,1.77-6,3.62c-1.95,1.21-3.88,2.45-5.75,3.7a.28.28,0,0,0-.08.06c-21.78,14.51-38.52,31.19-43.89,39.9,0,0-30.16,15.08-29.06,18.56s12.22,13.78,12.22,13.78l-2.84,27.31c-5,.66-8.21,22.61,2.19,25.79,7,2.14,24.53,13.08,29.78,10.23s28.19-5.94,28.19-5.94-2,14-1.81,16.68c1.07,14,30.27,8.53,30.15.44-.08-5.89,8.59-31.75,13.46-31.13,24.25,3.12,36.62-19.29,36.92-16.9,1.93,15.25,33.61,8.65,36.16-2.67C569.91,565.89,565.87,546.69,569,546.19Zm-78.18-81.26c8.7-3.46,18.5,1,16.54,9.68l-.16.08-17.69,10.06c-.08.06-.18.09-.26.15C477.69,482.6,479.87,468.78,490.83,464.93Z"/><path class="cls-2" d="M471.93,634.54c-12.81,9.08-42.13,15-66.66,2.34-18.47,1.57-29.38-6.54-29.94-18-20.74-14.47-8.79-21.34,7-30.81.6,17.69,22.22,29,37.87,31.77,13.82.09,14.67-11.8,28.71-9.07C440.36,628.32,452,638.62,471.93,634.54Z"/><path class="cls-2" d="M489,622.09c-.79-9.61.44-15.49,6.94-24.07,5,3.74,12.45.79,14.19-5l4.55-1.87c6.31,3,13.13-2.13,14-8.47l1.45-1.33c3.82,8.62,18.52,9.43,27.65,6.6-14.93,8.89-49.93,27.51-69.71,37.95A9.51,9.51,0,0,0,489,622.09Z"/><path class="cls-3" d="M551.26,486.91c-2.27-1.75-5,1.89-2.62,3.56.08.06,7.93,6,8.58,13.4a2.22,2.22,0,0,0,2.21,2C567.48,501.72,550.58,485.56,551.26,486.91Zm-89.83,55.8a2.19,2.19,0,0,0-.82,3c2.66,4.38,3.72,16,2.09,20.36-5.27,9.74-39.78,4.67-32.7-8,7.83-9.58,7.27-17.51,7.23-17.85-.18-2.84-4.65-2.47-4.41.36,2.31,5.92-13.36,18.72-6.92,26,11,13.06,47.73,14.19,41.73-11.57C466.57,550.59,466.69,541.66,461.43,542.71ZM400.3,579l-.3,4.44c.1,0,10.2.75,13.89,5.9l3.6-2.58C412.58,579.93,400.79,579.05,400.3,579Zm187.06-66.35c4.89-39.94-22.12-71-65.64-65.21-6.8-24.41-15.49-37.25-18.21-41.94l-65.8,26.24c2.39,5,2.47,5,7.28,15.92l-15,7.48c5,5.24,7.93,7.21,18.21,21.58a230,230,0,0,0-40.42,39.11c-15.3,2.78-46.77,21.92-15.94,36.46-1.49,7.87.5,17.15-2.88,24-4.56,3.9-6.54,8-6.64,12.23a17.27,17.27,0,0,0,2.32,8.84c3.32,6.14,9.76,11.77,16.82,15.88a.5.5,0,0,0,.14.08c6.32,3.66,13.1,6.09,18.55,6.54a19.21,19.21,0,0,0,6.1-.87,21,21,0,0,0,3.8-1.71c2.32-1.35,4.29-3,6.44-4.31.4-.24.81-.5,1.25-.74a.07.07,0,0,0,.06,0c.42-.24.85-.44,1.31-.65a15.26,15.26,0,0,1,9.74-.76c-2.34,5.21-3.3,10.65-2.16,15.09a.32.32,0,0,0,.06.18c1.27,4.77,5,8.33,12.18,9a.68.68,0,0,0,.28,0,26.57,26.57,0,0,0,4.23.08,54.69,54.69,0,0,0,8.31-.61.39.39,0,0,1,.16,0c6.6-1,13.86-3.44,16.14-8.63a46.94,46.94,0,0,0,.82-5.61c.3-3.56.1-6.2.46-8.94,0,0,0-.08,0-.12.47-3.52,1.94-7.22,6.58-13.22,5,3.73,12.44.79,14.19-5l4.55-1.87c6.3,3,13.14-2.13,14-8.47l1.45-1.33c1.83,3.52,5.29,5.84,9.48,7.08l.48.13a33.59,33.59,0,0,0,17.19-.31c8.21-2.27,15.21-7.4,15.93-14.67.57-4.7-.62-15.21-.3-20.2C576.35,541.14,586.51,526.45,587.36,512.66Zm-21.87,60.23c-2.92,10.77-35.16,14.41-27.91-3.38,5.25-6.82,14.24-19.3,15.51-27-.68-4.19,14.51-27,3.52-20.09-7.24,14.21-11.17,32.82-23.5,45.66L521.5,578.75c-.16,3.38-1.93,7.9-6.26,3.8l-11.55,4.75c-.42,3.92-2.49,6.68-5.71,2.09,0,0-.53,0-1.29,0,.76-4.12,8.23-15.63,3.14-18.75a2.25,2.25,0,0,0-2.52,1.89c-1,7-5.41,16.86-6.46,19.15-7.72,10.59-10.9,17.53-9.58,30-.32,4.56-22.29,8.85-27.08,2.89-.91-9.53,4.19-13.32,4.71-19,7.12-3,17-10,12.6-14.51a2.22,2.22,0,0,0-2.88,1.23c-.71,1.79-4.37,6-9.1,8.25-9.25,4.93-19.21-.48-28,5.35l-.18-.2c-4.45,3.92-15.65,3.1-21.83,1.39-17.41-4.57-25.3-20.18-13.87-26.1,1.15-3,4.25-16.34,4.37-16.7-5.79-13.26,11.17-25.22,6.5-28.21-3.28-2.46-7.28,8.59-8.93,9.88-30-9.4,12.57-23.61,14.66-23.28,13.53-16.79,27.07-29.64,40.15-39.38a65.1,65.1,0,0,1,3.66,7.4l-7.22,5.74c2.49.78,6.15,1.91,9.88,3.09l.18.06c4.16,1.29,8.39,2.62,11.17,3.47,0-.63,45.59-28.4,66.54-35.5,0,0-6.52-2.76-12-4.83-.26-2.59-.65-5.15-1.13-7.69,10.89-.16,20.36-3.13,30.12,5.3,27.81,6.56,27.05,43.52,26.1,51.47C574.32,539.55,561.72,543.55,565.49,572.89ZM457.43,494.55a2.3,2.3,0,0,1,.1.35l-.4-.12A3,3,0,0,1,457.43,494.55Zm43.3-80.77c.22.33.45.73.71,1.19a120.69,120.69,0,0,1,7.22,15.21c.24.59.5,1.21.73,1.83A167.67,167.67,0,0,1,516,452.12c.22.9.44,1.79.62,2.67a60.34,60.34,0,0,1,1.77,14.41c-2.05.93-4.13,1.93-6.24,3l-1.14.58c-1.09.56-2.18,1.11-3.26,1.69l-.35.18-.16.08-17.69,10.06c-.08.06-.18.09-.26.15l-1.53.94c-1,.6-2,1.19-2.93,1.81-1.63,1-3.16,2-4.59,2.9-.63.42-1.29.82-1.93,1.23L475,493.91c-1.45.95-2.68,1.79-3.65,2.43-.3.21-.6.43-.9.61l-1.65,1.13-.38-.09c-.47-6.37-2.86-15.05-5.94-24.08-5.13-15-12.25-31-15.76-38.6Zm-54,49.91c-2.21-2.74-4.24-5.11-5.69-6.66,0,0,6.48-3.24,6.54-3.24,2.74,6.5,5.8,14.18,8.29,21.35.3.84.58,1.65.85,2.47,0,.14.1.28.14.42a3.48,3.48,0,0,0-.22-.36c-1-1.65-2-3.24-3.06-4.79-.47-.7-1-1.41-1.47-2.11-.65-.93-1.33-1.85-2-2.74-.43-.58-.87-1.14-1.29-1.69C448.15,465.42,447.43,464.55,446.76,463.69Zm104.5,23.22c-2.27-1.75-5,1.89-2.62,3.56.08.06,7.93,6,8.58,13.4a2.22,2.22,0,0,0,2.21,2C567.48,501.72,550.58,485.56,551.26,486.91Zm-89.83,55.8a2.19,2.19,0,0,0-.82,3c2.66,4.38,3.72,16,2.09,20.36-5.27,9.74-39.78,4.67-32.7-8,7.83-9.58,7.27-17.51,7.23-17.85-.18-2.84-4.65-2.47-4.41.36,2.31,5.92-13.36,18.72-6.92,26,11,13.06,47.73,14.19,41.73-11.57C466.57,550.59,466.69,541.66,461.43,542.71ZM400.3,579l-.3,4.44c.1,0,10.2.75,13.89,5.9l3.6-2.58C412.58,579.93,400.79,579.05,400.3,579Zm151-92.1c-2.27-1.75-5,1.89-2.62,3.56.08.06,7.93,6,8.58,13.4a2.22,2.22,0,0,0,2.21,2C567.48,501.72,550.58,485.56,551.26,486.91ZM400.3,579l-.3,4.44c.1,0,10.2.75,13.89,5.9l3.6-2.58C412.58,579.93,400.79,579.05,400.3,579Zm67.33-24c-1.06-4.47-.94-13.4-6.2-12.35a2.19,2.19,0,0,0-.82,3c2.66,4.38,3.72,16,2.09,20.36-5.27,9.74-39.78,4.67-32.7-8,7.83-9.58,7.27-17.51,7.23-17.85-.18-2.84-4.65-2.47-4.41.36,2.31,5.92-13.36,18.72-6.92,26C436.86,579.69,473.63,580.82,467.63,555.06Z"/><path class="cls-4" d="M511.76,470.35c-.14-.75-.3-1.53-.46-2.3-.34-1.55-.69-3.14-1.11-4.75l-.48-1.91c-.65-2.49-1.39-5-2.16-7.5-.28-.95-.6-1.89-.92-2.84s-.54-1.61-.81-2.42-.58-1.69-.88-2.53-.56-1.47-.81-2.21c-.54-1.41-1.1-2.82-1.63-4.17a2.67,2.67,0,0,1-.14-.36c-.62-1.45-1.22-2.84-1.81-4.17-.3-.68-.6-1.34-.9-2l-9.22-5.81-23.74,10.44-2,11.93c2.48,5.84,4.95,12.16,7.15,18.66a187.4,187.4,0,0,1,6.44,23.34l1.93-1.23c1.43-.93,3-1.89,4.59-2.9,1-.62,1.93-1.21,2.93-1.81l1.53-.94c-11.57-2.3-9.39-16.12,1.57-20,8.7-3.46,18.5,1,16.54,9.68l.35-.18c1.08-.58,2.17-1.13,3.26-1.69l1.14-.58C512,471.55,511.9,471,511.76,470.35Zm5-14.65c-.06-.3-.1-.59-.18-.91-.14-.88-.34-1.77-.56-2.69A136.36,136.36,0,0,0,509.39,432c-.23-.62-.49-1.24-.73-1.83A154.15,154.15,0,0,0,501.44,415c-.26-.46-.49-.86-.71-1.19l-54,21.53c3.51,7.65,10.63,23.57,15.76,38.6,3.08,9,5.47,17.71,5.94,24.08l.38.09,1.65-1.13.9-.61c1-.64,2.2-1.48,3.65-2.43a65.05,65.05,0,0,0-1.35-6.7c-.95-4-2.32-8.51-3.87-13.22-.4-1.21-.82-2.46-1.26-3.7-.28-.87-.59-1.73-.89-2.6a0,0,0,0,1,0,0c-1-2.82-2-5.61-3-8.31v0c-.38-1-.76-2-1.16-3-.27-.66-.51-1.31-.75-1.93s-.5-1.25-.76-1.87-.49-1.21-.73-1.81l-.72-1.71-.69-1.65q-1-2.38-1.91-4.29c-.2-.42-.38-.82-.56-1.19-.64-1.34-1.19-2.39-1.63-3.15l41.41-18.2c1.09.91,3.68,6.12,6.6,13a3,3,0,0,1,.16.37c2.42,5.77,5,12.63,7.21,19.11l.9,2.7a82.6,82.6,0,0,1,3.54,14.75c1-.46,1.91-.89,2.86-1.31A84.28,84.28,0,0,0,516.77,455.7Zm-60,21.91c-.27-.82-.55-1.63-.85-2.47-2.49-7.17-5.55-14.85-8.29-21.35-.06,0-6.52,3.24-6.54,3.24,1.45,1.55,3.48,3.92,5.69,6.66.67.86,1.39,1.73,2.08,2.65.42.55.86,1.11,1.29,1.69.68.89,1.36,1.81,2,2.74.5.7,1,1.41,1.47,2.11,1.14,1.65,2.19,3.26,3.06,4.79a3.48,3.48,0,0,1,.22.36C456.85,477.89,456.79,477.75,456.75,477.61Z"/><path class="cls-3" d="M458.84,499.64l-.15,0a.12.12,0,0,0,0-.08Z"/><path class="cls-5" d="M512.1,456.4c0-.2-.1-.42-.14-.64-.22-.85-.46-1.77-.76-2.74A172.49,172.49,0,0,0,503.85,434a3,3,0,0,0-.16-.37c-3.12-7.06-5.87-12.45-5.79-11.67l-.81-1.35-41.41,18.2c.44.76,1,1.81,1.63,3.15.18.37.36.77.56,1.19q.86,1.9,1.91,4.29l.69,1.65.72,1.71c.24.6.49,1.19.73,1.81s.5,1.23.76,1.87.48,1.27.75,1.93c.4,1,.78,2,1.16,3v0c1,2.7,2,5.51,3,8.31a0,0,0,0,0,0,0c.3.87.61,1.73.89,2.6.44,1.24.86,2.49,1.26,3.7,1.55,4.71,2.9,9.24,3.87,13.22a65.05,65.05,0,0,1,1.35,6.7l3.26-2.13a187.4,187.4,0,0,0-6.44-23.34c-2.2-6.5-4.67-12.82-7.15-18.66l2-11.93,23.74-10.44,9.22,5.81c.3.63.6,1.29.9,2,.61,1.33,1.21,2.72,1.81,4.17a2.67,2.67,0,0,0,.14.36c.55,1.35,1.09,2.74,1.63,4.17.27.72.53,1.46.81,2.21s.6,1.67.88,2.53.55,1.61.81,2.42.64,1.89.92,2.84c.77,2.49,1.51,5,2.16,7.5.16.63.34,1.27.48,1.91.42,1.61.77,3.2,1.11,4.75.3,1.39.58,2.76.82,4.11l3.38-1.65C514.52,465.5,513.37,460.79,512.1,456.4Zm-18.17-11.59c-2.86-6.88-16.7-.76-13.52,6C483.31,457.69,497.11,451.61,493.93,444.81Z"/><path class="cls-5" d="M507.37,474.61l-.16.08-17.69,10.06c-.08.06-.18.09-.26.15-11.57-2.3-9.39-16.12,1.57-20C499.53,461.47,509.33,465.92,507.37,474.61Z"/><ellipse class="cls-6" cx="541.96" cy="158.41" rx="16.24" ry="16.1"/><path class="cls-3" d="M608.26,268.09a1.15,1.15,0,0,0-.22-.22c.16.46.34.91.5,1.33A9.48,9.48,0,0,0,608.26,268.09Zm0,0a1.15,1.15,0,0,0-.22-.22c.16.46.34.91.5,1.33A9.48,9.48,0,0,0,608.26,268.09Z"/><path class="cls-1" d="M473.33,247.13s-30.21,15.11-29.12,18.61,12.26,13.8,12.26,13.8l-2.84,27.37c-5,.66-8.23,22.65,2.19,25.84,7,2.15,30.65,10.73,35.91,7.88s27.15-13.79,27.15-13.79-7.23,24.3-6.79,26.93,30.22,6.35,30.22.44,11.18-45.58,16-46.64c4.12-.92,26-29.62,27.15-34.82.7-3.21,20.14-1.75,20.14-1.75s-8.62,26.94-8.32,29.34c1.93,15.28,29.21,14.4,31.76,3.07,1.76-7.86,0-24.53.87-27.6s6.72-58.57,9.85-63.06c3.77-5.39-1.06-18.21-11.16-21.9-4-1.45-23-11.38-26.28-12s-29.12-3.5-31.75-2S483.19,231.14,473.33,247.13Z"/><path class="cls-2" d="M526.27,364.26a36.41,36.41,0,0,0,4.54-.28c-13.7,9.09-42.59,11.83-63.82.74-18.51,1.57-29.47-6.56-30-18.05-20.87-14.57-8.7-21.44,7.14-31C443,334.06,466,346.2,481.89,349c14.22.3,20.05-14.54,31.85-18.41C510.71,343,500.16,363.74,526.27,364.26ZM613,314.74c-27.46-1.5-18.61-18.23-13.25-36.2-3.55-.9-7.25-1.69-11-2.41-.34.12-.67.24-1,.38a22.15,22.15,0,0,1-6.24,8.29,20.45,20.45,0,0,1-8.88,13.54,20.33,20.33,0,0,1-10.2,11.36c-11.81,16.12-15.39,22.73-16.12,42.45,14.57-12.89,46.29-31,78.25-39.64A28.59,28.59,0,0,1,613,314.74ZM565,198.34c-8.27,3-30.6,12.87-43.73,24.54l10,2.11a384,384,0,0,1,33.93-20.52Zm11.43.7a42.57,42.57,0,0,0-7.45-1.62l.16,5C571.63,201.23,574.08,200.07,576.45,199Z"/><path class="cls-3" d="M540.39,332.86a19.56,19.56,0,0,0-.65,3.23C539.51,334.68,539.82,335,540.39,332.86Z"/><path class="cls-3" d="M532.21,176.49C559.06,188.18,573.1,149,549,140.23,525.74,131.08,511.9,165.6,532.21,176.49Zm10.26-31.14c20.35-1.29,13.74,33.74-4.51,26.15C530.84,164.69,534.11,149.14,542.47,145.35ZM528.86,156.4c1.14-6.05,5.1-10.69,9.38-11.37-6.81,5.41-9.16,18.09-4.32,25.6C529.84,168.58,527.68,162.58,528.86,156.4Zm114.51,56.4c6.87-10.91-5.68-24.38-17.54-26.55-11.7-4.15-20.88-16-34.08-10.42-10-1.61-24.06-5.8-31.41,4.28-27.32,13.06-65.92,37.53-90.78,64.64-15.4,2.77-46.94,21.95-16,36.54-1.44,7.72.4,17.59-2.89,24-21,17.84,12.74,42.17,31.26,43.67,14.23.3,20-14.54,31.85-18.41-1.21,7.62-6.5,14.59-4.08,24.87,1.21,12,35.91,12.21,36.59-3.27.72-19.7,4.33-26.37,16.12-42.45a20.33,20.33,0,0,0,10.2-11.36,20.45,20.45,0,0,0,8.88-13.54,22.15,22.15,0,0,0,6.24-8.29c4.84-2,10.5-3.1,13.44-3.05-1.33,9.08-10.81,26.29-6.25,33.27,7.06,12.1,37.42,10.87,38.78-6.06.62-4.87-.26-17.92.48-22.89,5.86-21.93,11.55-38.51,9.21-65A0,0,0,0,0,643.37,212.8Zm-7.73.86c2.23,26.22-3.88,42.59-9,61.93-1.12,2.93-.15,18.71-.74,24.38-.59,8.41-20.83,9.22-24.54,2.53-1.33-1.71,3.79-11.61,3.79-14.84,0-1.39,1-4,2-7.07,6-13-8.68-34.31-4.38-44.84-6.92-8.71-.66,25.28,2.27,30.34-7.47-1.18-14.79.72-23.51,4.64-.49,2.26-3.75,8.55-7.37,9.22-.38,10.92-8.29,13-8.29,13a12.75,12.75,0,0,1-9,10.54,48.4,48.4,0,0,1-5.7,8.71c1.94-6.11,7.44-24.67-.38-16.76-1.22,8.86-9.22,31.74-11.07,40.66-.7,5.56-.28,13.45-1.5,15.62,0,5.21-19.28,6.8-21.15,1.47-1.52-5.12,2.71-14.6,2.71-14.6s2-8,3.1-13.38c4.58-1.89,11.66-6.5,7.45-10.16a2.22,2.22,0,0,0-2.88,1.23c-.17,2.84-10.43,7.13-15.78,6.61-3.09.14-14.38,9.15-18.51,12.12l-.14-.16c-4.48,4-15.32,2.87-21.67,1.59l-.2-.2c-17.44-4.59-25.37-20.21-13.91-26.15,1.4-3.9,4.29-16.6,4.39-16.74-5.79-13.38,11.18-25.2,6.51-28.27-3.26-2.48-7.32,8.62-8.94,9.9C429,265.59,472,251.26,473.9,251.67c24.8-25.9,56.1-49.82,86.25-61.8,4.25-1.53,7.52-7.57,11.68-8.42,6.61-1.43,12.87,1.75,19.36,2.45,7.8-1.81,13.29-3.24,20.3,4C624.79,197.54,642.21,193.36,635.64,213.66ZM528.22,277.29c14.91,42.2-54.53,28.72-40,7.11,6.69-8.15,6.34-14.74,6.34-14.8-.27-2.85,4.21-3.21,4.42-.36,0,.34.58,8.28-7.25,17.89-6.75,12.85,27.14,17.69,32.75,8,1.43-3.49,1-15.08-2.09-20.4-1.46-2.46,2.43-4.74,3.84-2.24A21.34,21.34,0,0,1,528.22,277.29Zm-49,38.54-3.61,2.59c-3.7-5.16-13.82-5.91-13.92-5.93l.3-4.43C462.48,308.1,474.3,309,479.22,315.83ZM566,272.56c-.6,3.82,1.28,13.4-3,16.44a1.35,1.35,0,0,1-1-1.6c5.08-13.74-3.78-37.89-8.69-38.56C551.79,241.26,565.87,253.76,566,272.56Zm10.28-3C571,277,578,249,566.33,239.22,565.92,231.25,579.78,247.25,576.31,269.6Zm9.92-9.05a1.34,1.34,0,0,1-2.65-.36c2.55-19.1-6.19-27.15-6.29-27.23C576.78,225.19,589.63,239.53,586.23,260.55Zm-18-68.53c-5.77-.54-44.87,18.58-58.46,33.93,6.16,1.31,16.46,3.46,22.61,4.76,2-1.3,25-17.43,46.19-26.77l12.79-5.56C584.64,196.36,576,192.41,568.26,192Zm-37,33-10-2.11c13.13-11.67,35.46-21.55,43.73-24.54l.18,6.13A384,384,0,0,0,531.27,225Zm37.89-22.55-.16-5a42.57,42.57,0,0,1,7.45,1.62C574.08,200.07,571.63,201.23,569.16,202.44ZM554.5,271.21c.92,1.33,2.47,17.86-1.76,11.43a29.85,29.85,0,0,0-1.15-11.71A36.26,36.26,0,0,0,545.51,259c-.14-6.78,6.69,3.3,9,12.23Zm76.32-63.47a1.41,1.41,0,0,1-1.38,1.3c-16.14-.54-20.32,2.84-21.37,4.92-2.27,4.86,4.33,7.29.31,8.82-10.43-10.2,3.31-18.16,21.16-16.43A1.32,1.32,0,0,1,630.82,207.74ZM485.13,253.1c-1.11-2.1,1.48-3.58,5.16-3.49,2.85-.45,7,7.64,1.86,4.83-.84-2.74-4.27-2.39-5.12-1.22A1.36,1.36,0,0,1,485.13,253.1ZM494.24,243c-1-2,1.05-3.08,4.3-3,2.39-.84,9.15,8.25,3.17,5.82C498.31,240.15,497,244.44,494.24,243Zm8.8-9.62c-.69-2.37,2.61-3.34,6.44-2.53,1.67.28,5.5,5,2.21,5.76-1.69-.11-1.65-3.09-3.15-3.27C506.21,232.35,504.49,235.29,503,233.42ZM595,189.67a1.34,1.34,0,0,1-2.23,1.5c-1.23-2.91-5.44-2.77-6.46-1.4C579.06,190.11,590.72,181.4,595,189.67Z"/><path class="cls-1" d="M662.67,366.9s-30.19,15.1-29.1,18.6,12.25,13.79,12.25,13.79L643,426.64c-5,.66-8.22,22.63,2.19,25.82,7,2.15,24.55,13.09,29.8,10.25s28.41-11.42,28.41-11.42-2.42,19.55-2,22.17,30.2,6.35,30.2.44,7.39-35,12.19-36.08c4.12-.92,42.79-32.87,43.93-38.07.69-3.21-1.51,17.93-1.2,20.32,1.92,15.27,29.18,14.4,31.72,3.07,1.77-7.85-2.17-26.65.88-27.57,6.74-2,14.69-57.13,9.84-63-4.17-5.07-8.45-38.81-61.16-31.49C720.66,308.09,672.52,350.93,662.67,366.9Z"/><ellipse class="cls-7" cx="746.31" cy="251.05" rx="23.32" ry="23.29"/><ellipse class="cls-6" cx="715.93" cy="277.38" rx="16.57" ry="17.01"/><path class="cls-7" d="M762.34,321c-5.42,3.25-18.08,9.4-22.42,12.3-6.69,1.26-14.65-1.79-14.65-14.65s8.16-21.06,21-21.06S762.34,308.12,762.34,321Z"/><path class="cls-8" d="M716.34,483a38,38,0,0,0,6-.44c-13.31,9.22-42.06,14.57-66.35,2.13-18.49,1.58-29.42-6.55-30-18-20.78-14.51-8.79-21.37,7-30.88.36,20.54,39.61,43.53,54.2,24.09a36.27,36.27,0,0,1,13.56-3.5C695.35,468.3,697,484.28,716.34,483Zm85.53-49.6c-15.15.05-24-9.47-16.9-23.17-5.06,4-6.64,11.93-14.17,12.52L766.46,426c-1.57,4.58-5.71,8.12-11,7.75-6.86,3.71-14.19,17.86-17.76,23.78-.61-1,0,13.21-2.38,18.12,22-12.86,65.92-32.36,79.26-45A27.59,27.59,0,0,1,801.87,433.42Z"/><path class="cls-9" d="M712.63,337.73a92.83,92.83,0,0,1,11.73-8.2,17.7,17.7,0,0,0,5.27,6.49c-4.16,2.53-6.73,4.18-6.73,4.18Z"/><path class="cls-9" d="M765.78,316.71a23.94,23.94,0,0,0,0-3.39c2,.48,4,1.1,4.8,1.38C769,315.32,767.39,316,765.78,316.71Z"/><path class="cls-3" d="M707.5,446.73a35.94,35.94,0,0,1-4.12,1.3C704.6,447.3,706.2,447.3,707.5,446.73Z"/><path class="cls-3" d="M755.25,225.82c-20.63-7.91-38.37,10.4-34.71,32.82-21.67-7.88-33,28.19-14.08,36.63,13.57,5.25,28.41-.42,28.89-18.35C770.37,292.21,786.68,234.68,755.25,225.82Zm-52.11,49.41c1.13-6,5.07-10.69,9.35-11.37-6.77,5.38-9.14,18.07-4.32,25.56C704.11,287.37,702,281.4,703.14,275.23ZM729,279.84c-1.44,8.71-8.57,13.49-16.76,10.49-7.15-6.8-3.89-22.36,4.47-26.15C726.21,263.86,730.73,271.23,729,279.84Zm-.92-18.77c-4.37-10.35,2.22-27.94,12.56-30.1-9.34,7-13.3,22.43-9.22,33.27A14.28,14.28,0,0,0,728.1,261.07Zm36.75-5.93c-2.06,12-12.05,20.79-24,16.14-11.91-8.62-7.89-35.59,7.54-39.89C760.78,231.36,767.3,242.52,764.85,255.14Z"/><path class="cls-10" d="M729.63,336c-4.16,2.53-6.73,4.18-6.73,4.18l-10.27-2.47a92.83,92.83,0,0,1,11.73-8.2A17.7,17.7,0,0,0,729.63,336Z"/><path class="cls-10" d="M765.78,316.71a23.94,23.94,0,0,0,0-3.39c2,.48,4,1.1,4.8,1.38C769,315.32,767.39,316,765.78,316.71Z"/><path class="cls-3" d="M708.75,446.22c-.06,0-.12,0-.2.14s-.36.13-.54.19c.28-.06.56-.16.84-.25A.1.1,0,0,0,708.75,446.22Zm0,0c-.06,0-.12,0-.2.14s-.36.13-.54.19c.28-.06.56-.16.84-.25A.1.1,0,0,0,708.75,446.22Z"/><path class="cls-3" d="M760.38,374c.25.26,6.18,6.51,4.79,20.09a1.34,1.34,0,0,1-2.67-.27C764.94,379.58,753.65,373.21,760.38,374Zm17.54-6.61-1.57.86a18.58,18.58,0,0,1,2.33,11.55,1.34,1.34,0,0,0,1.33,1.48c4.13-3.74-.52-12.32-1.27-14.23Zm-.41.18a10.2,10.2,0,0,0,1.19-.6Zm56.19-7.61c-1.11,14.24-7.67,24.83-10.71,36.75-.56,4.88.15,17.94-.4,22.69-3.05,23.12-52.52,16.19-37.62-9.13-5.06,4-6.64,11.93-14.17,12.52L766.46,426c-1.57,4.58-5.71,8.12-11,7.75-6.83,3.69-14.21,17.88-17.76,23.78-.7-1,.12,13.16-2.38,18.12-15.61,15.75-47.56,7.43-34.6-19.21a36.08,36.08,0,0,0-13.56,3.5c-16.15,23.41-73.27-15-47.51-35.89,3.33-6.78,1.44-16.08,2.86-24-30.87-14.63.73-33.73,16-36.52C677.46,343.8,701.09,326,722.78,313c3.59-15.78,16.53-18.48,29.76-16.51a18.78,18.78,0,0,1,5.62,2.07C799.12,291.51,839.53,297.26,833.7,359.94Zm-92-56.23c-6.66,6.4-8.55,19.46-2.89,26.89,5.89-3.36,12.84-7.16,19.83-10.57C762.36,310,751.54,294.39,741.7,303.71ZM728.78,318.5c.11,4.39,1.72,9,5.07,11.59-4.71-9.39-2.23-22.57,5.44-29.66C732.65,302.42,728.36,311.44,728.78,318.5Zm-16.15,19.23,10.27,2.47s2.57-1.65,6.73-4.18a17.7,17.7,0,0,1-5.27-6.49A92.83,92.83,0,0,0,712.63,337.73ZM804.48,308c-11.83-7.21-27.42-3.31-40.61-2.69a23.4,23.4,0,0,1,.94,2.67c6.9,1,14.82,4.38,20.68,6.51l-13,5.17c-22.07,9-46.76,25.14-48.65,26.3l-22.81-5.51c6.6-5.64,13.61-11.65,21.52-16.07-.14-.67-.26-1.37-.34-2.09-21.2,14-40.82,28-59.32,48.13-2.19-.29-44.71,13.86-14.67,23.31,1.66-1.3,5.65-12.39,9-9.9,4.66,3-12.29,15.06-6.52,28.26-1,4.21-2.27,9.32-3.41,13.63-.45,5.39-3.79,2.48-6.33,9.16-1.49,5,5.38,17,19.27,20a1.8,1.8,0,0,0,.18.2c6.33,1.3,17.2,2.43,21.68-1.57l.18.2a44,44,0,0,1,17.61-5.08c5.08-.43,16.69-4.78,18.16-7.9a2.22,2.22,0,0,1,2.88-1.23c4.77,4.75-5.75,9.09-11.78,11.36,1,7.11-4.14,10.5-3,21,1.77,5.28,22.82,4,22.88-1.23.26-9.21.42-16.59,5.69-23.27,2.79-6,10.47-23.09,11.42-29.6a2.2,2.2,0,0,1,2.51-1.89c4.64,2.6-.6,9-1.91,14.73,2.14-1.58,4.47-3.32,6.57-4.94,4,1.38,6.12-1.3,6.55-4.48l8.42-6.15c3.08,1.16,5.53-3.16,5.41-4.77,5.76-4.27,9.62-10.71,14.73-15.63a0,0,0,0,1,0,0,0,0,0,0,1,0,0,0,0,0,0,1,0,0c3-3.71,9-6.84,12.45-9.63,2.06-2,5.17,1.25,3,3.22s-6.16,4.18-8.72,6.21v0c-.4,4.72-.8,9.32-1.33,13.56-1,4.1-4.7,11.76-3.54,13.23,3.12,5.18,14.16,5.47,20,2.87,9.07-3.3,2.6-24.24,5.28-29.74C822.47,371,843.44,329.1,804.48,308Zm-38.7,8.72c1.61-.72,3.21-1.39,4.78-2-.78-.28-2.81-.9-4.8-1.38A23.94,23.94,0,0,1,765.78,316.71Zm-53.54,73.71a2.21,2.21,0,0,0-.8,3c3,5.15,3.54,16.9,2.07,20.36-6.19,8.52-23.09,5-30,.8-11.26-5.85,6.65-15.82,4.54-26.64-.17-2.84-4.66-2.49-4.42.36,0,.06.36,6.65-6.33,14.79-11.46,19.94,32.14,26.95,40.17,12.76C719.2,412.52,720.28,390.26,712.24,390.42ZM651,426.77l-.3,4.42c.1,0,10.22.77,13.92,5.92l3.6-2.59C663.33,427.67,651.53,426.8,651,426.77Z"/><path class="cls-1" d="M683,608.94l-12.21,7.46S658.4,622.45,653,627.89s-16.05,25.67-16.05,25.67-23.53,11-21.26,18.91,11.76,14.24,11.76,14.24-7.2,34.89-7.89,50c-1.32,29,56.44,28.16,66,23.93,8,12.41,31.12,13.34,39.12-9.72,26.83-.48,52.65-8.57,77.17-26.4,4,3.57,17.9-6.38,17.81-22.86,41.37-34.16,18.73-130.25-54-125.74C757.7,578.64,683,608.94,683,608.94Z"/><path class="cls-2" d="M822.18,723.15c-11,35.1-98.51,45.76-98.51,45.76s-49.89,25.24-80.75,15.36c-8.67,1.82-38.63-.74-43.79-16.57l-6.27-.08c-6,0-5.14-12.64,1.38-12.49l5.76-.35a17.33,17.33,0,0,1,3.08-7c5.12-.24,11.43-.63,14.78-.85a31.15,31.15,0,0,0,5,7.78c7.68,8.81,20.5,13.45,37,13.45,4.11,0,7.38-.28,9-.43,1.05,2.56,2.46,4.26,4.33,4.66a4,4,0,0,0,.85.1c3.29,0,6-4,8.08-8.28.37-.14.77-.27,1.17-.41.08.31.16.63.25,1,2,6.79,9.65,8.22,15.72,8.22A52.54,52.54,0,0,0,714,770.77c9.62-3,11.82-8,12-11.69a16.05,16.05,0,0,1,1.21-4.6,101,101,0,0,0,16.37-2.4,14,14,0,0,0,5.74,1.43,9.12,9.12,0,0,0,4.52-1.17,12.51,12.51,0,0,0,4.39-4.63l8.61-2.8a11.91,11.91,0,0,0,3.77.66,9.45,9.45,0,0,0,6.23-2.26,13.26,13.26,0,0,0,3.85-4.8c1.09-.66,2.4-1.43,3.64-2.13l2.59-1.53a12.35,12.35,0,0,0,1.93.14,12.2,12.2,0,0,0,6.43-1.78,9.33,9.33,0,0,0,3.75-4.49c9.7-2.3,16.27-5.51,20-9.78l.68-.8.43-.91c2.21-4.54,2.31-9.92,2.39-13.47,0-.36,0-.7,0-1a18.21,18.21,0,0,1,2-1.47,28.57,28.57,0,0,0,3.14-2.34C833.21,705.48,833.41,713.54,822.18,723.15Z"/><path class="cls-11" d="M669.51,708.68a2.44,2.44,0,0,0-.25,1.11,6.49,6.49,0,1,1-13,0,6.82,6.82,0,0,1,.53-2.6,6.45,6.45,0,0,1,3.93-3.61,2.89,2.89,0,0,0,.44-.18,18.62,18.62,0,0,0,2,1.83c.56.43,1.14.85,1.73,1.25A27.56,27.56,0,0,0,669.51,708.68Z"/><path class="cls-12" d="M615.7,740.39l-6.71.4c-4.49.26-9.23.47-11.75.49-.93-1.21-.91-6,0-7.95,3.55-.18,12.33-.82,17.5-1.19a28.65,28.65,0,0,0,.2,3.25A36.22,36.22,0,0,0,615.7,740.39Z"/><path class="cls-13" d="M590.45,697.37c2.11.79,3,3.57,2.25,5.71a7.34,7.34,0,0,1-4.94,4.27,21.93,21.93,0,0,1-6.67.56l-7.42-.18c-.52,0-1.06,0-1.57,0-.28-.32-.58-.62-.87-.9-2-1.94-4.19-3.93-6.89-4.78a7.73,7.73,0,0,0-5.24.24c-.08-.06-.18-.1-.26-.16a12.64,12.64,0,0,1-3.63-2.78,4.42,4.42,0,0,1-.87-4.32,23.61,23.61,0,0,0,1.25-2.31c.53-1.9-1.19-3.65-1.71-5.55-.77-2.76,1.25-5.72,3.85-6.85s5.58-.85,8.36-.3a8.89,8.89,0,0,1,14.84,1.21,4.19,4.19,0,0,0,1.09,1.55c1.31,1,3.06-.22,4.66-.45a5.26,5.26,0,0,1,4.63,2.08,13.42,13.42,0,0,1,2.26,4.78,10,10,0,0,1,.52,5.14C593.67,696,592.16,697.53,590.45,697.37Z"/><path class="cls-13" d="M574,715.31c-.81,3-1.78,6.15-4.24,8a7.25,7.25,0,0,1-9.15-.59,7.75,7.75,0,0,1-7.15.51,13.68,13.68,0,0,1-5.71-4.66,8.33,8.33,0,0,0-1.61-1.74,10,10,0,0,1-1.8-1.23,2.87,2.87,0,0,1-.62-1.83,5.9,5.9,0,0,1,6-5.91,3.59,3.59,0,0,1,2.11-4.23,5.5,5.5,0,0,1,5,.57,5.11,5.11,0,0,1,2.3-1.94c1.79,1,3.53,2.06,5.32,3.1a18.25,18.25,0,0,0,3,1.54,15.25,15.25,0,0,0,4.66.8,7.44,7.44,0,0,1,2.4,4.28A9.08,9.08,0,0,1,574,715.31Z"/><path class="cls-14" d="M572.1,707.69a15.25,15.25,0,0,1-4.66-.8,18.25,18.25,0,0,1-3-1.54c-1.79-1-3.53-2.07-5.32-3.1a7.73,7.73,0,0,1,5.24-.24c2.7.85,4.86,2.84,6.89,4.78C571.52,707.07,571.82,707.37,572.1,707.69Z"/><path class="cls-13" d="M584.44,738.64a3.14,3.14,0,0,1-.81,1c-1,.63-2.26.06-3.28-.5-.51,1.15-1.17,2.42-2.36,2.86a3.73,3.73,0,0,1-1.82.08,8.65,8.65,0,0,1-5.42-3.12c-.14-.18-2.76.2-3.53-2.68a4.87,4.87,0,0,1,.81-2.78c1-1.66,3-3.17,4.74-2.44a2.2,2.2,0,0,1,.36-2.42,5.13,5.13,0,0,1,2.14-1.39,6.77,6.77,0,0,1,3.08-.59A4.31,4.31,0,0,1,582,731.5c1.55-.71,3.43.69,3.77,2.36A6.69,6.69,0,0,1,584.44,738.64Z"/><path class="cls-9" d="M696.21,627.89a1.58,1.58,0,0,1,.06.26l.49-.08ZM694,605.57l0,0a6,6,0,0,0,.34.61Zm62-8.06a.25.25,0,0,1,0,.12.07.07,0,0,1,.06,0s0-.06,0-.08A.09.09,0,0,0,756,597.51Zm-7.33,3.61v0a.15.15,0,0,1,.1,0ZM714,611.4a1.87,1.87,0,0,1,.08.32,2.22,2.22,0,0,1,0-.38Z"/><path class="cls-3" d="M714,611.4a1.87,1.87,0,0,1,.08.32,2.22,2.22,0,0,1,0-.38Zm34.72-10.28v0a.15.15,0,0,1,.1,0Zm7.33-3.61a.25.25,0,0,1,0,.12.07.07,0,0,1,.06,0s0-.06,0-.08A.09.09,0,0,0,756,597.51Z"/><path class="cls-4" d="M694.34,606.22a6,6,0,0,1-.34-.61l0,0Z"/><path class="cls-4" d="M694.34,606.22a6,6,0,0,1-.34-.61l0,0Z"/><path class="cls-4" d="M731.47,572.94,718,578.82C715.65,572.35,728.37,566.78,731.47,572.94Z"/><path class="cls-4" d="M714.11,611.34a2.22,2.22,0,0,0,0,.38,1.87,1.87,0,0,0-.08-.32Z"/><path class="cls-3" d="M696.76,628.07l-.49.08a1.58,1.58,0,0,0-.06-.26Z"/><path d="M756.14,597.53s0,0,0,.08a.07.07,0,0,0-.06,0,.25.25,0,0,0,0-.12A.09.09,0,0,1,756.14,597.53Z"/><path class="cls-4" d="M714.11,611.34a2.22,2.22,0,0,0,0,.38,1.87,1.87,0,0,0-.08-.32Z"/><path class="cls-4" d="M748.81,601.12a.15.15,0,0,0-.1,0v0Z"/><path class="cls-4" d="M756.14,597.53s0,0,0,.08a.07.07,0,0,0-.06,0,.25.25,0,0,0,0-.12A.09.09,0,0,1,756.14,597.53Z"/><path class="cls-3" d="M756.14,597.53s0,0,0,.08a.07.07,0,0,0-.06,0,.25.25,0,0,0,0-.12A.09.09,0,0,1,756.14,597.53Z"/><path class="cls-15" d="M714.11,611.34a2.22,2.22,0,0,0,0,.38,1.87,1.87,0,0,0-.08-.32Z"/><path class="cls-15" d="M748.81,601.12a.15.15,0,0,0-.1,0v0Z"/><path class="cls-15" d="M756.14,597.53s0,0,0,.08a.07.07,0,0,0-.06,0,.25.25,0,0,0,0-.12A.09.09,0,0,1,756.14,597.53Z"/><path class="cls-3" d="M646.65,721.94l-3.59,2.58c-2.11-3.67-9.47-5.46-12-5.22l-.1-4.41C632.84,714.25,644.44,717.14,646.65,721.94Zm181.62-23.62c-1.76,1.76-4.11,3-5.83,4.45,1,15.15-6.22,22.21-23.48,26-1.8,4.69-7.26,6.89-12.1,6.13-2,1.19-4.3,2.5-6.24,3.66-2,4.92-8.46,8.71-13.85,6.4l-8.61,2.8a10.5,10.5,0,0,1-14.65,4.37,101,101,0,0,1-16.37,2.4c-2.5,7.38-.14,11.88-13.19,16.29-9.63,2.47-27,5.71-30.66-7-.4.14-.8.27-1.17.41-3,7.31-9.8,12.32-13.26,3.52-20.25,2.3-43.83-3.18-51.06-20.8-9.08-1.34-27.73,8.07-28-9.09-.64-16,12.91-10.24,25.08-12.4.08-17.08,3.42-34.67,7.49-39.41-25.43-13.35-.36-30.8,12.46-35.92,10-33.56,27-30.53,43.48-42.27-7-6.29-10.92-9.35-16.53-13.75L674.44,588c-5.93-7.93-5.44-7.08-9-11.53l14.6-6.57c-3-6.5-2.59-5.65-4.48-9.63l65.68-26.17c2.76,4.64,7,10.7,13.95,28.53L777,553.06l3.22,5.75c-.42.3-6.09,4.43-10.88,13.06,34.64.67,65.57,20.67,72.16,60.67C846.61,659.64,841,687.23,828.27,698.32ZM615.64,740.39a40.29,40.29,0,0,1-1-8.25c-5.18.37-13.95,1-17.51,1.19-.87,1.92-.89,6.74,0,7.95C601.18,741.26,610.6,740.7,615.64,740.39ZM749.45,572.33l-34.71,15.16c-3.27,11.79-6.16,25.26-6.39,37.78,1.59-1.09,4.77-3.19,6.95-4.6l0,0c12.58-8.12,26.67-16.61,40.78-23,0,0,0-.06,0-.08a60.37,60.37,0,0,1,9.48-32.27Zm-64.91-8.54c6.58,14.44,13.61,30.88,18.41,46.86a185.52,185.52,0,0,1,6.33-28c12.56-5.51,27.22-11.86,39.73-17.35a164.12,164.12,0,0,0-10.57-23ZM676,579a230,230,0,0,1,19,28.41c-3.37-10.27-8.45-22.66-12.29-31.47Zm7.67,24.7c1.21,1.11,2.42,2.25,3.58,3.4-2.72-4.6-5.91-9.49-8.85-13.64l-4.19,2C677.31,598.08,680.28,600.62,683.62,603.68Zm131,102a78,78,0,0,1-12.86,14.23C810.18,717.55,815.21,714.1,814.62,705.7ZM799.5,587.05c-7.26-5.14-23.7-8.13-33.64-7.34a56,56,0,0,0-2.7,11.71c5,1.94,11,4.64,11,4.64-21,7.07-66.69,35-66.41,35.44l-21.2-6.62s2.12-1.71,4.55-3.64a74,74,0,0,0-7.19-8c-.46.35-2.86,2.31-3.27,2.62l2.68-.16c2.52-.15,2.88,3.86.23,4-19,1-33.83,5.44-42.22,36.05-2.33.78-40,17.14-10.78,25.19l6.15-9.63c1.51-2.44,5.31,0,3.73,2.38L635.14,682h0l-2.26,3.55,2.28-3.55h.06c-2.07,3.61-5,14.64-2.18,18.06,0,0-11.71,4.12-4.56,17.48a11.75,11.75,0,0,0-6.08,11.89s0,0,0,0c-1.51,10.07,25.35,17.48,21.94,4.76,1.11-.66,2.32-1.41,3.4-2.1,7.17,14.86-17.12,15.48-24.33,7.38,6.16,21.1,28.76,21.54,43.56,20.68A95.89,95.89,0,0,1,666,749c-6.93-.52-15-5.71-8.91-5.89a21.59,21.59,0,0,0,8.83,3.25c.35-10.07-1.52-22.58-2.54-24.78-13.2,1.16-17.25-18.74-4.8-22.94-.41-2.16.27-5,2.32-8,7.05-8.53,6.65-15.46,6.65-15.54-.22-2.81,4.21-3.22,4.41-.36,2.14,11.52-16.63,21.68-4.69,27.94,21.14,10.76,40.87,3.52,29.35-22.26,1.59-17.85,26.2,41.75-22.1,29.83a11.84,11.84,0,0,1-6.83,10.22c1.13,2.78,2.95,15.14,2.64,25.65a11.92,11.92,0,0,0,6.29-3.67c7.08-.68-4.12,7.16-6.21,6.35a93.87,93.87,0,0,0,.93,10.62c8.28-1.18,25-9.89,27.21-16.87a2.22,2.22,0,0,1,2.88-1.23c4.22,4.25-4.87,10.65-10.86,15.5-4.41,14.3,27.52,7.32,27.64,1.87.16-4.1,2.22-7.94,3.2-10.9a2.18,2.18,0,0,1,1.51-2.16c11.33-2.17,27.11-21.61,16.7-40.07,4.21-14.67,17.64,29.06-7.87,40.68a116.79,116.79,0,0,0,12.9-2.46c3.93,2.91,6.47,2.3,8-2.48l14.61-4.78c3.14,2.88,6.93-.32,6.63-3,2.12-1.5,8.15-4.82,12-7.24,2.78,2,7.21.63,5.88-3.29a0,0,0,0,1,0-.06c0-.07,0-.14,0-.18,15.28-11.15,38-38.84,23.73-64.46a2.21,2.21,0,0,1,1.07-2.93c11.09,4.76,7.64,32.57,4.13,39C843.67,678.45,843.1,602.64,799.5,587.05ZM669.2,709.79a2.33,2.33,0,0,1,.26-1.11,21.44,21.44,0,0,1-8.34-5.28C646.93,709.55,666.85,725.09,669.2,709.79Z"/><path class="cls-15" d="M746.83,582.07c-4.24,1.85-21.11,9.42-25.62,11.43-1.14,3.06-4,18.43-4.25,25.78h0c0,.12,0,.22,0,.34,9.78-6.27,20.84-12.92,31.79-18.46v0c.24,0,.44-.21.68-.3a54,54,0,0,1,2.26-20.91Zm-9.92,24.25c-10,5.35-12.85-3.25-3.85-7.38C742.38,593.86,746.62,601.35,736.91,606.32Zm28.71-41.06a60.34,60.34,0,0,0-9.48,32.27.09.09,0,0,0-.1,0,.25.25,0,0,1,0,.12c-1,.46-2.13,1-3.18,1.47-.77-8.38,1.83-17.42,4.51-25.7-1.18.54-3.8,1.7-5,2.22v0c-10.09,4.48-23.94,10.69-34.14,15.24-.49,1.7-2.44,7.27-4.14,20.46l-.12.06c-.08,3.24-.75,6.88-.86,10.68-1.84,1.21-3.72,2.47-4.78,3.19.23-12.52,3.12-26,6.39-37.78C730.13,580.76,750.41,571.92,765.62,565.26Z"/><path class="cls-4" d="M737.38,561.73c1,2.12,2,4.55,3.14,7.26-2.59,1.15-6.44,2.8-9,4-3.1-6.16-15.82-.59-13.47,5.88l-8.72,3.81c-.58,1.82-1.42,4.72-2.12,7.42-1.5-4-3.27-8.49-4.7-11.81l2-11.87,22.35-9.82,1.37-.61,9.2,5.77Zm1.06-19.43-53.9,21.49c6.58,14.44,13.61,30.88,18.41,46.86.74-5.2,1.61-9.74,2.66-14.25a268.43,268.43,0,0,0-12.14-29.13c11-4.84,30.28-13.32,41.33-18.2,1.69,2.85,4,6.21,9.05,18.48l5.16-2.27A164.12,164.12,0,0,0,738.44,542.3ZM693,601.52c-3.09-8.66-7.18-18.53-10.26-25.6L676,579a237.65,237.65,0,0,1,18,26.63l0,0a16.57,16.57,0,0,0,1,1.82C694.35,605.44,693.66,603.47,693,601.52Zm-8.31,1.39c-2.09-3.34-4.25-6.55-6.31-9.47l-4.19,2c4.23,3.51,8.89,7.52,13,11.61C686.37,605.68,685.52,604.28,684.66,602.91Z"/><path class="cls-5" d="M731.47,572.94,718,578.82C715.65,572.35,728.37,566.78,731.47,572.94Zm10.68,25.48c-2.91-3.75-16.61,2.58-14.55,8.06C729.92,611.41,745.7,603.21,742.15,598.42Zm13.21-24.11-3,1.31v0c-10.09,4.48-23.94,10.69-34.14,15.24-1.1,1.71-4.94,21.73-5.12,31.2l2.17-1.41,0,0c.51-.36,1.06-.67,1.58-1,0-.12,0-.22,0-.34h0c.28-7.32,3.11-22.75,4.25-25.78l30.44-13.59a54,54,0,0,0-2.26,20.91c1.15-.58,2.34-1.16,3.49-1.72-.77-8.38,1.83-17.42,4.51-25.7Zm-52.9,3.93,2-11.87,22.35-9.82,1.37-.61,9.2,5.77c1,2.14,2,4.55,3.14,7.28.72-.3,2.59-1.12,3.33-1.44-5.11-12.29-7.35-15.61-9.05-18.48-11.06,4.89-30.32,13.35-41.33,18.2a268.43,268.43,0,0,1,12.14,29.13c.49-2.16,1-4.35,1.55-6.35C705.66,586,703.89,581.56,702.46,578.24Z"/></g></g></svg>