<svg xmlns="http://www.w3.org/2000/svg" viewBox="0 0 1254 980"><defs><style>.cls-1{fill:#f5f5f5;}.cls-2{fill:#2e356e;}.cls-3{fill:#7c82f7;}</style></defs><g id="Layer_2" data-name="Layer 2"><g id="Layer_1-2" data-name="Layer 1"><rect class="cls-1" width="1254" height="980"/><path class="cls-2" d="M238,581V564.35l-17.72-25.54c-1.82-2.69-.66-4.8,2.55-4.8h7.07a5.14,5.14,0,0,1,4.74,2.62L244.7,553l10.14-16.37a5.07,5.07,0,0,1,4.74-2.62h7c3.2,0,4.3,2.11,2.4,4.8l-17.57,25.32V581c0,2.54-1.38,3.93-3.94,3.93h-5.54C239.38,585,238,583.56,238,581Z"/><path class="cls-2" d="M264.89,566c0-10.92,9-19.72,21.43-19.72s21.44,8.8,21.44,19.72-8.9,19.72-21.44,19.72S264.89,576.94,264.89,566Zm30.62,0a9.15,9.15,0,1,0-9.19,9.38A9,9,0,0,0,295.51,566Z"/><path class="cls-2" d="M313.21,569.08V551c0-2.55,1.38-3.93,3.94-3.93h5.25c2.55,0,3.93,1.38,3.93,3.93v17c0,4.08,1.39,7.42,5.25,7.42s6.2-3.27,6.2-8.29V551c0-2.55,1.39-3.93,3.94-3.93H347c2.55,0,3.93,1.38,3.93,3.93v30c0,2.54-1.38,3.93-3.93,3.93h-5.25c-2.55,0-3.94-1.39-3.94-3.93v-1.39c-2,3.79-5.69,6.12-11.08,6.12C315.76,585.75,313.21,576.65,313.21,569.08Z"/><path class="cls-2" d="M359,581V551c0-2.55,1.39-3.93,3.94-3.93h4.81a3.57,3.57,0,0,1,3.94,3.93v4.22c1.24-7.35,7-9,9.62-9a6.24,6.24,0,0,1,1.1.07c1.89,0,2.26,1.6,2.26,3v6.55c0,2.18-1.17,3.13-2.85,2.91a15.23,15.23,0,0,0-1.75-.07c-5.25,0-7.94,3.49-7.94,10.26v12c0,2.54-1.39,3.93-3.94,3.93h-5.25C360.37,585,359,583.56,359,581Z"/><path class="cls-2" d="M392.73,598.92c-2.33-1-2.77-3.13-1.53-5.32l1.09-2c1.24-2.18,3-2.62,5.25-1.53a19.81,19.81,0,0,0,8.68,2.11c6,0,10.35-3.13,10.35-10.4v-1.9c-2.33,3.79-6.71,5.83-11.66,5.83-10.36,0-17.87-8.88-17.87-19.72s7.51-19.72,17.87-19.72c4.95,0,9.11,2,11.44,5.89v-1.67c0-2.33,1.39-3.42,3.94-3.42h5c2.55,0,3.94,1.38,3.94,3.93v30.05c0,15.28-9.7,21-21.59,21A34.33,34.33,0,0,1,392.73,598.92ZM416.57,566c0-5.39-3.28-9.68-8.31-9.68s-8.39,4.36-8.39,9.68,3.21,9.68,8.39,9.68S416.57,571.41,416.57,566Z"/><path class="cls-2" d="M435.15,566c0-11.28,7.65-19.72,18-19.72,4.95,0,9.11,2,11.52,5.89V551c0-2.55,1.38-3.93,3.93-3.93h5.25c2.56,0,3.94,1.38,3.94,3.93v30c0,2.54-1.38,3.93-3.94,3.93h-5.25c-2.55,0-3.93-1.39-3.93-3.93v-1.1c-2.41,3.79-6.57,5.83-11.52,5.83C442.8,585.75,435.15,577.31,435.15,566Zm29.67,0c0-5.39-3.21-9.54-8.31-9.54s-8.24,4.22-8.24,9.54,3.06,9.53,8.24,9.53S464.82,571.41,464.82,566Z"/><path class="cls-2" d="M485.88,581V551c0-2.55,1.38-3.93,3.93-3.93h5.25c2.56,0,3.94,1.38,3.94,3.93v1.45c2-3.85,5.62-6.18,11-6.18,10.94,0,13.49,9.09,13.49,16.66v18c0,2.54-1.39,3.93-3.94,3.93h-5.25c-2.55,0-3.93-1.39-3.93-3.93v-17c0-4.07-1.32-7.35-5.18-7.35s-6.2,3.2-6.2,8.23V581c0,2.54-1.38,3.93-3.94,3.93h-5.25C487.26,585,485.88,583.56,485.88,581Z"/><path class="cls-2" d="M530.26,537.43c0-3.49,2.56-6.26,7.51-6.26s7.59,2.77,7.59,6.26-2.77,6.26-7.59,6.26S530.26,541,530.26,537.43Zm1,43.59V551c0-2.55,1.39-3.93,3.94-3.93h5.25c2.55,0,3.94,1.38,3.94,3.93v30c0,2.54-1.39,3.93-3.94,3.93h-5.25C532.6,585,531.21,583.56,531.21,581Z"/><path class="cls-2" d="M550.75,581v-.59a6.32,6.32,0,0,1,1.89-4.8l17.21-18.48H555.41c-2.55,0-3.94-1.38-3.94-3.93V551c0-2.55,1.39-3.93,3.94-3.93h29.24c2.55,0,3.94,1.38,3.94,3.93v.72a6.3,6.3,0,0,1-1.9,4.81l-17.06,18.34h16.19c2.55,0,3.93,1.38,3.93,3.92V581c-.07,2.54-1.45,3.93-4,3.93H554.68C552.13,585,550.75,583.56,550.75,581Z"/><path class="cls-2" d="M593.17,566.17c0-10.48,7.72-19.86,21-19.86,11.38,0,20.27,6.84,20.49,18.92.07,2.25-1.53,3.2-4,3.2H605.49c0,3.35,3.86,7.28,10.79,7.28a15.64,15.64,0,0,0,7.51-1.9c2.19-1.09,4-.94,5.47,1l1,1.31c1.53,1.89,1.46,4.15-.8,5.68a25.39,25.39,0,0,1-14.22,4C601.4,585.75,593.17,577,593.17,566.17Zm29.45-4.29c-.58-4.37-4.59-6.11-8.38-6.11s-7.81,1.82-8.53,6.11Z"/><path class="cls-3" d="M427,300.53c19.47,0,35.23,5.59,45.6,16.18,9,9.17,13.93,22.2,13.91,36.67v.39c.5,11.39-6.63,27.76-20.61,47.31a312.49,312.49,0,0,1-27.79,33.21,42.83,42.83,0,0,0-22.25,0,311.46,311.46,0,0,1-27.79-33.21c-14-19.55-21.11-35.92-20.61-47.31v-.39c0-14.47,4.93-27.5,13.91-36.67,10.37-10.59,26.13-16.18,45.61-16.18m0-8.58c-47.16,0-68.15,29.54-68.12,61.44-1.4,31.9,43,78.95,52.74,88.85a4.06,4.06,0,0,0,4.17,1,34.51,34.51,0,0,1,22.41,0,4.06,4.06,0,0,0,4.17-1c9.72-9.9,54.14-56.95,52.74-88.85,0-31.9-21-61.44-68.11-61.44Zm0,25.73c14.73,0,26.25,3.81,33.31,11,5.82,5.94,9,14.71,9,24.67v.76l0,.39c.33,7.69-9.62,30.9-37.47,61.35-1.63-.13-3.26-.2-4.88-.2s-3.23.07-4.85.2c-22.39-24.67-38-50.08-37.51-61.35l0-.39v-.76c0-10,3.19-18.73,9-24.67,7.06-7.21,18.58-11,33.32-11m0-8.57c-17.11,0-30.75,4.7-39.46,13.59-7.41,7.56-11.48,18.46-11.47,30.67v.77c-.74,16.71,20.78,47.25,42.74,70.77a51.33,51.33,0,0,1,16.41,0c30-32,43.25-58.81,42.72-70.77v-.77c0-12.21-4.06-23.11-11.47-30.67-8.71-8.89-22.35-13.59-39.45-13.59Zm0,25.73c9.57,0,17.43,2.19,21,5.85,2.63,2.68,4.13,7.29,4.12,12.67v1.45c-.45,3-6,17.74-25.11,40.52a215.85,215.85,0,0,1-16.34-22.12c-7.53-11.88-8.71-17.42-8.87-18.37l0-.33v-1.14c0-5.38,1.49-10,4.12-12.68,3.58-3.66,11.44-5.85,21-5.85m0-8.58c-12.2,0-21.84,3-27.17,8.43-4.24,4.34-6.58,11-6.57,18.68v.76l0,.76c0,.26-.16,6.56,10.21,22.91a240.81,240.81,0,0,0,22.39,29.3h2.39c24.19-27.2,32.53-47.05,32.54-52.21l0-.76v-.77c0-7.71-2.33-14.33-6.57-18.67-5.32-5.43-15-8.43-27.16-8.43ZM427,352a31.58,31.58,0,0,1,7.78.81,90.73,90.73,0,0,1-7.78,14c-.61-.93-1.2-1.84-1.77-2.74a71.64,71.64,0,0,1-6.07-11.21A31,31,0,0,1,427,352m0-8.57c-9.58,0-14,2.35-14.87,3.26-.59.59-1.68,2.75-1.68,6.69V354c.44,1.48,2.09,6.11,7.52,14.66,2.61,4.12,5.66,8.48,9.07,12.95,11.08-14.6,15.52-24.52,16.5-27.73v-.5c0-3.91-1.09-6.07-1.67-6.66-.89-.91-5.3-3.26-14.87-3.26Zm0,116.16a32.34,32.34,0,0,1,9.27,1.4v8.64a20.32,20.32,0,0,1-18.55,0V461a32.35,32.35,0,0,1,9.28-1.4m0-8.58a41.57,41.57,0,0,0-14.74,2.77,4.81,4.81,0,0,0-3.13,4.49v13.65a4.82,4.82,0,0,0,2.5,4.2,29.46,29.46,0,0,0,30.75,0,4.82,4.82,0,0,0,2.5-4.2V458.26a4.81,4.81,0,0,0-3.13-4.49A41.58,41.58,0,0,0,427,451Z"/><path class="cls-2" d="M952,119.7a28.32,28.32,0,0,0-46.83-.31,56.17,56.17,0,1,0,46.83.31Zm25.39,48.75-7.09-4.62a42.41,42.41,0,0,0-13.8-25.06,17.29,17.29,0,0,0,.34-3.26,28.62,28.62,0,0,0-.49-5.27A49.2,49.2,0,0,1,977.39,168.45Zm-21.61-26.52A39.4,39.4,0,0,1,967,161.71l-8.51-5.54-1.35.31a31.93,31.93,0,0,0-4.3-6.57A64.94,64.94,0,0,0,955.78,141.93Zm-1.45,15.18-5.53,1.24c1-1.95,2-3.81,2.78-5.58A28.18,28.18,0,0,1,954.33,157.11Zm-49.12-4.69c1,2.05,2,4.23,3.26,6.54l-6.36-1.71A28,28,0,0,1,905.21,152.42Zm-1.27-2.86a32.14,32.14,0,0,0-4.59,6.94l-1.31-.35-8.55,5.56a39.48,39.48,0,0,1,11.59-20.11A61,61,0,0,0,903.94,149.56Zm-3.27-19.67a29,29,0,0,0-.55,5.62,17.53,17.53,0,0,0,.26,2.92,42.55,42.55,0,0,0-14.17,25.4l-7.09,4.62A49.21,49.21,0,0,1,900.67,129.89Zm-21.52,43.54,6.56-4.27,2.91-1.89,6.06-3.94-5.12,16.45L888,184.62l-3,9.51A48.61,48.61,0,0,1,879.15,173.43Zm47,46.3A49.17,49.17,0,0,1,888,198.83l2.61-8.35,1.23-3.92,4.34-13.95L899.8,161l.67.18,7.84,2.12,2.7.74.24,0c.64,1.16,1.32,2.35,2,3.56.9,1.56,1.82,3.1,2.72,4.56,2,3.32,4,6.36,5.59,8.86,2.54,3.89,4.34,6.49,4.56,6.82Zm2.32-38.4-.73-1.09-1.59-2.41c-2.11-3.23-4.46-7-6.82-10.94l-.46-.78-1.16-2c-.22-.39-.44-.78-.67-1.17l-1.11-2c-.51-.9-1-1.77-1.47-2.67s-1-1.74-1.39-2.61c-1.37-2.6-2.63-5.17-3.7-7.6-.41-.92-.78-1.81-1.13-2.68a36.82,36.82,0,0,1-2.34-7.7,12.94,12.94,0,0,1-.21-2.22c0-.33,0-.68,0-1a22.57,22.57,0,0,1,2.12-8.65,23,23,0,0,1,9.92-10.42,22.67,22.67,0,0,1,21.68.12,22.91,22.91,0,0,1,9.78,10.56,22.41,22.41,0,0,1,2,8.67c0,.25,0,.48,0,.73A12.84,12.84,0,0,1,951,138a38.47,38.47,0,0,1-2.4,7.7c-.35.86-.72,1.77-1.14,2.69-1.09,2.43-2.34,5-3.73,7.62-.44.86-.92,1.74-1.4,2.62l-.73,1.34-1.76,3.14-.83,1.42-.2.35-1.45,2.47c-2.44,4.06-4.87,7.91-7,11.16-.39.58-.76,1.16-1.13,1.7C929,180.59,928.71,181,928.48,181.33Zm1.87,38.4V188.47l.41-.6c0-.06,2.07-3,5-7.44,1.37-2.12,3-4.59,4.59-7.28,1.09-1.77,2.22-3.64,3.34-5.55.67-1.14,1.31-2.26,1.94-3.36.18-.35.37-.69.56-1l1.86-.42,8-1.78.68-.16,3.66,11.75,4.34,13.95,1.22,3.92,2.61,8.35A49.13,49.13,0,0,1,930.35,219.73Zm41.08-25.6-3-9.51L967,179.78l-5.12-16.46,6.06,4,2.91,1.89,6.56,4.27A48.76,48.76,0,0,1,971.43,194.13Zm-29.81-61a13.59,13.59,0,0,0-1-3.29,13.36,13.36,0,0,0-24.1-.15h0a13.06,13.06,0,0,0-1.32,5.81,13.47,13.47,0,0,0,1.08,5.28,12.81,12.81,0,0,0,1.39,2.45,13.34,13.34,0,0,0,21.66.14,12.63,12.63,0,0,0,1.42-2.45,13.39,13.39,0,0,0,.94-7.79Zm-4.9,6.45A8.89,8.89,0,0,1,935,142a9.19,9.19,0,0,1-13.1-.09,8.57,8.57,0,0,1-1.71-2.45,8.94,8.94,0,0,1-.91-4,9.2,9.2,0,0,1,15.14-7h0a9.28,9.28,0,0,1,2.47,3.3,9.14,9.14,0,0,1,.79,3.73A9,9,0,0,1,936.72,139.59Z"/><path class="cls-2" d="M928.25,283.73a42.57,42.57,0,1,0,42.58,42.58A42.58,42.58,0,0,0,928.25,283.73Zm0,82.35A39.78,39.78,0,1,1,968,326.31,39.82,39.82,0,0,1,928.25,366.08Zm0-71.94a31.9,31.9,0,0,0-19.61,6.68l-4-1.84a2.8,2.8,0,0,0-3.71,3.72l1.84,4a32.15,32.15,0,0,0,45.09,45.1l4,1.84a2.86,2.86,0,0,0,1.17.27,2.8,2.8,0,0,0,2-.83,2.76,2.76,0,0,0,.56-3.15l-1.84-4a32.16,32.16,0,0,0-25.48-51.78Zm1.51,22.67,4.12,1.9-13.22,13.22-1.92-4.16-2.29-4.94-7.22-15.55,15.56,7.21Zm17.52,28.53-15.57-7.23-5-2.3-4.12-1.91,13.23-13.21,1.89,4.11,2.32,5Zm-19,10.33a29.35,29.35,0,0,1-24.12-46.09l12.52,27a2.75,2.75,0,0,0,1.35,1.36l27,12.52A29.21,29.21,0,0,1,928.25,355.67ZM952.37,343l-12.51-27a2.79,2.79,0,0,0-1.35-1.36l-27-12.52A29.34,29.34,0,0,1,952.37,343Zm-24.12-72.89a56.17,56.17,0,1,0,56.17,56.18A56.17,56.17,0,0,0,928.25,270.13Zm0,105.37a49.2,49.2,0,1,1,49.19-49.19A49.24,49.24,0,0,1,928.25,375.5Z"/><path class="cls-2" d="M938.19,433.06c-2.39-8.44-6.56-16.56-14.39-21.7L920.16,409l-.64,4.3a199.78,199.78,0,0,1-3.88,20.32,56.19,56.19,0,1,0,22.55-.54Zm39.25,55.28a48.76,48.76,0,0,1-3.25,17.59c-3.44-1.23-6.92-2.3-10.41-3.22,4.72-17.37-.75-38.22-14-51.5l-4.92-4.93.18,7.66c.06,2.19.25,8.58-2,9.64-.65-1.69-1.11-6.18-1.47-9.88-.39-3.93-.86-8.46-1.69-13.15A49.27,49.27,0,0,1,977.44,488.34Zm-55.8-55.77c.91-3.84,1.77-8.3,2.65-13.67a33,33,0,0,1,7.81,13.42,61,61,0,0,1,1.9,7.17,139.52,139.52,0,0,1,2,14.77c.77,7.65,1.23,12.26,3.88,14.22a4.4,4.4,0,0,0,3.38.78c4.74-.59,6.46-4.76,7.06-8.82,8.59,11.76,11.73,27.52,8,40.92a29.19,29.19,0,0,1-1.32,4c-.06.18-.13.35-.2.53-4.93,11.91-15.13,18.47-28.72,18.47-11.48,0-20.73-5.09-26.07-14.33a31.27,31.27,0,0,1-2.15-4.48,31.62,31.62,0,0,1-1.3-4,40.16,40.16,0,0,1,3.88-29.71c2.59-4.51,4.84-8.08,6.82-11.23,4.48-7.12,7.65-12.17,10.35-20.7C920.33,437.73,921,435.32,921.64,432.57Zm-8.47,8.95c-2.27,6-4.95,10.29-8.6,16.12-2,3.19-4.29,6.82-6.94,11.41a45.82,45.82,0,0,0-4.46,33.79c-3.59.93-7.18,2-10.8,3.23a49.21,49.21,0,0,1,30.8-64.55Zm15.08,96A49.27,49.27,0,0,1,884,509.88q5.22-1.74,10.38-3.07a37.28,37.28,0,0,0,2.79,6c6.38,11,17.34,17.12,30.9,17.12,15.76,0,28.11-8,33.88-21.92.19-.43.37-.88.52-1.32q5,1.33,10,3.09A49.22,49.22,0,0,1,928.25,537.54Zm-22.36-37.43a26.55,26.55,0,0,0,1.27,4,23.19,23.19,0,0,0,3.43,5.82c4.16,5.09,10.21,7.79,17.51,7.79,11.15,0,16.85-5.05,19.68-9.31A22.48,22.48,0,0,0,950,504a25.19,25.19,0,0,0,1.16-4,35.8,35.8,0,0,0-1.81-19.74l-1.75-4.17-4,2.08a12.16,12.16,0,0,1-5.37,1.56c-7.63,0-10.56-14.83-11-20l-.82-10.24-6.57,7.9c-.45.54-11.08,13.48-14.09,28.15A33.65,33.65,0,0,0,905.89,500.11Zm4-13.79c2.84-13.81,13.22-26.31,13.22-26.31s1.89,23.87,15.15,23.87a16,16,0,0,0,7.3-2,31.62,31.62,0,0,1,1.5,17.49,20,20,0,0,1-1.28,4c-2.48,5.73-7.76,10.17-17.66,10.17-8.4,0-13.85-4.14-16.64-10a21.7,21.7,0,0,1-1.43-4A29.41,29.41,0,0,1,909.87,486.32ZM919,502.67h0a10.85,10.85,0,0,0,8.79,5.15H928c4.16,0,6.69-2.23,8.2-5.36a17.38,17.38,0,0,0,1.4-4.08,33.42,33.42,0,0,0,.72-5.42l.17-3.08-2.93,1c-4.27,1.45-8.13,1.69-12.28-10l-1.84-5.19-2.08,5.11c-2,5-3.46,12.09-2,17.87A14,14,0,0,0,919,502.67Zm2.59-15c3.18,6.17,7.08,8.66,12.27,7.93a21.22,21.22,0,0,1-.51,2.59,8.4,8.4,0,0,1-2.08,4.12,4.44,4.44,0,0,1-3.23,1.33,7.19,7.19,0,0,1-3.73-1.27,6.21,6.21,0,0,1-1.74-1.89,8.45,8.45,0,0,1-1-2.14C920.65,495.29,920.82,491.37,921.61,487.67Z"/><path class="cls-2" d="M1152.12,146.52a13.12,13.12,0,0,0,.6-3.07c1.3-10.91-4.67-21.86-20.75-23.75a34.86,34.86,0,0,0-4.1-.26,27.4,27.4,0,0,0-2.93.16,56.19,56.19,0,1,0,27.18,26.92Zm-50.75,73.27a49.06,49.06,0,0,1-37.21-17.08h74.43A49.07,49.07,0,0,1,1101.37,219.79Zm-49.18-49.19v0a46.14,46.14,0,0,1,6.62,1c1,.22,1.91.46,2.82.74h0a35.88,35.88,0,0,1,8,3.56h0c1.13.67,2.23,1.4,3.31,2.18,2.91,2.09,5.72,4.53,8.8,7.21,2.39,2.1,4.86,4.24,7.66,6.48,3.81,3,9.25,5.23,15.22,6.82h-43.73A48.9,48.9,0,0,1,1052.19,170.6Zm56.42-20a21.28,21.28,0,0,0-26.17,29.7,77.34,77.34,0,0,0-10.36-7.85c-.06-.61-.07-1.23-.07-1.84a29.4,29.4,0,0,1,29.36-29.38,29.94,29.94,0,0,1,4.78.39A31.37,31.37,0,0,0,1108.61,150.59ZM1130.7,172a1.26,1.26,0,0,0,.43-.22c.54-.43,1.35-1.1,2.37-2,1.55-1.31,3.53-3.08,5.65-5.15a14.83,14.83,0,0,1,1.61.43,20.85,20.85,0,0,1,3,1.15,29.6,29.6,0,0,1,6.85,4.5,48.77,48.77,0,0,1-8.72,27.85c-1.36,0-4.29,0-8.14-.23-1.13-.05-2.35-.12-3.62-.21-3.2-.2-6.8-.53-10.5-1-1.42-.18-2.86-.39-4.31-.61-6.61-1.06-13.25-2.67-18.39-5.1h0a25.53,25.53,0,0,1-4.82-2.94c-1.17-.94-2.28-1.84-3.35-2.75.45-.17.88-.35,1.31-.54a70.1,70.1,0,0,0,7.23-3.66c1-.59,2.08-1.2,3.09-1.83h0c2-1.22,4-2.49,6-3.75l3.67-2.33c1-.63,2-1.24,3-1.83,2-1.22,4-2.37,6.07-3.4.27.39.54.74.78,1.06s.6.81.82,1.09a1.37,1.37,0,0,0,1.1.54,1.2,1.2,0,0,0,.28,0l.61-.11a11.49,11.49,0,0,1,1.93-.15,11.88,11.88,0,0,1,5.11,1.17,1.52,1.52,0,0,0,.58.13A1.17,1.17,0,0,0,1130.7,172Zm-38.43-1.35a9.1,9.1,0,0,1,18-2.11c-2.09,1.29-4.14,2.6-6.16,3.88-2.89,1.84-5.72,3.64-8.51,5.23A9.07,9.07,0,0,1,1092.27,170.6Zm18.16-16.1a94.73,94.73,0,0,0,6.19,10.42c-1.39.7-2.76,1.45-4.13,2.23a11.64,11.64,0,1,0-19.26,11.76,54.6,54.6,0,0,1-6.43,3,18.47,18.47,0,0,1,23.63-27.44Zm-2.86-22.11c-.13.35-.25.68-.36,1.05s-.19.58-.27.88a22.29,22.29,0,0,0-.59,2.72l-.12.93c0,.27-.08.54-.1.82a32.11,32.11,0,0,0-36.91,31.81v.25a40.8,40.8,0,0,0-7.53-2.9,39.81,39.81,0,0,1,39.68-37.14,38.08,38.08,0,0,1,6.62.56A10,10,0,0,0,1107.57,132.39Zm42.7,32.77a29.36,29.36,0,0,0-7.34-3.82c0-.19-.07-.37-.11-.53a63.87,63.87,0,0,0,5.06-6.24A48.36,48.36,0,0,1,1150.27,165.16ZM1127.87,125a29.37,29.37,0,0,1,3.44.21,28.87,28.87,0,0,1,4.33.85,16.49,16.49,0,0,1,8.81,5.53,13.93,13.93,0,0,1,2.68,6.42,17.64,17.64,0,0,1,.06,4.77l0,.12v.13a13.39,13.39,0,0,1-1.91,5.33,42.76,42.76,0,0,1-4.42,6.2c-.65.8-1.34,1.59-2.07,2.39-.91,1-1.85,2-2.83,2.94-.64.66-1.3,1.3-2,1.94l-1.32,1.23c-.44.39-.85.78-1.29,1.16l-1.11,1c-.25.23-.52.45-.77.66a16.14,16.14,0,0,0-3-.59,15.47,15.47,0,0,0-1.92-.12c-.31,0-.61,0-.94,0l-.71-1c-.39-.53-.76-1.08-1.14-1.64-4.51-6.52-8.5-13.88-9.74-19.33a14.59,14.59,0,0,1-.39-3.11,7.15,7.15,0,0,1,.1-1.26v-.12l0-.13a17.08,17.08,0,0,1,1.75-5.9,14.11,14.11,0,0,1,1.57-2.43,13.3,13.3,0,0,1,6.72-4.42A20.43,20.43,0,0,1,1127.87,125Zm-26.5-3.62a49.19,49.19,0,0,1,13.26,1.81,17.32,17.32,0,0,0-2.83,2.41,18.1,18.1,0,0,0-2.26,2.86c-.07.1-.13.2-.19.3a41.06,41.06,0,0,0-8-.76,42.59,42.59,0,0,0-42.45,39.27,46.44,46.44,0,0,0-6.55-.9v0A49.25,49.25,0,0,1,1101.37,121.4Zm21,52.49a14.76,14.76,0,0,0-2.31.41,1.56,1.56,0,0,0-.66.32,1.73,1.73,0,0,0-.64,1.14l-.18,1.54-.38,3.29a1.73,1.73,0,0,0,.71,1.59,1.06,1.06,0,0,0,.2.12,10.59,10.59,0,0,0,6.19,2.1,10.91,10.91,0,0,0,2.1-.21,13.47,13.47,0,0,0,2.39-.76,1.68,1.68,0,0,0,1-1.38l.56-4.84a1.7,1.7,0,0,0-.92-1.71.56.56,0,0,0-.16-.07,14.27,14.27,0,0,0-6.55-1.61C1123.32,173.82,1122.86,173.85,1122.38,173.89Zm5.14,6.67a7.41,7.41,0,0,1-2.21.35,6.68,6.68,0,0,1-3.5-1l.28-2.47a12.22,12.22,0,0,1,1.69-.12,10.65,10.65,0,0,1,4,.78Z"/><path class="cls-2" d="M1101.37,270.13a56,56,0,0,0-21.49,4.26l-.31-.13a11.24,11.24,0,0,0-1.19-.45,14.44,14.44,0,0,0-1.54-.39h0l-.21,0c-.52-.1-1.07-.17-1.62-.22h-.29c-.41,0-.81-.06-1.25-.06H1073a18,18,0,0,0-2,.15c-10,1.17-13.66,7.95-12.87,14.7a9.92,9.92,0,0,0,.42,2.06,56.17,56.17,0,1,0,42.88-19.89Zm5.45,55.87-.14-4-.14-4.2,6.33-1.38.24,4.69.21,4.2.16,3.17,0,.32-.56-.24-5.79-2.4Zm6.22-11.79-4.3,1,2.65-3.12,7.14-3.07Zm3.25,14.69,0-.36,0-.56-.16-3-.21-4.19-.25-5.19,8.65-8.25,1-.92,10.72,8.16,0,5.17,0,4.19v2c-1.23.08-2.47.18-3.71.32a.17.17,0,0,0-.12,0A124.07,124.07,0,0,0,1116.29,328.9Zm23.89-4.91c3.42.07,6.88.24,10.34.52,0,.58,0,1.18,0,1.78v.53c-3.15-.34-6.61-.58-10.36-.65Zm-75.84-42.49c1.41-1.84,3.89-3,7.17-3.4a9.87,9.87,0,0,1,1.2-.1,6.52,6.52,0,0,1,.76,0c4.12,0,6.28,1.69,7.41,3.61a9.11,9.11,0,0,1,1.15,3.55l0,.22c.44,2.6-2.38,8.66-6.66,14.62a11.32,11.32,0,0,0-2.54.31,51.69,51.69,0,0,1-7.33-7.62c-1.55-2-2.48-3.84-2.58-5.05v-.22a9.39,9.39,0,0,1,0-2A7.13,7.13,0,0,1,1064.34,281.5Zm-2,14.95a63.88,63.88,0,0,0,9.16,9,.92.92,0,0,0,.55.19.9.9,0,0,0,.36-.08,8.28,8.28,0,0,1,1.56-.55,7.86,7.86,0,0,1,1.61-.18,7.77,7.77,0,0,1,1.57.17h.17a.86.86,0,0,0,.68-.33c1.8-2.34,10-13.42,8.93-20.13a14.88,14.88,0,0,0-.79-3.35,10.82,10.82,0,0,0-.44-1l-.21-.42a49.2,49.2,0,0,1,64.76,40.52c-3.36-.25-6.71-.4-10-.47l0-7.31-14.59-11.11-16.73,7.2-6.52,7.72.22,6.37a180.16,180.16,0,0,0-48.7,16.2,49.22,49.22,0,0,1,8.47-42.43Zm-5.19,45.47a175.17,175.17,0,0,1,45.56-15l.07,1.94,3,1.22a188.38,188.38,0,0,0-34.4,11.85q-6.09,2.71-12.47,6.07l-1.27.65a51.2,51.2,0,0,1-2.49-5.72C1055.74,342.57,1056.43,342.24,1057.1,341.92Zm2.08,9.62c-.1-.15-.19-.3-.28-.46l1.22-.62c6.3-3.3,12.36-6.13,18.21-8.54a176.61,176.61,0,0,1,31.86-10l4.16,1.72.67-.17a121.3,121.3,0,0,1,23.2-3.46l2-.1v-1c3.7.07,7.13.31,10.24.67-.08,1.17-.19,2.33-.36,3.48h0c-24.7-2.13-63.65,9.32-85.91,25.34h0A48.91,48.91,0,0,1,1059.18,351.54Zm6.91,9c21.77-15.55,59.5-26.65,83.53-24.65h0c-.26,1.38-.6,2.75-1,4.09h0c-40.86.14-67.55,25.57-71.21,29.27a48.92,48.92,0,0,1-11.32-8.72Zm78.79-11.3h0c-22.53,2-40.91,19.53-47.08,26.13A48.69,48.69,0,0,1,1080,370.6c5.27-5.13,30.27-27.33,67.72-27.81A51,51,0,0,1,1144.88,349.23Zm-43.32,26.27h0c10.33-10.49,25.68-21,41.57-23.22A49.18,49.18,0,0,1,1101.56,375.5Zm-29.29-62.78a7,7,0,0,0,2.79.6,6.63,6.63,0,0,0,4-1.38,1.05,1.05,0,0,0,.44-1l-.34-3a1.1,1.1,0,0,0-.79-.9,9.35,9.35,0,0,0-2.32-.3,9,9,0,0,0-4.14,1,1.08,1.08,0,0,0-.58,1.07l.35,3A1.07,1.07,0,0,0,1072.27,312.72ZM1076,309a6.69,6.69,0,0,1,1,.07l.17,1.42a4.15,4.15,0,0,1-2.1.6,4.29,4.29,0,0,1-1.29-.21l-.17-1.42A6.51,6.51,0,0,1,1076,309Z"/><path class="cls-2" d="M1157.54,488.36a56.18,56.18,0,0,0-71.82-54,7,7,0,0,0-.81-.27,20.93,20.93,0,0,0-2.24-.58h0c-.67-.14-1.37-.25-2.08-.34h0a26.58,26.58,0,0,0-2.74-.19l-.58,0c-.63,0-1.27,0-1.93.07s-1.32.1-2,.18c-15.53,1.83-21.3,12.4-20,22.92a12.3,12.3,0,0,0,.45,2.46,56.17,56.17,0,0,0,12.08,73.19h0l0,.3.3,0h0a56.15,56.15,0,0,0,70.54-.08l.33,0,0-.32A56.11,56.11,0,0,0,1157.54,488.36Zm-7.45,6.8c-1,3.8-2.13,7.77-2.79,9.69a303,303,0,0,0-52.28-3.37l2.58-2,18.27-8.29,10.05,3.49,11.54-3.73,13,1.23C1150.34,493.22,1150.23,494.19,1150.09,495.16Zm-88.67-50.3c2.55-3.31,6.89-5.4,12.56-6.07l1.14-.11c.74-.07,1.45-.1,2.15-.1a16.36,16.36,0,0,1,9.75,2.72c4.17,3,5.3,7.7,5.59,10.23l0,.12v.13c.91,5.52-5,16.51-11.38,25.16l-.8,0a16.5,16.5,0,0,0-4.68.67c-6.06-5.12-12.2-11.54-15.14-16.8a12.67,12.67,0,0,1-1.8-5v-.25a16,16,0,0,1,0-3.78A13.21,13.21,0,0,1,1061.42,444.86Zm-4,21.34c5.33,7.87,14.15,15.22,16.66,17.26a1.39,1.39,0,0,0,.85.29,1.34,1.34,0,0,0,.56-.12,11.89,11.89,0,0,1,1.82-.69,10.84,10.84,0,0,1,1.35-.29l.42-.06h0c.34,0,.67-.06,1-.07a10.51,10.51,0,0,1,1.48.05,7.34,7.34,0,0,1,1.28.19,1.09,1.09,0,0,0,.26,0,1.35,1.35,0,0,0,1.06-.53c2.82-3.66,15.61-20.91,13.91-31.39a22,22,0,0,0-.77-3.78q-.08-.29-.18-.6a19.46,19.46,0,0,0-3.68-6.71,48.35,48.35,0,0,1,7.85-.63,49.25,49.25,0,0,1,49.19,48.9l-13.57-1.3-11,3.57-10.31-3.59-20,9.09-7.8,5.83.06.08c-4.5.2-9,.5-13.47.9l-9.08-8.9-7,1-5.93-1.71h0c-.15-1.53-.22-3.08-.22-4.64A48.82,48.82,0,0,1,1057.46,466.2Zm-2.37,38.8a46.37,46.37,0,0,1-2-7.46l5,1.44,5.88-.82,5.11,5Q1062,503.92,1055.09,505ZM1126,530.92a49.11,49.11,0,0,1-49.06.11c2.32-.19,4.64-.38,6.94-.52l-.16-2.79c-3.54.21-7.09.51-10.64.84h0a48.67,48.67,0,0,1-7.17-6.18c2.52-.31,5-.59,7.55-.82l-.26-2.78c-3.18.3-6.37.67-9.55,1.08l0,0a52.17,52.17,0,0,1-3.7-5c7.7-1.09,15.5-1.9,23.3-2.38l-.17-2.78c-8.26.51-16.54,1.38-24.68,2.57v0c-.58-1-1.12-2.1-1.62-3.2a300.21,300.21,0,0,1,89.33-.08c-.5,1.09-1,2.16-1.62,3.2h0c-6.22-.9-12.54-1.61-18.84-2.11l-.22,2.79c5.85.46,11.73,1.11,17.51,1.92h0a49.83,49.83,0,0,1-13.08,13.76c-3.71-.36-7.66-.71-10.93-.93l-.18,2.79c2.21.14,4.75.35,7.3.58Zm-50.59-36.16a11.34,11.34,0,0,0,4.33.93,10.39,10.39,0,0,0,6.16-2.15,1.64,1.64,0,0,0,.69-1.53l-.55-4.66a1.65,1.65,0,0,0-1.24-1.42,14.88,14.88,0,0,0-3.58-.45,14,14,0,0,0-6.48,1.61,1.67,1.67,0,0,0-.89,1.66l.55,4.67A1.66,1.66,0,0,0,1075.41,494.76Zm5.81-5.79a9.89,9.89,0,0,1,1.52.11l.25,2.2a6.44,6.44,0,0,1-3.25.93,7,7,0,0,1-2-.33l-.25-2.2A9.9,9.9,0,0,1,1081.22,489Zm27.37,28.53-.06,2.79c-9.83-.22-19.77,0-29.55.78l-.21-2.78C1088.64,517.54,1098.67,517.28,1108.59,517.5Zm22.69,4.17c-1.57-.15-3.13-.3-4.7-.43l.23-2.78c1.58.13,3.17.28,4.75.43Zm-38.79,5.66.08,2.79c-1.79,0-3.57.12-5.36.21l-.14-2.79C1088.88,527.46,1090.68,527.39,1092.49,527.33Zm17.43-66.64-1.1-2.56c3.29-1.42,6,.39,7.42,1.62,1.6-1,4.76-2.51,7.43-.94l-1.41,2.41c-1.68-1-4.47.75-5.31,1.43l-1.1.89-.88-1.1C1114.88,462.33,1112.58,459.54,1109.92,460.69Zm14.84,6.63c.73-1.83,2.23-3.87,4.72-3.61l-.24,2.38h-.14c-1.64,0-2.41,3-2.42,3.06l-.34,1.49-1.36-.69c-.12-.06-2.9-1.41-4.57.43l-1.77-1.6A5.81,5.81,0,0,1,1124.76,467.32Z"/><path class="cls-2" d="M947.69,597.43c-1.85-5-6.46-9-14.53-10a24.65,24.65,0,0,0-3-.18c-5.57,0-9.66,2-12.32,5-.29.33-.57.69-.84,1.06s-.5.74-.72,1.13a8.13,8.13,0,0,0-.46.88h0a56.13,56.13,0,1,0,31.91,2Zm8.6,84.74c-1.34-.12-2.68-.25-4-.35-2.11-.16-4.22-.32-6.32-.44l-.17,2.79,2.76.18c1.52.1,3.06.21,4.58.35,3.07.25,6.13.56,9.16.9a49.07,49.07,0,0,1-68.14-.05c2.65-.31,5.88-.64,9.11-.94h0c1.52-.15,3-.28,4.48-.39L911,684l-.18-2.79c-2,.14-4.35.32-6.71.53l-4,.37c-2.89.28-5.65.57-7.81.84l.1.86a48.79,48.79,0,0,1-9.67-15c2.06-.29,4.39-.59,6.82-.88,1-.13,1.95-.24,2.94-.35,2.78-.31,5.6-.6,8.21-.84,1.08-.11,2.14-.21,3.14-.28l.44,0-.22-2.77-1.82.15-3,.27c-2.57.25-5.29.53-7.94.85-1,.09-1.94.22-2.89.33-2.39.29-4.67.6-6.71.89-.36-1.06-.7-2.13-1-3.23,2.17-.35,4.36-.66,6.59-.95.93-.13,1.88-.24,2.83-.35,2.55-.32,5.13-.59,7.74-.84l2.88-.25q4.26-.36,8.59-.6c1-.07,2.06-.11,3.11-.17,2.9-.13,5.85-.23,8.77-.3,4.66-.09,9.34-.09,14,0,2.94,0,5.87.15,8.79.28,1,0,2.07.09,3.11.16,2.87.16,5.74.35,8.58.58l2.87.25c2.61.23,5.2.5,7.76.79l2.83.35c2.23.28,4.42.59,6.6.91-.33,1.21-.69,2.4-1.09,3.57-2.22-.35-4.44-.67-6.68-1l-2.88-.36c-2.64-.33-5.29-.61-7.94-.88l-3-.28c-2.53-.21-5.07-.4-7.59-.56l-.17,2.79c2,.13,4.09.27,6.14.45,1,.08,2.11.17,3.15.28,2.74.25,5.47.53,8.19.86,1,.12,2,.24,2.95.38,2.27.29,4.54.61,6.79,1a51.88,51.88,0,0,1-2.44,5c-2.21-.3-4.77-.58-7.19-.86l-3.18-.33-4.38-.42-.26,2.78,2.68.25c1,.1,2.09.21,3.3.35,2.39.23,5.08.54,7.47.83a48.35,48.35,0,0,1-5.63,7.19l.1-.81Q960.24,682.53,956.29,682.17Zm-67.82-32a39.83,39.83,0,0,1,28.29-38.07,65.73,65.73,0,0,0,3.84,6.85,32.13,32.13,0,0,0-24.5,31.22,31.18,31.18,0,0,0,.67,6.53c-2.55.25-5.09.53-7.6.84A39,39,0,0,1,888.47,650.14Zm36.34-25.22a1,1,0,0,0,.81.41l.21,0a9.14,9.14,0,0,1,1.87-.2,8.92,8.92,0,0,1,3.78.87.94.94,0,0,0,.43.1,1.09,1.09,0,0,0,.64-.23c.8-.64,2.41-2,4.34-3.76a29.4,29.4,0,0,1,20.73,28.06,28.3,28.3,0,0,1-.67,6.22q-4.07-.33-8.19-.58a20.93,20.93,0,0,0,.77-5.64,21.25,21.25,0,0,0-16.83-20.78,1.23,1.23,0,0,0-.62-.74,10.77,10.77,0,0,0-5-1.23,10.9,10.9,0,0,0-2.74.35,1.24,1.24,0,0,0-1,1.07l-.07.65A21.25,21.25,0,0,0,907,650.14a20.46,20.46,0,0,0,.79,5.68c-2.75.17-5.5.36-8.21.6a29.35,29.35,0,0,1,22.67-35C923.37,623,924.31,624.27,924.81,624.92Zm19.63-11.09A39.81,39.81,0,0,1,968,650.14a37.89,37.89,0,0,1-.68,7.27c-2.52-.29-5-.56-7.61-.79v0a31.18,31.18,0,0,0,.66-6.46,32.15,32.15,0,0,0-21.26-30.25A55.47,55.47,0,0,0,944.44,613.83Zm-34.66,36.31A18.5,18.5,0,0,1,923,632.43a1.26,1.26,0,0,0,.52,1.13,8.55,8.55,0,0,0,3,1.43,6.78,6.78,0,0,0,1.68.21l.27,0h0l.57-.06a4.35,4.35,0,0,0,.52-.06h0a9.2,9.2,0,0,0,1.09-.28,7.88,7.88,0,0,0,.85-.3,1.25,1.25,0,0,0,.78-1l.15-1.28a18.43,18.43,0,0,1,13.41,23.45c-2.4-.13-4.81-.21-7.24-.28a11.47,11.47,0,0,0,1.24-5.21,11.65,11.65,0,0,0-23.29,0,11.51,11.51,0,0,0,1.24,5.22c-2.42.07-4.82.17-7.22.29A18.2,18.2,0,0,1,909.78,650.14Zm16.12-18.38.18-1.51a6.06,6.06,0,0,1,1-.07,7.46,7.46,0,0,1,2.74.5l-.13,1.06-.05.45a5.29,5.29,0,0,1-1.43.22,4.53,4.53,0,0,1-2.23-.6Zm-5.15,23.53a9,9,0,0,1-1.61-5.15,9.11,9.11,0,0,1,18.22,0,9,9,0,0,1-1.59,5.12C930.76,655.17,925.74,655.18,920.75,655.29Zm56.69-5.15a49,49,0,0,1-.74,8.53c-2.16-.34-4.35-.64-6.55-.91a43.45,43.45,0,0,0,.68-7.62A42.55,42.55,0,0,0,946,611.47a15.2,15.2,0,0,0,2.41-6.16A49.22,49.22,0,0,1,977.44,650.14Zm-47.3-57.3a19.64,19.64,0,0,1,2.37.14,15.39,15.39,0,0,1,6.3,2,8.83,8.83,0,0,1,2.42,2.15,9.59,9.59,0,0,1,1.81,6.11c0,.35,0,.71-.08,1.09l0,.12v.13a11.48,11.48,0,0,1-2.19,4.88c-.52.75-1.12,1.56-1.8,2.39a58.85,58.85,0,0,1-6.18,6.47c-.57.54-1.19,1.07-1.8,1.6a15.16,15.16,0,0,0-3.22-.39c-.36-.5-.71-1-1-1.49a63.21,63.21,0,0,1-4.34-7.21c-.47-.92-.89-1.8-1.24-2.64-1.14-2.69-1.67-4.92-1.44-6.36l0-.11v0l0-.12a9.33,9.33,0,0,1,4.6-7.45A12.12,12.12,0,0,1,930.14,592.84Zm-16.06,10.21a20.38,20.38,0,0,0,1.55,6.43,42.59,42.59,0,0,0-30,40.66,41.94,41.94,0,0,0,.71,7.73q-3.33.42-6.56,1a49.26,49.26,0,0,1,34.25-55.77Zm34,68.69,2.78.21-.09,1.09-.12,1.68-1.61-.11c-1.39-.1-2.79-.19-4.18-.26h0c-7.89-.45-15.86-.59-23.74-.41l-.06-2.79c1.19,0,2.36,0,3.53,0q3.6,0,7.2,0Q940,671.21,948.13,671.74Zm-45.27.37.24,2.78-4.7.43-.28-2.77C899.7,672.39,901.29,672.24,902.86,672.11ZM937.35,681c1.74,0,3.5.12,5.26.21l-.14,2.79c-1.79-.09-3.57-.16-5.37-.21l.1-2.74v0h.15Z"/><path class="cls-2" d="M928.25,749.68a56.17,56.17,0,1,0,56.17,56.17A56.16,56.16,0,0,0,928.25,749.68Zm0,7a49.15,49.15,0,0,1,39.09,79h0c-30.16-4.1-51.52-4.12-78.24-.08h0a49.17,49.17,0,0,1,39.15-78.93ZM908.4,850.84c2.07-.22,4-.39,5.39-.46l-.14-2.78c-2.34.11-6.42.54-9.83.92h0a47.45,47.45,0,0,1-6.64-4.58c3.73-.46,7.11-.76,11.29-1.09l-.22-2.79c-5.11.41-9,.78-13.85,1.42h0c-.73-.69-1.44-1.4-2.09-2.12h0c24.35-3.49,44.46-3.46,71.86.1-.72.8-1.48,1.55-2.27,2.29h0a111.19,111.19,0,0,0-14.28-1.45l-1.24-.08-.17,2.79,1.23.08a109.09,109.09,0,0,1,11.7,1.06,49.13,49.13,0,0,1-6.79,4.61h0a233.53,233.53,0,0,0-26.93-1.33l0,2.79a215.33,215.33,0,0,1,22.11.89,49,49,0,0,1-39.11-.26Zm6.39-31.29a1,1,0,0,0,.43.1.75.75,0,0,0,.21,0,9.34,9.34,0,0,1,1.8-.19,8.48,8.48,0,0,1,3.66.84.78.78,0,0,0,.4.09,1.05,1.05,0,0,0,.64-.22c2.65-2.13,14.82-12.33,15.41-20.16.92-7.78-3.34-15.59-14.82-17a25,25,0,0,0-2.93-.18c-4.78,0-8.44,1.52-11,3.95-.32.29-.62.61-.91.93v0c-.28.32-.56.67-.81,1a11.23,11.23,0,0,0-.7,1.09,15.67,15.67,0,0,0-1.81,4.88h0c-.08.43-.15.87-.21,1.31-1.25,7.75,8.2,20.5,10.28,23.19A1.35,1.35,0,0,0,914.79,819.55Zm-5.31-22.61,0-.13,0-.11c.36-3.15,2.16-8.44,10.07-8.44a18,18,0,0,1,2.29.14c3.85.45,6.76,1.83,8.42,4a9.44,9.44,0,0,1,1.68,7l0,.13v.11c-.24,3.14-5,9.19-11.56,14.83a13.63,13.63,0,0,0-3.11-.37C912.2,807,909,800.05,909.48,796.94Zm12,25.9a10.42,10.42,0,0,0-4.78-1.2A10.78,10.78,0,0,0,914,822a1.25,1.25,0,0,0-.92,1l-.39,3.45a1.19,1.19,0,0,0,.51,1.13,7.62,7.62,0,0,0,4.54,1.59,8.2,8.2,0,0,0,3.21-.68,1.29,1.29,0,0,0,.76-1l.39-3.45A1.19,1.19,0,0,0,921.46,822.84Zm-2.3,3.45a5.06,5.06,0,0,1-1.4.21,4.67,4.67,0,0,1-2.27-.63l.18-1.46a7,7,0,0,1,1-.07,7.65,7.65,0,0,1,2.65.48Zm21.52,16.38-6-.12.06-2.79,6,.12Zm-34.14-65.41-2.1-1.15,2.1-1.15,1.15-2.1,1.15,2.1,2.12,1.15-2.12,1.15-1.15,2.12Zm11.68-10.11-3.11-1.7,3.11-1.7,1.69-3.11,1.71,3.1,3.11,1.71-3.11,1.7-1.71,3.11Zm15.35,10L931,775.74l2.56-1.39,1.4-2.56,1.41,2.56,2.56,1.39-2.56,1.42L935,779.72Zm12.91-4.36-3.13-1.71,3.13-1.69,1.69-3.12,1.71,3.12,3.11,1.69-3.11,1.71-1.71,3.13Zm5.87,14.71,3.11,1.71-3.11,1.69-1.7,3.11L949,790.9l-3.11-1.69L949,787.5l1.7-3.11ZM889.46,793l-3.13-1.71,3.13-1.69,1.71-3.12,1.69,3.12,3.13,1.69L892.86,793l-1.69,3.13Zm5.41,14.57,2.29,1.24-2.29,1.26-1.24,2.3-1.26-2.3-2.29-1.26,2.29-1.24,1.26-2.29Zm53.86-.11,2.07,1.14-2.07,1.12-1.13,2.07-1.13-2.07-2.08-1.12,2.07-1.14,1.14-2.08Zm14.53,10.3-1.63-.89,1.63-.89.89-1.63L965,816l1.63.89-1.63.89-.89,1.62Zm2.3-19.71-1.88-1,1.88-1,1-1.88,1,1.88,1.9,1-1.9,1-1,1.9Z"/><path class="cls-2" d="M1101.37,594a55.88,55.88,0,0,0-28,7.48c-.4-.07-.82-.13-1.24-.18a24.33,24.33,0,0,0-3-.19c-4.95,0-8.75,1.58-11.39,4.08a14.71,14.71,0,0,0-1.77,2c-.26.37-.5.74-.74,1.13s-.3.56-.44.86a6.3,6.3,0,0,0-.34.69c-.12.3-.25.59-.36.88s-.17.49-.24.74-.18.57-.25.87-.17.68-.24,1-.15.91-.2,1.37a13.75,13.75,0,0,0,.51,5.76A56.17,56.17,0,1,0,1101.37,594Zm47.18,70.07v0c-8.25-1.21-16.85-2.09-25.6-2.63-.48-2-2.24-3.2-3.61-4.12-1.63-1.1-2.4-1.72-2.42-2.53.44-.93,4.61-2.29,6.85-3,5-1.61,9.22-3,9.43-6.17s-3.21-4.21-6.52-5.22c-3.68-1.13-6.29-2.08-6.35-4,0-3.63,3.39-5.5,9-8.14,4.19-2,8.77-4.17,11-8.08h0a49.1,49.1,0,0,1,8.21,43.89ZM1101.37,601a49.11,49.11,0,0,1,36.46,16.2c-1.26,3.77-5.52,5.8-10,7.91-5.41,2.56-11,5.2-11,11.36.15,4.62,5.16,6.15,8.82,7.27,1.41.43,3.77,1.16,4.07,1.6-.4,1-4.72,2.39-7,3.15-5,1.62-9.24,3-9.24,6.23,0,2.88,2.28,4.41,4,5.53a16.45,16.45,0,0,1,1.35,1c-3.43-.17-6.87-.3-10.33-.36h0c-1-1.82-3.74-2.79-6.21-3.65-1.38-.49-4.62-1.62-4.63-2.28.4-.79,4-1.81,5.9-2.35,4.34-1.22,8.43-2.38,8.65-5.58.22-3.38-4.37-4.08-10.71-5.05-4-.63-11.54-1.78-11.6-3.73,0-1.23,1.87-1.85,5-2.75,4.49-1.27,10.65-3,10.53-10.11-.1-5.34-8.48-9-18-11.41a13.91,13.91,0,0,0-5.37-9A48.84,48.84,0,0,1,1101.37,601Zm-40.49,9a1,1,0,0,1,.17-.2,8.43,8.43,0,0,1,4.14-2.54,13.74,13.74,0,0,1,3.92-.52,21.6,21.6,0,0,1,2.36.14,17,17,0,0,1,4.61,1.16,9.75,9.75,0,0,1,4.05,2.92,8.15,8.15,0,0,1,1,1.63,9.53,9.53,0,0,1,.86,3.71,10.54,10.54,0,0,1-.07,1.93v.25c-.24,3.25-5.17,9.5-12,15.34a15,15,0,0,0-3.21-.39,62.19,62.19,0,0,1-6.25-10.49c-1.4-3.07-2.08-5.62-1.83-7.21l0-.13v-.12a11.7,11.7,0,0,1,.52-2.35A8.83,8.83,0,0,1,1060.88,609.93Zm-3.75,18.74a84.25,84.25,0,0,0,6.64,10.09,1,1,0,0,0,.82.4h.19a6.25,6.25,0,0,1,1-.15,7.42,7.42,0,0,1,.94-.06,8.69,8.69,0,0,1,3.76.87,1,1,0,0,0,.44.09,1.11,1.11,0,0,0,.65-.22c2.75-2.22,15.33-12.78,15.93-20.87a10.7,10.7,0,0,0,.1-1.24c9.71,2.64,14.3,5.69,14.34,7.83.07,4.12-3,5.28-8,6.69-3.62,1-7.7,2.18-7.56,6.24.15,4.82,7.47,5.95,14.55,7,2.56.39,6.29,1,7.56,1.62-.9.81-4.22,1.74-5.9,2.22-4.34,1.21-8.44,2.37-8.44,5.63s3.69,4.5,6.94,5.64l.85.3a317.78,317.78,0,0,0-47.66,3.43v0a49.14,49.14,0,0,1,2.89-35.52Zm16.14,61.82h0c3.68-.36,7.6-.71,10.83-.92l-.18-2.79c-4.15.27-9.44.77-13.9,1.24h0a49.46,49.46,0,0,1-11.6-14c6-.79,13.39-1.59,19-2l-.22-2.78c-6.08.48-13.94,1.34-20.17,2.19-.49-1-1-2.1-1.38-3.18a330.09,330.09,0,0,1,91.53-.13c-.48,1.19-1,2.35-1.53,3.48v0c-8.52-1.27-17.2-2.21-25.87-2.74l-.17,2.79c8.26.5,16.53,1.38,24.65,2.57a47.87,47.87,0,0,1-3.21,5h0c-4.58-.53-9.61-1-11.41-1.19l-.27,2.78c1.58.15,5.62.54,9.66,1a50.23,50.23,0,0,1-6.33,6.3l0,0c-4.51-.47-9.05-.88-13.56-1.15l-.17,2.79c3.48.21,7,.49,10.47.82a49.1,49.1,0,0,1-56.11-.07Zm50.54-10.18c-9.79-.75-19.73-1-29.55-.79l-.06-2.79c9.92-.22,19.94,0,29.82.79ZM1076,677.69l.23,2.78c-1.57.13-3.13.28-4.7.43l-.27-2.78C1072.82,678,1074.4,677.82,1076,677.69Zm34.33,8.87c1.8.06,3.61.13,5.41.21l-.14,2.79c-1.78-.09-3.57-.16-5.36-.21Zm-47.8-39.17a8.31,8.31,0,0,0,1.14.72,7.87,7.87,0,0,0,1.16.51,4.43,4.43,0,0,0,.59.18,7,7,0,0,0,1.81.24l.24,0a7.66,7.66,0,0,0,2.23-.4,8.57,8.57,0,0,0,.85-.3,1.26,1.26,0,0,0,.78-1l.41-3.57a1.27,1.27,0,0,0-.69-1.27,10.58,10.58,0,0,0-5-1.23,10.82,10.82,0,0,0-2.73.35,1.23,1.23,0,0,0-.95,1.07l-.42,3.57a1.24,1.24,0,0,0,.31,1A1,1,0,0,0,1062.51,647.39Zm2.52-3.3a6.46,6.46,0,0,1,1-.07,7.42,7.42,0,0,1,2.74.5l-.17,1.51a5.36,5.36,0,0,1-1.44.22,4.79,4.79,0,0,1-2.34-.65Zm68.63-11,1.62.89-1.61.89-.89,1.63-.89-1.63-1.64-.89,1.64-.89.89-1.62Zm6.36,10.66,1.63-.89.89-1.62.89,1.62,1.62.89-1.62.88-.89,1.64-.89-1.63Zm-58.35,5.07-1.64-.89,1.64-.89.89-1.62.88,1.62,1.62.89-1.61.89-.89,1.63Z"/><path class="cls-2" d="M1101.37,749.69a55.83,55.83,0,0,0-12.2,1.34,20.81,20.81,0,0,0-9.11-3.08,25.56,25.56,0,0,0-3.08-.19,19.79,19.79,0,0,0-5.18.65c-.52.14-1,.3-1.51.48s-.94.38-1.39.6a11.39,11.39,0,0,0-1.28.72,12.45,12.45,0,0,0-2.25,1.73,12.79,12.79,0,0,0-1,1h0c-.3.35-.59.7-.85,1.07s-.51.76-.74,1.15h0c-.23.39-.44.78-.64,1.2v0c-.2.4-.37.82-.54,1.25h0c-.15.44-.29.87-.41,1.32a12.6,12.6,0,0,0-.32,1.35c-.1.46-.17.92-.23,1.39a13.45,13.45,0,0,0,.32,5.1,56.17,56.17,0,1,0,40.37-17.12Zm49.05,52.37c.1,1.25.14,2.52.14,3.79,0,1.55-.07,3.07-.21,4.58h-20.24v-8.37ZM1148,821.59h-17.89v-8.37H1150A50.79,50.79,0,0,1,1148,821.59Zm-17.89-22.32v-6h18.82a46.86,46.86,0,0,1,1.19,6ZM1077,753.34a18.43,18.43,0,0,1,2.42.16c.41,0,.78.1,1.16.17,3.53.59,6.21,2,7.81,4.1a5.93,5.93,0,0,1,.38.54,10.25,10.25,0,0,1,1.42,6.88l0,.25c-.25,3.35-5.31,9.78-12.3,15.78a14,14,0,0,0-3.35-.41h0a62.57,62.57,0,0,1-6.52-11c-1.37-3.06-2-5.6-1.76-7.2l0-.13v-.12a1.82,1.82,0,0,1,.06-.35C1067.38,754.2,1074.1,753.34,1077,753.34Zm-13.16,20.79a78.6,78.6,0,0,0,7.72,12.08,1.07,1.07,0,0,0,.83.41.75.75,0,0,0,.21,0,8.84,8.84,0,0,1,5.76.67.86.86,0,0,0,.21.07l.23,0h0a1.09,1.09,0,0,0,.47-.12.83.83,0,0,0,.16-.09c2.8-2.26,15.65-13,16.26-21.31a16.26,16.26,0,0,0-1.23-8.69,49.14,49.14,0,0,1,52.61,30.55h-22.56V826h-6.18V799h-31.52v18.43H1076V804.15h-23.74A49,49,0,0,1,1063.82,774.13Zm2.74,66.43h0V812.94h-2.79v24.57q-1.48-1.75-2.78-3.63h0V812.94h-2.79v16.42a47.13,47.13,0,0,1-2.78-6h0V812.94h-2.69c-.16-1.06-.28-2.14-.36-3.21h18V844h0A45.76,45.76,0,0,1,1066.56,840.56Zm9.39,7.38V823.05h10.88v29.79h0A49.09,49.09,0,0,1,1076,847.94Zm33.38,6.46h0v-3.61h-2.8v4c-.92.09-1.85.16-2.78.19h0v-4.18H1101V855c-.93,0-1.86,0-2.78-.11h0v-4.14h-2.8v3.89c-1-.13-2-.28-3-.46v-49.6h20.36V853.7h0C1111.64,854,1110.5,854.2,1109.33,854.4Zm9-2.37V831.55h6.18v17.68h0A50.67,50.67,0,0,1,1118.35,852Zm11.76-6.3V835.54h10.46A49.08,49.08,0,0,1,1130.11,845.73Zm13.13-14.08c-.22.37-.46.73-.7,1.1h-12.43v-8.37h16.83A48.22,48.22,0,0,1,1143.24,831.65Zm-73-36.64a8.11,8.11,0,0,0,4.81,1.68,8.67,8.67,0,0,0,3.39-.73,1.26,1.26,0,0,0,.78-1l.43-3.65A1.3,1.3,0,0,0,1079,790a11,11,0,0,0-5-1.26,11.44,11.44,0,0,0-2.81.35,1.3,1.3,0,0,0-1,1.1l-.42,3.64A1.28,1.28,0,0,0,1070.24,795Zm2.54-3.43a10.55,10.55,0,0,1,1.13-.07,7.81,7.81,0,0,1,2.84.53l-.19,1.63a5.09,5.09,0,0,1-1.51.23,5,5,0,0,1-2.47-.69Zm22.59,17.36h2.8v4h-2.8Zm5.58,0h2.8v4H1101Zm5.58,0h2.8v4h-2.8Zm-11.16,7h2.8v4h-2.8Zm5.58,0h2.8v4H1101Zm5.58,0h2.8v4h-2.8Zm-11.16,7h2.8v4h-2.8Zm5.58,0h2.8v4H1101Zm5.58,0h2.8v4h-2.8Zm-11.16,7h2.8v4h-2.8Zm5.58,0h2.8v4H1101Zm5.58,0h2.8v4h-2.8Zm-11.16,7h2.8v4h-2.8Zm5.58,0h2.8v4H1101Zm5.58,0h2.8v4h-2.8Zm-11.16,7h2.8v4h-2.8Zm5.58,0h2.8v4H1101Zm5.58,0h2.8v4h-2.8Z"/></g></g></svg>